<svg
	version="1.1"
	xmlns="http://www.w3.org/2000/svg"
	xmlns:xlink="http://www.w3.org/1999/xlink"
	xmlns:svgjs="http://svgjs.com/svgjs"
	width="106"
	height="23"
	viewBox="0 0 106 23">
	<path
		d="M1137.88 4595.74H1134L1138.84 4573.59H1143.59L1147.99 4595.74H1144.09L1143.06 4590.42H1138.9299999999998ZM1141.88 4582.49C1141.65 4581.11 1141.3500000000001 4578.95 1141.13 4577.45H1141.0400000000002C1140.8100000000002 4578.96 1140.4800000000002 4581.179999999999 1140.2300000000002 4582.5L1139.3600000000004 4587.29H1142.6900000000003ZM1160.8 4591.15C1160.8 4592.589999999999 1160.8799999999999 4594.36 1160.94 4595.74H1157.5L1157.27 4593.889999999999H1157.19C1156.6100000000001 4595.03 1155.3600000000001 4595.999999999999 1153.8500000000001 4595.999999999999C1150.5600000000002 4595.999999999999 1148.92 4592.349999999999 1148.92 4587.749999999999C1148.92 4582.149999999999 1151.3600000000001 4579.419999999999 1154.02 4579.419999999999C1155.4 4579.419999999999 1156.3 4580.109999999999 1156.76 4581.089999999999H1156.82V4572.999999999999H1160.8ZM1156.76 4584.89C1156.61 4583.8 1156.03 4582.81 1155.09 4582.81C1153.49 4582.81 1152.8999999999999 4585.120000000001 1152.8999999999999 4587.830000000001C1152.8999999999999 4590.9400000000005 1153.7399999999998 4592.710000000001 1155.04 4592.710000000001C1155.6299999999999 4592.710000000001 1156.31 4592.400000000001 1156.68 4591.100000000001C1156.77 4590.840000000001 1156.8200000000002 4590.490000000002 1156.8200000000002 4590.080000000001V4585.850000000001C1156.8200000000002 4585.550000000001 1156.8200000000002 4585.210000000001 1156.7600000000002 4584.890000000001ZM1163.05 4587.76C1163.05 4581.99 1166.01 4579.42 1169.12 4579.42C1172.7399999999998 4579.42 1175.01 4582.52 1175.01 4587.67C1175.01 4594.27 1171.45 4596 1169.06 4596H1169.02C1165.35 4596 1163.05 4593.05 1163.05 4587.76ZM1171 4587.69C1171 4585.429999999999 1170.62 4582.48 1169.03 4582.48C1167.35 4582.48 1167 4585.429999999999 1167 4587.69C1167 4590.419999999999 1167.44 4592.94 1169.06 4592.94H1169.1C1170.62 4592.94 1171 4590.07 1171 4587.69ZM1181.22 4573V4581.36H1181.28C1182.06 4580.13 1183.11 4579.42 1184.6299999999999 4579.42C1187.6299999999999 4579.42 1189.1399999999999 4582.85 1189.1399999999999 4587.32C1189.1399999999999 4592.969999999999 1186.8899999999999 4596 1183.9699999999998 4596C1182.5799999999997 4596 1181.6599999999999 4595.38 1180.8199999999997 4593.82H1180.7399999999998L1180.5199999999998 4595.74H1177.0999999999997C1177.1599999999996 4594.41 1177.2299999999998 4592.59 1177.2299999999998 4591.15V4573ZM1181.37 4591.03C1181.77 4592.38 1182.4499999999998 4592.71 1182.9899999999998 4592.71C1184.5299999999997 4592.71 1185.1499999999999 4590.75 1185.1499999999999 4587.62C1185.1499999999999 4584.7699999999995 1184.4999999999998 4582.8099999999995 1182.9699999999998 4582.8099999999995C1182.2199999999998 4582.8099999999995 1181.5799999999997 4583.629999999999 1181.36 4584.5199999999995C1181.29 4584.79 1181.2199999999998 4585.23 1181.2199999999998 4585.5199999999995V4590.009999999999C1181.2199999999998 4590.409999999999 1181.2899999999997 4590.78 1181.37 4591.03ZM1198.13 4592.85C1199.3200000000002 4592.85 1200.3500000000001 4592.59 1201.1100000000001 4592.3L1201.65 4595.17C1200.5900000000001 4595.63 1198.96 4595.91 1197.39 4595.91C1193.1200000000001 4595.91 1190.7900000000002 4592.99 1190.7900000000002 4587.99C1190.7900000000002 4582.62 1193.4900000000002 4579.4 1197.0300000000002 4579.4C1200.4500000000003 4579.4 1202.3400000000001 4582.25 1202.3400000000001 4586.9C1202.3400000000001 4587.96 1202.3000000000002 4588.5599999999995 1202.2300000000002 4589.03L1194.6600000000003 4589C1194.7100000000003 4591.91 1196.2300000000002 4592.85 1198.1300000000003 4592.85ZM1196.78 4582.35C1195.34 4582.35 1194.72 4584.46 1194.68 4586.18H1198.68C1198.7 4583.93 1198.04 4582.35 1196.78 4582.35ZM1109.97 4581.47L1116.07 4596H1112.07L1110.25 4591.37H1105.78ZM1097 4596V4573H1106.59ZM1113.34 4573H1122.9299999999998V4596Z"
		transform="matrix(1,0,0,1,-1097,-4573)"/>
</svg>
