<svg
	version="1.1"
	xmlns="http://www.w3.org/2000/svg"
	xmlns:xlink="http://www.w3.org/1999/xlink"
	xmlns:svgjs="http://svgjs.com/svgjs"
	width="125"
	height="39"
	viewBox="0 0 125 39">
	<path
		d="M297.15 3772.15C296.21 3772.54 295.2 3772.6600000000003 294.17999999999995 3772.54C293.2099999999999 3772.42 292.22999999999996 3772.11 291.2099999999999 3771.5299999999997C289.80999999999995 3770.74 288.3999999999999 3769.5299999999997 286.75999999999993 3767.74C289.3399999999999 3764.58 290.8999999999999 3761.6899999999996 291.48999999999995 3759.1099999999997C291.75999999999993 3757.8999999999996 291.79999999999995 3756.8099999999995 291.67999999999995 3755.7899999999995C291.53 3754.8199999999997 291.16999999999996 3753.9199999999996 290.62999999999994 3753.1399999999994C289.41999999999996 3751.379999999999 287.38999999999993 3750.3699999999994 285.11999999999995 3750.3699999999994C282.85999999999996 3750.3699999999994 280.8299999999999 3751.4199999999996 279.61999999999995 3753.1399999999994C279.06999999999994 3753.9199999999996 278.71999999999997 3754.8199999999993 278.55999999999995 3755.7899999999995C278.40999999999997 3756.8099999999995 278.43999999999994 3757.9399999999996 278.75999999999993 3759.1099999999997C279.3399999999999 3761.6899999999996 280.93999999999994 3764.62 283.47999999999996 3767.7799999999997C281.87999999999994 3769.5699999999997 280.43999999999994 3770.7799999999997 279.03 3771.56C278.02 3772.15 277.03999999999996 3772.46 276.05999999999995 3772.58C275.00999999999993 3772.7 273.98999999999995 3772.54 273.0899999999999 3772.19C271.1799999999999 3771.41 269.80999999999995 3769.65 269.5399999999999 3767.62C269.4199999999999 3766.65 269.4999999999999 3765.67 269.88999999999993 3764.58C270.00999999999993 3764.19 270.2099999999999 3763.7999999999997 270.3999999999999 3763.33C270.6699999999999 3762.7 270.9899999999999 3762.04 271.2999999999999 3761.38L271.3399999999999 3761.3C274.0299999999999 3755.48 276.9199999999999 3749.55 279.9299999999999 3743.77L280.0499999999999 3743.53C280.3599999999999 3742.9500000000003 280.6699999999999 3742.32 280.9799999999999 3741.7400000000002C281.2899999999999 3741.11 281.6499999999999 3740.53 282.0799999999999 3740.0200000000004C282.8999999999999 3739.0800000000004 283.98999999999995 3738.5800000000004 285.19999999999993 3738.5800000000004C286.4099999999999 3738.5800000000004 287.49999999999994 3739.0800000000004 288.31999999999994 3740.0200000000004C288.74999999999994 3740.5300000000007 289.10999999999996 3741.1100000000006 289.41999999999996 3741.7400000000002C289.72999999999996 3742.32 290.03999999999996 3742.9500000000003 290.34999999999997 3743.53L290.46999999999997 3743.77C293.44 3749.59 296.33 3755.52 299.02 3761.34V3761.38C299.34 3762 299.60999999999996 3762.7000000000003 299.91999999999996 3763.33C300.11999999999995 3763.7999999999997 300.30999999999995 3764.19 300.42999999999995 3764.58C300.73999999999995 3765.59 300.85999999999996 3766.5699999999997 300.69999999999993 3767.58C300.42999999999995 3769.61 299.05999999999995 3771.37 297.1499999999999 3772.15ZM281.18 3758.49C280.98 3757.5899999999997 280.94 3756.81 281.06 3756.1C281.14 3755.48 281.37 3754.93 281.69 3754.47C282.43 3753.41 283.68 3752.75 285.12 3752.75C286.57 3752.75 287.86 3753.37 288.56 3754.47C288.87 3754.93 289.11 3755.48 289.18 3756.1C289.3 3756.81 289.26 3757.63 289.07 3758.49C288.59999999999997 3760.56 287.23 3763.0499999999997 285.12 3765.75C283.01 3763.09 281.65 3760.59 281.18 3758.49ZM302.15 3762.31C301.84 3761.61 301.52 3760.95 301.25 3760.32L301.21 3760.28C298.52 3754.4300000000003 295.63 3748.4900000000002 292.58 3742.6400000000003L292.46 3742.4000000000005C292.15 3741.8200000000006 291.84 3741.1900000000005 291.53 3740.5700000000006C291.14 3739.8600000000006 290.75 3739.120000000001 290.11999999999995 3738.4200000000005C288.86999999999995 3736.8600000000006 287.06999999999994 3736.0000000000005 285.15999999999997 3736.0000000000005C283.21 3736.0000000000005 281.45 3736.8600000000006 280.15999999999997 3738.3400000000006C279.58 3739.0400000000004 279.15 3739.7900000000004 278.76 3740.4900000000007C278.44 3741.1100000000006 278.13 3741.7400000000007 277.82 3742.3200000000006L277.7 3742.5600000000004C274.7 3748.4100000000003 271.77 3754.3500000000004 269.07 3760.2000000000003L269.03 3760.28C268.76 3760.9100000000003 268.45 3761.57 268.14 3762.27C267.94 3762.7 267.75 3763.17 267.55 3763.68C267.04 3765.12 266.89 3766.49 267.08 3767.89C267.51 3770.8199999999997 269.46 3773.2799999999997 272.15999999999997 3774.3799999999997C273.16999999999996 3774.7999999999997 274.22999999999996 3774.9999999999995 275.32 3774.9999999999995C275.63 3774.9999999999995 276.02 3774.9599999999996 276.34 3774.9199999999996C277.61999999999995 3774.7699999999995 278.95 3774.3399999999997 280.23999999999995 3773.5899999999997C281.84 3772.7 283.35999999999996 3771.41 285.0799999999999 3769.5299999999997C286.79999999999995 3771.41 288.3599999999999 3772.7 289.92999999999995 3773.5899999999997C291.2099999999999 3774.3399999999997 292.53999999999996 3774.7699999999995 293.8299999999999 3774.9199999999996C294.13999999999993 3774.9599999999996 294.5299999999999 3774.9999999999995 294.8499999999999 3774.9999999999995C295.9399999999999 3774.9999999999995 297.0299999999999 3774.7999999999997 298.00999999999993 3774.3799999999997C300.73999999999995 3773.2799999999997 302.6599999999999 3770.7799999999997 303.0799999999999 3767.89C303.3999999999999 3766.5299999999997 303.23999999999995 3765.16 302.7299999999999 3763.72C302.5399999999999 3763.25 302.3399999999999 3762.74 302.1499999999999 3762.31ZM341.67 3749.98C340.49 3749.98 338.97 3750.72 338.27000000000004 3751.54V3750.91C338.27000000000004 3750.64 338.03000000000003 3750.37 337.72 3750.37C337.45000000000005 3750.37 334.56 3750.37 334.56 3750.37V3765.08H338.31V3754.8199999999997C340.26 3752.5899999999997 343.38 3753.6499999999996 343.38 3753.6499999999996V3750.1699999999996C343.38 3750.1699999999996 342.8 3749.9799999999996 341.67 3749.9799999999996ZM348.66 3760.28V3755.05C349.24 3754.27 350.49 3753.4500000000003 351.82000000000005 3753.4500000000003C354.32000000000005 3753.4500000000003 356.2300000000001 3755.01 356.2300000000001 3757.67C356.2300000000001 3760.32 354.32000000000005 3761.88 351.82000000000005 3761.88C350.37000000000006 3761.88 349.24000000000007 3761.1400000000003 348.66 3760.28ZM348.66 3751.54V3743.3H344.91V3765.05C344.91 3765.05 347.8 3765.05 348.07000000000005 3765.05C348.38000000000005 3765.05 348.62000000000006 3764.77 348.62000000000006 3764.5V3763.83C348.62000000000006 3763.83 349.83000000000004 3765.44 352.40000000000003 3765.44C356.66 3765.44 359.98 3762.16 359.98 3757.71C360.02000000000004 3753.26 356.70000000000005 3749.98 352.44 3749.98C349.87 3749.98 348.66 3751.54 348.66 3751.54ZM374.97 3756.34C374.97 3753.88 374.47 3752.4700000000003 373.14000000000004 3751.38C372.05000000000007 3750.44 370.68000000000006 3749.98 369.04 3749.98C367.59000000000003 3749.98 366.15000000000003 3750.41 365.06 3751.54V3750.91C365.06 3750.64 364.82 3750.37 364.51 3750.37H361.53999999999996V3765.0499999999997H365.28999999999996V3754.8199999999997C366.03 3753.9599999999996 367.2 3753.37 368.34 3753.37C370.44 3753.37 371.22999999999996 3754.35 371.22999999999996 3756.77V3765.08H374.96999999999997ZM380.68 3760.28V3755.05C381.26 3754.27 382.51 3753.4500000000003 383.84000000000003 3753.4500000000003C386.34000000000003 3753.4500000000003 388.25000000000006 3755.01 388.25000000000006 3757.67C388.25000000000006 3760.32 386.34000000000003 3761.88 383.84000000000003 3761.88C382.39000000000004 3761.88 381.26000000000005 3761.1400000000003 380.68 3760.28ZM380.68 3751.54V3743.3H376.93V3765.05C376.93 3765.05 379.82 3765.05 380.09000000000003 3765.05C380.40000000000003 3765.05 380.64000000000004 3764.77 380.64000000000004 3764.5V3763.83C380.64000000000004 3763.83 381.85 3765.44 384.42 3765.44C388.68 3765.44 392 3762.16 392 3757.71C392 3753.26 388.68 3749.98 384.46 3749.98C381.89 3749.98 380.68 3751.54 380.68 3751.54ZM328.47 3765.05H332.22V3750.3700000000003H328.47ZM319.25 3761.92C316.75 3761.92 314.84 3760.36 314.84 3757.71C314.84 3755.05 316.75 3753.4900000000002 319.25 3753.4900000000002C320.62 3753.4900000000002 321.87 3754.2700000000004 322.41 3755.09V3760.32C321.83000000000004 3761.1800000000003 320.66 3761.92 319.25 3761.92ZM322.41 3751.54C322.41 3751.54 321.20000000000005 3749.98 318.63000000000005 3749.98C314.37000000000006 3749.98 311.05000000000007 3753.22 311.05000000000007 3757.71C311.05000000000007 3762.16 314.33000000000004 3765.44 318.63000000000005 3765.44C321.24000000000007 3765.44 322.41 3763.83 322.41 3763.83V3764.5C322.41 3764.81 322.65000000000003 3765.05 322.96000000000004 3765.05H326.12000000000006V3750.3700000000003C326.12000000000006 3750.3700000000003 323.2300000000001 3750.3700000000003 322.96000000000004 3750.3700000000003C322.65000000000003 3750.3700000000003 322.41 3750.6400000000003 322.41 3750.9100000000003C322.41 3751.15 322.41 3751.5400000000004 322.41 3751.5400000000004ZM330.34 3748.34C328.94 3748.34 327.79999999999995 3747.2000000000003 327.79999999999995 3745.8C327.79999999999995 3744.3900000000003 328.9 3743.26 330.34 3743.26C331.78999999999996 3743.3 332.88 3744.4300000000003 332.88 3745.8C332.88 3747.2000000000003 331.75 3748.34 330.34 3748.34Z"
		transform="matrix(1,0,0,1,-267,-3736)"/>
</svg>
