<svg
	version="1.1"
	xmlns="http://www.w3.org/2000/svg"
	xmlns:xlink="http://www.w3.org/1999/xlink"
	xmlns:svgjs="http://svgjs.com/svgjs"
	width="161"
	height="32"
	viewBox="0 0 161 32">
	<path
		d="M1164.15 2283C1153.6100000000001 2283 1144.13 2279.13 1136.95 2272.68C1136.38 2272.1699999999996 1136.89 2271.48 1137.56 2271.87C1145.31 2276.3599999999997 1154.8899999999999 2279.06 1164.78 2279.06C1171.46 2279.06 1178.8 2277.68 1185.55 2274.83C1186.56 2274.4 1187.4199999999998 2275.5 1186.4199999999998 2276.23C1180.3999999999999 2280.65 1171.6699999999998 2283 1164.1499999999999 2283ZM1182.18 2272.57C1181.5900000000001 2272.6400000000003 1181.49 2272.11 1182.03 2271.73C1185.5 2269.26 1191.18 2269.97 1191.84 2270.8C1192.51 2271.6400000000003 1191.6699999999998 2277.42 1188.4199999999998 2280.19C1187.9199999999998 2280.61 1187.4399999999998 2280.38 1187.6599999999999 2279.82C1188.3899999999999 2277.9700000000003 1190.0299999999997 2273.81 1189.2599999999998 2272.81C1188.4799999999998 2271.7999999999997 1184.1299999999997 2272.33 1182.1799999999998 2272.57ZM1182.29 2252.46C1182.29 2252.11 1182.57 2251.87 1182.8999999999999 2251.87L1193.6999999999998 2251.8599999999997C1194.0499999999997 2251.87 1194.3199999999997 2252.1099999999997 1194.3199999999997 2252.4599999999996V2254.49C1194.3199999999997 2254.83 1194.0299999999997 2255.27 1193.5099999999998 2255.9799999999996L1187.9199999999998 2263.8099999999995C1189.9899999999998 2263.7599999999993 1192.1899999999998 2264.0699999999997 1194.08 2265.1099999999997C1194.5 2265.3399999999997 1194.62 2265.6899999999996 1194.6499999999999 2266.0299999999997V2268.5499999999997C1194.6499999999999 2268.8999999999996 1194.2599999999998 2269.2999999999997 1193.85 2269.0899999999997C1190.53 2267.3799999999997 1186.12 2267.1899999999996 1182.4399999999998 2269.1099999999997C1182.07 2269.3099999999995 1181.6799999999998 2268.91 1181.6799999999998 2268.5599999999995V2266.1699999999996C1181.6799999999998 2265.7799999999997 1181.6799999999998 2265.1299999999997 1182.08 2264.5399999999995L1188.56 2255.4199999999996H1182.9199999999998C1182.57 2255.4199999999996 1182.2899999999997 2255.18 1182.2899999999997 2254.8299999999995ZM1139.87 2270.03C1139.57 2270.01 1139.32 2269.77 1139.3 2269.48V2252.82C1139.3 2252.48 1139.58 2252.2200000000003 1139.9199999999998 2252.2200000000003H1142.9099999999999C1143.2199999999998 2252.2300000000005 1143.4699999999998 2252.4700000000003 1143.4899999999998 2252.7700000000004V2254.9500000000003H1143.5499999999997C1144.3299999999997 2252.8500000000004 1145.7999999999997 2251.86 1147.7799999999997 2251.86C1149.7799999999997 2251.86 1151.0399999999997 2252.85 1151.9399999999998 2254.9500000000003C1152.7199999999998 2252.8500000000004 1154.4899999999998 2251.86 1156.3799999999999 2251.86C1157.7299999999998 2251.86 1159.1899999999998 2252.4300000000003 1160.09 2253.69C1161.11 2255.09 1160.8999999999999 2257.12 1160.8999999999999 2258.91V2269.43C1160.8999999999999 2269.7599999999998 1160.62 2270.0299999999997 1160.28 2270.0299999999997H1157.07C1156.75 2270.0099999999998 1156.5 2269.7499999999995 1156.5 2269.43V2260.6C1156.5 2259.89 1156.56 2258.14 1156.41 2257.47C1156.17 2256.35 1155.45 2256.04 1154.52 2256.04C1153.74 2256.04 1152.93 2256.56 1152.6 2257.4C1152.27 2258.25 1152.3 2259.65 1152.3 2260.6V2269.43C1152.3 2269.7599999999998 1152.02 2270.0299999999997 1151.68 2270.0299999999997H1148.48C1148.15 2270.0099999999998 1147.9 2269.7499999999995 1147.9 2269.43V2260.6C1147.9 2258.74 1148.2 2256 1145.92 2256C1143.6100000000001 2256 1143.7 2258.67 1143.7 2260.6V2269.43C1143.7 2269.7599999999998 1143.42 2270.0299999999997 1143.0800000000002 2270.0299999999997ZM1210.22 2261.08C1210.22 2266.0699999999997 1207.34 2270.0299999999997 1202.8 2270.0299999999997C1198.09 2270.0299999999997 1195.51 2265.97 1195.51 2260.91C1195.51 2255.8199999999997 1198.12 2251.8599999999997 1202.8 2251.8599999999997C1207.62 2251.8599999999997 1210.22 2255.9199999999996 1210.22 2261.0799999999995ZM1200.29 2260.4C1200.29 2262.39 1200.26 2266.6600000000003 1202.8 2266.6600000000003C1205.32 2266.6600000000003 1205.44 2263.2200000000003 1205.44 2261.1200000000003C1205.44 2259.7400000000002 1205.38 2258.09 1204.95 2256.78C1204.5900000000001 2255.65 1203.8600000000001 2255.2000000000003 1202.8300000000002 2255.2000000000003C1200.44 2255.2000000000003 1200.2900000000002 2258.4 1200.2900000000002 2260.4ZM1213.38 2270.03C1213.0700000000002 2270.01 1212.8200000000002 2269.75 1212.8200000000002 2269.4300000000003L1212.8100000000002 2252.76C1212.8400000000001 2252.46 1213.1000000000001 2252.2200000000003 1213.42 2252.2200000000003H1216.3500000000001C1216.6200000000001 2252.2300000000005 1216.8500000000001 2252.42 1216.91 2252.6800000000003V2255.2300000000005H1216.97C1217.8500000000001 2252.9500000000003 1219.09 2251.8600000000006 1221.27 2251.8600000000006C1222.69 2251.8600000000006 1224.07 2252.390000000001 1224.96 2253.8300000000004C1225.78 2255.1600000000003 1225.78 2257.4000000000005 1225.78 2259.0200000000004V2269.5000000000005C1225.75 2269.8000000000006 1225.49 2270.0300000000007 1225.18 2270.0300000000007H1222.01C1221.72 2270.0100000000007 1221.48 2269.790000000001 1221.45 2269.5000000000005V2260.4500000000003C1221.45 2258.63 1221.66 2255.9700000000003 1219.47 2255.9700000000003C1218.71 2255.9700000000003 1218 2256.4900000000002 1217.65 2257.3C1217.2 2258.32 1217.14 2259.3300000000004 1217.14 2260.4500000000003V2269.4300000000003C1217.14 2269.76 1216.8700000000001 2270.03 1216.5300000000002 2270.03ZM1230.11 2266.57C1231.06 2266.57 1231.84 2267.34 1231.84 2268.3C1231.84 2269.25 1231.06 2270.03 1230.11 2270.03C1229.1499999999999 2270.03 1228.3799999999999 2269.25 1228.3799999999999 2268.3C1228.3799999999999 2267.34 1229.1499999999999 2266.57 1230.11 2266.57ZM1262.11 2269.43V2252.8599999999997C1262.1299999999999 2252.5699999999997 1262.3799999999999 2252.3399999999997 1262.6799999999998 2252.3199999999997H1263.86C1264.1899999999998 2252.3199999999997 1264.4499999999998 2252.5599999999995 1264.4799999999998 2252.8599999999997V2255.2799999999997C1265.3199999999997 2253.3599999999997 1266.8799999999999 2251.8599999999997 1268.86 2251.8599999999997L1268.9799999999998 2251.87L1269.0999999999997 2251.8599999999997C1271.1899999999996 2251.8599999999997 1272.7299999999998 2253.4199999999996 1273.2999999999997 2255.6699999999996C1274.1799999999998 2253.45 1275.8599999999997 2251.8599999999997 1278.0599999999997 2251.8599999999997L1278.1799999999996 2251.87L1278.3099999999997 2251.8599999999997C1279.8699999999997 2251.8599999999997 1281.3599999999997 2252.8799999999997 1282.1399999999996 2254.41C1282.8899999999996 2255.87 1282.8599999999997 2257.83 1282.8599999999997 2259.46V2269.43C1282.8599999999997 2269.75 1282.6099999999997 2270.0099999999998 1282.2899999999997 2270.0299999999997H1280.8799999999997C1280.5699999999997 2270.0199999999995 1280.3199999999997 2269.7999999999997 1280.2799999999997 2269.5099999999998V2259.4599999999996C1280.2799999999997 2258.2799999999997 1280.3399999999997 2257.0199999999995 1279.8599999999997 2255.9399999999996C1279.3699999999997 2254.8399999999997 1278.4399999999996 2254.1499999999996 1277.4299999999996 2254.0999999999995C1276.3099999999997 2254.1499999999996 1275.2799999999995 2254.9699999999993 1274.6199999999997 2256.0799999999995C1273.7499999999998 2257.5099999999993 1273.7799999999997 2258.7999999999993 1273.7799999999997 2260.4799999999996V2269.5199999999995C1273.7399999999998 2269.7899999999995 1273.4999999999998 2270.0099999999993 1273.2099999999998 2270.0299999999997H1271.7999999999997C1271.4699999999998 2270.0199999999995 1271.1999999999998 2269.7599999999998 1271.1999999999998 2269.43L1271.1899999999998 2258.7999999999997C1271.1899999999998 2257.83 1271.1399999999999 2256.68 1270.6899999999998 2255.7999999999997C1270.1699999999998 2254.7999999999997 1269.2399999999998 2254.1499999999996 1268.2599999999998 2254.1C1267.2499999999998 2254.16 1266.2299999999998 2254.93 1265.6199999999997 2255.8399999999997C1264.8399999999997 2256.99 1264.6899999999996 2258.4199999999996 1264.6899999999996 2259.8799999999997V2269.43C1264.6899999999996 2269.75 1264.4299999999996 2270.0099999999998 1264.1099999999997 2270.0299999999997H1262.7099999999996C1262.3699999999997 2270.0199999999995 1262.1099999999997 2269.7599999999998 1262.1099999999997 2269.43ZM1245.68 2260.86C1245.68 2256.04 1248.0600000000002 2251.86 1252.6200000000001 2251.86L1252.74 2251.8700000000003L1252.86 2251.86C1257.31 2251.86 1259.51 2256.31 1259.51 2260.8900000000003C1259.51 2265.7500000000005 1257.07 2270.03 1252.48 2270.03H1252.23C1247.7 2270.03 1245.68 2265.44 1245.68 2260.86ZM1255.93 2265.31C1256.5600000000002 2263.94 1256.68 2262.37 1256.68 2260.86C1256.68 2259.2200000000003 1256.5 2257.51 1255.72 2256.11C1255.03 2254.88 1253.83 2254.1 1252.56 2254.06C1251.1499999999999 2254.11 1249.8899999999999 2255.0499999999997 1249.26 2256.52C1248.69 2257.78 1248.51 2259.46 1248.51 2260.86C1248.51 2262.4300000000003 1248.72 2264.25 1249.3799999999999 2265.61C1250.01 2266.9100000000003 1251.2399999999998 2267.75 1252.57 2267.8C1254.06 2267.75 1255.24 2266.84 1255.9299999999998 2265.3100000000004ZM1242.21 2263.96C1242.3 2263.7 1242.51 2263.5 1242.82 2263.5L1244.21 2263.49C1244.53 2263.5099999999998 1244.83 2263.75 1244.81 2264.04C1244.1699999999998 2267.6 1241.9299999999998 2270.0299999999997 1238.73 2270.0299999999997H1238.49C1233.84 2270.0299999999997 1231.84 2265.5499999999997 1231.84 2260.9999999999995C1231.84 2256.4799999999996 1233.87 2251.8599999999997 1238.52 2251.8599999999997L1238.6399999999999 2251.87L1238.77 2251.8599999999997C1241.99 2251.8599999999997 1244.29 2254.2499999999995 1244.79 2257.8199999999997C1244.79 2258.0899999999997 1244.53 2258.3199999999997 1244.23 2258.35L1242.77 2258.3399999999997C1242.47 2258.2899999999995 1242.27 2258.0399999999995 1242.23 2257.7599999999998C1241.88 2255.77 1240.69 2254.1899999999996 1238.7 2254.12C1235.54 2254.22 1234.64 2257.96 1234.64 2260.83C1234.64 2263.6 1235.39 2267.63 1238.5500000000002 2267.73C1240.65 2267.67 1241.7600000000002 2266.05 1242.2100000000003 2263.96ZM1176.49 2268.97C1175.41 2268.0899999999997 1175.21 2267.6899999999996 1174.6200000000001 2266.85C1172.8300000000002 2268.63 1171.5700000000002 2269.16 1169.2500000000002 2269.16C1166.5100000000002 2269.16 1164.3800000000003 2267.5099999999998 1164.3800000000003 2264.21C1164.3800000000003 2261.63 1165.8100000000004 2259.87 1167.8500000000004 2259.01C1169.6200000000003 2258.26 1172.0900000000004 2258.1200000000003 1173.9700000000003 2257.9100000000003V2257.5000000000005C1173.9700000000003 2256.7400000000002 1174.0400000000002 2255.8500000000004 1173.5800000000002 2255.2000000000003C1173.18 2254.61 1172.42 2254.3700000000003 1171.7500000000002 2254.3700000000003C1170.5100000000002 2254.3700000000003 1169.4000000000003 2254.9900000000002 1169.1300000000003 2256.28C1169.0800000000004 2256.57 1168.8600000000004 2256.8500000000004 1168.5700000000004 2256.86L1165.4100000000003 2256.53C1165.1400000000003 2256.4700000000003 1164.8500000000004 2256.26 1164.9300000000003 2255.8700000000003C1165.6500000000003 2252.1300000000006 1169.1100000000004 2251.0000000000005 1172.2100000000003 2251.0000000000005C1173.7900000000002 2251.0000000000005 1175.8600000000004 2251.4100000000003 1177.1100000000004 2252.5800000000004C1178.7000000000003 2254.03 1178.5400000000004 2255.9500000000003 1178.5400000000004 2258.05V2263C1178.5400000000004 2264.49 1179.1800000000005 2265.15 1179.7700000000004 2265.95C1179.9800000000005 2266.24 1180.0300000000004 2266.58 1179.7600000000004 2266.79C1179.1000000000004 2267.34 1177.9200000000005 2268.34 1177.2700000000004 2268.9H1177.2600000000004C1177.0400000000004 2269.08 1176.7300000000005 2269.1 1176.4900000000005 2268.9700000000003ZM1173.97 2261.15V2260.46C1171.6200000000001 2260.46 1169.13 2260.95 1169.13 2263.66C1169.13 2265.0299999999997 1169.8600000000001 2265.96 1171.1100000000001 2265.96C1172.0200000000002 2265.96 1172.8500000000001 2265.41 1173.3700000000001 2264.52C1174.0100000000002 2263.42 1173.97 2262.39 1173.97 2261.15ZM1134.11 2268.97C1133.03 2268.0899999999997 1132.83 2267.6899999999996 1132.24 2266.85C1130.46 2268.63 1129.19 2269.16 1126.8700000000001 2269.16C1124.13 2269.16 1122.0000000000002 2267.5099999999998 1122.0000000000002 2264.21C1122.0000000000002 2261.63 1123.4300000000003 2259.87 1125.4700000000003 2259.01C1127.2400000000002 2258.26 1129.7100000000003 2258.1200000000003 1131.6000000000004 2257.9100000000003V2257.5000000000005C1131.6000000000004 2256.7400000000002 1131.6600000000003 2255.8500000000004 1131.2000000000003 2255.2000000000003C1130.8000000000002 2254.61 1130.0400000000002 2254.3700000000003 1129.3700000000003 2254.3700000000003C1128.1300000000003 2254.3700000000003 1127.0300000000004 2254.9900000000002 1126.7500000000005 2256.28C1126.7000000000005 2256.57 1126.4800000000005 2256.8500000000004 1126.1900000000005 2256.86L1123.0300000000004 2256.53C1122.7700000000004 2256.4700000000003 1122.4700000000005 2256.26 1122.5500000000004 2255.8700000000003C1123.2700000000004 2252.1300000000006 1126.7300000000005 2251.0000000000005 1129.8300000000004 2251.0000000000005C1131.4100000000003 2251.0000000000005 1133.4800000000005 2251.4100000000003 1134.7300000000005 2252.5800000000004C1136.3200000000004 2254.03 1136.1700000000005 2255.9500000000003 1136.1700000000005 2258.05V2263C1136.1700000000005 2264.49 1136.8000000000006 2265.15 1137.4000000000005 2265.95C1137.6000000000006 2266.24 1137.6500000000005 2266.58 1137.3800000000006 2266.79C1136.7200000000005 2267.34 1135.5400000000006 2268.34 1134.8900000000006 2268.9H1134.8800000000006C1134.6600000000005 2269.08 1134.3500000000006 2269.1 1134.1100000000006 2268.9700000000003ZM1131.6 2261.15V2260.46C1129.24 2260.46 1126.75 2260.95 1126.75 2263.66C1126.75 2265.0299999999997 1127.48 2265.96 1128.73 2265.96C1129.65 2265.96 1130.47 2265.41 1130.99 2264.52C1131.63 2263.42 1131.6 2262.39 1131.6 2261.15Z"
		transform="matrix(1,0,0,1,-1122,-2251)"/>
</svg>
