<svg
	version="1.1"
	xmlns="http://www.w3.org/2000/svg"
	xmlns:xlink="http://www.w3.org/1999/xlink"
	xmlns:svgjs="http://svgjs.com/svgjs"
	width="170"
	height="50"
	viewBox="0 0 170 50">
	<path
		d="M798.95 5292H640.96C637.6700000000001 5292 635 5289.34 635 5286.08V5247.91C635 5244.65 637.67 5242 640.96 5242H798.95C802.23 5242 805 5244.65 805 5247.91V5286.08C805 5289.34 802.23 5292 798.95 5292Z"
		fill="#a6a6a6"
		transform="matrix(1,0,0,1,-635,-5242)"/>
	<path
		d="M803.66 5285.97C803.66 5288.62 801.5 5290.76 798.8299999999999 5290.76H640.8299999999999C638.17 5290.76 635.9999999999999 5288.62 635.9999999999999 5285.97V5247.79C635.9999999999999 5245.15 638.1699999999998 5243 640.8299999999999 5243H798.8299999999999C801.4999999999999 5243 803.66 5245.15 803.66 5247.79V5285.97Z"
		fill="#000000"
		transform="matrix(1,0,0,1,-635,-5242)"/>
	<path
		d="M672.83 5266.27C672.7900000000001 5262.240000000001 676.1500000000001 5260.280000000001 676.3100000000001 5260.1900000000005C674.4000000000001 5257.43 671.46 5257.06 670.4200000000001 5257.030000000001C667.94 5256.77 665.5400000000001 5258.500000000001 664.2800000000001 5258.500000000001C662.9900000000001 5258.500000000001 661.0500000000001 5257.050000000001 658.95 5257.090000000001C656.26 5257.140000000001 653.74 5258.680000000001 652.36 5261.090000000001C649.5 5265.990000000001 651.63 5273.200000000001 654.36 5277.160000000001C655.73 5279.1 657.33 5281.27 659.42 5281.200000000001C661.4699999999999 5281.110000000001 662.2299999999999 5279.900000000001 664.6999999999999 5279.900000000001C667.15 5279.900000000001 667.8699999999999 5281.200000000001 669.9999999999999 5281.150000000001C672.1899999999999 5281.110000000001 673.5799999999999 5279.200000000001 674.8999999999999 5277.240000000001C676.4799999999999 5275.010000000001 677.1099999999999 5272.820000000001 677.1399999999999 5272.710000000001C677.0899999999999 5272.6900000000005 672.8699999999999 5271.100000000001 672.8299999999999 5266.270000000001Z"
		fill="#ffffff"
		transform="matrix(1,0,0,1,-635,-5242)"/>
	<path
		d="M668.81 5255.11C669.91 5253.75 670.67 5251.889999999999 670.4599999999999 5250C668.8599999999999 5250.07 666.8699999999999 5251.09 665.7199999999999 5252.43C664.7099999999999 5253.610000000001 663.8 5255.54 664.04 5257.35C665.8299999999999 5257.490000000001 667.66 5256.46 668.81 5255.110000000001Z"
		fill="#ffffff"
		transform="matrix(1,0,0,1,-635,-5242)"/>
	<path
		d="M699.29 5281.64L697.7199999999999 5276.75H692.2799999999999L690.7799999999999 5281.64H687.9999999999999L693.3899999999999 5265H696.7299999999999L702.1499999999999 5281.64ZM695.83 5270.36C695.6800000000001 5269.91 695.4000000000001 5268.87 694.99 5267.219999999999H694.94C694.7700000000001 5267.929999999999 694.5100000000001 5268.969999999999 694.1400000000001 5270.36L692.7500000000001 5274.7H697.2500000000001Z"
		fill="#ffffff"
		transform="matrix(1,0,0,1,-635,-5242)"/>
	<path
		d="M714.97 5279.93C713.98 5280.990000000001 712.74 5281.51 711.27 5281.51C709.67 5281.51 708.53 5280.95 707.8299999999999 5279.81H707.78V5286.13H705.1V5273.2C705.1 5271.91 705.07 5270.599999999999 705 5269.25H707.36L707.51 5271.15H707.56C708.4599999999999 5269.719999999999 709.8199999999999 5269 711.64 5269C713.06 5269 714.25 5269.56 715.21 5270.68C716.1600000000001 5271.8 716.64 5273.27 716.64 5275.1C716.64 5277.14 716.08 5278.75 714.97 5279.93ZM713.11 5272.31C712.53 5271.52 711.75 5271.120000000001 710.77 5271.120000000001C710.11 5271.120000000001 709.5 5271.340000000001 708.97 5271.780000000001C708.4300000000001 5272.210000000001 708.08 5272.780000000001 707.9100000000001 5273.490000000001C707.83 5273.820000000001 707.7900000000001 5274.090000000001 707.7900000000001 5274.300000000001V5276.300000000001C707.7900000000001 5277.180000000001 708.0500000000001 5277.910000000001 708.59 5278.510000000001C709.13 5279.120000000001 709.83 5279.420000000001 710.69 5279.420000000001C711.71 5279.420000000001 712.49 5279.030000000001 713.0600000000001 5278.260000000001C713.62 5277.480000000001 713.9000000000001 5276.460000000001 713.9000000000001 5275.190000000001C713.9000000000001 5274.030000000002 713.6400000000001 5273.060000000001 713.1100000000001 5272.310000000001Z"
		fill="#ffffff"
		transform="matrix(1,0,0,1,-635,-5242)"/>
	<path
		d="M728.97 5279.93C727.97 5280.990000000001 726.74 5281.51 725.26 5281.51C723.67 5281.51 722.53 5280.95 721.83 5279.81H721.7800000000001V5286.13H719.1000000000001V5273.2C719.1000000000001 5271.91 719.0700000000002 5270.599999999999 719.0000000000001 5269.25H721.3600000000001L721.5100000000001 5271.15H721.5600000000001C722.46 5269.719999999999 723.8100000000001 5269 725.6400000000001 5269C727.0600000000001 5269 728.2500000000001 5269.56 729.2100000000002 5270.68C730.1600000000002 5271.8 730.6400000000001 5273.27 730.6400000000001 5275.1C730.6400000000001 5277.14 730.0800000000002 5278.75 728.9700000000001 5279.93ZM727.1 5272.31C726.52 5271.52 725.75 5271.120000000001 724.77 5271.120000000001C724.1 5271.120000000001 723.5 5271.340000000001 722.96 5271.780000000001C722.4300000000001 5272.210000000001 722.07 5272.780000000001 721.9100000000001 5273.490000000001C721.83 5273.820000000001 721.7800000000001 5274.090000000001 721.7800000000001 5274.300000000001V5276.300000000001C721.7800000000001 5277.180000000001 722.0500000000001 5277.910000000001 722.59 5278.510000000001C723.13 5279.1100000000015 723.83 5279.420000000001 724.69 5279.420000000001C725.7 5279.420000000001 726.49 5279.030000000001 727.0500000000001 5278.260000000001C727.6200000000001 5277.480000000001 727.9000000000001 5276.460000000001 727.9000000000001 5275.190000000001C727.9000000000001 5274.030000000002 727.6300000000001 5273.060000000001 727.1000000000001 5272.310000000001Z"
		fill="#ffffff"
		transform="matrix(1,0,0,1,-635,-5242)"/>
	<path
		d="M745.4 5277.21C745.4 5278.63 744.9 5279.78 743.91 5280.67C742.8199999999999 5281.64 741.3 5282.13 739.3399999999999 5282.13C737.54 5282.13 736.0899999999999 5281.78 734.9999999999999 5281.09L735.6199999999999 5278.87C736.7999999999998 5279.58 738.0899999999999 5279.93 739.4999999999999 5279.93C740.5099999999999 5279.93 741.2999999999998 5279.700000000001 741.8699999999999 5279.25C742.4299999999998 5278.8 742.7099999999999 5278.19 742.7099999999999 5277.43C742.7099999999999 5276.76 742.4799999999999 5276.1900000000005 742.0099999999999 5275.7300000000005C741.5499999999998 5275.27 740.7799999999999 5274.84 739.6999999999999 5274.4400000000005C736.77 5273.360000000001 735.3 5271.76 735.3 5269.67C735.3 5268.3 735.8199999999999 5267.18 736.8399999999999 5266.31C737.8699999999999 5265.4400000000005 739.2399999999999 5265 740.9499999999999 5265C742.4699999999999 5265 743.7399999999999 5265.26 744.7499999999999 5265.79L744.0799999999999 5267.96C743.1299999999999 5267.45 742.0699999999999 5267.2 740.8699999999999 5267.2C739.9299999999998 5267.2 739.1899999999999 5267.429999999999 738.6599999999999 5267.889999999999C738.2099999999998 5268.299999999999 737.9899999999999 5268.799999999999 737.9899999999999 5269.4C737.9899999999999 5270.049999999999 738.2499999999999 5270.599999999999 738.7599999999999 5271.0199999999995C739.2099999999999 5271.419999999999 740.0199999999999 5271.849999999999 741.1999999999999 5272.3099999999995C742.64 5272.879999999999 743.6999999999999 5273.5599999999995 744.3799999999999 5274.33C745.0599999999998 5275.1 745.3999999999999 5276.0599999999995 745.3999999999999 5277.21Z"
		fill="#ffffff"
		transform="matrix(1,0,0,1,-635,-5242)"/>
	<path
		d="M754.36 5270.99H751.4V5276.8099999999995C751.4 5278.289999999999 751.92 5279.03 752.97 5279.03C753.45 5279.03 753.84 5278.99 754.1600000000001 5278.91L754.2300000000001 5280.93C753.7000000000002 5281.13 753.0100000000001 5281.2300000000005 752.1500000000001 5281.2300000000005C751.0900000000001 5281.2300000000005 750.2600000000001 5280.910000000001 749.6600000000001 5280.27C749.0600000000001 5279.620000000001 748.7600000000001 5278.55 748.7600000000001 5277.030000000001V5270.990000000001H747.0000000000001V5268.990000000001H748.7600000000001V5266.790000000001L751.4000000000001 5266.000000000001V5268.990000000001H754.3600000000001Z"
		fill="#ffffff"
		transform="matrix(1,0,0,1,-635,-5242)"/>
	<path
		d="M766.24 5279.69C765.13 5280.9 763.66 5281.509999999999 761.82 5281.509999999999C760.0400000000001 5281.509999999999 758.63 5280.929999999999 757.58 5279.759999999999C756.5300000000001 5278.589999999999 756 5277.119999999999 756 5275.339999999999C756 5273.48 756.54 5271.959999999999 757.63 5270.779999999999C758.71 5269.589999999999 760.18 5268.999999999999 762.02 5268.999999999999C763.79 5268.999999999999 765.22 5269.579999999999 766.29 5270.749999999999C767.3199999999999 5271.889999999999 767.8399999999999 5273.349999999999 767.8399999999999 5275.139999999999C767.8399999999999 5276.99 767.3 5278.499999999999 766.2399999999999 5279.69ZM764.33 5272.38C763.7700000000001 5271.43 762.96 5270.95 761.9200000000001 5270.95C760.84 5270.95 760.0200000000001 5271.429999999999 759.46 5272.38C758.98 5273.18 758.74 5274.14 758.74 5275.28C758.74 5276.389999999999 758.98 5277.33 759.46 5278.13C760.0400000000001 5279.08 760.85 5279.56 761.9000000000001 5279.56C762.9200000000001 5279.56 763.7300000000001 5279.070000000001 764.3100000000001 5278.1C764.8000000000001 5277.29 765.0500000000001 5276.33 765.0500000000001 5275.2300000000005C765.0500000000001 5274.120000000001 764.8100000000001 5273.17 764.33 5272.38Z"
		fill="#ffffff"
		transform="matrix(1,0,0,1,-635,-5242)"/>
	<path
		d="M776.47 5271.59C776.2 5271.54 775.9200000000001 5271.52 775.62 5271.52C774.67 5271.52 773.94 5271.870000000001 773.43 5272.580000000001C772.9799999999999 5273.200000000001 772.76 5273.990000000001 772.76 5274.950000000001V5281.240000000001H770.08L770.1 5273.02C770.1 5271.64 770.07 5270.38 770 5269.25H772.34L772.44 5271.54H772.5100000000001C772.7900000000001 5270.75 773.2400000000001 5270.12 773.8500000000001 5269.64C774.4500000000002 5269.21 775.1000000000001 5269 775.7900000000002 5269C776.0400000000002 5269 776.2700000000002 5269.02 776.4700000000001 5269.05Z"
		fill="#ffffff"
		transform="matrix(1,0,0,1,-635,-5242)"/>
	<path
		d="M788.64 5275.91H780.59C780.62 5277.09 781.01 5278 781.76 5278.62C782.43 5279.18 783.31 5279.46 784.39 5279.46C785.58 5279.46 786.67 5279.27 787.65 5278.9L788.0699999999999 5280.75C786.93 5281.24 785.5799999999999 5281.49 784.02 5281.49C782.14 5281.49 780.67 5280.94 779.6 5279.849999999999C778.5400000000001 5278.749999999999 778 5277.28 778 5275.44C778 5273.629999999999 778.5 5272.129999999999 779.49 5270.919999999999C780.54 5269.639999999999 781.95 5268.999999999999 783.72 5268.999999999999C785.46 5268.999999999999 786.78 5269.639999999999 787.6700000000001 5270.919999999999C788.3800000000001 5271.94 788.7400000000001 5273.199999999999 788.7400000000001 5274.699999999999C788.7400000000001 5275.1799999999985 788.7100000000002 5275.579999999999 788.6400000000001 5275.909999999999ZM785.66 5271.96C785.1899999999999 5271.22 784.48 5270.85 783.52 5270.85C782.64 5270.85 781.93 5271.21 781.38 5271.93C780.93 5272.51 780.67 5273.200000000001 780.59 5274.01H786.1800000000001C786.2 5273.22 786.0200000000001 5272.54 785.6600000000001 5271.96Z"
		fill="#ffffff"
		transform="matrix(1,0,0,1,-635,-5242)"/>
	<path
		d="M695.43 5258.28C694.6099999999999 5258.96 693.4399999999999 5259.3099999999995 691.93 5259.3099999999995C691.18 5259.3099999999995 690.54 5259.2699999999995 690 5259.209999999999V5251.169999999999C690.7 5251.0599999999995 691.46 5250.999999999999 692.27 5250.999999999999C693.71 5250.999999999999 694.8 5251.3099999999995 695.53 5251.929999999999C696.36 5252.639999999999 696.77 5253.639999999999 696.77 5254.95C696.77 5256.429999999999 696.3199999999999 5257.53 695.43 5258.28ZM694.61 5252.8C694.1 5252.29 693.36 5252.03 692.38 5252.03C691.97 5252.03 691.61 5252.0599999999995 691.32 5252.12V5258.23C691.48 5258.25 691.7800000000001 5258.259999999999 692.21 5258.259999999999C693.22 5258.259999999999 694 5257.989999999999 694.5500000000001 5257.429999999999C695.1 5256.869999999999 695.3800000000001 5256.0599999999995 695.3800000000001 5254.99C695.3800000000001 5254.04 695.1200000000001 5253.3099999999995 694.6100000000001 5252.8Z"
		fill="#ffffff"
		transform="matrix(1,0,0,1,-635,-5242)"/>
	<path
		d="M703.03 5258.25C702.49 5258.85 701.76 5259.15 700.86 5259.15C699.99 5259.15 699.29 5258.86 698.77 5258.29C698.26 5257.71 698 5256.99 698 5256.12C698 5255.2 698.27 5254.45 698.8 5253.87C699.3299999999999 5253.29 700.05 5253 700.9599999999999 5253C701.8299999999999 5253 702.53 5253.29 703.06 5253.86C703.56 5254.42 703.81 5255.139999999999 703.81 5256.0199999999995C703.81 5256.919999999999 703.55 5257.669999999999 703.03 5258.249999999999ZM702.09 5254.66C701.8100000000001 5254.19 701.4200000000001 5253.96 700.9100000000001 5253.96C700.3800000000001 5253.96 699.97 5254.19 699.7 5254.66C699.46 5255.05 699.34 5255.5199999999995 699.34 5256.08C699.34 5256.63 699.46 5257.09 699.7 5257.48C699.98 5257.95 700.38 5258.19 700.9000000000001 5258.19C701.4000000000001 5258.19 701.7900000000001 5257.95 702.08 5257.469999999999C702.32 5257.07 702.45 5256.599999999999 702.45 5256.0599999999995C702.45 5255.5199999999995 702.33 5255.049999999999 702.09 5254.66Z"
		fill="#ffffff"
		transform="matrix(1,0,0,1,-635,-5242)"/>
	<path
		d="M713.6 5253L711.74 5258.89H710.53L709.77 5256.33C709.5699999999999 5255.7 709.41 5255.0599999999995 709.29 5254.43H709.26C709.15 5255.08 708.99 5255.71 708.79 5256.33L707.9699999999999 5258.89H706.7499999999999L704.9999999999999 5253H706.3599999999999L707.0299999999999 5255.8C707.1899999999998 5256.46 707.3199999999998 5257.1 707.4299999999998 5257.6900000000005H707.4499999999998C707.5499999999998 5257.200000000001 707.7099999999998 5256.570000000001 707.9399999999998 5255.81L708.7899999999998 5253H709.8599999999999L710.6699999999998 5255.75C710.8599999999999 5256.43 711.0199999999999 5257.07 711.1499999999999 5257.69H711.1799999999998C711.2699999999999 5257.089999999999 711.4099999999999 5256.44 711.5799999999998 5255.75L712.2999999999998 5253Z"
		fill="#ffffff"
		transform="matrix(1,0,0,1,-635,-5242)"/>
	<path
		d="M721.2 5259.02H719.88V5255.64C719.88 5254.6 719.49 5254.08 718.6899999999999 5254.08C718.3 5254.08 717.9799999999999 5254.22 717.7299999999999 5254.51C717.4899999999999 5254.8 717.3699999999999 5255.13 717.3699999999999 5255.52V5259.02H716.0499999999998V5254.81C716.0499999999998 5254.29 716.0299999999999 5253.7300000000005 715.9999999999999 5253.120000000001H717.1599999999999L717.2199999999998 5254.040000000001H717.2599999999998C717.4099999999997 5253.760000000001 717.6399999999998 5253.52 717.9399999999997 5253.330000000001C718.2999999999997 5253.110000000001 718.6999999999997 5253.000000000001 719.1399999999998 5253.000000000001C719.6899999999997 5253.000000000001 720.1499999999997 5253.180000000001 720.5199999999998 5253.530000000001C720.9799999999998 5253.97 721.1999999999997 5254.620000000001 721.1999999999997 5255.490000000001Z"
		fill="#ffffff"
		transform="matrix(1,0,0,1,-635,-5242)"/>
	<path
		d="M724.32 5258.6H723V5250H724.32Z"
		fill="#ffffff"
		transform="matrix(1,0,0,1,-635,-5242)"/>
	<path
		d="M731.03 5258.25C730.49 5258.85 729.76 5259.15 728.86 5259.15C727.98 5259.15 727.29 5258.86 726.77 5258.29C726.26 5257.71 726 5256.99 726 5256.12C726 5255.2 726.27 5254.45 726.8 5253.87C727.3299999999999 5253.29 728.05 5253 728.9499999999999 5253C729.8299999999999 5253 730.53 5253.29 731.06 5253.86C731.56 5254.42 731.81 5255.139999999999 731.81 5256.0199999999995C731.81 5256.919999999999 731.55 5257.669999999999 731.03 5258.249999999999ZM730.09 5254.66C729.8100000000001 5254.19 729.4200000000001 5253.96 728.9100000000001 5253.96C728.3800000000001 5253.96 727.97 5254.19 727.7 5254.66C727.46 5255.05 727.34 5255.5199999999995 727.34 5256.08C727.34 5256.63 727.46 5257.09 727.7 5257.48C727.98 5257.95 728.38 5258.19 728.9000000000001 5258.19C729.4000000000001 5258.19 729.7900000000001 5257.95 730.08 5257.469999999999C730.32 5257.07 730.44 5256.599999999999 730.44 5256.0599999999995C730.44 5255.5199999999995 730.33 5255.049999999999 730.09 5254.66Z"
		fill="#ffffff"
		transform="matrix(1,0,0,1,-635,-5242)"/>
	<path
		d="M737.69 5259.01L737.59 5258.33H737.5500000000001C737.1500000000001 5258.88 736.57 5259.15 735.82 5259.15C735.2600000000001 5259.15 734.8100000000001 5258.969999999999 734.46 5258.61C734.1500000000001 5258.29 734 5257.889999999999 734 5257.41C734 5256.69 734.3 5256.139999999999 734.91 5255.76C735.52 5255.38 736.37 5255.2 737.4699999999999 5255.21V5255.1C737.4699999999999 5254.320000000001 737.06 5253.93 736.2399999999999 5253.93C735.6499999999999 5253.93 735.1399999999999 5254.08 734.6899999999999 5254.37L734.42 5253.51C734.9699999999999 5253.17 735.65 5253 736.4599999999999 5253C738.0099999999999 5253 738.79 5253.81 738.79 5255.44V5257.61C738.79 5258.2 738.8199999999999 5258.67 738.87 5259.009999999999ZM737.5 5256.08C736.05 5256.05 735.32 5256.45 735.32 5257.2699999999995C735.32 5257.57 735.4000000000001 5257.799999999999 735.57 5257.959999999999C735.74 5258.109999999999 735.96 5258.189999999999 736.22 5258.189999999999C736.51 5258.189999999999 736.78 5258.0999999999985 737.02 5257.919999999998C737.27 5257.729999999999 737.43 5257.499999999998 737.48 5257.219999999998C737.5 5257.149999999999 737.5 5257.079999999998 737.5 5256.989999999999Z"
		fill="#ffffff"
		transform="matrix(1,0,0,1,-635,-5242)"/>
	<path
		d="M745.5 5258.6L745.43 5257.650000000001H745.4C745.02 5258.370000000001 744.39 5258.7300000000005 743.49 5258.7300000000005C742.78 5258.7300000000005 742.1800000000001 5258.450000000001 741.71 5257.89C741.24 5257.34 741 5256.610000000001 741 5255.72C741 5254.77 741.26 5254 741.77 5253.41C742.27 5252.86 742.88 5252.58 743.6 5252.58C744.4 5252.58 744.96 5252.85 745.27 5253.38H745.3V5250H746.62V5257.01C746.62 5257.58 746.64 5258.110000000001 746.67 5258.6ZM745.3 5255.13C745.3 5254.96 745.29 5254.82 745.26 5254.72C745.1899999999999 5254.400000000001 745.03 5254.14 744.79 5253.92C744.54 5253.71 744.24 5253.6 743.9 5253.6C743.41 5253.6 743.02 5253.8 742.74 5254.18C742.46 5254.570000000001 742.32 5255.070000000001 742.32 5255.67C742.32 5256.26 742.45 5256.7300000000005 742.72 5257.09C743.01 5257.4800000000005 743.4 5257.67 743.88 5257.67C744.31 5257.67 744.66 5257.51 744.92 5257.1900000000005C745.17 5256.89 745.3 5256.530000000001 745.3 5256.110000000001Z"
		fill="#ffffff"
		transform="matrix(1,0,0,1,-635,-5242)"/>
	<path
		d="M757.03 5258.25C756.49 5258.85 755.76 5259.15 754.86 5259.15C753.99 5259.15 753.29 5258.86 752.77 5258.29C752.26 5257.71 752 5256.99 752 5256.12C752 5255.2 752.27 5254.45 752.8 5253.87C753.3299999999999 5253.29 754.05 5253 754.9599999999999 5253C755.8299999999999 5253 756.53 5253.29 757.06 5253.86C757.56 5254.42 757.81 5255.139999999999 757.81 5256.0199999999995C757.81 5256.919999999999 757.55 5257.669999999999 757.03 5258.249999999999ZM756.09 5254.66C755.8100000000001 5254.19 755.4200000000001 5253.96 754.9100000000001 5253.96C754.3800000000001 5253.96 753.9800000000001 5254.19 753.7 5254.66C753.46 5255.05 753.34 5255.5199999999995 753.34 5256.08C753.34 5256.63 753.46 5257.09 753.7 5257.48C753.98 5257.95 754.38 5258.19 754.9000000000001 5258.19C755.4000000000001 5258.19 755.8000000000001 5257.95 756.08 5257.469999999999C756.32 5257.07 756.45 5256.599999999999 756.45 5256.0599999999995C756.45 5255.5199999999995 756.33 5255.049999999999 756.09 5254.66Z"
		fill="#ffffff"
		transform="matrix(1,0,0,1,-635,-5242)"/>
	<path
		d="M764.2 5259.02H762.88V5255.64C762.88 5254.6 762.49 5254.08 761.6899999999999 5254.08C761.29 5254.08 760.9799999999999 5254.22 760.7299999999999 5254.51C760.4899999999999 5254.8 760.3699999999999 5255.13 760.3699999999999 5255.52V5259.02H759.0499999999998V5254.81C759.0499999999998 5254.29 759.0299999999999 5253.7300000000005 758.9999999999999 5253.120000000001H760.1599999999999L760.2199999999998 5254.040000000001H760.2599999999998C760.4099999999997 5253.760000000001 760.6399999999998 5253.52 760.9399999999997 5253.330000000001C761.2999999999997 5253.110000000001 761.6999999999997 5253.000000000001 762.1399999999998 5253.000000000001C762.6899999999997 5253.000000000001 763.1499999999997 5253.180000000001 763.5199999999998 5253.530000000001C763.9799999999998 5253.97 764.1999999999997 5254.620000000001 764.1999999999997 5255.490000000001Z"
		fill="#ffffff"
		transform="matrix(1,0,0,1,-635,-5242)"/>
	<path
		d="M773.62 5253.45H772.16V5256.3099999999995C772.16 5257.039999999999 772.42 5257.4 772.93 5257.4C773.17 5257.4 773.3599999999999 5257.379999999999 773.52 5257.339999999999L773.55 5258.339999999999C773.29 5258.429999999999 772.9499999999999 5258.48 772.53 5258.48C772.01 5258.48 771.6 5258.32 771.31 5258.009999999999C771.01 5257.69 770.8699999999999 5257.159999999999 770.8699999999999 5256.419999999999V5253.449999999999H769.9999999999999V5252.469999999999H770.8699999999999V5251.389999999999L772.1599999999999 5250.999999999999V5252.469999999999H773.6099999999999V5253.449999999999Z"
		fill="#ffffff"
		transform="matrix(1,0,0,1,-635,-5242)"/>
	<path
		d="M780.16 5258.6H778.8299999999999V5255.25C778.8299999999999 5254.19 778.4399999999999 5253.66 777.6399999999999 5253.66C777.0299999999999 5253.66 776.6099999999999 5253.97 776.3799999999999 5254.58C776.3399999999999 5254.71 776.3199999999999 5254.87 776.3199999999999 5255.05V5258.6H774.9999999999999V5250H776.3199999999999V5253.55H776.3399999999999C776.7599999999999 5252.91 777.3499999999999 5252.58 778.1299999999999 5252.58C778.6699999999998 5252.58 779.1299999999999 5252.76 779.4799999999999 5253.12C779.93 5253.5599999999995 780.1599999999999 5254.22 780.1599999999999 5255.09Z"
		fill="#ffffff"
		transform="matrix(1,0,0,1,-635,-5242)"/>
	<path
		d="M787.23 5256.39H783.27C783.29 5256.9800000000005 783.48 5257.42 783.84 5257.7300000000005C784.1800000000001 5258.000000000001 784.61 5258.14 785.14 5258.14C785.72 5258.14 786.26 5258.05 786.74 5257.860000000001L786.95 5258.77C786.38 5259.01 785.72 5259.13 784.95 5259.13C784.0300000000001 5259.13 783.3100000000001 5258.87 782.7900000000001 5258.33C782.2600000000001 5257.79 782.0000000000001 5257.07 782.0000000000001 5256.16C782.0000000000001 5255.28 782.2400000000001 5254.54 782.7300000000001 5253.95C783.2400000000001 5253.32 783.9400000000002 5253 784.8100000000002 5253C785.6600000000002 5253 786.3100000000002 5253.32 786.7500000000002 5253.95C787.1000000000003 5254.45 787.2800000000002 5255.0599999999995 787.2800000000002 5255.8C787.2800000000002 5256.03 787.2600000000002 5256.2300000000005 787.2300000000002 5256.39ZM785.76 5254.45C785.53 5254.09 785.18 5253.91 784.71 5253.91C784.2800000000001 5253.91 783.9300000000001 5254.09 783.6600000000001 5254.44C783.44 5254.73 783.3100000000001 5255.0599999999995 783.2700000000001 5255.46H786.0200000000001C786.0300000000001 5255.07 785.94 5254.74 785.7600000000001 5254.45Z"
		fill="#ffffff"
		transform="matrix(1,0,0,1,-635,-5242)"/>
</svg>
