<svg version="1.1"
     xmlns="http://www.w3.org/2000/svg"
     xmlns:xlink="http://www.w3.org/1999/xlink"
     xmlns:svgjs="http://svgjs.com/svgjs"
     viewBox="0 0 118 31"
>
    <path d="M18.6,14c0-3.5,2.8-5.2,3-5.2c-1.6-2.4-4.1-2.7-5-2.7c-2.1-0.2-4.2,1.3-5.2,1.3
		c-1.1,0-2.8-1.3-4.6-1.2c-2.3,0-4.4,1.4-5.6,3.4c-2.4,4.2-0.6,10.4,1.7,13.8C4,25,5.4,26.9,7.2,26.8c1.8-0.1,2.4-1.1,4.5-1.1
		c2.1,0,2.7,1.1,4.5,1.1c1.9,0,3.1-1.7,4.2-3.4c1.3-1.9,1.9-3.8,1.9-3.9C22.3,19.5,18.7,18.1,18.6,14z"/>
    <path d="M15.1,4.4C16,3.2,16.7,1.6,16.5,0c-1.4,0.1-3.1,0.9-4,2.1c-0.9,1-1.6,2.7-1.4,4.2
		C12.6,6.4,14.1,5.6,15.1,4.4z"/>
    <path d="M41.6,27.3l-1.3-4.2h-4.6l-1.3,4.2H32L36.6,13h2.8l4.6,14.3H41.6z M38.7,17.6
		c-0.1-0.4-0.4-1.3-0.7-2.7h0c-0.1,0.6-0.4,1.5-0.7,2.7l-1.2,3.7h3.8L38.7,17.6z"/>
    <path d="M54.5,25.4c-0.8,0.9-1.9,1.4-3.2,1.4c-1.3,0-2.3-0.5-2.9-1.5h-0.1v5.4h-2.3V19.6
		c0-1.1,0-2.2-0.1-3.4h2l0.1,1.6h0c0.8-1.2,1.9-1.8,3.5-1.8c1.2,0,2.2,0.5,3.1,1.4c0.8,1,1.2,2.2,1.2,3.8
		C55.9,23,55.4,24.4,54.5,25.4z M52.9,18.8c-0.5-0.7-1.2-1-2-1c-0.6,0-1.1,0.2-1.5,0.6c-0.5,0.4-0.8,0.9-0.9,1.5
		c-0.1,0.3-0.1,0.5-0.1,0.7v1.7c0,0.8,0.2,1.4,0.7,1.9c0.5,0.5,1,0.8,1.8,0.8c0.9,0,1.5-0.3,2-1c0.5-0.7,0.7-1.5,0.7-2.6
		C53.6,20.3,53.4,19.5,52.9,18.8z"/>
    <path d="M65.5,25.4c-0.9,0.9-1.9,1.4-3.2,1.4c-1.3,0-2.3-0.5-2.9-1.5h-0.1v5.4h-2.3V19.6
		c0-1.1,0-2.2-0.1-3.4h2l0.1,1.6h0c0.8-1.2,1.9-1.8,3.5-1.8c1.2,0,2.2,0.5,3.1,1.4c0.8,1,1.2,2.2,1.2,3.8
		C66.9,23,66.4,24.4,65.5,25.4z M63.9,18.8c-0.5-0.7-1.2-1-2-1c-0.6,0-1.1,0.2-1.5,0.6c-0.5,0.4-0.8,0.9-0.9,1.5
		c-0.1,0.3-0.1,0.5-0.1,0.7v1.7c0,0.8,0.2,1.4,0.7,1.9c0.5,0.5,1.1,0.8,1.8,0.8c0.9,0,1.5-0.3,2-1c0.5-0.7,0.7-1.5,0.7-2.6
		C64.6,20.3,64.4,19.5,63.9,18.8z"/>
    <path d="M80.9,22.5c0,1.2-0.4,2.2-1.3,3c-0.9,0.8-2.2,1.3-3.9,1.3c-1.5,0-2.8-0.3-3.7-0.9l0.5-1.9
		c1,0.6,2.1,0.9,3.3,0.9c0.9,0,1.5-0.2,2-0.6c0.5-0.4,0.7-0.9,0.7-1.6c0-0.6-0.2-1.1-0.6-1.5c-0.4-0.4-1.1-0.8-2-1.1
		c-2.5-0.9-3.8-2.3-3.8-4.1c0-1.2,0.4-2.1,1.3-2.9c0.9-0.8,2-1.1,3.5-1.1c1.3,0,2.4,0.2,3.3,0.7l-0.6,1.9c-0.8-0.4-1.7-0.7-2.7-0.7
		c-0.8,0-1.4,0.2-1.9,0.6c-0.4,0.4-0.6,0.8-0.6,1.3c0,0.6,0.2,1,0.7,1.4c0.4,0.3,1.1,0.7,2.1,1.1c1.2,0.5,2.1,1.1,2.7,1.7
		C80.6,20.7,80.9,21.5,80.9,22.5z"/>
    <path d="M88.3,18.3h-2.5v5c0,1.3,0.5,1.9,1.3,1.9c0.4,0,0.8,0,1-0.1l0.1,1.7
		c-0.5,0.2-1.1,0.3-1.8,0.3c-0.9,0-1.6-0.3-2.1-0.8c-0.5-0.5-0.8-1.5-0.8-2.8v-5.2H82v-1.7h1.5v-1.9l2.3-0.7v2.6h2.5V18.3z"/>
    <path d="M97.7,25.2c-0.9,1-2.2,1.6-3.8,1.6c-1.5,0-2.7-0.5-3.6-1.5c-0.9-1-1.4-2.3-1.4-3.8
		c0-1.6,0.5-2.9,1.4-3.9c0.9-1,2.2-1.5,3.7-1.5c1.5,0,2.7,0.5,3.6,1.5c0.9,1,1.3,2.2,1.3,3.8C99.1,22.9,98.6,24.2,97.7,25.2z
		 M96.1,18.9c-0.5-0.8-1.2-1.2-2.1-1.2c-0.9,0-1.6,0.4-2.1,1.2c-0.4,0.7-0.6,1.5-0.6,2.5c0,0.9,0.2,1.8,0.6,2.4
		c0.5,0.8,1.2,1.2,2.1,1.2c0.9,0,1.6-0.4,2-1.3c0.4-0.7,0.6-1.5,0.6-2.5S96.5,19.6,96.1,18.9z"/>
    <path d="M106.5,18.2c-0.2,0-0.5-0.1-0.7-0.1c-0.8,0-1.4,0.3-1.9,0.9c-0.4,0.5-0.6,1.2-0.6,2v5.4
		h-2.3l0-7.1c0-1.2,0-2.3-0.1-3.3h2l0.1,2h0.1c0.2-0.7,0.6-1.2,1.1-1.6c0.5-0.4,1.1-0.6,1.6-0.6c0.2,0,0.4,0,0.6,0V18.2z"/>
    <path d="M117.1,21.9h-6.9c0,1,0.4,1.8,1,2.3c0.6,0.5,1.3,0.7,2.3,0.7c1,0,1.9-0.2,2.8-0.5l0.4,1.6
		c-1,0.4-2.1,0.6-3.5,0.6c-1.6,0-2.9-0.5-3.8-1.4c-0.9-0.9-1.4-2.2-1.4-3.8c0-1.6,0.4-2.8,1.3-3.9c0.9-1.1,2.1-1.7,3.6-1.7
		c1.5,0,2.6,0.6,3.4,1.7c0.6,0.9,0.9,2,0.9,3.3C117.2,21.3,117.1,21.7,117.1,21.9z M114.5,18.5c-0.4-0.6-1-1-1.8-1
		c-0.8,0-1.4,0.3-1.8,0.9c-0.4,0.5-0.6,1.1-0.7,1.8h4.8C115,19.6,114.8,19,114.5,18.5z"/>
    <path d="M37.6,6.3c-0.7,0.6-1.7,0.9-3,0.9c-0.6,0-1.2,0-1.6-0.1V0.2C33.6,0.1,34.2,0,34.9,0
		c1.2,0,2.2,0.3,2.8,0.8c0.7,0.6,1.1,1.5,1.1,2.6C38.8,4.7,38.4,5.6,37.6,6.3z M36.9,1.5c-0.4-0.4-1.1-0.7-1.9-0.7
		c-0.4,0-0.6,0-0.9,0.1v5.3c0.1,0,0.4,0,0.8,0c0.9,0,1.5-0.2,2-0.7c0.5-0.5,0.7-1.2,0.7-2.1C37.6,2.6,37.4,2,36.9,1.5z"/>
    <path d="M44.3,6.5c-0.5,0.5-1.1,0.8-1.8,0.8c-0.8,0-1.3-0.3-1.8-0.7C40.2,6.1,40,5.4,40,4.7
		c0-0.8,0.2-1.4,0.7-1.9C41.1,2.3,41.8,2,42.5,2c0.7,0,1.3,0.3,1.8,0.7C44.7,3.2,45,3.8,45,4.6C45,5.4,44.7,6,44.3,6.5z M43.5,3.4
		c-0.2-0.4-0.6-0.6-1-0.6c-0.4,0-0.8,0.2-1,0.6c-0.2,0.3-0.3,0.7-0.3,1.2c0,0.5,0.1,0.9,0.3,1.2c0.2,0.4,0.6,0.6,1,0.6
		c0.4,0,0.8-0.2,1-0.6c0.2-0.3,0.3-0.7,0.3-1.2C43.8,4.2,43.7,3.8,43.5,3.4z"/>
    <path d="M53.3,2l-1.6,5.1h-1l-0.7-2.2c-0.2-0.6-0.3-1.1-0.4-1.6h0c-0.1,0.6-0.2,1.1-0.4,1.6
		l-0.7,2.2h-1L46,2h1.2l0.6,2.4C47.9,5,48,5.5,48.1,6h0c0.1-0.4,0.2-1,0.4-1.6L49.2,2h0.9l0.7,2.4C51,4.9,51.1,5.5,51.2,6h0
		c0.1-0.5,0.2-1.1,0.3-1.7L52.2,2H53.3z"/>
    <path d="M59.4,7.2h-1.1V4.3c0-0.9-0.3-1.3-1-1.3c-0.3,0-0.6,0.1-0.8,0.4c-0.2,0.2-0.3,0.5-0.3,0.9v3
		H55V3.6c0-0.4,0-0.9,0-1.5h1l0,0.8h0c0.1-0.3,0.3-0.5,0.6-0.6C57,2.1,57.3,2,57.7,2c0.5,0,0.9,0.2,1.2,0.5c0.4,0.4,0.6,0.9,0.6,1.7
		V7.2z"/>
    <path d="M62.1,7.4H61V0h1.1V7.4z"/>
    <path d="M68.3,6.5c-0.5,0.5-1.1,0.8-1.8,0.8c-0.8,0-1.3-0.3-1.8-0.7C64.2,6.1,64,5.4,64,4.7
		c0-0.8,0.2-1.4,0.7-1.9C65.1,2.3,65.8,2,66.5,2c0.7,0,1.3,0.3,1.8,0.7C68.7,3.2,69,3.8,69,4.6C69,5.4,68.7,6,68.3,6.5z M67.5,3.4
		c-0.2-0.4-0.6-0.6-1-0.6c-0.4,0-0.8,0.2-1,0.6c-0.2,0.3-0.3,0.7-0.3,1.2c0,0.5,0.1,0.9,0.3,1.2c0.2,0.4,0.6,0.6,1,0.6
		c0.4,0,0.8-0.2,1-0.6c0.2-0.3,0.3-0.7,0.3-1.2C67.8,4.2,67.7,3.8,67.5,3.4z"/>
    <path d="M73.1,7.2l-0.1-0.6h0c-0.3,0.5-0.8,0.7-1.5,0.7c-0.5,0-0.9-0.2-1.2-0.5
		c-0.3-0.3-0.4-0.6-0.4-1c0-0.6,0.3-1.1,0.8-1.4C71.3,4.1,72,3.9,73,3.9V3.8c0-0.7-0.4-1-1.1-1c-0.5,0-0.9,0.1-1.3,0.4l-0.2-0.7
		C70.8,2.2,71.4,2,72.1,2c1.3,0,2,0.7,2,2.1V6c0,0.5,0,0.9,0.1,1.2H73.1z M73,4.7c-1.2,0-1.9,0.3-1.9,1c0,0.3,0.1,0.5,0.2,0.6
		c0.2,0.1,0.3,0.2,0.6,0.2c0.3,0,0.5-0.1,0.7-0.2c0.2-0.2,0.3-0.4,0.4-0.6c0-0.1,0-0.1,0-0.2V4.7z"/>
    <path d="M79.8,7.4l-0.1-0.8h0c-0.3,0.6-0.9,0.9-1.6,0.9c-0.6,0-1.1-0.2-1.5-0.7
		C76.2,6.3,76,5.7,76,4.9c0-0.8,0.2-1.5,0.7-2c0.4-0.5,0.9-0.7,1.6-0.7c0.7,0,1.1,0.2,1.4,0.7h0V0h1.1v6c0,0.5,0,1,0,1.4H79.8z
		 M79.7,4.4c0-0.2,0-0.3,0-0.4c-0.1-0.3-0.2-0.5-0.4-0.7c-0.2-0.2-0.5-0.3-0.8-0.3c-0.4,0-0.8,0.2-1,0.5c-0.2,0.3-0.4,0.8-0.4,1.3
		c0,0.5,0.1,0.9,0.4,1.2c0.2,0.3,0.6,0.5,1,0.5c0.4,0,0.7-0.1,0.9-0.4c0.2-0.3,0.3-0.6,0.3-0.9V4.4z"/>
    <path d="M89.3,6.5c-0.5,0.5-1.1,0.8-1.9,0.8c-0.8,0-1.3-0.3-1.8-0.7C85.2,6.1,85,5.4,85,4.7
		c0-0.8,0.2-1.4,0.7-1.9C86.1,2.3,86.8,2,87.5,2c0.7,0,1.3,0.3,1.8,0.7C89.7,3.2,90,3.8,90,4.6C90,5.4,89.7,6,89.3,6.5z M88.5,3.4
		c-0.2-0.4-0.6-0.6-1-0.6c-0.5,0-0.8,0.2-1,0.6c-0.2,0.3-0.3,0.7-0.3,1.2c0,0.5,0.1,0.9,0.3,1.2c0.2,0.4,0.6,0.6,1,0.6
		c0.4,0,0.8-0.2,1-0.6c0.2-0.3,0.3-0.7,0.3-1.2C88.8,4.2,88.7,3.8,88.5,3.4z"/>
    <path d="M96.4,7.2h-1.1V4.3c0-0.9-0.3-1.3-1-1.3c-0.3,0-0.6,0.1-0.8,0.4c-0.2,0.2-0.3,0.5-0.3,0.9v3
		H92V3.6c0-0.4,0-0.9,0-1.5h1L93,2.9h0c0.1-0.3,0.3-0.5,0.6-0.6C94,2.1,94.3,2,94.7,2c0.5,0,0.9,0.2,1.2,0.5c0.4,0.4,0.6,0.9,0.6,1.7
		V7.2z"/>
    <path d="M104.1,3.1h-1.2v2.5c0,0.6,0.2,0.9,0.7,0.9c0.2,0,0.4,0,0.5-0.1l0,0.9
		c-0.2,0.1-0.5,0.1-0.9,0.1c-0.5,0-0.8-0.1-1-0.4c-0.3-0.3-0.4-0.7-0.4-1.4V3.1H101V2.3h0.7V1.3l1.1-0.3v1.3h1.2V3.1z"/>
    <path d="M110.4,7.4h-1.1V4.5c0-0.9-0.3-1.4-1-1.4c-0.5,0-0.9,0.3-1.1,0.8c0,0.1-0.1,0.2-0.1,0.4v3.1
		H106V0h1.1v3.1h0c0.4-0.6,0.9-0.8,1.5-0.8c0.5,0,0.8,0.2,1.1,0.5c0.4,0.4,0.6,0.9,0.6,1.7V7.4z"/>
    <path d="M115.9,5.1h-3.4c0,0.5,0.2,0.9,0.5,1.1c0.3,0.2,0.7,0.4,1.1,0.4c0.5,0,1-0.1,1.4-0.2
		l0.2,0.8c-0.5,0.2-1,0.3-1.7,0.3c-0.8,0-1.4-0.2-1.8-0.7c-0.5-0.5-0.7-1.1-0.7-1.8c0-0.8,0.2-1.4,0.6-1.9c0.4-0.5,1-0.8,1.8-0.8
		c0.7,0,1.3,0.3,1.6,0.8c0.3,0.4,0.5,1,0.5,1.6C116,4.8,116,5,115.9,5.1z M114.7,3.5c-0.2-0.3-0.5-0.5-0.9-0.5
		c-0.4,0-0.7,0.1-0.9,0.5c-0.2,0.2-0.3,0.5-0.3,0.9h2.4C114.9,4,114.8,3.7,114.7,3.5z"/>
</svg>
