<svg
	version="1.1"
	xmlns="http://www.w3.org/2000/svg"
	xmlns:xlink="http://www.w3.org/1999/xlink"
	xmlns:svgjs="http://svgjs.com/svgjs"
	width="17"
	height="21"
	viewBox="0 0 17 21">
	<path
		d="M294.46 3160.13C293.21999999999997 3158.32 291.29999999999995 3158.08 290.63 3158.06C289.02 3157.89 287.46 3159.02 286.64 3159.02C285.8 3159.02 284.53999999999996 3158.07 283.16999999999996 3158.1C281.41999999999996 3158.13 279.78 3159.14 278.87999999999994 3160.72C277.0299999999999 3163.93 278.4099999999999 3168.6499999999996 280.18999999999994 3171.25C281.0799999999999 3172.52 282.11999999999995 3173.94 283.47999999999996 3173.89C284.80999999999995 3173.8399999999997 285.30999999999995 3173.0499999999997 286.90999999999997 3173.0499999999997C288.49999999999994 3173.0499999999997 288.96999999999997 3173.89 290.35999999999996 3173.8599999999997C291.78999999999996 3173.8399999999997 292.67999999999995 3172.5799999999995 293.53999999999996 3171.2999999999997C294.56999999999994 3169.8399999999997 294.97999999999996 3168.41 294.99999999999994 3168.33C294.96999999999997 3168.3199999999997 292.22999999999996 3167.2799999999997 292.19999999999993 3164.11C292.17999999999995 3161.4700000000003 294.35999999999996 3160.19 294.4599999999999 3160.13ZM290.65 3153C289.60999999999996 3153.05 288.32 3153.72 287.57 3154.59C286.90999999999997 3155.36 286.32 3156.63 286.46999999999997 3157.82C287.64 3157.9 288.83 3157.23 289.58 3156.3500000000004C290.28999999999996 3155.4500000000003 290.78 3154.2400000000002 290.65 3153.0000000000005Z"
		transform="matrix(1,0,0,1,-278,-3153)"/>
</svg>
