<svg
	version="1.1"
	xmlns="http://www.w3.org/2000/svg"
	xmlns:xlink="http://www.w3.org/1999/xlink"
	xmlns:svgjs="http://svgjs.com/svgjs"
	width="18"
	height="11"
	viewBox="0 0 18 11">
	<path
		d="M1360.8 48.36C1361.12 47.96 1361.28 47.44 1361.28 46.78C1361.28 46.15 1361.12 45.6 1360.8 45.14C1360.26 44.4 1359.36 44.02 1358.08 44L1353 44L1353 54.730000000000004L1357.73 54.730000000000004C1358.27 54.730000000000004 1358.76 54.68000000000001 1359.22 54.59C1359.68 54.49 1360.07 54.31 1360.4 54.050000000000004C1360.7 53.82000000000001 1360.95 53.540000000000006 1361.15 53.2C1361.46 52.7 1361.6200000000001 52.13 1361.6200000000001 51.49C1361.6200000000001 50.870000000000005 1361.48 50.35 1361.21 49.92C1360.93 49.49 1360.53 49.17 1359.99 48.97C1360.35 48.79 1360.61 48.58 1360.8 48.36ZM1367.97 46.96C1367.43 46.71 1366.82 46.58 1366.14 46.58C1365 46.58 1364.0800000000002 46.949999999999996 1363.3600000000001 47.68C1362.65 48.42 1362.2900000000002 49.47 1362.2900000000002 50.85C1362.2900000000002 52.31 1362.6900000000003 53.370000000000005 1363.4800000000002 54.02C1364.2700000000002 54.68 1365.1800000000003 55 1366.2200000000003 55C1367.4700000000003 55 1368.4400000000003 54.61 1369.1400000000003 53.84C1369.5800000000004 53.36000000000001 1369.8400000000004 52.88 1369.8900000000003 52.410000000000004L1367.8200000000004 52.410000000000004C1367.7000000000005 52.64 1367.5600000000004 52.82 1367.4000000000003 52.96C1367.1100000000004 53.2 1366.7300000000002 53.32 1366.2700000000002 53.32C1365.8300000000002 53.32 1365.4600000000003 53.22 1365.1500000000003 53.02C1364.6400000000003 52.7 1364.3700000000003 52.14 1364.3400000000004 51.35L1370.0000000000005 51.35C1370.0100000000004 50.660000000000004 1369.9900000000005 50.13 1369.9300000000005 49.77C1369.8400000000006 49.150000000000006 1369.6300000000006 48.6 1369.3100000000006 48.13C1368.9600000000007 47.6 1368.5100000000007 47.2 1367.9700000000007 46.96ZM1357.64 52.87L1355.0900000000001 52.87L1355.0900000000001 50.01L1357.68 50.01C1358.13 50.01 1358.48 50.07 1358.73 50.19C1359.18 50.4 1359.4 50.78 1359.4 51.339999999999996C1359.4 51.99999999999999 1359.17 52.44 1358.71 52.68C1358.46 52.8 1358.1000000000001 52.87 1357.64 52.87ZM1357.38 45.86C1357.88 45.86 1358.3000000000002 45.92 1358.6200000000001 46.03C1359.0000000000002 46.19 1359.19 46.52 1359.19 47.02C1359.19 47.470000000000006 1359.04 47.790000000000006 1358.76 47.96C1358.47 48.14 1358.1 48.230000000000004 1357.65 48.230000000000004L1355.0900000000001 48.230000000000004L1355.0900000000001 45.86000000000001ZM1363.86 45.84L1368.36 45.84L1368.36 44.5L1363.86 44.5ZM1364.93 48.75C1365.22 48.45 1365.6200000000001 48.3 1366.14 48.3C1366.6200000000001 48.3 1367.0200000000002 48.44 1367.3500000000001 48.72C1367.67 49.01 1367.8500000000001 49.43 1367.89 49.98L1364.39 49.98C1364.46 49.459999999999994 1364.64 49.05 1364.93 48.75Z"
		transform="matrix(1,0,0,1,-1353,-44)"/>
</svg>
