<svg
	version="1.1"
	xmlns="http://www.w3.org/2000/svg"
	xmlns:xlink="http://www.w3.org/1999/xlink"
	xmlns:svgjs="http://svgjs.com/svgjs"
	width="17"
	height="17"
	viewBox="0 0 17 17">
	<path
		d="M1328.94 64.38C1328.49 64.38 1328.0900000000001 64.07 1327.97 63.63999999999999C1327.74 62.739999999999995 1327.5 61.42999999999999 1327.5 59.809999999999995C1327.5 57.51 1326.67 54.81999999999999 1323.06 54.16C1322.82 54.12 1322.6299999999999 53.91 1322.6299999999999 53.669999999999995V53.49999999999999C1322.6299999999999 53.21999999999999 1322.4099999999999 52.99999999999999 1322.1299999999999 52.99999999999999H1321.1299999999999C1320.86 52.99999999999999 1320.6299999999999 53.21999999999999 1320.6299999999999 53.49999999999999V53.669999999999995C1320.6299999999999 53.91 1320.4599999999998 54.10999999999999 1320.2199999999998 54.16C1316.5799999999997 54.809999999999995 1315.7499999999998 57.5 1315.7499999999998 59.809999999999995C1315.7499999999998 61.41 1315.5099999999998 62.73 1315.2699999999998 63.63999999999999C1315.1599999999999 64.07 1314.7599999999998 64.38 1314.3099999999997 64.38H1313.4999999999998C1313.2199999999998 64.38 1312.9999999999998 64.6 1312.9999999999998 64.88V65.88C1312.9999999999998 66.14999999999999 1313.2199999999998 66.38 1313.4999999999998 66.38H1317.3699999999997C1317.5999999999997 66.38 1317.8099999999997 66.53999999999999 1317.8499999999997 66.77C1318.1899999999996 68.61 1319.6999999999996 70 1321.4999999999998 70C1323.2999999999997 70 1324.8099999999997 68.61 1325.1499999999999 66.77C1325.1899999999998 66.53999999999999 1325.3999999999999 66.38 1325.6399999999999 66.38H1329.4999999999998C1329.7799999999997 66.38 1329.9999999999998 66.14999999999999 1329.9999999999998 65.88V64.88C1329.9999999999998 64.6 1329.7799999999997 64.38 1329.4999999999998 64.38ZM1321.63 56.01C1324.3300000000002 56.11 1325.5 57.26 1325.5 59.809999999999995C1325.5 61.41 1325.71 62.74999999999999 1325.95 63.76C1326.02 64.08 1325.78 64.38 1325.46 64.38H1317.79C1317.47 64.38 1317.23 64.08 1317.3 63.76C1317.54 62.75 1317.75 61.41 1317.75 59.809999999999995C1317.75 57.26 1318.92 56.10999999999999 1321.63 56.01ZM1319.81 66.38H1323.19C1323.03 67.3 1322.3400000000001 68 1321.5 68C1320.66 68 1319.97 67.3 1319.81 66.38Z"
		transform="matrix(1,0,0,1,-1313,-53)"/>
</svg>
