<svg
	version="1.1"
	xmlns="http://www.w3.org/2000/svg"
	xmlns:xlink="http://www.w3.org/1999/xlink"
	xmlns:svgjs="http://svgjs.com/svgjs"
	width="140"
	height="30"
	viewBox="0 0 140 30">
	<path
		d="M557.91 4570C556.29 4570 555 4571.5 555 4573.38V4596.62C555 4598.48 556.29 4600 557.91 4600H691.74C693.33 4600 694.64 4598.5 694.64 4596.62V4573.38C694.62 4571.5 693.33 4570 691.71 4570ZM690.73 4591.84C690.73 4593.7 689.44 4595.22 687.83 4595.22H561.8000000000001C560.1800000000001 4595.22 558.8900000000001 4593.72 558.8900000000001 4591.84V4577.900000000001C558.8900000000001 4576.02 560.1800000000001 4574.52 561.8000000000001 4574.52H687.85C689.44 4574.52 690.75 4576.02 690.75 4577.900000000001V4591.84ZM562.37 4591.96H573.18V4591.93C574.12 4591.79 574.88 4590.29 574.88 4588.46C574.88 4586.67 574.16 4585.2 573.24 4585C574.16 4584.8 574.88 4583.33 574.88 4581.54C574.88 4579.71 574.12 4578.21 573.18 4578.07L562.37 4578.04ZM564.99 4588.87V4586.01H571.58C572.1600000000001 4586.06 572.61 4586.68 572.61 4587.4400000000005C572.61 4588.200000000001 572.16 4588.820000000001 571.58 4588.870000000001ZM564.99 4583.37V4580.5199999999995H571.58C572.1600000000001 4580.5599999999995 572.61 4581.179999999999 572.61 4581.94C572.61 4582.7 572.16 4583.32 571.58 4583.37ZM600.98 4578.14L594.86 4591.530000000001H597.26L598.56261 4588.68H606.15L607.4499999999999 4591.530000000001H609.8699999999999L603.7199999999999 4578.14ZM605.01 4586.2H599.69612L602.3544599999999 4580.38379ZM645.82 4585.75H651.59V4583.28H645.82V4580.679999999999H655.38V4578.209999999999H645.82V4578.179999999999H643.69V4591.74H655.3800000000001V4589.2699999999995H645.8200000000002ZM581.16 4585.7H582.5799999999999L588.8199999999999 4591.74H592.2399999999999L585.9999999999999 4585.7H589.7599999999999V4585.679999999999C590.7399999999999 4585.539999999999 591.4999999999999 4583.869999999999 591.4999999999999 4581.869999999999C591.4999999999999 4579.8499999999985 590.7199999999999 4578.209999999999 589.7599999999999 4578.069999999999L578.5999999999999 4578.039999999999V4591.739999999999H581.1599999999999ZM580.9 4583.77V4580.92H587.49C588.0600000000001 4580.97 588.51 4581.59 588.51 4582.35C588.51 4583.08 588.06 4583.700000000001 587.49 4583.77ZM661.83 4585.7H663.24L669.48 4591.74H672.9L666.66 4585.7H670.42V4585.679999999999C671.41 4585.539999999999 672.16 4583.869999999999 672.16 4581.869999999999C672.16 4579.8499999999985 671.39 4578.209999999999 670.42 4578.069999999999L659.27 4578.039999999999V4591.739999999999H661.8299999999999ZM661.56 4583.77V4580.92H668.15C668.72 4580.97 669.17 4581.59 669.17 4582.35C669.17 4583.08 668.7199999999999 4583.700000000001 668.15 4583.77ZM686.02 4580.59V4581.9400000000005H688.56V4580.59C688.56 4579.16 687.5799999999999 4578.02 686.3499999999999 4578.02C686.2799999999999 4578.02 686.1999999999999 4578.02 686.1299999999999 4578.030000000001V4578.02H678.7999999999998V4578.030000000001C678.7299999999998 4578.02 678.6599999999999 4578.02 678.5899999999998 4578.02C677.4299999999998 4578.02 676.4599999999998 4579.110000000001 676.4599999999998 4580.490000000001V4583.610000000001C676.4599999999998 4584.960000000001 677.4299999999998 4586.080000000001 678.5899999999998 4586.080000000001C678.6899999999998 4586.080000000001 678.7899999999998 4586.070000000001 678.8899999999998 4586.06H685.9799999999998V4589.030000000001H678.1599999999997V4587.800000000001H675.7299999999998V4589.100000000001C675.7299999999998 4590.460000000001 676.6699999999998 4591.580000000001 677.8599999999998 4591.580000000001C677.8699999999998 4591.580000000001 677.8799999999998 4591.580000000001 677.8999999999997 4591.580000000001V4591.600000000001H685.9999999999998C686.0899999999998 4591.620000000002 686.1899999999998 4591.630000000001 686.2899999999997 4591.630000000001C687.4799999999998 4591.630000000001 688.4399999999997 4590.510000000001 688.4399999999997 4589.130000000001V4585.990000000001C688.4399999999997 4584.610000000001 687.4799999999997 4583.490000000001 686.2899999999997 4583.490000000001C686.2299999999998 4583.490000000001 686.1799999999997 4583.490000000001 686.1299999999998 4583.500000000001V4583.490000000001H678.9199999999997V4580.590000000001ZM613.88 4591.58V4591.6H624.83V4589.01H617.22L626.0400000000001 4577.95H613.4900000000001V4580.54H620.5700000000002L611.7700000000002 4591.58ZM628.72 4591.58V4591.6H639.6700000000001V4589.01H632.0500000000001L640.84 4577.95H628.33V4580.54H635.38L626.61 4591.58Z"
		transform="matrix(1,0,0,1,-555,-4570)"/>
</svg>
