<svg
	version="1.1"
	xmlns="http://www.w3.org/2000/svg"
	xmlns:xlink="http://www.w3.org/1999/xlink"
	xmlns:svgjs="http://svgjs.com/svgjs"
	width="106"
	height="46"
	viewBox="0 0 106 46">
	<path
		d="M827.39 2157.35C826.86 2156.62 824.81 2156.25 824.0699999999999 2156.99L819.8199999999999 2161.8199999999997C819.7199999999999 2161.9599999999996 821.77 2157.45 821.8799999999999 2156.83C822.1399999999999 2155.44 822.7799999999999 2153.7 824.9299999999998 2153.83C825.4699999999998 2153.87 828.6599999999999 2154.93 829.1199999999999 2155.84C829.5699999999999 2156.7400000000002 828.2099999999999 2159.3700000000003 827.8199999999999 2159.42C827.42 2159.4700000000003 827.76 2157.86 827.39 2157.35ZM806.66 2193.3C807.17 2192.03 808.65 2191.46 808.25 2191.3700000000003C806.83 2191.07 806.17 2192.5000000000005 806.13 2192.6300000000006C805.97 2193.0700000000006 806.49 2193.7000000000007 806.66 2193.3000000000006ZM829.14 2171.93C829.14 2171.93 832.58 2170.62 832.99 2169.48C833.3 2168.62 833.14 2167.38 833.04 2167.14C832.9399999999999 2166.91 830.11 2171.3599999999997 829.14 2171.93ZM834.73 2162.19C836.19 2165.91 834.73 2171.02 834.52 2171.52C834.3 2172.02 832.84 2174.83 832.84 2174.83C832.84 2174.83 835.89 2172.46 836.71 2169.0299999999997C837.21 2166.87 834.64 2161.97 834.73 2162.1899999999996ZM841.99 2165.03C841.2 2163.26 838.21 2161.1200000000003 837.82 2161.0600000000004C838.0200000000001 2161.26 840.35 2164.7100000000005 840.48 2164.9900000000002C841.14 2166.42 841.54 2167.69 841.3000000000001 2168.9700000000003C841.0500000000001 2170.2200000000003 840.2 2171.2900000000004 839.2800000000001 2172.1400000000003C839.8000000000001 2171.88 840.57 2171.4700000000003 840.95 2171.11C841.4100000000001 2170.6800000000003 843.5200000000001 2167.6800000000003 841.99 2165.03ZM842.96 2171.26C842.51 2171.71 842.2 2172.07 841.71 2172.34C842.36 2172.23 843.0500000000001 2172.1400000000003 843.77 2172.1000000000004C844.61 2170.9000000000005 845.65 2168.26 845.29 2166.4200000000005C845.1899999999999 2167.2700000000004 844.89 2169.3200000000006 842.9599999999999 2171.2600000000007ZM834.39 2183.91C838.67 2178.42 845.47 2180.6299999999997 845.85 2181.58C837.16 2180.5699999999997 837.97 2187.2799999999997 833.02 2189.08C830.61 2189.94 823.9 2189.45 817.48 2195.11C815.44 2196.4500000000003 812.24 2195.67 811.4200000000001 2195.63C810.6 2195.59 809.4100000000001 2195.59 808.83 2195.76C808.25 2195.9100000000003 807.97 2195.8700000000003 807.69 2195.71C807.4100000000001 2195.55 807.0300000000001 2195.39 806.45 2195.15C805.87 2194.9 805.44 2194.9 805.44 2194.9C805.44 2194.9 804.7900000000001 2193.62 805.07 2192.76C805.35 2191.8900000000003 805.9300000000001 2191.32 806.3100000000001 2191.11C806.69 2190.92 806.7900000000001 2190.88 806.7900000000001 2190.88C806.7900000000001 2190.88 806.8100000000001 2190.76 806.6100000000001 2190.76C806.4100000000001 2190.76 806.1900000000002 2191 806.0700000000002 2191.0200000000004C805.9500000000002 2191.0400000000004 805.9500000000002 2190.8600000000006 806.0900000000001 2190.6600000000003C806.2300000000001 2190.4500000000003 807.1500000000001 2189.53 808.5100000000001 2189.59C809.8800000000001 2189.65 810.9600000000002 2190.19 811.8800000000001 2190.03C812.8000000000001 2189.8700000000003 814.5800000000002 2189.0800000000004 816.9300000000001 2187.3300000000004C819.2900000000001 2185.57 821.69 2183.0400000000004 824.6200000000001 2180.8500000000004C827.5000000000001 2178.7200000000003 829.6900000000002 2177.4100000000003 830.3100000000002 2177.09C830.9300000000002 2176.77 830.9900000000001 2176.75 831.0900000000001 2176.67C831.1900000000002 2176.59 831.2300000000001 2176.51 830.6700000000002 2176.65C830.1100000000002 2176.79 827.9700000000001 2177.4900000000002 827.0800000000002 2178.12C826.2000000000002 2178.74 825.8000000000002 2179.29 825.8000000000002 2179.29C825.8000000000002 2179.29 825.9200000000002 2178.36 826.6400000000002 2177.57C827.3700000000002 2176.79 827.4500000000002 2176.71 827.5900000000003 2176.61C827.7300000000002 2176.51 827.6700000000003 2176.4300000000003 827.4300000000003 2176.57C827.1900000000003 2176.71 826.0400000000003 2177.88 825.6200000000003 2178.5C825.2000000000004 2179.12 824.9800000000004 2179.47 823.6200000000003 2179.69C822.2600000000003 2179.91 821.0300000000003 2180.21 820.5000000000003 2180.71C819.9500000000004 2181.2200000000003 819.7300000000004 2181.7200000000003 819.7300000000004 2181.7200000000003C819.7300000000004 2181.7200000000003 819.5100000000003 2182.0000000000005 819.5100000000003 2181.6600000000003C819.5100000000003 2181.32 819.7300000000004 2179.8300000000004 821.3200000000003 2178.6400000000003C822.9000000000003 2177.4500000000003 823.6400000000003 2176.9100000000003 823.9200000000003 2176.7100000000005C824.2000000000003 2176.5100000000007 824.1800000000003 2176.4300000000003 823.9600000000003 2176.4500000000003C823.7400000000002 2176.4600000000005 821.9300000000003 2176.8100000000004 821.1200000000002 2177.4500000000003C820.3000000000002 2178.1000000000004 820.0500000000002 2178.36 820.0500000000002 2178.36C820.0500000000002 2178.36 819.8300000000002 2178.42 819.9100000000002 2178.02C819.9900000000002 2177.61 820.3800000000002 2176.39 821.4400000000002 2175.7C822.4900000000001 2175.02 823.6000000000001 2174.66 823.6000000000001 2174.66L823.6400000000001 2173.6099999999997C823.6400000000001 2173.6099999999997 821.3900000000001 2172.45 820.9000000000001 2172.0399999999995C820.3900000000001 2171.6399999999994 819.8900000000001 2171.1899999999996 820.3000000000001 2168.8799999999997C820.69 2166.5599999999995 820.73 2166.0799999999995 820.72 2165.8799999999997C820.69 2165.68 819.7900000000001 2164.9599999999996 820.01 2163.64C820.23 2162.3399999999997 820.73 2161.5899999999997 820.73 2161.5899999999997C820.73 2161.5899999999997 820.6700000000001 2163.12 820.69 2163.95C820.72 2164.77 820.73 2165.27 820.97 2165.56C821.21 2165.84 821.23 2165.72 821.34 2166.0299999999997C821.44 2166.3199999999997 820.9 2168.62 820.75 2169.4799999999996C820.62 2170.3499999999995 820.31 2171.1499999999996 820.97 2171.0799999999995C821.63 2170.9899999999993 821.46 2170.8299999999995 821.63 2170.6299999999997C821.82 2170.43 822.18 2170.3499999999995 822.45 2170.43C822.74 2170.5099999999998 822.9000000000001 2170.6499999999996 823.1800000000001 2170.5699999999997C823.46 2170.49 824.22 2170.5699999999997 823.7800000000001 2171.1099999999997C823.34 2171.66 822.6400000000001 2171.49 822.84 2171.9999999999995C823.0400000000001 2172.4999999999995 825.45 2174.0199999999995 826.3000000000001 2173.4799999999996C827.3700000000001 2172.7999999999997 827.9200000000001 2172.6699999999996 827.96 2172.2299999999996C828 2171.7899999999995 827.19 2171.0899999999997 826.61 2171.4199999999996C826.02 2171.74 825.02 2172.0799999999995 824.44 2171.9599999999996C823.86 2171.8399999999997 823.7 2171.5699999999997 823.9000000000001 2171.5999999999995C824.1000000000001 2171.6199999999994 824.7 2171.8099999999995 825.2600000000001 2171.1499999999996C825.82 2170.49 830.5600000000001 2168.1399999999994 831.4100000000001 2166.7699999999995C832.2500000000001 2165.3999999999996 830.9300000000001 2162.0099999999993 831.58 2161.3699999999994C832.21 2160.7299999999996 836.98 2159.6799999999994 837.84 2159.3899999999994C839.64 2158.7899999999995 840.87 2157.1899999999996 840.47 2155.7199999999993C840.25 2154.9099999999994 839.0500000000001 2153.5099999999993 837.89 2152.7899999999995C837.6 2152.6199999999994 843.81 2153.4899999999993 843.93 2159.6999999999994C843.9899999999999 2162.3699999999994 847.8599999999999 2164.7899999999995 847.43 2167.7299999999996C847.1099999999999 2169.9199999999996 844.9 2171.6299999999997 844.05 2172.0999999999995C844.5899999999999 2172.0799999999995 845.14 2172.0999999999995 845.6999999999999 2172.1599999999994C846.64 2172.2699999999995 847.55 2172.879999999999 847.55 2172.879999999999C847.55 2172.879999999999 841.2199999999999 2173.6599999999994 839.0899999999999 2174.6999999999994C835.6299999999999 2176.379999999999 831.2399999999999 2178.4799999999996 826.31 2182.2999999999993C821.68 2185.8899999999994 819.38 2187.9899999999993 814.14 2190.7799999999993C812.38 2191.7199999999993 810.74 2191.8299999999995 809.97 2192.0099999999993C809.22 2192.189999999999 808.4 2192.609999999999 808.25 2193.129999999999C808.12 2193.6599999999994 808.19 2194.2799999999993 808.37 2194.439999999999C808.55 2194.599999999999 808.65 2194.539999999999 808.77 2194.2799999999993C808.89 2194.019999999999 808.77 2193.0899999999992 809.31 2192.729999999999C809.8599999999999 2192.369999999999 810.3 2192.469999999999 811.6999999999999 2192.269999999999C813.0999999999999 2192.0699999999993 813.91 2191.749999999999 814.16 2191.679999999999C814.42 2191.619999999999 814.6899999999999 2191.709999999999 814.28 2191.969999999999C813.89 2192.229999999999 813.12 2192.769999999999 812.12 2192.969999999999C811.12 2193.1699999999987 810.55 2193.229999999999 810.27 2193.409999999999C810 2193.589999999999 809.97 2193.959999999999 809.97 2193.959999999999C809.97 2193.959999999999 810.74 2193.879999999999 811.0600000000001 2193.939999999999C811.3800000000001 2193.999999999999 812.1600000000001 2194.409999999999 812.96 2194.459999999999C813.75 2194.5099999999993 815.24 2194.809999999999 816.4100000000001 2193.639999999999C817.09 2192.949999999999 819.69 2190.259999999999 823.5000000000001 2188.719999999999C826.7700000000001 2187.409999999999 831.5500000000001 2187.549999999999 834.3900000000001 2183.909999999999ZM815.49 2170.03C815.16 2169.77 814.2 2168.75 813.52 2166.6400000000003C812.85 2164.5200000000004 812.05 2163.0800000000004 813.43 2160.9900000000002C814.79 2158.9 814.93 2156.94 815.1099999999999 2156.2200000000003C815.2899999999998 2155.4900000000002 815.2199999999999 2154.5000000000005 816.8899999999999 2153.6400000000003C818.5599999999998 2152.7900000000004 819.8399999999999 2152.59 821.0799999999999 2152.1600000000003C822.31 2151.7400000000002 823.5799999999999 2150.6600000000003 824.16 2150.28C824.78 2149.86 826.91 2149.8 827.73 2150.94C828.66 2152.23 833.45 2152.63 834.13 2153.53C834.9 2154.5600000000004 834.36 2155.71 833.95 2156.1600000000003C833.12 2157.0600000000004 829.4300000000001 2160.1700000000005 829.12 2160.2100000000005C828.76 2160.2400000000007 828.98 2159.2900000000004 829.3 2158.4500000000003C829.6099999999999 2157.6200000000003 830.12 2157.0400000000004 829.9499999999999 2156.19C829.8199999999999 2155.48 829.3199999999999 2154.84 828.31 2154.17C826.88 2153.27 824.14 2152.71 823.15 2153.11C821.4499999999999 2153.83 820.84 2155.4500000000003 820.6899999999999 2156.58C820.55 2157.72 820.39 2159.27 819.3199999999999 2161.1C818.2499999999999 2162.93 817.5999999999999 2163.99 817.8499999999999 2165.06C818.1099999999999 2166.14 818.93 2167.9 819.0299999999999 2168.94C819.1299999999999 2169.9700000000003 819.0099999999999 2170.81 818.7799999999999 2171.85C818.5599999999998 2172.88 818.4099999999999 2173.65 818.7299999999999 2174.3399999999997C819.06 2175.0199999999995 819.2099999999999 2175.1699999999996 819.2899999999998 2175.2599999999998C819.3799999999999 2175.3599999999997 819.4299999999998 2175.5299999999997 819.1899999999998 2175.3599999999997C818.9499999999998 2175.1899999999996 817.5999999999998 2173.8499999999995 817.1199999999998 2172.43C816.6399999999998 2171 817.0999999999998 2168.99 816.8999999999997 2168.2799999999997C816.7099999999997 2167.58 815.3799999999998 2165.6499999999996 815.4799999999998 2164.0299999999997C815.5899999999998 2162.41 816.8599999999998 2160.68 817.4099999999997 2159.7799999999997C817.9599999999997 2158.8799999999997 819.1899999999997 2157.2 819.4399999999997 2156.4199999999996C819.6899999999997 2155.6499999999996 820.2199999999997 2154.1899999999996 820.4899999999997 2153.8299999999995C820.4899999999997 2153.8299999999995 820.2599999999996 2154.0199999999995 819.1399999999996 2155.3999999999996C818.0099999999996 2156.7799999999997 816.9999999999997 2157.7699999999995 816.6999999999996 2159.0299999999997C816.3899999999996 2160.29 815.6599999999996 2161.4799999999996 814.7099999999996 2162.29C813.7699999999995 2163.12 814.3299999999996 2164.21 814.6399999999995 2165.55C814.9599999999996 2166.8700000000003 815.1699999999995 2167.3500000000004 815.8999999999995 2168.67C816.6199999999995 2170 816.2799999999995 2171.08 816.3599999999996 2171.26C816.4399999999996 2171.44 815.8099999999996 2170.28 815.4899999999996 2170.03ZM824.57 2168.95C824.61 2168.71 824.9300000000001 2167.75 824.98 2167.22C825.03 2166.6899999999996 825.08 2166.1899999999996 824.7 2166.2999999999997C824.3100000000001 2166.39 823.8900000000001 2166.39 823.72 2166.2599999999998C823.5500000000001 2166.1299999999997 823.5400000000001 2165.9799999999996 823.71 2165.9599999999996C823.88 2165.9499999999994 824.64 2165.74 824.97 2165.4599999999996C825.2900000000001 2165.1799999999994 825.45 2164.9299999999994 825.53 2164.7599999999998C825.6 2164.5899999999997 825.5899999999999 2164.4799999999996 825.3 2164.6299999999997C825.02 2164.7699999999995 824.43 2165.1899999999996 824.1899999999999 2165.3499999999995C823.9499999999999 2165.5099999999993 823.4499999999999 2165.6399999999994 823.42 2165.7399999999993C823.39 2165.8299999999995 823.54 2166.459999999999 823.54 2167.0999999999995C823.54 2167.7399999999993 823.4699999999999 2168.7799999999993 823.27 2168.6199999999994C823.0799999999999 2168.4699999999993 823.17 2168.0199999999995 822.87 2167.7299999999996C822.57 2167.4399999999996 822.21 2166.9399999999996 822.25 2166.4199999999996C822.3 2165.9199999999996 822.37 2165.7899999999995 822.29 2165.4999999999995C822.1999999999999 2165.2099999999996 822.1899999999999 2164.7899999999995 822.4399999999999 2164.7399999999993C822.6999999999999 2164.6999999999994 822.79 2164.959999999999 823.38 2164.8699999999994C823.9399999999999 2164.7699999999995 824.53 2164.4199999999996 824.97 2164.0699999999993C825.4200000000001 2163.7199999999993 826.1800000000001 2162.879999999999 826.61 2162.789999999999C827.03 2162.699999999999 827.3000000000001 2162.739999999999 827.63 2162.3199999999993C827.97 2161.899999999999 828.37 2161.5099999999993 828.57 2161.359999999999C828.7600000000001 2161.2199999999993 828.94 2161.039999999999 829.0100000000001 2161.0899999999992C829.0800000000002 2161.1399999999994 828.3500000000001 2162.939999999999 827.1300000000001 2165.059999999999C825.9200000000001 2167.169999999999 825.1600000000001 2168.419999999999 824.9700000000001 2168.689999999999C824.7800000000001 2168.9699999999993 824.5400000000002 2169.189999999999 824.5700000000002 2168.9499999999994ZM835.36 2156.13C834.8000000000001 2156.76 834.1800000000001 2157.13 832.74 2158.03C831.3 2158.9300000000003 830.73 2159.4 830.27 2159.7400000000002C829.8199999999999 2160.1000000000004 829.56 2160.59 830.56 2160.3300000000004C830.66 2160.3 836.7199999999999 2158.9900000000002 837.51 2158.57C838.83 2157.8900000000003 839.2 2157.4 839.41 2156.51C839.61 2155.61 838.25 2154.1400000000003 837.61 2153.4C836.33 2151.92 833.24 2150.37 833.11 2150.35C831.5500000000001 2149.83 829.65 2150.2599999999998 828.11 2150.33C827.94 2150.34 828 2150.6 828.09 2150.66C829.47 2151.64 831.1600000000001 2151.17 832.85 2151.5699999999997C835.71 2152.5099999999998 836.35 2154.99 835.36 2156.1299999999997Z"
		transform="matrix(1,0,0,1,-742,-2150)"/>
	<path
		d="M744 2187.65V2171H747.75V2184.62H753.73V2187.65Z"
		transform="matrix(1,0,0,1,-742,-2150)"/>
	<path
		d="M756 2187.65V2171H759.75V2187.65Z"
		transform="matrix(1,0,0,1,-742,-2150)"/>
	<path
		d="M776.31 2183.71C777.3399999999999 2182.65 777.8599999999999 2181.33 777.8599999999999 2179.73C777.8599999999999 2178.16 777.3299999999999 2176.83 776.2899999999998 2175.75C775.2399999999999 2174.68 773.9399999999998 2174.14 772.3699999999999 2174.14C770.7899999999998 2174.14 769.4699999999999 2174.67 768.4199999999998 2175.75C767.3799999999999 2176.82 766.8499999999998 2178.15 766.8499999999998 2179.73C766.8499999999998 2181.34 767.3699999999998 2182.67 768.3999999999997 2183.72C769.4299999999997 2184.77 770.7499999999998 2185.29 772.3699999999998 2185.29C773.9599999999998 2185.29 775.2699999999998 2184.77 776.3099999999998 2183.71ZM781.01 2183.11C780.54 2184.17 779.87 2185.1 778.99 2185.9100000000003C778.08 2186.7300000000005 777.0600000000001 2187.3700000000003 775.92 2187.8100000000004C774.77 2188.2500000000005 773.5899999999999 2188.4700000000003 772.37 2188.4700000000003C771.3 2188.4700000000003 770.26 2188.3 769.23 2187.9500000000003C768.21 2187.6000000000004 767.27 2187.11 766.41 2186.4700000000003C765.31 2185.63 764.4699999999999 2184.63 763.88 2183.4700000000003C763.29 2182.32 763 2181.07 763 2179.7300000000005C763 2178.5400000000004 763.23 2177.4100000000003 763.69 2176.3600000000006C764.1600000000001 2175.3100000000004 764.84 2174.3800000000006 765.73 2173.5600000000004C766.61 2172.7500000000005 767.63 2172.1200000000003 768.79 2171.6700000000005C769.9499999999999 2171.2200000000007 771.14 2171.0000000000005 772.37 2171.0000000000005C773.59 2171.0000000000005 774.78 2171.2200000000003 775.93 2171.6700000000005C777.0899999999999 2172.1200000000003 778.1099999999999 2172.7500000000005 778.9899999999999 2173.5600000000004C779.8799999999999 2174.3800000000006 780.5499999999998 2175.3100000000004 781.0199999999999 2176.3700000000003C781.4799999999999 2177.4200000000005 781.7099999999999 2178.5400000000004 781.7099999999999 2179.7300000000005C781.7099999999999 2180.9200000000005 781.4799999999999 2182.0500000000006 781.0099999999999 2183.1100000000006Z"
		transform="matrix(1,0,0,1,-742,-2150)"/>
	<path
		d="M785 2187.65V2171H788.89L796.65 2180.69C796.87 2180.96 797.12 2181.35 797.38 2181.84C797.65 2182.34 797.93 2182.9300000000003 798.22 2183.6000000000004C798.13 2183.1100000000006 798.0600000000001 2182.6200000000003 798.02 2182.1300000000006C797.98 2181.6500000000005 797.96 2181.0400000000004 797.96 2180.3100000000004V2171.0000000000005H801.5400000000001V2187.6500000000005H797.8700000000001L789.9000000000001 2177.7800000000007C789.6700000000001 2177.5000000000005 789.4300000000001 2177.120000000001 789.1700000000001 2176.620000000001C788.9000000000001 2176.130000000001 788.6200000000001 2175.5300000000007 788.33 2174.8400000000006C788.4200000000001 2175.3200000000006 788.48 2175.8000000000006 788.5200000000001 2176.2900000000004C788.5600000000001 2176.78 788.58 2177.4000000000005 788.58 2178.1400000000003V2187.6500000000005H785Z"
		transform="matrix(1,0,0,1,-742,-2150)"/>
	<path
		d="M804 2184.93L806.08 2182.69C806.35 2183.31 806.7700000000001 2183.79 807.35 2184.14C807.9300000000001 2184.49 808.59 2184.67 809.32 2184.67C810.19 2184.67 810.8900000000001 2184.4700000000003 811.4000000000001 2184.08C811.9100000000001 2183.68 812.1600000000001 2183.15 812.1600000000001 2182.49C812.1600000000001 2181.7 811.3100000000001 2180.91 809.6100000000001 2180.1299999999997C809.0600000000002 2179.8799999999997 808.6300000000001 2179.68 808.3100000000002 2179.5199999999995C806.7800000000002 2178.7599999999993 805.7200000000001 2178.0199999999995 805.1300000000002 2177.2999999999997C804.5300000000002 2176.5699999999997 804.2400000000002 2175.7099999999996 804.2400000000002 2174.7099999999996C804.2400000000002 2173.3399999999997 804.8100000000003 2172.2099999999996 805.9600000000003 2171.3299999999995C807.1000000000003 2170.4399999999996 808.5900000000003 2169.9999999999995 810.4200000000003 2169.9999999999995C811.4800000000002 2169.9999999999995 812.3900000000003 2170.1799999999994 813.1600000000003 2170.5299999999997C813.9300000000003 2170.8799999999997 814.6100000000004 2171.43 815.2100000000003 2172.18L812.9900000000002 2174.2C812.7300000000002 2173.71 812.3800000000002 2173.35 811.9400000000003 2173.1099999999997C811.5100000000003 2172.87 810.9800000000002 2172.7499999999995 810.3700000000002 2172.7499999999995C809.6300000000002 2172.7499999999995 809.0300000000002 2172.9299999999994 808.5700000000003 2173.2799999999997C808.1200000000002 2173.6299999999997 807.8900000000003 2174.0899999999997 807.8900000000003 2174.6499999999996C807.8900000000003 2175.5299999999997 808.7900000000003 2176.3299999999995 810.6000000000004 2177.0599999999995C810.9600000000004 2177.2099999999996 811.2300000000004 2177.3199999999997 811.4200000000004 2177.3999999999996C812.9100000000004 2178.0499999999997 814.0100000000004 2178.7799999999997 814.7200000000004 2179.5899999999997C815.4300000000004 2180.3999999999996 815.7900000000004 2181.3199999999997 815.7900000000004 2182.3599999999997C815.7900000000004 2183.9199999999996 815.2300000000005 2185.1699999999996 814.1100000000005 2186.0999999999995C812.9900000000005 2187.0299999999993 811.4800000000005 2187.4899999999993 809.5900000000005 2187.4899999999993C808.2500000000005 2187.4899999999993 807.1000000000005 2187.2699999999995 806.1400000000004 2186.8299999999995C805.1800000000004 2186.3899999999994 804.4700000000005 2185.7599999999993 804.0000000000005 2184.9299999999994Z"
		transform="matrix(1,0,0,1,-742,-2150)"/>
	<path
		d="M752.17 2160.23C751.65 2159.79 751.12 2159.47 750.5699999999999 2159.26C750.03 2159.0600000000004 749.4399999999999 2158.96 748.8199999999999 2158.96C747.54 2158.96 746.53 2159.32 745.77 2160.05C745.01 2160.77 744.63 2161.7400000000002 744.63 2162.9700000000003C744.63 2164.1600000000003 744.98 2165.11 745.6899999999999 2165.8100000000004C746.39 2166.5200000000004 747.3499999999999 2166.8700000000003 748.5699999999999 2166.8700000000003C749.26 2166.8700000000003 749.9 2166.76 750.4999999999999 2166.5400000000004C751.0899999999999 2166.3200000000006 751.6399999999999 2165.9900000000002 752.1499999999999 2165.5500000000006L752.1299999999999 2168.0400000000004C751.5899999999999 2168.3500000000004 751.0199999999999 2168.5700000000006 750.4199999999998 2168.7200000000003C749.8199999999998 2168.8700000000003 749.1899999999998 2168.9500000000003 748.5299999999999 2168.9500000000003C746.6299999999999 2168.9500000000003 745.0599999999998 2168.3900000000003 743.8399999999998 2167.26C742.6099999999998 2166.13 741.9999999999998 2164.7000000000003 741.9999999999998 2162.9700000000003C741.9999999999998 2161.2400000000002 742.6099999999998 2159.8100000000004 743.8399999999998 2158.69C745.0699999999998 2157.56 746.6499999999997 2157 748.5799999999998 2157C749.2299999999998 2157 749.8599999999998 2157.06 750.4599999999998 2157.19C751.0699999999998 2157.32 751.6699999999998 2157.52 752.2599999999998 2157.79L752.1699999999997 2160.23Z"
		transform="matrix(1,0,0,1,-742,-2150)"/>
	<path
		d="M759.28 2160.37C759.24 2160.2599999999998 759.1899999999999 2160.08 759.13 2159.81C759.07 2159.5499999999997 759.01 2159.22 758.95 2158.84C758.88 2159.21 758.8100000000001 2159.54 758.74 2159.83C758.6800000000001 2160.12 758.63 2160.3199999999997 758.59 2160.42L757.3000000000001 2164.05H760.6200000000001ZM757.56 2157H760.4799999999999L765.0999999999999 2168.37H762.1899999999999L761.2199999999999 2165.96H756.5799999999999L755.7499999999999 2168.37H752.9999999999999Z"
		transform="matrix(1,0,0,1,-742,-2150)"/>
	<path
		d="M767 2168.37V2157H769.66L774.9599999999999 2163.62C775.1099999999999 2163.81 775.28 2164.0699999999997 775.4599999999999 2164.41C775.6399999999999 2164.75 775.8299999999999 2165.1499999999996 776.03 2165.6099999999997C775.97 2165.2699999999995 775.93 2164.9399999999996 775.9 2164.6099999999997C775.87 2164.2699999999995 775.86 2163.8599999999997 775.86 2163.3599999999997V2156.9999999999995H778.3000000000001V2168.3699999999994H775.7900000000001L770.34 2161.6299999999997C770.19 2161.4399999999996 770.0300000000001 2161.18 769.85 2160.8399999999997C769.6700000000001 2160.4999999999995 769.48 2160.1 769.27 2159.6299999999997C769.3299999999999 2159.95 769.38 2160.2799999999997 769.4 2160.6199999999994C769.43 2160.9499999999994 769.4399999999999 2161.3699999999994 769.4399999999999 2161.8799999999997V2168.3699999999994H766.9999999999999Z"
		transform="matrix(1,0,0,1,-742,-2150)"/>
	<path
		d="M781 2168.37V2157H783.66L788.9599999999999 2163.62C789.1099999999999 2163.81 789.28 2164.0699999999997 789.4599999999999 2164.41C789.6399999999999 2164.75 789.8299999999999 2165.1499999999996 790.03 2165.6099999999997C789.97 2165.2699999999995 789.93 2164.9399999999996 789.9 2164.6099999999997C789.87 2164.2699999999995 789.86 2163.8599999999997 789.86 2163.3599999999997V2156.9999999999995H792.3000000000001V2168.3699999999994H789.7900000000001L784.35 2161.6299999999997C784.19 2161.4399999999996 784.03 2161.18 783.85 2160.8399999999997C783.6700000000001 2160.4999999999995 783.48 2160.1 783.27 2159.6299999999997C783.3299999999999 2159.95 783.38 2160.2799999999997 783.4 2160.6199999999994C783.43 2160.9499999999994 783.4499999999999 2161.3699999999994 783.4499999999999 2161.8799999999997V2168.3699999999994H780.9999999999999Z"
		transform="matrix(1,0,0,1,-742,-2150)"/>
	<path
		d="M795 2168.37V2157H802.05V2159.05H797.56V2161.3900000000003H802.05V2163.4600000000005H797.56V2166.3100000000004H802.05V2168.3700000000003Z"
		transform="matrix(1,0,0,1,-742,-2150)"/>
	<path
		d="M803 2167.2L804.42 2165.6699999999996C804.5999999999999 2166.0899999999997 804.89 2166.4199999999996 805.29 2166.6599999999994C805.6899999999999 2166.899999999999 806.14 2167.0199999999995 806.63 2167.0199999999995C807.23 2167.0199999999995 807.71 2166.8899999999994 808.05 2166.6199999999994C808.4 2166.3499999999995 808.5799999999999 2165.9899999999993 808.5799999999999 2165.5299999999993C808.5799999999999 2164.9899999999993 807.9999999999999 2164.459999999999 806.8399999999999 2163.919999999999C806.4599999999999 2163.749999999999 806.16 2163.609999999999 805.9399999999999 2163.499999999999C804.9 2162.989999999999 804.17 2162.479999999999 803.77 2161.979999999999C803.37 2161.4899999999993 803.16 2160.899999999999 803.16 2160.219999999999C803.16 2159.279999999999 803.55 2158.509999999999 804.3399999999999 2157.8999999999987C805.1199999999999 2157.299999999999 806.1399999999999 2156.9999999999986 807.3799999999999 2156.9999999999986C808.1099999999999 2156.9999999999986 808.7299999999999 2157.1199999999985 809.2599999999999 2157.3599999999988C809.7899999999998 2157.5999999999985 810.2499999999999 2157.9799999999987 810.6599999999999 2158.489999999999L809.1399999999999 2159.869999999999C808.9599999999999 2159.539999999999 808.7199999999999 2159.289999999999 808.4299999999998 2159.119999999999C808.1299999999999 2158.959999999999 807.7699999999999 2158.879999999999 807.3499999999998 2158.879999999999C806.8499999999998 2158.879999999999 806.4399999999998 2158.999999999999 806.1299999999998 2159.2399999999993C805.8099999999997 2159.479999999999 805.6599999999997 2159.7899999999995 805.6599999999997 2160.1799999999994C805.6599999999997 2160.7799999999993 806.2799999999997 2161.3299999999995 807.5099999999998 2161.8199999999993C807.7499999999998 2161.919999999999 807.9399999999997 2161.999999999999 808.0699999999997 2162.059999999999C809.0899999999997 2162.499999999999 809.8399999999997 2162.999999999999 810.3199999999997 2163.549999999999C810.8099999999997 2164.099999999999 811.0599999999997 2164.739999999999 811.0599999999997 2165.449999999999C811.0599999999997 2166.509999999999 810.6699999999997 2167.3599999999988 809.9099999999997 2167.999999999999C809.1399999999998 2168.629999999999 808.1099999999998 2168.949999999999 806.8199999999997 2168.949999999999C805.8999999999997 2168.949999999999 805.1199999999997 2168.799999999999 804.4699999999997 2168.499999999999C803.8099999999997 2168.199999999999 803.3199999999997 2167.769999999999 802.9999999999997 2167.199999999999Z"
		transform="matrix(1,0,0,1,-742,-2150)"/>
</svg>
