<svg
	version="1.1"
	xmlns="http://www.w3.org/2000/svg"
	xmlns:xlink="http://www.w3.org/1999/xlink"
	xmlns:svgjs="http://svgjs.com/svgjs"
	width="17"
	height="16"
	viewBox="0 0 17 16">
	<path
		d="M383.54 1986C382.78000000000003 1986 382.16 1985.37 382.16 1984.59C382.16 1983.8 382.78000000000003 1983.1699999999998 383.54 1983.1699999999998C384.31 1983.1699999999998 384.93 1983.8 384.93 1984.59C384.93 1985.37 384.31 1986 383.54 1986ZM389.55 1986C388.79 1986 388.17 1985.37 388.17 1984.59C388.17 1983.8 388.79 1983.1699999999998 389.55 1983.1699999999998C390.32 1983.1699999999998 390.94 1983.8 390.94 1984.59C390.94 1985.37 390.32 1986 389.55 1986ZM383.53 1980.37C383.28999999999996 1980.37 383.09 1980.1899999999998 383.07 1979.9499999999998L382.59 1975.2299999999998C382.57 1974.9599999999998 382.78 1974.7099999999998 383.04999999999995 1974.7099999999998H391.11999999999995C391.43999999999994 1974.7099999999998 391.65999999999997 1975.0399999999997 391.54999999999995 1975.34L389.92999999999995 1980.06C389.85999999999996 1980.25 389.68999999999994 1980.37 389.48999999999995 1980.37ZM390.48 1982.26C390.87 1982.26 391.22 1982.01 391.35 1981.6299999999999L393.95000000000005 1974.08C394.16 1973.47 393.71000000000004 1972.83 393.08000000000004 1972.83H382.77000000000004C382.53000000000003 1972.83 382.33000000000004 1972.6499999999999 382.31000000000006 1972.4099999999999L382.15000000000003 1970.85C382.11 1970.37 381.71000000000004 1970 381.23 1970H378.46000000000004C378.21000000000004 1970 378.00000000000006 1970.21 378.00000000000006 1970.47V1971.41C378.00000000000006 1971.67 378.21000000000004 1971.89 378.46000000000004 1971.89H379.98C380.22 1971.89 380.42 1972.0700000000002 380.44 1972.3100000000002L381.36 1981.41C381.40000000000003 1981.89 381.8 1982.26 382.27000000000004 1982.26Z"
		transform="matrix(1,0,0,1,-378,-1970)"/>
</svg>
