<svg
	version="1.1"
	xmlns="http://www.w3.org/2000/svg"
	xmlns:xlink="http://www.w3.org/1999/xlink"
	xmlns:svgjs="http://svgjs.com/svgjs"
	width="32"
	height="35"
	viewBox="0 0 32 35">
	<path
		d="M383 3049.76C382.45 3049.76 382 3050.21 382 3050.76V3057C382 3057.55 382.45 3058 383 3058C383.55 3058 384 3057.55 384 3057V3050.76C384 3050.21 383.55 3049.76 383 3049.76M388 3035.1C387.45 3035.1 387 3035.54 387 3036.1V3057C387 3057.55 387.45 3058 388 3058C388.55 3058 389 3057.55 389 3057V3036.1C389 3035.54 388.55 3035.1 388 3035.1M393 3043.52C392.45 3043.52 392 3043.97 392 3044.52V3057C392 3057.55 392.45 3058 393 3058C393.55 3058 394 3057.55 394 3057V3044.52C394 3043.97 393.55 3043.52 393 3043.52M398 3023C397.45 3023 397 3023.45 397 3024V3057C397 3057.55 397.45 3058 398 3058C398.55 3058 399 3057.55 399 3057V3024C399 3023.45 398.55 3023 398 3023M403 3029.34C402.45 3029.34 402 3029.79 402 3030.34V3057C402 3057.55 402.45 3058 403 3058C403.55 3058 404 3057.55 404 3057V3030.34C404 3029.79 403.55 3029.34 403 3029.34M408 3023C407.45 3023 407 3023.45 407 3024V3057C407 3057.55 407.45 3058 408 3058C408.55 3058 409 3057.55 409 3057V3024C409 3023.45 408.55 3023 408 3023M413 3033.76C412.45 3033.76 412 3034.21 412 3034.76V3057C412 3057.55 412.45 3058 413 3058C413.55 3058 414 3057.55 414 3057V3034.76C414 3034.21 413.55 3033.76 413 3033.76"
		transform="matrix(1,0,0,1,-382,-3023)"/>
</svg>
