<svg
	version="1.1"
	xmlns="http://www.w3.org/2000/svg"
	xmlns:xlink="http://www.w3.org/1999/xlink"
	xmlns:svgjs="http://svgjs.com/svgjs"
	width="38"
	height="23"
	viewBox="0 0 38 23">
	<path
		d="M383.56 3256.03C380.48 3256.03 377.97 3253.5400000000004 377.97 3250.46C377.97 3247.39 380.48 3244.9 383.56 3244.9C384.59 3244.9 385.59 3245.1800000000003 386.47 3245.7200000000003C386.79 3245.9100000000003 387.18 3245.9100000000003 387.5 3245.7200000000003C387.81 3245.53 388 3245.1800000000003 387.97 3244.8100000000004V3244.7000000000003C387.96000000000004 3244.5800000000004 387.95000000000005 3244.4600000000005 387.95000000000005 3244.34C387.95000000000005 3240.27 391.27000000000004 3236.9700000000003 395.35 3236.9700000000003C398.55 3236.9700000000003 401.3 3238.9800000000005 402.32000000000005 3241.9300000000003C399.31000000000006 3243.2000000000003 397.20000000000005 3246.1800000000003 397.20000000000005 3249.63C397.20000000000005 3250.1800000000003 397.64000000000004 3250.62 398.19000000000005 3250.62C398.7300000000001 3250.62 399.1700000000001 3250.18 399.1700000000001 3249.63C399.1700000000001 3246.1 402.06000000000006 3243.23 405.6000000000001 3243.23C409.1400000000001 3243.23 412.0300000000001 3246.1 412.0300000000001 3249.63C412.0300000000001 3253.1600000000003 409.1400000000001 3256.03 405.6000000000001 3256.03ZM404.25 3241.39C402.98 3237.5899999999997 399.44 3235 395.35 3235C390.52000000000004 3235 386.53000000000003 3238.66 386.03000000000003 3243.34C385.24 3243.07 384.41 3242.9300000000003 383.56 3242.9300000000003C379.39 3242.9300000000003 376 3246.3100000000004 376 3250.4600000000005C376 3254.6200000000003 379.39 3258.0000000000005 383.56 3258.0000000000005H405.6C410.23 3258.0000000000005 414 3254.2500000000005 414 3249.6300000000006C414 3245.0200000000004 410.23 3241.2700000000004 405.6 3241.2700000000004C405.14000000000004 3241.2700000000004 404.69 3241.3100000000004 404.25 3241.3900000000003Z"
		transform="matrix(1,0,0,1,-376,-3235)"/>
</svg>
