<svg
	version="1.1"
	xmlns="http://www.w3.org/2000/svg"
	xmlns:xlink="http://www.w3.org/1999/xlink"
	xmlns:svgjs="http://svgjs.com/svgjs"
	width="40"
	height="40"
	viewBox="0 0 40 40">
	<path
		d="M727.04 996.37C727.66 996.37 728.29 996.73 728.29 997.44V999.58H725.79V997.4300000000001C725.79 996.72 726.41 996.3700000000001 727.04 996.3700000000001ZM719.85 994.78C719.52 994.78 719.14 994.85 718.75 995.06C717.91 995.54 717.55 996.03 717.55 996.03V994.99H714.8299999999999V996.4L715.9 996.41V1005.0899999999999H715.01V1006.5099999999999H717.8199999999999V997.3099999999998C717.8199999999999 995.9399999999998 720.1299999999999 995.8999999999999 720.1299999999999 997.2499999999999V1006.5099999999999H723.2999999999998V1005.0899999999999H722.0499999999998V997.3399999999999C721.9999999999999 996.3 721.6499999999999 995.3699999999999 720.7999999999998 994.9899999999999C720.9199999999998 995.0299999999999 720.4799999999998 994.7799999999999 719.8499999999998 994.7799999999999ZM727.06 994.67C725.4399999999999 994.66 723.8299999999999 995.5899999999999 723.88 997.4399999999999V1003.9799999999999C723.79 1007.6899999999999 730.33 1007.7799999999999 730.2 1003.9799999999999V1002.6099999999999H728.2900000000001V1004.0799999999999C728.2900000000001 1005.4999999999999 725.7900000000001 1005.52 725.7900000000001 1004.0799999999999V1001.02L729.84 1001.03C730.07 1001.03 730.2 1000.87 730.2 1000.67V997.54C730.2700000000001 995.63 728.6600000000001 994.68 727.0600000000001 994.67ZM708.01 994.67C706.41 994.66 704.79 995.5899999999999 704.8199999999999 997.4399999999999V1003.9799999999999C704.77 1007.6899999999999 711.28 1007.7799999999999 711.17 1003.9799999999999V1002.6099999999999H709.24V1004.0799999999999C709.24 1005.4999999999999 706.77 1005.52 706.74 1004.0799999999999V997.4399999999999L706.73 997.51C706.76 996.06 709.24 996.02 709.24 997.4399999999999L709.26 998.67H711.16V997.53C711.2199999999999 995.63 709.62 994.68 708.01 994.67ZM731.76 1003.95C731.8497 1004.9865100000001 732.15792 1005.91376 733.04106 1006.30606C732.8907800000001 1006.24029 733.46128 1006.52 734.08 1006.52C734.39 1006.51 735.9000000000001 1006.51 735.9000000000001 1006.51V1005.09C735.9000000000001 1005.09 735.1400000000001 1005.08 734.7400000000001 1005.08C734.2100000000002 1005.09 733.7600000000001 1004.84 733.7200000000001 1004.1V996.4H735.5900000000001V995.01H733.6700000000002L733.7200000000001 994.99V992H731.7600000000001ZM712.45 1011.94H713.85V989.23H712.45ZM720 980C731.05 980 740 988.95 740 1000C740 1011.05 731.05 1020 720 1020C708.95 1020 700 1011.05 700 1000C700 988.95 708.95 980 720 980Z"
		transform="matrix(1,0,0,1,-700,-980)"/>
</svg>
