<svg
	version="1.1"
	xmlns="http://www.w3.org/2000/svg"
	xmlns:xlink="http://www.w3.org/1999/xlink"
	xmlns:svgjs="http://svgjs.com/svgjs"
	width="47"
	height="48"
	viewBox="0 0 47 48">
	<path
		d="M697 3036V3046.96H742.32V3036C742.32 3034.34 740.97 3033 739.32 3033H700C698.34 3033 697 3034.34 697 3036"
		fill="#e0e7ed"
		transform="matrix(1,0,0,1,-696,-3032)"/>
	<path
		d="M699.85 3078.31C698.66 3078.31 697.7 3077.35 697.7 3076.17V3047.6800000000003H741.3000000000001V3076.17C741.3000000000001 3077.35 740.34 3078.31 739.1500000000001 3078.31ZM697.7 3035.93C697.7 3034.75 698.6600000000001 3033.79 699.85 3033.79H739.15C740.34 3033.79 741.3 3034.75 741.3 3035.93V3045.99H697.6999999999999ZM699.85 3032C697.73 3032 696 3033.72 696 3035.83V3076.17C696 3078.28 697.73 3080 699.85 3080H739.15C741.27 3080 743 3078.28 743 3076.17V3035.83C743 3033.72 741.27 3032 739.15 3032Z"
		fill="#43484d"
		transform="matrix(1,0,0,1,-696,-3032)"/>
	<path
		d="M714.12 3058.25C713.78 3057.92 713.25 3057.92 712.91 3058.25L708.25 3062.91C707.92 3063.25 707.92 3063.7799999999997 708.25 3064.12L712.91 3068.7799999999997C713.0799999999999 3068.95 713.3 3069.0299999999997 713.52 3069.0299999999997C713.73 3069.0299999999997 713.9499999999999 3068.95 714.12 3068.7799999999997C714.45 3068.45 714.45 3067.91 714.12 3067.58L710.05 3063.52L714.12 3059.45C714.45 3059.12 714.45 3058.58 714.12 3058.25"
		fill="#43484d"
		transform="matrix(1,0,0,1,-696,-3032)"/>
	<path
		d="M724.45 3058.25C724.12 3057.92 723.58 3057.92 723.25 3058.25C722.92 3058.58 722.92 3059.12 723.25 3059.45L727.31 3063.52L723.25 3067.58C722.92 3067.91 722.92 3068.45 723.25 3068.7799999999997C723.42 3068.95 723.63 3069.0299999999997 723.85 3069.0299999999997C724.07 3069.0299999999997 724.2900000000001 3068.95 724.45 3068.7799999999997L729.12 3064.12C729.28 3063.96 729.37 3063.74 729.37 3063.52C729.37 3063.29 729.28 3063.07 729.12 3062.91Z"
		fill="#43484d"
		transform="matrix(1,0,0,1,-696,-3032)"/>
	<path
		d="M721.34 3055.04C720.9 3054.9 720.4200000000001 3055.15 720.2800000000001 3055.6L716.0400000000001 3069.15C715.9000000000001 3069.6 716.1500000000001 3070.07 716.6 3070.21C716.6800000000001 3070.2400000000002 716.77 3070.25 716.85 3070.25C717.21 3070.25 717.5500000000001 3070.02 717.66 3069.65L721.9 3056.1C722.04 3055.66 721.79 3055.18 721.34 3055.04"
		fill="#43484d"
		transform="matrix(1,0,0,1,-696,-3032)"/>
	<path
		d="M705.83 3039.91C705.83 3040.97 704.97 3041.83 703.9100000000001 3041.83C702.8600000000001 3041.83 702.0000000000001 3040.97 702.0000000000001 3039.91C702.0000000000001 3038.8599999999997 702.8600000000001 3038 703.9100000000001 3038C704.97 3038 705.83 3038.86 705.83 3039.91"
		fill="#43484d"
		transform="matrix(1,0,0,1,-696,-3032)"/>
	<path
		d="M711.83 3039.91C711.83 3040.97 710.97 3041.83 709.9100000000001 3041.83C708.8600000000001 3041.83 708.0000000000001 3040.97 708.0000000000001 3039.91C708.0000000000001 3038.8599999999997 708.8600000000001 3038 709.9100000000001 3038C710.97 3038 711.83 3038.86 711.83 3039.91"
		fill="#43484d"
		transform="matrix(1,0,0,1,-696,-3032)"/>
	<path
		d="M717.83 3039.91C717.83 3040.97 716.97 3041.83 715.9100000000001 3041.83C714.8600000000001 3041.83 714.0000000000001 3040.97 714.0000000000001 3039.91C714.0000000000001 3038.8599999999997 714.8600000000001 3038 715.9100000000001 3038C716.97 3038 717.83 3038.86 717.83 3039.91"
		fill="#43484d"
		transform="matrix(1,0,0,1,-696,-3032)"/>
</svg>
