<svg
	version="1.1"
	xmlns="http://www.w3.org/2000/svg"
	xmlns:xlink="http://www.w3.org/1999/xlink"
	xmlns:svgjs="http://svgjs.com/svgjs"
	width="55"
	height="50"
	viewBox="0 0 55 50">
	<path
		d="M715.67 209.25L694 195.25V181L715.67 167L737.3299999999999 181V195.25Z"
		fill="#ffffff"
		transform="matrix(1,0,0,1,-693,-160)"/>
	<path
		d="M742.66 163.76C742.64 163.6 742.61 163.42 742.61 163.28C742.61 162.3 743.15 161.53 744.26 161.53C745.3199999999999 161.53 745.84 162.23 745.84 163C745.84 163.68 745.48 164.25 744.64 164.77L743.08 165.75C741.4300000000001 166.77 740.87 168.04 740.84 169.65H747.6600000000001V168.11H742.9900000000001C743.1200000000001 167.64000000000001 743.5000000000001 167.31 743.9500000000002 167.03L745.7900000000002 165.9C746.9200000000002 165.20000000000002 747.6100000000002 164.19 747.6100000000002 162.97C747.6100000000002 161.35 746.3700000000002 160 744.2900000000002 160C742.1500000000002 160 740.9200000000002 161.47 740.9200000000002 163.1C740.9200000000002 163.29 740.9500000000002 163.51 740.9700000000001 163.64ZM733.73 164.93C733.73 166.13 733.95 167.05 734.4 167.63C734.72 168.04999999999998 735.17 168.32999999999998 735.86 168.32999999999998C736.54 168.32999999999998 736.98 168.04999999999998 737.3100000000001 167.63C737.7600000000001 167.04999999999998 737.97 166.13 737.97 164.93C737.97 163.74 737.76 162.82 737.3100000000001 162.24C736.98 161.82000000000002 736.5400000000001 161.54000000000002 735.86 161.54000000000002C735.17 161.54000000000002 734.72 161.82000000000002 734.4 162.24C733.9399999999999 162.82000000000002 733.73 163.74 733.73 164.93ZM732 164.93C732 163.68 732.2 162.5 732.84 161.54000000000002C733.46 160.63000000000002 734.45 160.00000000000003 735.86 160.00000000000003C737.27 160.00000000000003 738.25 160.63000000000002 738.86 161.54000000000002C739.5 162.50000000000003 739.7 163.68 739.7 164.93C739.7 166.19 739.5 167.37 738.86 168.33C738.25 169.24 737.27 169.87 735.86 169.87C734.45 169.87 733.46 169.24 732.84 168.33C732.2 167.37 732 166.19000000000003 732 164.93Z"
		fill="#bbc7d1"
		transform="matrix(1,0,0,1,-693,-160)"/>
	<path
		d="M716 209.23L737.67 195.23V181L716 195Z"
		fill="#dfe9ef"
		transform="matrix(1,0,0,1,-693,-160)"/>
	<path
		d="M722.98 178.71C722.82 176.05 719.6 174 715.5 174C711.4 174 708.18 176.05 708.02 178.71H708V182.83C708 185.59 711.29 187.75 715.5 187.75C719.71 187.75 723 185.59 723 182.83V178.71Z"
		fill="#dfe9ef"
		transform="matrix(1,0,0,1,-693,-160)"/>
	<path
		d="M715.67 209.23L694 195.23V181L715.67 195Z"
		fill="#bbc7d1"
		transform="matrix(1,0,0,1,-693,-160)"/>
	<path
		d="M715.67 165L693 179.65V194.98000000000002L715.67 209.63000000000002L738.3299999999999 194.98000000000002V179.65ZM735.93 180.48L715.67 193.57999999999998L695.39 180.48L715.67 167.38ZM695 182.61L714.67 195.32000000000002V206.60000000000002L695 193.90000000000003ZM716.67 206.6V195.32L736.31 182.62L736.3299999999999 182.61V193.89000000000001Z"
		fill="#bac8d1"
		transform="matrix(1,0,0,1,-693,-160)"/>
	<path
		d="M722.98 178.71C722.82 176.05 719.6 174 715.5 174C711.4 174 708.18 176.05 708.02 178.71H708V182.83C708 185.59 711.29 187.75 715.5 187.75C719.71 187.75 723 185.59 723 182.83V178.71ZM721 178.92C721 180.29999999999998 718.74 181.82999999999998 715.5 181.82999999999998C712.26 181.82999999999998 710 180.29999999999998 710 178.92C710 177.54 712.26 176 715.5 176C718.74 176 721 177.54 721 178.92ZM710 182.83V182.28C711.36 183.24 713.3 183.83 715.5 183.83C717.7 183.83 719.64 183.24 721 182.28V182.83C721 184.21 718.74 185.75 715.5 185.75C712.26 185.75 710 184.21 710 182.83Z"
		fill="#bac8d1"
		transform="matrix(1,0,0,1,-693,-160)"/>
</svg>
