<svg
	version="1.1"
	xmlns="http://www.w3.org/2000/svg"
	xmlns:xlink="http://www.w3.org/1999/xlink"
	xmlns:svgjs="http://svgjs.com/svgjs"
	width="56"
	height="52"
	viewBox="0 0 56 52">
	<path
		d="M896 2884.57L916.05 2873L936.0999999999999 2884.57V2907.71L916.05 2919.28L896 2907.71Z"
		fill="#e0e7ed"
		transform="matrix(1,0,0,1,-888,-2870)"/>
	<path
		d="M896.67 2907.06L915.89 2918.15L935.1 2907.06V2884.89L915.89 2873.7999999999997L896.67 2884.89ZM915.47 2919.84L895.4200000000001 2908.27C895.1600000000001 2908.12 895.0000000000001 2907.84 895.0000000000001 2907.55V2884.4100000000003C895.0000000000001 2884.11 895.1600000000001 2883.8300000000004 895.4200000000001 2883.6800000000003L915.47 2872.11C915.73 2871.96 916.0500000000001 2871.96 916.3000000000001 2872.11L936.35 2883.6800000000003C936.61 2883.8300000000004 936.77 2884.11 936.77 2884.4100000000003V2907.55C936.77 2907.84 936.61 2908.1200000000003 936.35 2908.27L916.3000000000001 2919.84C916.1800000000001 2919.9100000000003 916.0300000000001 2919.9500000000003 915.8900000000001 2919.9500000000003C915.7400000000001 2919.9500000000003 915.6000000000001 2919.9100000000003 915.4700000000001 2919.84Z"
		fill="#86939e"
		transform="matrix(1,0,0,1,-888,-2870)"/>
	<path
		d="M919.5 2917.75C919.5 2919.26 918.27 2920.49 916.75 2920.49C915.23 2920.49 914 2919.2599999999998 914 2917.75C914 2916.23 915.23 2915 916.75 2915C918.27 2915 919.5 2916.23 919.5 2917.75"
		fill="#fefefe"
		transform="matrix(1,0,0,1,-888,-2870)"/>
	<path
		d="M914.67 2917.58C914.67 2918.64 915.53 2919.49 916.5799999999999 2919.49C917.6399999999999 2919.49 918.4999999999999 2918.64 918.4999999999999 2917.58C918.4999999999999 2916.5299999999997 917.6399999999999 2915.67 916.5799999999999 2915.67C915.53 2915.67 914.67 2916.53 914.67 2917.58ZM913 2917.58C913 2915.61 914.61 2914 916.58 2914C918.5600000000001 2914 920.1700000000001 2915.61 920.1700000000001 2917.58C920.1700000000001 2919.56 918.5600000000001 2921.16 916.58 2921.16C914.61 2921.16 913 2919.56 913 2917.58Z"
		fill="#43484d"
		transform="matrix(1,0,0,1,-888,-2870)"/>
	<path
		d="M919.5 2873.75C919.5 2875.26 918.27 2876.49 916.75 2876.49C915.23 2876.49 914 2875.2599999999998 914 2873.75C914 2872.23 915.23 2871 916.75 2871C918.27 2871 919.5 2872.23 919.5 2873.75"
		fill="#fefefe"
		transform="matrix(1,0,0,1,-888,-2870)"/>
	<path
		d="M914.67 2873.58C914.67 2874.64 915.53 2875.49 916.5799999999999 2875.49C917.6399999999999 2875.49 918.4999999999999 2874.64 918.4999999999999 2873.58C918.4999999999999 2872.5299999999997 917.6399999999999 2871.67 916.5799999999999 2871.67C915.53 2871.67 914.67 2872.53 914.67 2873.58ZM913 2873.58C913 2871.61 914.61 2870 916.58 2870C918.5600000000001 2870 920.1700000000001 2871.61 920.1700000000001 2873.58C920.1700000000001 2875.56 918.5600000000001 2877.16 916.58 2877.16C914.61 2877.16 913 2875.56 913 2873.58Z"
		fill="#43484d"
		transform="matrix(1,0,0,1,-888,-2870)"/>
	<path
		d="M898.5 2884.75C898.5 2886.26 897.27 2887.49 895.75 2887.49C894.23 2887.49 893 2886.2599999999998 893 2884.75C893 2883.23 894.23 2882 895.75 2882C897.27 2882 898.5 2883.23 898.5 2884.75"
		fill="#fefefe"
		transform="matrix(1,0,0,1,-888,-2870)"/>
	<path
		d="M893.67 2884.58C893.67 2885.64 894.53 2886.49 895.5799999999999 2886.49C896.6399999999999 2886.49 897.4999999999999 2885.64 897.4999999999999 2884.58C897.4999999999999 2883.5299999999997 896.6399999999999 2882.67 895.5799999999999 2882.67C894.53 2882.67 893.67 2883.53 893.67 2884.58ZM892 2884.58C892 2882.61 893.61 2881 895.58 2881C897.5600000000001 2881 899.1700000000001 2882.61 899.1700000000001 2884.58C899.1700000000001 2886.56 897.5600000000001 2888.16 895.58 2888.16C893.61 2888.16 892 2886.56 892 2884.58Z"
		fill="#43484d"
		transform="matrix(1,0,0,1,-888,-2870)"/>
	<path
		d="M938.5 2907.75C938.5 2909.26 937.27 2910.49 935.75 2910.49C934.23 2910.49 933 2909.2599999999998 933 2907.75C933 2906.23 934.23 2905 935.75 2905C937.27 2905 938.5 2906.23 938.5 2907.75"
		fill="#f4f4f4"
		transform="matrix(1,0,0,1,-888,-2870)"/>
	<path
		d="M933.67 2907.58C933.67 2908.64 934.53 2909.49 935.5799999999999 2909.49C936.6399999999999 2909.49 937.4999999999999 2908.64 937.4999999999999 2907.58C937.4999999999999 2906.5299999999997 936.6399999999999 2905.67 935.5799999999999 2905.67C934.53 2905.67 933.67 2906.53 933.67 2907.58ZM932 2907.58C932 2905.61 933.61 2904 935.58 2904C937.5600000000001 2904 939.1700000000001 2905.61 939.1700000000001 2907.58C939.1700000000001 2909.56 937.5600000000001 2911.16 935.58 2911.16C933.61 2911.16 932 2909.56 932 2907.58Z"
		fill="#43484d"
		transform="matrix(1,0,0,1,-888,-2870)"/>
	<path
		d="M901.22 2917.26C900.94 2917.26 900.6700000000001 2917.13 900.51 2916.88L889.13 2899.29C888.88 2898.9 888.99 2898.38 889.38 2898.13C889.77 2897.88 890.29 2897.9900000000002 890.54 2898.38L901.92 2915.9700000000003C902.17 2916.36 902.06 2916.88 901.67 2917.13C901.53 2917.2200000000003 901.37 2917.26 901.2199999999999 2917.26"
		fill="#86939e"
		transform="matrix(1,0,0,1,-888,-2870)"/>
	<path
		d="M898.06 2906.26C898.88 2907.53 898.51 2909.23 897.2399999999999 2910.05C895.9699999999999 2910.88 894.2599999999999 2910.51 893.4399999999999 2909.2400000000002C892.6199999999999 2907.96 892.9799999999999 2906.26 894.26 2905.44C895.53 2904.62 897.23 2904.98 898.06 2906.26"
		fill="#fefefe"
		transform="matrix(1,0,0,1,-888,-2870)"/>
	<path
		d="M894.54 2905.98C893.66 2906.55 893.4 2907.7400000000002 893.98 2908.62C894.53 2909.47 895.76 2909.74 896.62 2909.19C897.05 2908.91 897.34 2908.48 897.45 2907.98C897.5600000000001 2907.48 897.47 2906.97 897.19 2906.55C896.83 2906 896.23 2905.67 895.58 2905.67C895.21 2905.67 894.86 2905.78 894.5400000000001 2905.98ZM892.57 2909.53C891.5 2907.8700000000003 891.98 2905.65 893.6400000000001 2904.57C894.2200000000001 2904.2000000000003 894.8900000000001 2904 895.5800000000002 2904C896.8000000000002 2904 897.9300000000002 2904.61 898.5900000000001 2905.64C899.1100000000001 2906.44 899.2900000000002 2907.4 899.0900000000001 2908.33C898.8900000000001 2909.27 898.3300000000002 2910.0699999999997 897.5300000000002 2910.59C896.9500000000002 2910.9700000000003 896.2800000000002 2911.1600000000003 895.5800000000002 2911.1600000000003C894.3600000000001 2911.1600000000003 893.2400000000001 2910.55 892.5700000000002 2909.53Z"
		fill="#43484d"
		transform="matrix(1,0,0,1,-888,-2870)"/>
	<path
		d="M891.66 2897.83C891.66 2898.84 890.8399999999999 2899.65 889.8299999999999 2899.65C888.8199999999999 2899.65 887.9999999999999 2898.84 887.9999999999999 2897.83C887.9999999999999 2896.8199999999997 888.8199999999999 2896 889.8299999999999 2896C890.8399999999999 2896 891.66 2896.82 891.66 2897.83"
		fill="#86939e"
		transform="matrix(1,0,0,1,-888,-2870)"/>
	<path
		d="M903.66 2916.83C903.66 2917.84 902.8399999999999 2918.65 901.8299999999999 2918.65C900.8199999999999 2918.65 899.9999999999999 2917.84 899.9999999999999 2916.83C899.9999999999999 2915.8199999999997 900.8199999999999 2915 901.8299999999999 2915C902.8399999999999 2915 903.66 2915.82 903.66 2916.83"
		fill="#86939e"
		transform="matrix(1,0,0,1,-888,-2870)"/>
	<path
		d="M941.22 2894.26C940.94 2894.26 940.6700000000001 2894.1200000000003 940.51 2893.88L929.13 2876.29C928.88 2875.9 928.99 2875.38 929.38 2875.13C929.77 2874.88 930.29 2874.9900000000002 930.54 2875.38L941.92 2892.9700000000003C942.17 2893.36 942.05 2893.8700000000003 941.67 2894.13C941.53 2894.2200000000003 941.37 2894.26 941.2199999999999 2894.26"
		fill="#86939e"
		transform="matrix(1,0,0,1,-888,-2870)"/>
	<path
		d="M938.06 2883.26C938.88 2884.53 938.51 2886.23 937.2399999999999 2887.05C935.9699999999999 2887.88 934.2599999999999 2887.51 933.4399999999999 2886.2400000000002C932.6199999999999 2884.96 932.9799999999999 2883.26 934.26 2882.44C935.53 2881.62 937.23 2881.98 938.06 2883.26"
		fill="#f4f4f4"
		transform="matrix(1,0,0,1,-888,-2870)"/>
	<path
		d="M934.54 2882.98C934.12 2883.25 933.8199999999999 2883.68 933.7099999999999 2884.18C933.6099999999999 2884.68 933.6999999999999 2885.19 933.9799999999999 2885.62C934.5299999999999 2886.47 935.7599999999999 2886.74 936.6199999999999 2886.19C937.5099999999999 2885.61 937.7599999999999 2884.43 937.1899999999999 2883.54C936.8299999999999 2883 936.2299999999999 2882.67 935.5799999999999 2882.67C935.2099999999999 2882.67 934.8599999999999 2882.78 934.54 2882.98ZM932.57 2886.53C931.5 2884.8700000000003 931.98 2882.65 933.6400000000001 2881.57C934.2200000000001 2881.2000000000003 934.8900000000001 2881 935.5800000000002 2881C936.8000000000002 2881 937.9300000000002 2881.61 938.5900000000001 2882.64C939.6600000000002 2884.29 939.1900000000002 2886.52 937.5300000000002 2887.5899999999997C936.9500000000002 2887.97 936.2700000000002 2888.16 935.5900000000001 2888.16C934.3600000000001 2888.16 933.2400000000001 2887.5499999999997 932.5700000000002 2886.5299999999997Z"
		fill="#43484d"
		transform="matrix(1,0,0,1,-888,-2870)"/>
	<path
		d="M931.66 2874.83C931.66 2875.84 930.8399999999999 2876.65 929.8299999999999 2876.65C928.8199999999999 2876.65 927.9999999999999 2875.84 927.9999999999999 2874.83C927.9999999999999 2873.8199999999997 928.8199999999999 2873 929.8299999999999 2873C930.8399999999999 2873 931.66 2873.82 931.66 2874.83"
		fill="#86939e"
		transform="matrix(1,0,0,1,-888,-2870)"/>
	<path
		d="M943.66 2893.83C943.66 2894.84 942.8399999999999 2895.65 941.8299999999999 2895.65C940.8199999999999 2895.65 939.9999999999999 2894.84 939.9999999999999 2893.83C939.9999999999999 2892.8199999999997 940.8199999999999 2892 941.8299999999999 2892C942.8399999999999 2892 943.66 2892.82 943.66 2893.83"
		fill="#86939e"
		transform="matrix(1,0,0,1,-888,-2870)"/>
	<path
		d="M907.2 2888.41L907.11 2888.25C906.88 2887.85 907.02 2887.34 907.42 2887.11C907.8299999999999 2886.88 908.3399999999999 2887.02 908.56 2887.42L908.65 2887.59C908.88 2887.9900000000002 908.74 2888.5 908.34 2888.7200000000003C908.21 2888.8 908.07 2888.8300000000004 907.9300000000001 2888.8300000000004C907.6400000000001 2888.8300000000004 907.35 2888.6800000000003 907.2 2888.4100000000003ZM923.47 2891.13C923.07 2890.9 922.9200000000001 2890.3900000000003 923.15 2889.9900000000002L924.6 2887.42C924.83 2887.02 925.34 2886.88 925.74 2887.11C926.14 2887.33 926.28 2887.84 926.0600000000001 2888.25L924.61 2890.81C924.45 2891.09 924.17 2891.24 923.88 2891.24C923.74 2891.24 923.6 2891.2 923.47 2891.1299999999997ZM910.1 2893.54L908.65 2890.98C908.42 2890.57 908.56 2890.06 908.97 2889.84C909.37 2889.61 909.88 2889.75 910.11 2890.15L911.5600000000001 2892.7200000000003C911.7800000000001 2893.1200000000003 911.6400000000001 2893.63 911.24 2893.86C911.11 2893.9300000000003 910.97 2893.9700000000003 910.83 2893.9700000000003C910.5400000000001 2893.9700000000003 910.25 2893.8100000000004 910.1 2893.5400000000004ZM920.57 2896.27C920.1700000000001 2896.04 920.0200000000001 2895.53 920.25 2895.13L921.7 2892.56C921.9300000000001 2892.16 922.4300000000001 2892.02 922.84 2892.24C923.24 2892.47 923.38 2892.9799999999996 923.1600000000001 2893.3799999999997L921.71 2895.95C921.5500000000001 2896.22 921.27 2896.3799999999997 920.98 2896.3799999999997C920.84 2896.3799999999997 920.7 2896.3399999999997 920.57 2896.2699999999995ZM913 2898.68L911.55 2896.1099999999997C911.3199999999999 2895.7099999999996 911.4599999999999 2895.2 911.87 2894.97C912.27 2894.75 912.78 2894.89 913 2895.29L914.46 2897.86C914.6800000000001 2898.26 914.5400000000001 2898.77 914.14 2899C914.01 2899.07 913.87 2899.1 913.73 2899.1C913.44 2899.1 913.15 2898.95 913 2898.68ZM917.67 2901.4C917.27 2901.1800000000003 917.12 2900.67 917.3499999999999 2900.27L918.8 2897.7C919.03 2897.2999999999997 919.54 2897.1499999999996 919.9399999999999 2897.3799999999997C920.3399999999999 2897.6099999999997 920.4799999999999 2898.1199999999994 920.26 2898.5199999999995L918.81 2901.0899999999997C918.65 2901.3599999999997 918.3699999999999 2901.5099999999998 918.0799999999999 2901.5099999999998C917.9399999999999 2901.5099999999998 917.8 2901.4799999999996 917.67 2901.3999999999996ZM916.58 2904.16C916.86 2904.16 917.1600000000001 2904 917.3100000000001 2903.73L917.36 2903.65C917.5500000000001 2903.31 917.46 2902.9100000000003 917.17 2902.6600000000003L915.91 2900.4300000000003C915.68 2900.0200000000004 915.17 2899.88 914.77 2900.11C914.36 2900.34 914.22 2900.85 914.4499999999999 2901.25L915.8499999999999 2903.74C915.9999999999999 2904 916.2799999999999 2904.16 916.5799999999999 2904.16Z"
		fill="#43484d"
		transform="matrix(1,0,0,1,-888,-2870)"/>
</svg>
