<svg
	version="1.1"
	xmlns="http://www.w3.org/2000/svg"
	xmlns:xlink="http://www.w3.org/1999/xlink"
	xmlns:svgjs="http://svgjs.com/svgjs"
	width="39"
	height="29"
	viewBox="0 0 39 29">
	<path
		d="M1065 2863.98H1052.88V2870.47C1052.88 2871.02 1052.43 2871.47 1051.88 2871.47H1046.13V2876.45H1053.8400000000001C1054.0300000000002 2876.45 1054.21 2876.5099999999998 1054.3700000000001 2876.6099999999997L1060.0000000000002 2880.18V2877.45C1060.0000000000002 2876.8999999999996 1060.4500000000003 2876.45 1061.0000000000002 2876.45H1065.0000000000002ZM1050.88 2869.47V2856H1030V2869.47H1034C1034.55 2869.47 1035 2869.9199999999996 1035 2870.47V2873.2L1040.63 2869.6299999999997C1040.7900000000002 2869.5199999999995 1040.97 2869.47 1041.16 2869.47ZM1066 2861.98C1066.55 2861.98 1067 2862.43 1067 2862.98V2877.45C1067 2878 1066.55 2878.45 1066 2878.45H1062V2882C1062 2882.37 1061.8 2882.7 1061.48 2882.88C1061.33 2882.96 1061.17 2883 1061 2883C1060.81 2883 1060.63 2882.95 1060.46 2882.84L1053.55 2878.4500000000003H1045.1299999999999C1044.57 2878.4500000000003 1044.1299999999999 2878.0000000000005 1044.1299999999999 2877.4500000000003V2871.4700000000003H1041.4599999999998L1034.5399999999997 2875.86C1034.3699999999997 2875.96 1034.1899999999998 2876.02 1033.9999999999998 2876.02C1033.8399999999997 2876.02 1033.6699999999998 2875.98 1033.5199999999998 2875.89C1033.1999999999998 2875.72 1032.9999999999998 2875.3799999999997 1032.9999999999998 2875.02V2871.47H1028.9999999999998C1028.4499999999998 2871.47 1027.9999999999998 2871.02 1027.9999999999998 2870.47V2855C1027.9999999999998 2854.45 1028.4499999999998 2854 1028.9999999999998 2854H1051.8799999999999C1052.4299999999998 2854 1052.8799999999999 2854.45 1052.8799999999999 2855V2861.98Z"
		transform="matrix(1,0,0,1,-1028,-2854)"/>
</svg>
