<svg
	version="1.1"
	xmlns="http://www.w3.org/2000/svg"
	xmlns:xlink="http://www.w3.org/1999/xlink"
	xmlns:svgjs="http://svgjs.com/svgjs"
	width="20"
	height="5"
	viewBox="0 0 20 5">
	<path
		d="M1350 61.5C1350 60.11929 1351.11929 59 1352.5 59C1353.88071 59 1355 60.11929 1355 61.5C1355 62.88071 1353.88071 64 1352.5 64C1351.11929 64 1350 62.88071 1350 61.5ZM1358 61.5C1358 60.11929 1359.11929 59 1360.5 59C1361.88071 59 1363 60.11929 1363 61.5C1363 62.88071 1361.88071 64 1360.5 64C1359.11929 64 1358 62.88071 1358 61.5ZM1365 61.5C1365 60.11929 1366.11929 59 1367.5 59C1368.88071 59 1370 60.11929 1370 61.5C1370 62.88071 1368.88071 64 1367.5 64C1366.11929 64 1365 62.88071 1365 61.5Z"
		transform="matrix(1,0,0,1,-1350,-59)"/>
</svg>
