<svg
	version="1.1"
	xmlns="http://www.w3.org/2000/svg"
	xmlns:xlink="http://www.w3.org/1999/xlink"
	xmlns:svgjs="http://svgjs.com/svgjs"
	width="13"
	height="20"
	viewBox="0 0 13 20">
	<path
		d="M463.68 4177.59C463.68 4177.26 463.42 4177 463.09000000000003 4177H461.91C461.58000000000004 4177 461.32000000000005 4177.26 461.32000000000005 4177.59V4186.71C461.32000000000005 4187.03 461.05000000000007 4187.3 460.7300000000001 4187.3H459.88000000000005C459.41 4187.3 459.13000000000005 4187.820000000001 459.39000000000004 4188.21L462.01000000000005 4192.18C462.24000000000007 4192.530000000001 462.76000000000005 4192.530000000001 462.99000000000007 4192.18L465.61000000000007 4188.21C465.87000000000006 4187.82 465.5900000000001 4187.3 465.12000000000006 4187.3H464.27000000000004C463.95000000000005 4187.3 463.68000000000006 4187.03 463.68000000000006 4186.71ZM468.41 4197C468.74 4197 469 4196.74 469 4196.41V4195.24C469 4194.91 468.74 4194.65 468.41 4194.65H456.59000000000003C456.26000000000005 4194.65 456.00000000000006 4194.91 456.00000000000006 4195.24V4196.41C456.00000000000006 4196.74 456.26000000000005 4197 456.59000000000003 4197Z"
		transform="matrix(1,0,0,1,-456,-4177)"/>
</svg>
