<svg id="SvgjsSvg1035" xmlns="http://www.w3.org/2000/svg" version="1.1" xmlns:xlink="http://www.w3.org/1999/xlink" xmlns:svgjs="http://svgjs.com/svgjs" width="16" height="16" viewBox="0 0 16 16"><title>Layer_1</title><desc>Created with Avocode.</desc><defs id="SvgjsDefs1036"></defs><path id="SvgjsPath1037" d="M454 689L446 697L454 705L462 697ZM452 700H451V699H452ZM452 695H451V694H452ZM457 700H456V699H457ZM456 694H457V695H456Z " fill="#ffffff" fill-opacity="1" transform="matrix(1,0,0,1,-446,-689)"></path><path id="SvgjsPath1038" d="M460.2 696.8L457.59999999999997 694V695.8H453.59999999999997H449.59999999999997V694L446.99999999999994 696.8L449.59999999999997 699.5999999999999V697.8H453.59999999999997H457.59999999999997V699.5999999999999Z " fill="#000000" fill-opacity="1" transform="matrix(1,0,0,1,-446,-689)"></path><path id="SvgjsPath1039" d="M454.8 696.6V696.6V692.6H456.6L453.8 690L451 692.6H452.8V696.6V696.6V700.6H451L453.8 703.2L456.6 700.6H454.8Z " fill="#000000" fill-opacity="1" transform="matrix(1,0,0,1,-446,-689)"></path></svg>