<svg
	version="1.1"
	xmlns="http://www.w3.org/2000/svg"
	xmlns:xlink="http://www.w3.org/1999/xlink"
	xmlns:svgjs="http://svgjs.com/svgjs"
	width="139"
	height="37"
	viewBox="0 0 139 37">
	<path
		d="M239.94 4573.81C239.13 4573.81 238.45 4573.950000000001 237.89 4574.1900000000005C237.86999999999998 4574.200000000001 237.67999999999998 4574.290000000001 237.54999999999998 4574.360000000001C237.54999999999998 4574.34 237.55999999999997 4574.34 237.57 4574.320000000001L243.98 4567.97C244 4567.96 244.01 4567.95 244.01999999999998 4567.95L243.90999999999997 4568.16C243.67999999999998 4568.63 243.53999999999996 4569.2 243.53999999999996 4569.84V4569.85C243.53999999999996 4570.64 243.57999999999996 4573.47 243.57999999999996 4573.47C243.57999999999996 4573.66 243.42999999999995 4573.81 243.23999999999995 4573.81ZM265.61 4573.12C266.06 4575.5199999999995 266.62 4585.0199999999995 266.34000000000003 4588.14C265.88000000000005 4593.13 265.13000000000005 4596.09 264.81000000000006 4597.070000000001C263.2200000000001 4601.990000000001 261.87000000000006 4602.120000000001 258.02000000000004 4602.120000000001C253.12000000000003 4602.120000000001 251.62000000000003 4601.380000000001 251.62000000000003 4597.460000000001C251.62000000000003 4593.140000000001 253.65000000000003 4593.050000000001 257.1 4593.150000000001C257.6 4593.160000000001 257.08000000000004 4593.64 257.08000000000004 4594.4800000000005C257.08000000000004 4595.320000000001 257.40000000000003 4595.650000000001 256.95000000000005 4595.650000000001C255.95000000000005 4595.650000000001 254.60000000000005 4595.51 254.60000000000005 4596.870000000001C254.60000000000005 4598.56 255.41000000000005 4598.510000000001 257.5400000000001 4598.510000000001C260.1500000000001 4598.510000000001 260.6500000000001 4598.180000000001 260.6500000000001 4595.800000000001C260.6500000000001 4591.880000000001 259.55000000000007 4591.280000000001 258.0200000000001 4591.100000000001C256.3300000000001 4590.9000000000015 254.6700000000001 4590.6500000000015 253.8600000000001 4590.370000000002C251.8300000000001 4589.6500000000015 251.9700000000001 4586.960000000002 251.9700000000001 4586.200000000002C251.9700000000001 4586.090000000002 251.8200000000001 4586.090000000002 251.8200000000001 4586.200000000002C251.8200000000001 4587.280000000002 251.7400000000001 4588.770000000001 251.18000000000012 4590.440000000001C251.01000000000013 4590.930000000001 250.8800000000001 4591.260000000001 250.8800000000001 4591.260000000001C250.24000000000012 4592.590000000001 249.1700000000001 4592.140000000001 247.4700000000001 4591.920000000001C245.7600000000001 4591.700000000001 242.12000000000012 4590.940000000001 240.53000000000011 4590.260000000001C239.81000000000012 4589.920000000001 239.5700000000001 4589.6100000000015 239.2000000000001 4588.8600000000015C238.2600000000001 4586.920000000002 237.2700000000001 4580.550000000001 237.1500000000001 4579.640000000001C237.0100000000001 4578.470000000001 237.00000000000009 4577.8600000000015 237.00000000000009 4577.8600000000015C237.00000000000009 4577.120000000002 237.0800000000001 4576.380000000002 237.51000000000008 4575.790000000002C237.74000000000007 4575.500000000002 238.0300000000001 4575.240000000002 238.44000000000008 4575.060000000002C238.85000000000008 4574.870000000003 239.39000000000007 4574.760000000002 240.10000000000008 4574.760000000002H243.4000000000001C244.1100000000001 4574.760000000002 244.7000000000001 4574.170000000002 244.7000000000001 4573.460000000002C244.7000000000001 4573.450000000002 244.6800000000001 4572.730000000002 244.6800000000001 4571.930000000002C244.6700000000001 4571.130000000002 244.66000000000008 4570.230000000002 244.66000000000008 4569.840000000002C244.66000000000008 4569.170000000002 244.83000000000007 4568.680000000002 245.0900000000001 4568.300000000002C245.4900000000001 4567.740000000002 246.2000000000001 4567.370000000002 246.8400000000001 4567.190000000002C247.6500000000001 4566.970000000002 250.79000000000008 4566.770000000002 252.8300000000001 4567.590000000002C253.5900000000001 4567.900000000002 254.2700000000001 4568.790000000002 254.4100000000001 4569.760000000002C255.6000000000001 4569.730000000002 257.5600000000001 4569.700000000002 259.2200000000001 4569.900000000002C261.30000000000007 4570.150000000002 262.9500000000001 4570.450000000003 263.7600000000001 4570.750000000003C264.5100000000001 4571.020000000003 265.3500000000001 4571.720000000003 265.6100000000001 4573.120000000003ZM258.91 4583.62C259.79 4583.66 260.62 4583.84 261.28000000000003 4584.14C261.27000000000004 4583.13 261.05 4581.650000000001 259.49 4581.6C258.07 4581.55 257.67 4582.740000000001 257.55 4583.700000000001C257.98 4583.64 258.44 4583.610000000001 258.91 4583.620000000001ZM272.38 4588.97L272.45 4579.54H270.9V4577.73H280.69L280.8 4581.4H278.88L278.71 4579.54H275.02L275 4583.23H278.74V4585.04H274.98L274.95000000000005 4588.97H278.6700000000001L278.9100000000001 4586.87H281.00000000000006L280.76000000000005 4590.78H270.90000000000003V4588.969999999999ZM295.17 4579.55L290.52000000000004 4590.79H287.85L283.18 4579.55H281.87V4577.7300000000005H287.44V4579.55H286.13L289.35 4588.400000000001H289.40000000000003L292.59000000000003 4579.55H291.02000000000004V4577.7300000000005H296.40000000000003V4579.55ZM299.16 4588.97L299.23 4579.54H297.69V4577.73H307.48L307.6 4581.4H305.67L305.5 4579.54H301.81L301.79 4583.23H305.53000000000003V4585.04H301.77000000000004L301.74000000000007 4588.97H305.45000000000005L305.69000000000005 4586.87H307.7900000000001L307.55000000000007 4590.78H297.69000000000005V4588.969999999999ZM311.72 4588.97L311.79 4579.54H310.24V4577.73H316.27C319.28999999999996 4577.73 320.27 4579.459999999999 320.27 4581.16C320.27 4582.66 319.53 4584.0199999999995 317.19 4584.61V4584.66C318.41 4584.99 318.71999999999997 4585.3 319.93 4587.4C320.74 4588.75 321.03000000000003 4588.969999999999 321.48 4588.969999999999C321.68 4588.969999999999 321.86 4588.919999999999 322.03000000000003 4588.9V4590.78H320.70000000000005C318.94000000000005 4590.78 318.72 4590.57 317.34000000000003 4587.83C316.1 4585.4 315.82000000000005 4585.23 314.87 4585.23H314.34000000000003L314.32000000000005 4588.969999999999H315.87000000000006V4590.789999999999H310.25000000000006V4588.969999999999ZM315.39 4583.42C316.8 4583.42 317.75 4582.66 317.75 4581.45C317.75 4580.25 317.15 4579.54 315.96 4579.54H314.39L314.37 4583.42ZM332.48 4579.55V4577.7300000000005H337.6V4579.55H336.12L336.05 4590.79H334.1L327.12 4581.49H327.07L327 4588.969999999999H328.55V4590.789999999999H323.43V4588.969999999999H324.90000000000003L324.97 4579.539999999999H323.42V4577.729999999999H327.28000000000003L333.91 4586.569999999999H333.95000000000005L334.03000000000003 4579.549999999998ZM351.5 4584.07C351.5 4588.19 349.04 4591.049999999999 345.01 4591.049999999999C340.51 4591.049999999999 338.53 4588.079999999999 338.53 4584.429999999999C338.53 4580.329999999999 340.98999999999995 4577.469999999999 345.01 4577.469999999999C349.52 4577.469999999999 351.5 4580.449999999999 351.5 4584.07ZM348.82 4584.24C348.82 4581.26 347.2 4579.57 345.01 4579.57C342.58 4579.57 341.2 4581.65 341.2 4584.34C341.2 4587.26 342.82 4588.95 345.01 4588.95C347.44 4588.95 348.82 4586.88 348.82 4584.24ZM357.08 4588.97L357.15 4579.54H354.52L354.43 4581.4H352.45L352.59 4577.73H364.29999999999995L364.43999999999994 4581.4H362.4699999999999L362.3699999999999 4579.54H359.7499999999999L359.6799999999999 4588.97H361.2299999999999V4590.79H355.6099999999999L355.5999999999999 4588.97ZM367.37 4588.97L367.45 4579.54H365.89V4577.73H375.69L375.81 4581.4H373.88L373.71 4579.54H370.02L370 4583.23H373.74V4585.04H369.98L369.95000000000005 4588.97H373.6700000000001L373.9100000000001 4586.87H376.00000000000006L375.76000000000005 4590.78H365.89000000000004V4588.969999999999Z"
		transform="matrix(1,0,0,1,-237,-4566)"/>
</svg>
