<svg
	version="1.1"
	xmlns="http://www.w3.org/2000/svg"
	xmlns:xlink="http://www.w3.org/1999/xlink"
	xmlns:svgjs="http://svgjs.com/svgjs"
	width="22"
	height="11"
	viewBox="0 0 22 11">
	<path
		d="M959.12 485H959.1C954.97 485.08 951.69 487.5 949.74 489.16C949.65 489.24 949.01 489.75 949 490.41C948.99 490.87 949.2 491.21000000000004 949.49 491.49C951.08 493.11 954.5600000000001 495.98 959.1 496H959.12C963.67 495.98 967.13 493.11 968.73 491.49C969.02 491.21000000000004 969.23 490.87 969.22 490.41C969.21 489.75 968.57 489.24 968.48 489.16C966.53 487.5 963.25 485.08000000000004 959.12 485ZM955.07 490.5C955.07 488.16 956.88 486.25 959.11 486.24C961.35 486.25 963.14 488.16 963.14 490.5C963.14 492.84 961.35 494.74 959.11 494.76C956.88 494.74 955.07 492.84 955.07 490.5ZM959.1 488.84C958.24 488.86999999999995 957.5600000000001 489.59999999999997 957.5600000000001 490.5C957.5600000000001 491.4 958.24 492.13 959.1 492.15H959.12C959.98 492.13 960.66 491.4 960.66 490.5C960.66 489.6 959.98 488.87 959.12 488.84Z"
		transform="matrix(1,0,0,1,-948,-485)"/>
</svg>
