<svg
	version="1.1"
	xmlns="http://www.w3.org/2000/svg"
	xmlns:xlink="http://www.w3.org/1999/xlink"
	xmlns:svgjs="http://svgjs.com/svgjs"
	width="17"
	height="17"
	viewBox="0 0 17 17">
	<path
		d="M1283.97 5710.94C1283.97 5711.45 1283.55 5711.87 1283.04 5711.87H1278.71V5705.34H1280.92L1281.25 5702.79H1278.71V5701.16C1278.71 5700.43 1278.92 5699.93 1279.98 5699.93L1281.34 5699.92V5697.65C1281.1 5697.62 1280.3 5697.549999999999 1279.36 5697.549999999999C1277.3999999999999 5697.549999999999 1276.07 5698.73 1276.07 5700.909999999999V5702.789999999999H1273.85V5705.339999999999H1276.07V5711.869999999999H1267.9399999999998C1267.4199999999998 5711.869999999999 1266.9999999999998 5711.449999999999 1266.9999999999998 5710.939999999999V5695.9299999999985C1266.9999999999998 5695.419999999998 1267.4199999999998 5694.999999999998 1267.9399999999998 5694.999999999998H1283.0399999999997C1283.5499999999997 5694.999999999998 1283.9699999999998 5695.419999999998 1283.9699999999998 5695.9299999999985V5710.939999999999"
		transform="matrix(1,0,0,1,-1267,-5695)"/>
</svg>
