<svg
	version="1.1"
	xmlns="http://www.w3.org/2000/svg"
	xmlns:xlink="http://www.w3.org/1999/xlink"
	xmlns:svgjs="http://svgjs.com/svgjs"
	width="16"
	height="16"
	viewBox="0 0 16 16">
	<path
		d="M1249 4979.12C1249 4979.599999999999 1248.6 4980 1248.12 4980H1244.04V4973.8H1246.12L1246.4299999999998 4971.39H1244.0399999999997V4969.85C1244.0399999999997 4969.150000000001 1244.2299999999998 4968.67 1245.2399999999998 4968.67H1246.5199999999998V4966.51C1246.2899999999997 4966.4800000000005 1245.5399999999997 4966.42 1244.6499999999999 4966.42C1242.81 4966.42 1241.55 4967.54 1241.55 4969.61V4971.389999999999H1239.46V4973.799999999999H1241.55V4979.999999999999H1233.8799999999999C1233.3999999999999 4979.999999999999 1232.9999999999998 4979.599999999999 1232.9999999999998 4979.119999999999V4964.879999999999C1232.9999999999998 4964.4 1233.3999999999999 4963.999999999999 1233.8799999999999 4963.999999999999H1248.12C1248.6 4963.999999999999 1249 4964.399999999999 1249 4964.879999999999V4979.119999999999"
		transform="matrix(1,0,0,1,-1233,-4964)"/>
</svg>
