<svg
	version="1.1"
	xmlns="http://www.w3.org/2000/svg"
	xmlns:xlink="http://www.w3.org/1999/xlink"
	xmlns:svgjs="http://svgjs.com/svgjs"
	width="29"
	height="34"
	viewBox="0 0 29 34">
	<path
		d="M318.97 2921V2909H343.02000000000004L339.95000000000005 2913.93C339.54 2914.58 339.54 2915.4199999999996 339.95000000000005 2916.0699999999997L343.03000000000003 2920.9999999999995ZM318.97 2923H322.92V2934H318.97ZM318.97 2904H322.92V2907H318.97ZM341.62 2915L344.69 2910.07C345.08 2909.4500000000003 345.1 2908.6800000000003 344.76 2908.04C344.40999999999997 2907.4 343.74 2907 343.03 2907H324.9V2904C324.9 2902.9 324.01 2902 322.91999999999996 2902H318.96999999999997C317.89 2902 316.99999999999994 2902.9 316.99999999999994 2904V2934C316.99999999999994 2935.1 317.88999999999993 2936 318.96999999999997 2936H322.91999999999996C324.00999999999993 2936 324.9 2935.1 324.9 2934V2923H343.03C343.73999999999995 2923 344.40999999999997 2922.6 344.76 2921.97C345.09999999999997 2921.33 345.08 2920.5499999999997 344.7 2919.93Z"
		transform="matrix(1,0,0,1,-317,-2902)"/>
</svg>
