<svg
	version="1.1"
	xmlns="http://www.w3.org/2000/svg"
	xmlns:xlink="http://www.w3.org/1999/xlink"
	xmlns:svgjs="http://svgjs.com/svgjs"
	width="92"
	height="28"
	viewBox="0 0 92 28">
	<path
		d="M677.72 3754.28H674V3749.7200000000003H677.82V3748.5600000000004C677.82 3742.9500000000003 680.38 3741.0000000000005 685.4300000000001 3741.0000000000005C686.8000000000001 3741.0000000000005 687.85 3741.2200000000003 688.6500000000001 3741.3600000000006L688.2700000000001 3745.8500000000004C687.7400000000001 3745.6700000000005 687.2200000000001 3745.5600000000004 686.2700000000001 3745.5600000000004C684.6600000000001 3745.5600000000004 684.0300000000001 3746.7200000000003 684.0300000000001 3748.5600000000004V3749.7200000000003H688.5100000000001V3754.28H684.0300000000001V3768.57H677.7200000000001V3754.28M692.78 3741.85H699.35V3769H692.78ZM704.04 3741.85H710.61V3746.5299999999997H704.04ZM704.04 3749.34H710.61V3768.06H704.04ZM728.78 3755.15C727.61 3754.4300000000003 726.4399999999999 3754.1 724.92 3754.1C722.15 3754.1 720.03 3756.0499999999997 720.03 3759.2999999999997C720.03 3762.2899999999995 722.51 3764.24 725.27 3764.24C726.73 3764.24 728.18 3763.91 729.25 3763.3399999999997L729.39 3768.1699999999996C727.79 3768.7099999999996 725.88 3768.9999999999995 724.17 3768.9999999999995C718.0699999999999 3768.9999999999995 713.43 3765.3899999999994 713.43 3759.1899999999996C713.43 3752.95 718.0699999999999 3749.3399999999997 724.17 3749.3399999999997C726.0899999999999 3749.3399999999997 727.79 3749.66 729.25 3750.3799999999997L728.78 3755.1499999999996M733.14 3741.85H739.35V3758.0699999999997H739.4200000000001L744.6 3750.14H751.4L745.15 3758.79L751.92 3769H744.39L739.42 3759.66H739.3499999999999V3769H733.1399999999999ZM765.69 3755.09C765 3754.8700000000003 764.3100000000001 3754.8700000000003 763.59 3754.8700000000003C760.69 3754.8700000000003 759.07 3757.1200000000003 759.07 3760.8800000000006V3769.0000000000005H752.86V3749.7800000000007H758.51V3753.3200000000006H758.58C759.6500000000001 3750.890000000001 761.21 3749.3400000000006 763.9000000000001 3749.3400000000006C764.6200000000001 3749.3400000000006 765.3800000000001 3749.4500000000007 766.0000000000001 3749.5600000000004L765.6900000000002 3755.0900000000006"
		transform="matrix(1,0,0,1,-674,-3741)"/>
</svg>
