<svg id="SvgjsSvg1008" xmlns="http://www.w3.org/2000/svg" version="1.1" xmlns:xlink="http://www.w3.org/1999/xlink" xmlns:svgjs="http://svgjs.com/svgjs" width="127" height="19" viewBox="0 0 127 19"><title>module framework</title><desc>Created with Avocode.</desc><defs id="SvgjsDefs1009"></defs><path id="SvgjsPath1010" d="M708.83 56.35V66.35H706.3100000000001V56.349999999999994H704.0000000000001V54.209999999999994H706.3100000000001V52.16C706.3100000000001 49.459999999999994 708.1500000000001 48 710.4100000000001 48C711.2400000000001 48 711.7600000000001 48.18 711.8600000000001 48.25V50.37C711.7300000000001 50.32 711.4200000000001 50.22 710.8000000000002 50.22C709.9400000000002 50.22 708.8300000000002 50.62 708.8300000000002 52.29V54.21H711.8400000000001V56.35ZM721.39 56.61C721.03 56.56 720.66 56.53 720.3199999999999 56.53C718.27 56.53 716.9 57.59 716.9 60.27V66.35000000000001H714.4599999999999V54.21000000000001H716.8499999999999V56.330000000000005C717.7599999999999 54.46000000000001 719.31 54.010000000000005 720.5799999999999 54.010000000000005C720.92 54.010000000000005 721.2599999999999 54.06 721.3899999999999 54.080000000000005ZM723.21 63.09C723.21 60.92 724.84 59.71 726.99 59.410000000000004L730.37 58.93000000000001C731.12 58.830000000000005 731.33 58.45000000000001 731.33 58.02000000000001C731.33 56.83000000000001 730.5200000000001 55.85000000000001 728.63 55.85000000000001C726.92 55.85000000000001 725.96 56.88000000000001 725.8 58.30000000000001L723.4699999999999 57.77000000000001C723.7199999999999 55.45000000000001 725.8799999999999 53.83000000000001 728.5799999999999 53.83000000000001C732.3199999999999 53.83000000000001 733.77 55.90000000000001 733.77 58.27000000000001V64.35000000000001C733.77 65.41000000000001 733.87 66.05000000000001 733.92 66.35000000000001H731.54C731.48 66.05000000000001 731.41 65.59 731.41 64.71000000000001C730.86 65.57000000000001 729.62 66.73 727.38 66.73C724.84 66.73 723.21 65.01 723.21 63.09ZM727.72 64.73C729.72 64.73 731.33 63.800000000000004 731.33 61.150000000000006V60.59L727.51 61.150000000000006C726.48 61.300000000000004 725.7 61.88 725.7 62.970000000000006C725.7 63.88 726.48 64.73 727.72 64.73ZM737.56 66.35V54.209999999999994H739.89V55.81999999999999C740.67 54.489999999999995 742.23 53.85999999999999 743.68 53.85999999999999C745.2399999999999 53.85999999999999 746.75 54.58999999999999 747.42 56.14999999999999C748.41 54.40999999999999 750.02 53.85999999999999 751.5999999999999 53.85999999999999C753.7799999999999 53.85999999999999 755.9099999999999 55.28999999999999 755.9099999999999 58.46999999999999V66.35H753.4899999999999V58.73C753.4899999999999 57.13999999999999 752.6899999999999 55.949999999999996 750.8499999999999 55.949999999999996C749.1299999999999 55.949999999999996 747.9699999999999 57.26 747.9699999999999 58.99999999999999V66.35H745.5299999999999V58.73C745.5299999999999 57.16 744.7499999999999 55.949999999999996 742.8799999999999 55.949999999999996C741.1399999999999 55.949999999999996 739.9699999999999 57.209999999999994 739.9699999999999 59.029999999999994V66.35ZM761.38 59.03H768.21C768.1600000000001 57.29 766.99 55.92 764.7800000000001 55.92C762.7300000000001 55.92 761.4900000000001 57.46 761.3800000000001 59.03ZM768.57 62.18L770.6700000000001 62.89C769.97 65.04 767.98 66.73 765.07 66.73C761.72 66.73 758.7900000000001 64.35000000000001 758.7900000000001 60.24C758.7900000000001 56.43 761.6200000000001 53.83 764.7600000000001 53.83C768.6000000000001 53.83 770.7500000000001 56.4 770.7500000000001 60.19C770.7500000000001 60.489999999999995 770.7300000000001 60.8 770.7000000000002 60.949999999999996H761.3100000000002C761.3600000000001 63.12 762.9700000000001 64.63 765.0700000000002 64.63C767.0900000000001 64.63 768.1000000000001 63.55 768.5700000000002 62.17999999999999ZM783.42 54.21L786.66 63.35L789.41 54.21H791.98L787.9300000000001 66.35H785.4200000000001L782.09 57.10999999999999L778.85 66.35H776.28L772.18 54.209999999999994H774.8499999999999L777.6599999999999 63.349999999999994L780.8999999999999 54.209999999999994ZM799.79 64.61C801.87 64.61 803.6899999999999 63.089999999999996 803.6899999999999 60.269999999999996C803.6899999999999 57.459999999999994 801.8699999999999 55.949999999999996 799.79 55.949999999999996C797.7199999999999 55.949999999999996 795.9 57.459999999999994 795.9 60.269999999999996C795.9 63.089999999999996 797.72 64.61 799.79 64.61ZM799.79 53.83C803.53 53.83 806.18 56.58 806.18 60.269999999999996C806.18 63.98 803.53 66.72999999999999 799.79 66.72999999999999C796.06 66.72999999999999 793.41 63.97999999999999 793.41 60.26999999999999C793.41 56.57999999999999 796.06 53.82999999999999 799.79 53.82999999999999ZM816.22 56.61C815.86 56.56 815.5 56.53 815.1600000000001 56.53C813.1100000000001 56.53 811.7300000000001 57.59 811.7300000000001 60.27V66.35000000000001H809.2900000000001V54.21000000000001H811.6800000000001V56.330000000000005C812.59 54.46000000000001 814.1500000000001 54.010000000000005 815.4200000000001 54.010000000000005C815.7600000000001 54.010000000000005 816.09 54.06 816.22 54.080000000000005ZM830 54.21H826.63L821.23 59.58V48.08H818.82V66.35H821.23V62.69L822.97 61L827.0500000000001 66.35H830.11L824.6800000000001 59.33Z " fill-opacity="1" transform="matrix(1,0,0,1,-704,-48)"></path></svg>