<svg
	version="1.1"
	xmlns="http://www.w3.org/2000/svg"
	xmlns:xlink="http://www.w3.org/1999/xlink"
	xmlns:svgjs="http://svgjs.com/svgjs"
	width="107"
	height="29"
	viewBox="0 0 107 29">
	<path
		d="M982.08 2167.77C982.3100000000001 2167.77 982.49 2167.96 982.49 2168.19V2172.27C982.49 2172.5099999999998 982.3100000000001 2172.7 982.08 2172.7H978.3000000000001C978.3000000000001 2172.7 978.3000000000001 2179.0299999999997 978.3000000000001 2180.1499999999996C978.3000000000001 2181.2799999999997 978.9300000000001 2182.1399999999994 980.7800000000001 2182.1399999999994C981.3600000000001 2182.1399999999994 981.9300000000001 2182.0499999999993 982.1500000000001 2182.0499999999993C982.3700000000001 2182.0499999999993 982.5600000000001 2182.2399999999993 982.5600000000001 2182.479999999999V2186.0699999999993C982.5600000000001 2186.229999999999 982.47 2186.3899999999994 982.32 2186.4499999999994C982.08 2186.5399999999995 980.58 2186.939999999999 979.33 2186.939999999999C976.58 2186.939999999999 972.5200000000001 2186.369999999999 972.5200000000001 2180.539999999999V2172.699999999999H969.8800000000001C969.6500000000001 2172.699999999999 969.4700000000001 2172.509999999999 969.4700000000001 2172.269999999999V2169.009999999999C969.4700000000001 2168.819999999999 969.6000000000001 2168.659999999999 969.7700000000001 2168.6099999999988C969.94 2168.5599999999986 972.5200000000001 2167.929999999999 972.5200000000001 2167.929999999999V2162.739999999999C972.5200000000001 2162.549999999999 972.6300000000001 2162.4599999999987 972.83 2162.4599999999987H977.98C978.2 2162.4599999999987 978.29 2162.5599999999986 978.29 2162.7499999999986L978.3 2167.7699999999986ZM1037.29 2167.24C1040.1299999999999 2167.24 1044.33 2168.31 1044.33 2176.4799999999996C1044.33 2184.6599999999994 1041.6999999999998 2186.9999999999995 1037.11 2186.9999999999995C1033.1999999999998 2186.9999999999995 1031.1399999999999 2185.0299999999997 1031.1399999999999 2185.0299999999997C1031.1399999999999 2185.0299999999997 1031.0099999999998 2186.1099999999997 1030.9299999999998 2186.2499999999995C1030.84 2186.3999999999996 1030.7199999999998 2186.4799999999996 1030.56 2186.4799999999996H1027.06C1026.83 2186.4799999999996 1026.6399999999999 2186.2899999999995 1026.6399999999999 2186.0499999999997V2159.5399999999995C1026.6399999999999 2159.2999999999997 1026.83 2159.1199999999994 1027.06 2159.1199999999994H1032.11C1032.34 2159.1199999999994 1032.52 2159.2999999999993 1032.52 2159.5399999999995V2168.5199999999995C1032.52 2168.5199999999995 1034.45 2167.2399999999993 1037.29 2167.2399999999993ZM1035.32 2182.18C1037.74 2182.2599999999998 1038.53 2181.3599999999997 1038.53 2176.7999999999997C1038.53 2172.4799999999996 1036.79 2171.9399999999996 1034.99 2172.1C1033.57 2172.23 1032.41 2172.94 1032.41 2172.94V2181.34C1032.41 2181.34 1033.5900000000001 2182.13 1035.3200000000002 2182.1800000000003ZM1023.81 2167.81C1024.04 2167.81 1024.22 2168 1024.22 2168.24V2186.04C1024.22 2186.27 1024.04 2186.46 1023.8100000000001 2186.46L1020.58 2186.4700000000003C1020.4200000000001 2186.4700000000003 1020.2700000000001 2186.36 1020.21 2186.2400000000002C1020.1600000000001 2186.13 1020.0300000000001 2185.1600000000003 1020.0300000000001 2185.1600000000003C1020.0300000000001 2185.1600000000003 1017.3700000000001 2187.0000000000005 1014.08 2187.0000000000005C1010.0600000000001 2187.0000000000005 1007.14 2185.7100000000005 1007.14 2180.4300000000003V2168.2400000000002C1007.14 2168.0000000000005 1007.33 2167.8100000000004 1007.56 2167.8100000000004H1012.63C1012.86 2167.8100000000004 1013.04 2168.0000000000005 1013.04 2168.2400000000002V2179.57C1013.04 2181.3500000000004 1013.52 2182.17 1015.3199999999999 2182.17C1017.1199999999999 2182.17 1018.39 2181.2400000000002 1018.39 2181.2400000000002V2168.2400000000002C1018.39 2168.0000000000005 1018.58 2167.8100000000004 1018.81 2167.8100000000004ZM967.58 2185.81C967.58 2186.24 967.46 2186.49 966.97 2186.49H962.44C962.0300000000001 2186.49 961.71 2186.3399999999997 961.71 2185.8199999999997V2168.2799999999997C961.71 2168.0499999999997 961.9200000000001 2167.81 962.1500000000001 2167.81H967.1700000000001C967.4000000000001 2167.81 967.58 2168 967.58 2168.23ZM967.98 2163.08C967.98 2164.91 966.53 2166.38 964.74 2166.38C962.94 2166.38 961.49 2164.9100000000003 961.49 2163.08C961.49 2161.2599999999998 962.94 2159.7799999999997 964.74 2159.7799999999997C966.53 2159.7799999999997 967.98 2161.2599999999998 967.98 2163.08ZM1004.56 2186.05C1004.56 2186.29 1004.38 2186.48 1004.15 2186.48H999.1C998.87 2186.48 998.6800000000001 2186.29 998.6800000000001 2186.05L998.7 2174.71H990.85V2186.05C990.85 2186.29 990.66 2186.48 990.4300000000001 2186.48H985.4000000000001C985.1700000000001 2186.48 984.9800000000001 2186.29 984.9800000000001 2186.05V2159.54C984.9800000000001 2159.3 985.1700000000002 2159.12 985.4000000000001 2159.12H990.4300000000001C990.6600000000001 2159.12 990.85 2159.2999999999997 990.85 2159.54V2169.33H998.7L998.69 2159.54C998.69 2159.3 998.8800000000001 2159.12 999.11 2159.12H1004.15C1004.38 2159.12 1004.56 2159.2999999999997 1004.56 2159.54ZM949.55 2170.4C949.3199999999999 2170.4 949.14 2170.58 949.14 2170.82V2175.2200000000003C949.14 2175.4500000000003 949.3199999999999 2175.6400000000003 949.55 2175.6400000000003H953.04V2181.11C953.04 2181.11 952.26 2181.3700000000003 950.0899999999999 2181.3700000000003C947.54 2181.3700000000003 943.9699999999999 2180.4300000000003 943.9699999999999 2172.5400000000004C943.9699999999999 2164.6400000000003 947.6899999999999 2163.6000000000004 951.18 2163.6000000000004C954.1999999999999 2163.6000000000004 955.5 2164.1300000000006 956.3299999999999 2164.3900000000003C956.5899999999999 2164.4700000000003 956.8299999999999 2164.2100000000005 956.8299999999999 2163.9800000000005L957.8199999999999 2159.7200000000003C957.8199999999999 2159.6200000000003 957.79 2159.4900000000002 957.66 2159.4C957.3299999999999 2159.1600000000003 955.28 2158 950.0899999999999 2158C944.1199999999999 2158 937.9999999999999 2160.56 937.9999999999999 2172.84C937.9999999999999 2185.13 945.0099999999999 2186.96 950.9199999999998 2186.96C955.8099999999998 2186.96 958.7799999999999 2184.86 958.7799999999999 2184.86C958.8999999999999 2184.79 958.9199999999998 2184.6200000000003 958.9199999999998 2184.54V2170.82C958.9199999999998 2170.5800000000004 958.7299999999998 2170.4 958.4999999999999 2170.4Z"
		transform="matrix(1,0,0,1,-938,-2158)"/>
</svg>
