<svg
	version="1.1"
	xmlns="http://www.w3.org/2000/svg"
	xmlns:xlink="http://www.w3.org/1999/xlink"
	xmlns:svgjs="http://svgjs.com/svgjs"
	width="34"
	height="34"
	viewBox="0 0 34 34">
	<path
		d="M1054.47 3042H1059.95C1059.72 3045.4 1058.3700000000001 3048.48 1056.25 3050.89C1055.27 3050.2 1054.25 3049.6099999999997 1053.19 3049.12C1053.93 3046.8599999999997 1054.3700000000001 3044.46 1054.47 3042ZM1054.81 3052.32C1053.5 3053.46 1051.98 3054.3700000000003 1050.33 3055.01C1051.1599999999999 3053.76 1051.8799999999999 3052.42 1052.48 3051C1053.29 3051.38 1054.07 3051.82 1054.81 3052.32ZM1040.03 3055.14C1038.23 3054.5 1036.6 3053.54 1035.18 3052.3199999999997C1036 3051.7699999999995 1036.8600000000001 3051.2899999999995 1037.74 3050.89C1038.3700000000001 3052.4 1039.13 3053.8199999999997 1040.03 3055.14ZM1035.19 3029.68C1036.55 3028.5 1038.1100000000001 3027.5699999999997 1039.8300000000002 3026.94C1038.9700000000003 3028.2200000000003 1038.2500000000002 3029.6 1037.65 3031.06C1036.8000000000002 3030.67 1035.98 3030.21 1035.19 3029.68ZM1050.53 3027.07C1052.11 3027.7000000000003 1053.55 3028.5800000000004 1054.81 3029.6800000000003C1054.09 3030.1600000000003 1053.35 3030.59 1052.57 3030.9500000000003C1052.01 3029.5800000000004 1051.33 3028.2900000000004 1050.53 3027.07ZM1045.98 3040V3034.63C1047.84 3034.54 1049.66 3034.2000000000003 1051.39 3033.6C1052.0300000000002 3035.64 1052.4 3037.7999999999997 1052.48 3040ZM1045.98 3042H1052.47C1052.3700000000001 3044.2 1051.98 3046.35 1051.33 3048.37C1049.62 3047.79 1047.82 3047.46 1045.98 3047.37ZM1043.98 3042V3047.38C1042.24 3047.46 1040.54 3047.77 1038.92 3048.3C1038.28 3046.29 1037.9 3044.17 1037.8000000000002 3042ZM1043.98 3040H1037.79C1037.87 3037.83 1038.23 3035.7 1038.86 3033.69C1040.5 3034.23 1042.2199999999998 3034.54 1043.9799999999998 3034.63ZM1054.48 3040C1054.4 3037.51 1053.99 3035.1 1053.26 3032.84C1054.3 3032.3500000000004 1055.3 3031.78 1056.25 3031.1200000000003C1058.37 3033.5200000000004 1059.72 3036.61 1059.95 3040.0000000000005ZM1050.71 3031.72C1049.19 3032.24 1047.6100000000001 3032.54 1045.98 3032.6299999999997V3026.0499999999997C1046.47 3026.08 1046.94 3026.14 1047.41 3026.2099999999996C1048.77 3027.8199999999997 1049.8700000000001 3029.6899999999996 1050.71 3031.72ZM1043.98 3032.63C1042.45 3032.54 1040.96 3032.27 1039.53 3031.8C1040.3799999999999 3029.7200000000003 1041.51 3027.8 1042.8999999999999 3026.17C1043.2499999999998 3026.12 1043.62 3026.08 1043.9799999999998 3026.05ZM1036.97 3032.95C1036.27 3035.18 1035.8700000000001 3037.5499999999997 1035.79 3040H1030.05C1030.28 3036.61 1031.6299999999999 3033.52 1033.75 3031.11C1034.77 3031.83 1035.85 3032.4500000000003 1036.97 3032.9500000000003ZM1035.8 3042C1035.8999999999999 3044.42 1036.33 3046.78 1037.05 3049.01C1035.8999999999999 3049.5200000000004 1034.8 3050.15 1033.75 3050.8900000000003C1031.63 3048.4800000000005 1030.28 3045.4000000000005 1030.05 3042.0000000000005ZM1039.61 3050.18C1041.02 3049.73 1042.4799999999998 3049.46 1043.9799999999998 3049.3799999999997V3055.95C1043.6899999999998 3055.93 1043.3999999999999 3055.8999999999996 1043.11 3055.87C1041.6599999999999 3054.22 1040.49 3052.29 1039.61 3050.18ZM1045.98 3049.37C1047.58 3049.46 1049.14 3049.75 1050.63 3050.25C1049.7600000000002 3052.31 1048.6100000000001 3054.2 1047.2 3055.82C1046.8 3055.88 1046.39 3055.92 1045.98 3055.9500000000003ZM1062 3041C1062 3032.65 1055.97 3025.72 1048.03 3024.29C1048.02 3024.2799999999997 1048.01 3024.2799999999997 1048.01 3024.2799999999997C1047.03 3024.1099999999997 1046.03 3023.9999999999995 1045 3023.9999999999995C1035.61 3023.9999999999995 1028 3031.6099999999997 1028 3040.9999999999995C1028 3045.5799999999995 1029.82 3049.7299999999996 1032.77 3052.7899999999995C1032.78 3052.8099999999995 1032.78 3052.8299999999995 1032.79 3052.8399999999997C1032.82 3052.8799999999997 1032.86 3052.8999999999996 1032.8899999999999 3052.93C1035.9799999999998 3056.06 1040.2599999999998 3058 1044.9999999999998 3058C1049.7199999999998 3058 1053.9899999999998 3056.08 1057.0699999999997 3052.97C1057.1199999999997 3052.93 1057.1799999999996 3052.8999999999996 1057.2199999999998 3052.85C1057.2399999999998 3052.8199999999997 1057.2399999999998 3052.79 1057.2599999999998 3052.75C1060.1899999999998 3049.7 1061.9999999999998 3045.57 1061.9999999999998 3041Z"
		transform="matrix(1,0,0,1,-1028,-3024)"/>
</svg>
