<svg
	version="1.1"
	xmlns="http://www.w3.org/2000/svg"
	xmlns:xlink="http://www.w3.org/1999/xlink"
	xmlns:svgjs="http://svgjs.com/svgjs"
	width="104"
	height="34"
	viewBox="0 0 104 34">
	<path
		d="M249.49 3065.62C249.07000000000002 3064.58 247.83 3063.83 246.34 3063.83C244.45000000000002 3063.83 241.83 3065.5 241.92000000000002 3068.75ZM253.7 3073.7C252.76 3075.08 250.51 3077.4399999999996 246.64 3077.4399999999996C241.82 3077.4399999999996 238.23 3073.7299999999996 238.23 3069.0099999999998C238.23 3063.9999999999995 241.85999999999999 3060.5899999999997 246.23 3060.5899999999997C250.63 3060.5899999999997 252.78 3064.0699999999997 253.48 3065.95L253.85999999999999 3066.91L242.52999999999997 3071.5699999999997C243.39 3073.2599999999998 244.72999999999996 3074.12 246.64 3074.12C248.54 3074.12 249.85999999999999 3073.19 250.80999999999997 3071.79ZM226.53 3060.68H230V3076.02C230 3082.38 226.36 3085 222.06 3085C218.01 3085 215.58 3082.19 214.66 3079.9L217.85 3078.53C218.43 3079.94 219.81 3081.61 222.06 3081.61C224.83 3081.61 226.53 3079.84 226.53 3076.53V3075.2900000000004H226.4C225.58 3076.3300000000004 224 3077.26 222 3077.26C217.82 3077.26 214 3073.5 214 3068.6600000000003C214 3063.7900000000004 217.82 3060.0000000000005 222 3060.0000000000005C223.99 3060.0000000000005 225.58 3060.9200000000005 226.4 3061.9200000000005H226.53ZM222.31 3063.39C219.79 3063.39 217.66 3065.6099999999997 217.66 3068.66C217.66 3071.67 219.79 3073.85 222.31 3073.85C224.81 3073.86 226.78 3071.67 226.78 3068.66C226.78 3065.6099999999997 224.81 3063.39 222.31 3063.39ZM186.5 3077C181.82 3077 178 3073.39 178 3068.51C178 3063.59 181.82 3060 186.5 3060C191.18 3060 195 3063.59 195 3068.51C195 3073.4 191.18 3077 186.5 3077ZM186.5 3063.36C183.93 3063.36 181.72 3065.4500000000003 181.72 3068.51C181.72 3071.53 183.93 3073.6600000000003 186.5 3073.6600000000003C189.07 3073.6600000000003 191.28 3071.53 191.28 3068.51C191.28 3065.4500000000003 189.07 3063.36 186.5 3063.36ZM204.5 3078C199.82 3078 196 3074.4 196 3069.5C196 3064.58 199.82 3061 204.5 3061C209.18 3061 213 3064.56 213 3069.5C213 3074.4 209.18 3078 204.5 3078ZM204.49 3064.35C201.92000000000002 3064.35 199.70000000000002 3066.45 199.70000000000002 3069.5C199.70000000000002 3072.53 201.92000000000002 3074.65 204.49 3074.65C207.07000000000002 3074.65 209.27 3072.52 209.27 3069.5C209.27 3066.45 207.06 3064.35 204.49 3064.35ZM163.02 3074.31C166.37 3074.31 168.28 3072.9 169.48000000000002 3071.61C170.48000000000002 3070.56 171.16000000000003 3069.02 171.4 3066.77H163.02V3063.17H174.79000000000002C174.90000000000003 3063.83 175.00000000000003 3064.7200000000003 175.00000000000003 3065.59C175.00000000000003 3068.36 174.29000000000002 3071.78 171.97000000000003 3074.2200000000003C169.72000000000003 3076.6800000000003 166.84000000000003 3078.0000000000005 163.02000000000004 3078.0000000000005C155.95000000000005 3078.0000000000005 150.00000000000003 3071.9400000000005 150.00000000000003 3064.5000000000005C150.00000000000003 3057.0600000000004 155.95000000000002 3051.0000000000005 163.02000000000004 3051.0000000000005C166.92000000000004 3051.0000000000005 169.72000000000003 3052.6100000000006 171.81000000000003 3054.7200000000003L169.33000000000004 3057.32C167.83000000000004 3055.8500000000004 165.80000000000004 3054.69 163.02000000000004 3054.69C157.86000000000004 3054.69 153.82000000000005 3059.07 153.82000000000005 3064.5C153.82000000000005 3069.93 157.86000000000004 3074.31 163.02000000000004 3074.31ZM233 3053H237V3078H233Z"
		transform="matrix(1,0,0,1,-150,-3051)"/>
</svg>
