<svg
	version="1.1"
	xmlns="http://www.w3.org/2000/svg"
	xmlns:xlink="http://www.w3.org/1999/xlink"
	xmlns:svgjs="http://svgjs.com/svgjs"
	width="24"
	height="15"
	viewBox="0 0 24 15">
	<path
		d="M1198.48 4973.99C1198.48 4973.99 1201.3600000000001 4973.98 1202.53 4973.98C1201.8999999999999 4975.91 1200.91 4976.959999999999 1198.48 4976.959999999999C1196.03 4976.959999999999 1194.1100000000001 4974.959999999999 1194.1100000000001 4972.499999999999C1194.1100000000001 4970.039999999999 1196.0300000000002 4968.039999999999 1198.48 4968.039999999999C1199.78 4968.039999999999 1200.6200000000001 4968.499999999999 1201.39 4969.139999999999C1202 4968.5199999999995 1201.95 4968.429999999999 1203.5200000000002 4966.95C1202.1900000000003 4965.74 1200.4200000000003 4965 1198.4800000000002 4965C1194.3500000000001 4965 1191.0000000000002 4968.36 1191.0000000000002 4972.5C1191.0000000000002 4976.64 1194.3500000000001 4980 1198.4800000000002 4980C1204.6600000000003 4980 1206.1700000000003 4974.61 1205.6700000000003 4971.01H1198.4800000000002ZM1211.97 4968.56H1210.1200000000001V4971.160000000001H1207.45V4973.02H1210.1200000000001V4975.6900000000005H1211.97V4973.02H1214.56V4971.160000000001H1211.97Z"
		transform="matrix(1,0,0,1,-1191,-4965)"/>
</svg>
