<svg
	version="1.1"
	xmlns="http://www.w3.org/2000/svg"
	xmlns:xlink="http://www.w3.org/1999/xlink"
	xmlns:svgjs="http://svgjs.com/svgjs"
	width="56"
	height="46"
	viewBox="0 0 56 46">
	<path
		d="M695.15 927.46L692.6 926.6600000000001C692.15 926.5200000000001 691.9 926.0500000000001 692.0400000000001 925.6000000000001C692.1800000000001 925.1500000000001 692.6500000000001 924.9000000000001 693.1 925.0400000000002L695.66 925.8300000000002C696.11 925.9700000000001 696.36 926.4500000000002 696.2199999999999 926.9000000000002C696.0999999999999 927.2600000000002 695.7699999999999 927.4900000000002 695.41 927.4900000000002C695.3199999999999 927.4900000000002 695.24 927.4800000000002 695.15 927.4600000000003ZM703.05 929.86C703.41 929.86 703.75 929.63 703.8599999999999 929.27C703.9999999999999 928.8199999999999 703.7499999999999 928.34 703.3 928.1999999999999L699.4799999999999 927.02C699.0299999999999 926.88 698.55 927.13 698.42 927.5799999999999C698.28 928.03 698.53 928.4999999999999 698.9699999999999 928.6399999999999L702.8 929.8299999999999C702.88 929.8499999999999 702.9599999999999 929.8599999999999 703.05 929.8599999999999Z"
		fill="#43484d"
		transform="matrix(1,0,0,1,-692,-900)"/>
	<path
		d="M739.49 927.71L735.63 926.6700000000001C735.18 926.5500000000001 734.91 926.08 735.03 925.6300000000001C735.15 925.1700000000001 735.62 924.9100000000001 736.0699999999999 925.0300000000001L739.93 926.07C740.39 926.2 740.65 926.6600000000001 740.53 927.12C740.43 927.49 740.0899999999999 927.74 739.7099999999999 927.74C739.6399999999999 927.74 739.56 927.74 739.4899999999999 927.71ZM746.16 929.49C746.53 929.49 746.87 929.24 746.98 928.86C747.1 928.41 746.83 927.94 746.38 927.82L743.79 927.12C743.3499999999999 926.99 742.88 927.26 742.75 927.72C742.63 928.1700000000001 742.9 928.64 743.35 928.76L745.94 929.46C746.0100000000001 929.48 746.08 929.49 746.1600000000001 929.49Z"
		fill="#43484d"
		transform="matrix(1,0,0,1,-692,-900)"/>
	<path
		d="M726.54 902L706 902C704.34 902 703 903.34 703 905L703 941.49C703 943.15 704.34 944.49 706 944.49L734.95 944.49C736.61 944.49 737.95 943.15 737.95 941.49L737.95 913.67"
		fill="#e0e7ed"
		transform="matrix(1,0,0,1,-692,-900)"/>
	<path
		d="M734.8 945.19L705.8499999999999 945.19C703.7299999999999 945.19 701.9999999999999 943.47 701.9999999999999 941.34L701.9999999999999 904.85C701.9999999999999 902.73 703.7299999999999 901 705.8499999999999 901L726.3899999999999 901C726.8599999999999 901 727.2399999999999 901.38 727.2399999999999 901.85C727.2399999999999 902.32 726.8599999999999 902.7 726.3899999999999 902.7L705.8499999999999 902.7C704.6599999999999 902.7 703.6999999999999 903.6700000000001 703.6999999999999 904.85L703.6999999999999 941.34C703.6999999999999 942.5300000000001 704.66 943.49 705.8499999999999 943.49L734.8 943.49C735.99 943.49 736.9499999999999 942.53 736.9499999999999 941.34L736.9499999999999 913.52C736.9499999999999 913.05 737.3299999999999 912.67 737.8 912.67C738.27 912.67 738.65 913.05 738.65 913.52L738.65 941.34C738.65 943.47 736.93 945.19 734.8 945.19"
		fill="#43484d"
		transform="matrix(1,0,0,1,-692,-900)"/>
	<path
		d="M726 902L726 911.17C726 912.55 727.12 913.67 728.5 913.67L737.42 913.67Z"
		fill="#fefefe"
		transform="matrix(1,0,0,1,-692,-900)"/>
	<path
		d="M726.7 903.93L726.7 911.02C726.7 911.93 727.44 912.67 728.35 912.67L735.25 912.67ZM728.35 914.37C726.5 914.37 725 912.87 725 911.02L725 901.85C725 901.5 725.21 901.19 725.53 901.0600000000001C725.85 900.9300000000001 726.22 901.0100000000001 726.4599999999999 901.2600000000001L737.8799999999999 912.9300000000001C738.1199999999999 913.1700000000001 738.1799999999998 913.5400000000001 738.0499999999998 913.85C737.9199999999998 914.1700000000001 737.6099999999998 914.37 737.2699999999999 914.37Z"
		fill="#43484d"
		transform="matrix(1,0,0,1,-692,-900)"/>
	<path
		d="M712.59 933.02C712.51 933.02 712.4200000000001 933.01 712.34 932.98L702.6 930.02C702.15 929.88 701.9 929.4 702.0400000000001 928.96C702.1700000000001 928.51 702.6500000000001 928.25 703.1 928.39L712.39 931.22L722.77 922.21C722.99 922.02 723.28 921.95 723.55 922.0300000000001L738.03 925.9700000000001C738.48 926.1000000000001 738.75 926.5600000000002 738.62 927.0200000000001C738.5 927.4700000000001 738.03 927.7300000000001 737.58 927.6100000000001L723.5400000000001 923.7900000000001L713.1500000000001 932.8100000000001C712.9900000000001 932.95 712.7900000000001 933.0200000000001 712.5900000000001 933.0200000000001"
		fill="#43484d"
		transform="matrix(1,0,0,1,-692,-900)"/>
	<path
		d="M714.5 929.81C715.49 930.8599999999999 715.45 932.51 714.41 933.5C713.36 934.49 711.7099999999999 934.45 710.7199999999999 933.41C709.7199999999999 932.36 709.7699999999999 930.7099999999999 710.81 929.7199999999999C711.8599999999999 928.7299999999999 713.51 928.7699999999999 714.5 929.81"
		fill="#fefefe"
		transform="matrix(1,0,0,1,-692,-900)"/>
	<path
		d="M711.24 930.14C710.54 930.81 710.51 931.93 711.1800000000001 932.63C711.83 933.31 712.99 933.34 713.6700000000001 932.6899999999999C714.3700000000001 932.03 714.4000000000001 930.91 713.73 930.2099999999999C713.4 929.8499999999999 712.94 929.66 712.46 929.66C712 929.66 711.57 929.8299999999999 711.24 930.14ZM709.95 933.8C708.6400000000001 932.42 708.69 930.2199999999999 710.07 928.91C711.4000000000001 927.65 713.7 927.7099999999999 714.97 929.04C716.28 930.42 716.22 932.61 714.84 933.93C714.19 934.54 713.35 934.88 712.46 934.88C711.51 934.88 710.6 934.49 709.95 933.8Z"
		fill="#43484d"
		transform="matrix(1,0,0,1,-692,-900)"/>
	<path
		d="M724.5 920.81C725.49 921.8599999999999 725.45 923.51 724.41 924.5C723.36 925.49 721.7099999999999 925.45 720.7199999999999 924.41C719.7199999999999 923.36 719.7699999999999 921.7099999999999 720.81 920.7199999999999C721.8599999999999 919.7299999999999 723.51 919.7699999999999 724.5 920.81"
		fill="#fefefe"
		transform="matrix(1,0,0,1,-692,-900)"/>
	<path
		d="M722.25 921.14C721.91 921.47 721.71 921.9 721.7 922.37C721.69 922.84 721.86 923.29 722.1800000000001 923.63C722.83 924.31 723.99 924.34 724.6700000000001 923.6899999999999C725.3700000000001 923.03 725.4000000000001 921.91 724.73 921.2099999999999C724.4 920.8499999999999 723.95 920.66 723.46 920.66C723.01 920.66 722.58 920.8299999999999 722.25 921.14ZM720.95 924.8C720.3100000000001 924.13 719.98 923.25 720 922.3299999999999C720.02 921.41 720.41 920.55 721.08 919.91C722.4000000000001 918.65 724.71 918.7099999999999 725.97 920.04C727.28 921.42 727.22 923.61 725.84 924.93C725.2 925.54 724.35 925.88 723.46 925.88C722.52 925.88 721.6 925.49 720.95 924.8Z"
		fill="#43484d"
		transform="matrix(1,0,0,1,-692,-900)"/>
</svg>
