<svg
	version="1.1"
	xmlns="http://www.w3.org/2000/svg"
	xmlns:xlink="http://www.w3.org/1999/xlink"
	xmlns:svgjs="http://svgjs.com/svgjs"
	width="62"
	height="57"
	viewBox="0 0 62 57">
	<path
		d="M1171.77 1913.45H1168.49V1912C1169.11 1911.73 1169.76 1911.49 1170.45 1911.28C1171.15 1911.07 1171.8 1910.8999999999999 1172.42 1910.78L1172.74 1909.51C1173.14 1908.02 1173.69 1906.79 1174.38 1905.81C1175.0700000000002 1904.84 1175.88 1904.07 1176.8000000000002 1903.5C1177.7300000000002 1902.93 1178.7700000000002 1902.54 1179.9500000000003 1902.33C1181.1100000000004 1902.11 1182.3800000000003 1902 1183.7300000000002 1902C1184.7100000000003 1902 1185.7200000000003 1902.07 1186.7300000000002 1902.2C1187.7500000000002 1902.3300000000002 1188.5600000000002 1902.53 1189.1800000000003 1902.8C1189.2400000000002 1903.1299999999999 1189.2200000000003 1903.5 1189.1100000000004 1903.8999999999999C1189.0000000000005 1904.29 1188.8300000000004 1904.6699999999998 1188.6000000000004 1905.03C1188.3700000000003 1905.3999999999999 1188.1000000000004 1905.72 1187.7900000000004 1906.01C1187.4800000000005 1906.3 1187.1500000000003 1906.51 1186.7800000000004 1906.66L1183.4500000000005 1903.91C1183.0200000000004 1903.99 1182.6000000000006 1904.1000000000001 1182.1800000000005 1904.26C1181.7700000000004 1904.42 1181.3700000000006 1904.67 1181.0100000000004 1905.03C1180.6400000000006 1905.3999999999999 1180.2700000000004 1905.91 1179.9200000000005 1906.59C1179.5700000000006 1907.26 1179.2500000000005 1908.1599999999999 1178.9700000000005 1909.3L1178.5600000000004 1911.1H1183.6400000000003C1183.7000000000003 1911.3799999999999 1183.7000000000003 1911.75 1183.6400000000003 1912.24C1183.5800000000004 1912.72 1183.3800000000003 1913.13 1183.0400000000004 1913.45H1177.9600000000005L1170.9100000000005 1945.56C1170.6000000000006 1947.26 1169.9700000000005 1948.6799999999998 1169.0200000000004 1949.81C1168.0600000000004 1950.94 1167.0100000000004 1951.84 1165.8600000000004 1952.53C1164.7000000000003 1953.21 1163.5400000000004 1953.72 1162.3700000000003 1954.06C1161.2000000000003 1954.3899999999999 1160.2500000000005 1954.62 1159.5100000000004 1954.74L1159.0000000000005 1953.51C1159.3700000000003 1953.37 1159.8300000000004 1953.1299999999999 1160.3900000000006 1952.81C1160.9400000000005 1952.49 1161.5000000000005 1952.04 1162.0500000000006 1951.46C1162.6000000000006 1950.88 1163.1200000000006 1950.17 1163.6000000000006 1949.32C1164.0700000000006 1948.47 1164.4300000000005 1947.4399999999998 1164.6800000000005 1946.24Z"
		fill="#86939e"
		transform="matrix(1,0,0,1,-1128,-1898)"/>
	<path
		d="M1170.59 1905.79C1171.4099999999999 1904.92 1171.28 1903.49 1170.28 1902.82C1168.83 1901.84 1167.27 1901.03 1165.62 1900.4299999999998C1160.57 1898.57 1154.8799999999999 1898.5299999999997 1149.81 1900.2899999999997C1144.09 1902.2499999999998 1139.22 1906.5299999999997 1136.51 1911.9499999999998C1135.56 1913.8199999999997 1134.8799999999999 1915.8099999999997 1134.46 1917.86C1133.43 1922.9699999999998 1134.15 1928.4199999999998 1136.49 1933.07C1138.02 1936.1 1140.22 1938.8 1142.8700000000001 1940.9099999999999C1145.38 1942.9099999999999 1148.2900000000002 1944.3999999999999 1151.4 1945.2199999999998C1155.3100000000002 1946.2699999999998 1159.48 1946.2499999999998 1163.41 1945.35C1166.97 1944.53 1170.3400000000001 1942.82 1173.03 1940.35C1175.87 1937.73 1177.8999999999999 1934.29 1178.97 1930.59C1179.88 1927.48 1180.17 1924.2099999999998 1179.93 1920.97C1179.88 1920.38 1179.8200000000002 1919.79 1179.74 1919.2C1179.65 1918.56 1179.09 1918.0900000000001 1178.44 1918.0900000000001H1159.02C1158.17 1918.0900000000001 1157.48 1918.7800000000002 1157.48 1919.64V1925.72C1157.48 1926.58 1158.17 1927.27 1159.02 1927.27L1170.26 1927.28C1169.77 1930.2 1168.03 1932.87 1165.58 1934.53L1165.57 1934.52C1164.02 1935.57 1162.24 1936.24 1160.3999999999999 1936.57C1158.54 1936.8799999999999 1156.6399999999999 1936.9299999999998 1154.79 1936.56C1152.92 1936.1799999999998 1151.1299999999999 1935.3899999999999 1149.57 1934.29C1147.26 1932.67 1145.47 1930.35 1144.4299999999998 1927.73C1144.35 1927.52 1144.2699999999998 1927.31 1144.1999999999998 1927.1C1144.1999999999998 1927.1 1144.1999999999998 1927.09 1144.1999999999998 1927.08C1144.1999999999998 1927.07 1144.2099999999998 1927.07 1144.2199999999998 1927.06C1143.2099999999998 1924.1399999999999 1143.2099999999998 1920.8799999999999 1144.2099999999998 1917.94C1144.9199999999998 1915.8700000000001 1146.0799999999997 1913.97 1147.61 1912.41C1149.51 1910.46 1151.9699999999998 1909.0700000000002 1154.6299999999999 1908.5C1156.8999999999999 1908.02 1159.3 1908.11 1161.52 1908.78C1162.52 1909.08 1163.48 1909.52 1164.37 1910.06C1165.1799999999998 1910.55 1166.1999999999998 1910.44 1166.85 1909.75Z"
		fill="#e0e7ed"
		transform="matrix(1,0,0,1,-1128,-1898)"/>
	<path
		d="M1150.23 1901.37C1144.77 1903.2399999999998 1140.14 1907.3 1137.54 1912.5C1136.6399999999999 1914.27 1135.98 1916.17 1135.59 1918.14C1134.59 1923.0500000000002 1135.28 1928.2 1137.52 1932.65C1138.98 1935.5400000000002 1141.08 1938.13 1143.61 1940.14C1146.02 1942.0600000000002 1148.84 1943.48 1151.75 1944.25C1155.35 1945.22 1159.36 1945.26 1163.25 1944.37C1166.72 1943.57 1169.88 1941.9299999999998 1172.38 1939.62C1175.0200000000002 1937.1899999999998 1176.97 1933.9899999999998 1178.0200000000002 1930.36C1178.8700000000001 1927.4299999999998 1179.1800000000003 1924.33 1178.9300000000003 1921.12C1178.8900000000003 1920.55 1178.8300000000004 1919.9799999999998 1178.7600000000002 1919.4099999999999C1178.7400000000002 1919.31 1178.6400000000003 1919.2299999999998 1178.5200000000002 1919.2299999999998H1159.1000000000001C1158.8400000000001 1919.2299999999998 1158.63 1919.4399999999998 1158.63 1919.6999999999998V1925.7899999999997C1158.63 1926.0499999999997 1158.8400000000001 1926.2599999999998 1159.1000000000001 1926.2599999999998L1170.3400000000001 1926.2699999999998C1170.66 1926.2699999999998 1170.96 1926.4099999999999 1171.16 1926.6499999999999C1171.3600000000001 1926.8899999999999 1171.45 1927.2099999999998 1171.4 1927.5199999999998C1170.8500000000001 1930.7499999999998 1168.98 1933.6399999999996 1166.25 1935.4799999999998C1166.21 1935.5099999999998 1166.16 1935.5399999999997 1166.12 1935.5599999999997C1164.52 1936.6099999999997 1162.6899999999998 1937.3299999999997 1160.6599999999999 1937.6899999999998C1158.4999999999998 1938.0499999999997 1156.4899999999998 1938.0499999999997 1154.6499999999999 1937.6699999999998C1152.6699999999998 1937.2699999999998 1150.7199999999998 1936.4199999999998 1149.03 1935.2399999999998C1146.58 1933.5199999999998 1144.62 1931.0099999999998 1143.51 1928.1799999999998C1143.42 1927.9599999999998 1143.34 1927.7299999999998 1143.26 1927.5099999999998C1143.24 1927.4399999999998 1143.22 1927.3599999999997 1143.22 1927.2899999999997C1142.19 1924.1799999999998 1142.21 1920.7699999999998 1143.27 1917.6599999999996C1144.04 1915.4299999999996 1145.3 1913.3699999999997 1146.92 1911.7199999999996C1148.97 1909.6099999999997 1151.66 1908.1199999999997 1154.48 1907.5199999999995C1156.94 1906.9999999999995 1159.54 1907.0999999999995 1161.9 1907.8199999999995C1162.98 1908.1399999999994 1164.0300000000002 1908.6099999999994 1165.01 1909.2099999999996C1165.3799999999999 1909.4399999999996 1165.86 1909.3799999999997 1166.15 1909.0799999999995L1169.88 1905.1199999999994C1170.0700000000002 1904.9299999999994 1170.16 1904.6599999999994 1170.13 1904.3899999999994C1170.1100000000001 1904.2399999999993 1170.0400000000002 1903.9599999999994 1169.7600000000002 1903.7699999999995C1168.3600000000001 1902.8299999999995 1166.8600000000001 1902.0699999999995 1165.3300000000002 1901.4999999999995C1162.88 1900.5899999999995 1160.2800000000002 1900.1399999999996 1157.6000000000001 1900.1399999999996C1155.0700000000002 1900.1399999999996 1152.5900000000001 1900.5499999999997 1150.2300000000002 1901.3699999999997ZM1151.2 1946.32C1148.01 1945.48 1144.92 1943.9199999999998 1142.28 1941.82C1139.51 1939.62 1137.21 1936.78 1135.61 1933.61C1133.1499999999999 1928.74 1132.3999999999999 1923.09 1133.49 1917.7199999999998C1133.92 1915.5599999999997 1134.64 1913.4699999999998 1135.63 1911.5299999999997C1138.48 1905.8399999999997 1143.5500000000002 1901.3899999999996 1149.5400000000002 1899.3399999999997C1154.8300000000002 1897.5099999999998 1160.8300000000002 1897.5599999999997 1166.0700000000002 1899.4799999999998C1167.7700000000002 1900.11 1169.41 1900.9599999999998 1170.9500000000003 1901.9899999999998C1171.6800000000003 1902.4799999999998 1172.1600000000003 1903.2699999999998 1172.2600000000002 1904.1499999999999C1172.3600000000001 1905.05 1172.0600000000002 1905.9399999999998 1171.4400000000003 1906.59L1167.7000000000003 1910.55C1167.1300000000003 1911.1599999999999 1166.3500000000004 1911.5 1165.5100000000002 1911.5C1164.9400000000003 1911.5 1164.38 1911.34 1163.8900000000003 1911.04C1163.0700000000004 1910.54 1162.1900000000003 1910.1399999999999 1161.2900000000004 1909.87C1159.2600000000004 1909.26 1157.0300000000004 1909.1699999999998 1154.9300000000005 1909.62C1152.5100000000004 1910.1299999999999 1150.2100000000005 1911.4099999999999 1148.4500000000005 1913.2199999999998C1147.0500000000004 1914.6499999999999 1145.9600000000005 1916.4199999999998 1145.3000000000004 1918.35C1144.3700000000003 1921.08 1144.3700000000003 1924.07 1145.3000000000004 1926.78C1145.3300000000004 1926.85 1145.3500000000004 1926.93 1145.3500000000004 1927C1145.4000000000003 1927.14 1145.4500000000003 1927.27 1145.5100000000004 1927.4C1146.4700000000005 1929.8400000000001 1148.1500000000005 1932 1150.2600000000004 1933.48C1151.7100000000005 1934.5 1153.3800000000003 1935.22 1155.0800000000004 1935.57C1156.6600000000003 1935.8999999999999 1158.4200000000003 1935.8999999999999 1160.2900000000004 1935.58C1162.0700000000004 1935.26 1163.6700000000005 1934.6299999999999 1165.0500000000004 1933.6999999999998C1165.0900000000004 1933.6699999999998 1165.1300000000003 1933.6399999999999 1165.1700000000003 1933.62C1166.9700000000003 1932.37 1168.3300000000004 1930.4899999999998 1168.9800000000002 1928.4099999999999L1159.1000000000001 1928.3999999999999C1157.66 1928.3999999999999 1156.4900000000002 1927.2299999999998 1156.4900000000002 1925.79V1919.7C1156.4900000000002 1918.26 1157.6600000000003 1917.0800000000002 1159.1000000000001 1917.0800000000002H1178.5200000000002C1179.7100000000003 1917.0800000000002 1180.7200000000003 1917.9600000000003 1180.88 1919.1200000000001C1180.96 1919.73 1181.0300000000002 1920.3400000000001 1181.0700000000002 1920.96C1181.3400000000001 1924.42 1181.0000000000002 1927.79 1180.0800000000002 1930.96C1178.92 1934.96 1176.7600000000002 1938.5 1173.8300000000002 1941.2C1171.0600000000002 1943.76 1167.5600000000002 1945.57 1163.7300000000002 1946.46C1161.7100000000003 1946.92 1159.6500000000003 1947.15 1157.6300000000003 1947.15C1155.4200000000003 1947.15 1153.2500000000002 1946.88 1151.2000000000003 1946.3200000000002Z"
		fill="#43484d"
		transform="matrix(1,0,0,1,-1128,-1898)"/>
	<path
		d="M1136.42 1903.68L1137.73 1905.72C1137.96 1906.09 1138.34 1906.33 1138.77 1906.39L1141.16 1906.72C1142.52 1906.91 1142.91 1908.69 1141.76 1909.43L1139.72 1910.74C1139.3600000000001 1910.97 1139.1100000000001 1911.35 1139.05 1911.78L1138.72 1914.18C1138.53 1915.54 1136.75 1915.93 1136.02 1914.77L1134.71 1912.73C1134.48 1912.3700000000001 1134.1000000000001 1912.13 1133.67 1912.07L1131.27 1911.73C1129.92 1911.54 1129.53 1909.76 1130.68 1909.02L1132.72 1907.71C1133.08 1907.48 1133.32 1907.1000000000001 1133.38 1906.68L1133.72 1904.27C1133.91 1902.92 1135.68 1902.53 1136.42 1903.68"
		fill="#f4f4f4"
		transform="matrix(1,0,0,1,-1128,-1898)"/>
	<path
		d="M1134.85 1904.49L1134.51 1906.9C1134.41 1907.64 1133.99 1908.2900000000002 1133.37 1908.69L1131.33 1910C1131.12 1910.13 1131.1299999999999 1910.32 1131.1499999999999 1910.42C1131.1799999999998 1910.53 1131.2499999999998 1910.71 1131.4899999999998 1910.74L1133.8899999999999 1911.08C1134.6299999999999 1911.1799999999998 1135.28 1911.6 1135.6799999999998 1912.22L1136.9899999999998 1914.26C1137.0199999999998 1914.31 1137.1099999999997 1914.45 1137.3199999999997 1914.45C1137.3499999999997 1914.45 1137.6799999999996 1914.44 1137.7299999999998 1914.1000000000001L1138.0599999999997 1911.7C1138.1699999999996 1910.96 1138.5899999999997 1910.31 1139.2099999999998 1909.91L1141.2499999999998 1908.6000000000001C1141.4599999999998 1908.47 1141.4499999999998 1908.2800000000002 1141.4299999999998 1908.17C1141.3999999999999 1908.0700000000002 1141.33 1907.89 1141.09 1907.8600000000001L1138.6899999999998 1907.5200000000002C1137.9499999999998 1907.4200000000003 1137.2999999999997 1907.0000000000002 1136.8999999999999 1906.3700000000001L1135.59 1904.3300000000002C1135.56 1904.2900000000002 1135.47 1904.14 1135.26 1904.14C1135.22 1904.14 1134.9 1904.15 1134.85 1904.49ZM1135.18 1915.42L1133.88 1913.38C1133.8100000000002 1913.2800000000002 1133.71 1913.21 1133.5900000000001 1913.2L1131.2 1912.8600000000001C1130.13 1912.71 1129.29 1911.94 1129.06 1910.88C1128.83 1909.8300000000002 1129.27 1908.7700000000002 1130.1699999999998 1908.19L1132.2099999999998 1906.88C1132.3099999999997 1906.8200000000002 1132.3799999999999 1906.72 1132.3899999999999 1906.6000000000001L1132.7299999999998 1904.2C1132.9099999999999 1902.92 1133.9699999999998 1902 1135.2599999999998 1902C1136.1299999999997 1902 1136.9199999999998 1902.44 1137.3899999999999 1903.17L1138.6999999999998 1905.22C1138.7599999999998 1905.32 1138.87 1905.38 1138.9799999999998 1905.4L1141.3799999999999 1905.73C1142.4499999999998 1905.88 1143.29 1906.66 1143.52 1907.71C1143.75 1908.77 1143.31 1909.82 1142.41 1910.41L1140.3700000000001 1911.71C1140.2700000000002 1911.78 1140.2 1911.88 1140.18 1912L1139.8500000000001 1914.4C1139.67 1915.67 1138.6100000000001 1916.6000000000001 1137.3200000000002 1916.6000000000001C1136.4500000000003 1916.6000000000001 1135.65 1916.16 1135.18 1915.42Z"
		fill="#43484d"
		transform="matrix(1,0,0,1,-1128,-1898)"/>
</svg>
