<svg
	version="1.1"
	xmlns="http://www.w3.org/2000/svg"
	xmlns:xlink="http://www.w3.org/1999/xlink"
	xmlns:svgjs="http://svgjs.com/svgjs"
	width="14"
	height="14"
	viewBox="0 0 14 14">
	<path
		d="M667 3154C667 3153.44772 667.44772 3153 668 3153H672C672.55228 3153 673 3153.44772 673 3154V3158C673 3158.55228 672.55228 3159 672 3159H668C667.44772 3159 667 3158.55228 667 3158ZM675 3154C675 3153.44772 675.44772 3153 676 3153H680C680.55228 3153 681 3153.44772 681 3154V3158C681 3158.55228 680.55228 3159 680 3159H676C675.44772 3159 675 3158.55228 675 3158ZM667 3162C667 3161.44772 667.44772 3161 668 3161H672C672.55228 3161 673 3161.44772 673 3162V3166C673 3166.55228 672.55228 3167 672 3167H668C667.44772 3167 667 3166.55228 667 3166ZM675 3162C675 3161.44772 675.44772 3161 676 3161H680C680.55228 3161 681 3161.44772 681 3162V3166C681 3166.55228 680.55228 3167 680 3167H676C675.44772 3167 675 3166.55228 675 3166Z"
		transform="matrix(1,0,0,1,-667,-3153)"/>
</svg>
