<svg id="SvgjsSvg1014" xmlns="http://www.w3.org/2000/svg" version="1.1" xmlns:xlink="http://www.w3.org/1999/xlink" xmlns:svgjs="http://svgjs.com/svgjs" width="47" height="59" viewBox="0 0 47 59"><title>Combined Shape</title><desc>Created with Avocode.</desc><defs id="SvgjsDefs1015"></defs><path id="SvgjsPath1016" d="M697 541V482H744V541ZM715.5 495.95C715.58 496.31 715.62 496.65999999999997 715.62 497H719.21C719.21 495.14 718.76 493.71 717.86 492.71C716.96 491.71 715.48 491.21 713.4300000000001 491.21C712.24 491.21 711.24 491.40999999999997 710.44 491.79999999999995C709.6400000000001 492.18999999999994 709 492.78 708.5200000000001 493.55999999999995C708.0300000000001 494.3299999999999 707.69 495.29999999999995 707.4900000000001 496.4599999999999C707.2900000000001 497.61999999999995 707.1900000000002 498.9699999999999 707.1900000000002 500.50999999999993C707.1900000000002 502.0899999999999 707.2600000000002 503.48999999999995 707.4000000000002 504.68999999999994C707.5400000000002 505.8999999999999 707.8100000000002 506.90999999999997 708.2200000000003 507.72999999999996C708.6200000000002 508.54999999999995 709.1900000000003 509.15 709.9100000000003 509.54999999999995C710.6300000000003 509.93999999999994 711.5600000000003 510.12999999999994 712.7100000000003 510.12999999999994C713.5900000000003 510.12999999999994 714.3500000000003 509.97999999999996 714.9800000000002 509.68999999999994C715.6200000000002 509.38999999999993 716.1600000000002 508.87999999999994 716.6100000000002 508.15999999999997H716.6600000000002V509.84999999999997H719.4200000000002V499.98999999999995H713.3600000000002V502.71H715.8300000000003V504.58C715.8300000000003 505.07 715.7500000000002 505.5 715.5900000000003 505.87C715.4400000000003 506.24 715.2400000000002 506.54 715.0100000000002 506.78000000000003C714.7700000000002 507.02000000000004 714.5200000000002 507.20000000000005 714.2500000000002 507.32000000000005C713.9800000000002 507.44000000000005 713.7400000000002 507.50000000000006 713.5100000000002 507.50000000000006C712.9700000000003 507.50000000000006 712.5400000000002 507.33000000000004 712.2000000000003 507.00000000000006C711.8600000000002 506.6600000000001 711.6000000000003 506.19000000000005 711.4200000000003 505.56000000000006C711.2400000000004 504.94000000000005 711.1100000000004 504.19000000000005 711.0400000000003 503.30000000000007C710.9700000000003 502.4100000000001 710.9400000000003 501.4200000000001 710.9400000000003 500.33000000000004C710.9400000000003 498.04 711.1400000000003 496.40000000000003 711.5300000000003 495.41C711.9300000000003 494.42 712.5800000000003 493.93 713.4900000000004 493.93C713.8700000000003 493.93 714.1900000000004 494.03000000000003 714.4600000000004 494.22C714.7300000000004 494.42 714.9500000000004 494.67 715.1300000000003 494.96000000000004C715.3000000000003 495.26000000000005 715.4200000000003 495.59000000000003 715.5000000000003 495.95000000000005ZM725.04 504.68V504.14H721.29V504.89C721.29 506.58 721.75 507.87 722.66 508.78C723.5699999999999 509.67999999999995 725.0799999999999 510.13 727.1999999999999 510.13C729.2299999999999 510.13 730.81 509.7 731.9499999999999 508.82C733.0799999999999 507.94 733.65 506.53 733.65 504.59999999999997C733.65 504.03999999999996 733.6 503.53 733.49 503.07C733.39 502.61 733.2 502.18 732.94 501.8C732.6700000000001 501.42 732.3100000000001 501.06 731.86 500.72C731.4 500.39000000000004 730.82 500.07000000000005 730.11 499.76000000000005L727.22 498.54C726.4300000000001 498.21000000000004 725.9100000000001 497.86 725.6600000000001 497.47C725.4200000000001 497.09000000000003 725.3000000000001 496.62 725.3000000000001 496.05C725.3000000000001 495.78000000000003 725.33 495.51 725.3900000000001 495.26C725.45 495 725.5600000000001 494.78 725.7300000000001 494.58C725.8900000000001 494.38 726.1100000000001 494.22999999999996 726.3900000000001 494.10999999999996C726.6700000000001 493.98999999999995 727.0200000000001 493.92999999999995 727.4300000000001 493.92999999999995C728.1600000000001 493.92999999999995 728.6800000000001 494.15999999999997 728.99 494.62999999999994C729.3100000000001 495.09999999999997 729.46 495.7699999999999 729.46 496.63999999999993H733.0500000000001V496.12999999999994C733.0500000000001 495.25999999999993 732.9100000000001 494.50999999999993 732.6200000000001 493.88999999999993C732.3400000000001 493.2699999999999 731.9400000000002 492.74999999999994 731.4300000000001 492.3499999999999C730.9100000000001 491.94999999999993 730.3100000000001 491.6599999999999 729.61 491.4799999999999C728.9 491.2999999999999 728.14 491.2099999999999 727.3000000000001 491.2099999999999C725.5200000000001 491.2099999999999 724.11 491.6599999999999 723.09 492.5399999999999C722.0600000000001 493.4299999999999 721.5500000000001 494.7799999999999 721.5500000000001 496.5899999999999C721.5500000000001 497.3399999999999 721.6500000000001 497.99999999999994 721.84 498.56999999999994C722.0300000000001 499.1499999999999 722.33 499.6499999999999 722.74 500.0799999999999C723.14 500.5199999999999 723.65 500.8999999999999 724.26 501.2199999999999C724.86 501.5499999999999 725.59 501.8499999999999 726.42 502.1199999999999C727.04 502.3199999999999 727.5699999999999 502.5299999999999 727.99 502.7199999999999C728.42 502.9199999999999 728.76 503.13999999999993 729.02 503.3699999999999C729.28 503.6099999999999 729.47 503.8799999999999 729.5799999999999 504.1799999999999C729.6899999999999 504.4799999999999 729.7499999999999 504.82999999999987 729.7499999999999 505.2399999999999C729.7499999999999 506.0099999999999 729.5199999999999 506.57999999999987 729.0599999999998 506.9499999999999C728.5999999999998 507.3099999999999 728.0799999999998 507.4999999999999 727.5099999999999 507.4999999999999C727.0199999999999 507.4999999999999 726.6199999999999 507.4299999999999 726.2999999999998 507.2899999999999C725.9799999999998 507.1599999999999 725.7199999999998 506.9699999999999 725.5299999999999 506.7299999999999C725.3399999999998 506.4899999999999 725.2099999999998 506.19999999999993 725.1399999999999 505.8499999999999C725.0699999999998 505.4999999999999 725.0399999999998 505.1099999999999 725.0399999999998 504.6799999999999ZM725.47 527.22C725.39 526.86 725.35 526.51 725.35 526.1700000000001H721.76C721.76 528.0300000000001 722.21 529.46 723.11 530.46C724.02 531.46 725.49 531.96 727.54 531.96C728.73 531.96 729.73 531.76 730.53 531.37C731.3299999999999 530.98 731.97 530.39 732.4599999999999 529.62C732.9399999999999 528.84 733.28 527.87 733.4799999999999 526.71C733.68 525.5500000000001 733.7799999999999 524.2 733.7799999999999 522.6600000000001C733.7799999999999 521.08 733.7099999999998 519.6800000000001 733.5699999999998 518.4800000000001C733.4399999999998 517.2700000000001 733.1599999999999 516.2600000000001 732.7499999999998 515.4400000000002C732.3499999999998 514.6200000000001 731.7799999999997 514.0200000000002 731.0599999999997 513.6300000000002C730.3399999999997 513.2300000000002 729.4099999999997 513.0400000000002 728.2699999999998 513.0400000000002C727.3799999999998 513.0400000000002 726.6199999999998 513.1900000000002 725.9899999999998 513.4800000000002C725.3599999999998 513.7800000000002 724.8099999999998 514.2900000000002 724.3599999999998 515.0100000000002H724.3099999999998V513.3200000000002H721.5499999999998V523.1800000000002H727.6199999999999V520.4600000000002H725.1399999999999V518.5900000000001C725.1399999999999 518.1000000000001 725.2199999999999 517.6700000000002 725.3799999999999 517.3000000000002C725.5299999999999 516.9300000000002 725.7299999999999 516.6300000000002 725.9599999999999 516.3900000000002C726.1999999999999 516.1500000000002 726.4499999999999 515.9700000000003 726.7199999999999 515.8500000000003C726.9899999999999 515.7300000000002 727.2299999999999 515.6700000000003 727.4599999999999 515.6700000000003C727.9999999999999 515.6700000000003 728.4399999999999 515.8400000000003 728.7699999999999 516.1700000000003C729.1099999999999 516.5100000000003 729.3699999999999 516.9800000000002 729.5499999999998 517.6100000000004C729.7399999999999 518.2300000000004 729.8599999999998 518.9800000000004 729.9299999999998 519.8700000000003C729.9999999999999 520.7600000000003 730.0399999999998 521.7500000000003 730.0399999999998 522.8400000000004C730.0399999999998 525.1300000000003 729.8399999999998 526.7700000000003 729.4399999999998 527.7600000000003C729.0399999999998 528.7500000000003 728.3899999999999 529.2400000000004 727.4899999999998 529.2400000000004C727.0999999999998 529.2400000000004 726.7799999999997 529.1500000000003 726.5099999999998 528.9500000000004C726.2399999999998 528.7500000000003 726.0199999999998 528.5100000000003 725.8499999999998 528.2100000000004C725.6699999999998 527.9100000000004 725.5499999999998 527.5800000000004 725.4699999999998 527.2200000000004ZM715.93 518.49V519.03H719.68V518.29C719.68 516.5999999999999 719.2199999999999 515.3 718.31 514.39C717.4 513.49 715.89 513.04 713.77 513.04C711.74 513.04 710.16 513.48 709.02 514.3499999999999C707.89 515.2299999999999 707.3199999999999 516.6399999999999 707.3199999999999 518.5699999999999C707.3199999999999 519.1299999999999 707.3699999999999 519.64 707.4799999999999 520.0999999999999C707.5799999999999 520.56 707.7699999999999 520.9899999999999 708.0399999999998 521.3699999999999C708.3099999999998 521.7499999999999 708.6599999999999 522.1099999999999 709.1199999999999 522.4499999999999C709.5699999999999 522.78 710.1499999999999 523.0999999999999 710.8599999999999 523.41L713.7499999999999 524.64C714.5499999999998 524.96 715.0699999999999 525.31 715.3099999999998 525.6999999999999C715.5499999999998 526.0799999999999 715.6699999999998 526.56 715.6699999999998 527.1199999999999C715.6699999999998 527.3899999999999 715.6399999999999 527.6599999999999 715.5799999999998 527.9099999999999C715.5199999999999 528.1699999999998 715.4099999999999 528.3899999999999 715.2399999999998 528.5899999999998C715.0799999999998 528.7899999999998 714.8599999999998 528.9499999999998 714.5799999999998 529.0599999999998C714.2999999999998 529.1799999999998 713.9599999999998 529.2399999999998 713.5399999999998 529.2399999999998C712.8099999999998 529.2399999999998 712.2899999999998 529.0099999999998 711.9799999999999 528.5399999999997C711.67 528.0699999999997 711.5099999999999 527.3999999999997 711.5099999999999 526.5299999999997H707.9199999999998V527.0399999999997C707.9199999999998 527.9099999999997 708.0599999999998 528.6599999999997 708.3499999999998 529.2799999999997C708.6299999999998 529.9099999999997 709.0299999999997 530.4199999999997 709.5499999999998 530.8199999999997C710.0599999999998 531.2199999999997 710.6599999999999 531.5099999999998 711.3699999999999 531.6899999999997C712.0699999999999 531.8699999999997 712.8399999999999 531.9599999999997 713.6699999999998 531.9599999999997C715.4599999999998 531.9599999999997 716.8599999999999 531.5099999999996 717.8799999999999 530.6299999999997C718.9099999999999 529.7399999999997 719.4199999999998 528.3899999999996 719.4199999999998 526.5799999999997C719.4199999999998 525.8299999999997 719.3199999999998 525.1699999999997 719.1299999999999 524.5999999999997C718.9399999999998 524.0199999999996 718.6399999999999 523.5199999999996 718.2399999999999 523.0899999999997C717.8299999999999 522.6499999999996 717.3199999999999 522.2699999999996 716.7099999999999 521.9499999999997C716.1099999999999 521.6199999999997 715.3899999999999 521.3199999999997 714.55 521.0499999999997C713.93 520.8499999999997 713.41 520.6499999999997 712.9799999999999 520.4499999999997C712.55 520.2499999999997 712.2099999999999 520.0299999999997 711.9499999999999 519.7999999999997C711.6899999999999 519.5599999999997 711.5099999999999 519.2899999999997 711.39 518.9899999999998C711.28 518.6899999999998 711.22 518.3399999999998 711.22 517.9299999999998C711.22 517.1599999999999 711.45 516.5899999999998 711.9100000000001 516.2199999999998C712.3700000000001 515.8599999999998 712.8900000000001 515.6699999999998 713.46 515.6699999999998C713.95 515.6699999999998 714.35 515.7399999999999 714.6700000000001 515.8799999999999C714.9900000000001 516.0099999999999 715.2500000000001 516.1999999999999 715.44 516.4399999999998C715.6300000000001 516.6799999999998 715.7600000000001 516.9799999999998 715.83 517.3199999999998C715.9000000000001 517.6699999999998 715.9300000000001 518.0599999999998 715.9300000000001 518.4899999999998Z " fill-opacity="1" transform="matrix(1,0,0,1,-697,-482)"></path></svg>