<svg
	version="1.1"
	xmlns="http://www.w3.org/2000/svg"
	xmlns:xlink="http://www.w3.org/1999/xlink"
	xmlns:svgjs="http://svgjs.com/svgjs"
	width="66"
	height="75"
	viewBox="0 0 66 75">
	<defs>
		<linearGradient
			id="gradient"
			gradientUnits="userSpaceOnUse"
			x1="1002.9995256694085"
			y1="4666"
			x2="1002.9995256694085"
			y2="4741">
			<stop
				stop-opacity="1"
				stop-color="#6cb856"
				offset="0"/>
			<stop
				stop-opacity="1"
				stop-color="#6db956"
				offset="0.28"/>
			<stop
				stop-opacity="1"
				stop-color="#63ac53"
				offset="0.73"/>
			<stop
				stop-opacity="1"
				stop-color="#559a51"
				offset="1"/>
		</linearGradient>
	</defs>
	<path
		d="M1033.62 4692.32C1032.4799999999998 4686.139999999999 1029.78 4680.75 1025.5 4676.15C1023.7 4674.21 1021.66 4672.509999999999 1019.44 4671.089999999999C1015.34 4668.429999999999 1010.6800000000001 4666.759999999999 1005.83 4666.199999999999C1005.23 4666.129999999999 1004.62 4666.1399999999985 1004.0300000000001 4665.999999999999H999.7900000000001C999.7500000000001 4666.109999999999 999.6500000000001 4666.069999999999 999.57 4666.079999999999C998.48 4666.169999999999 997.3900000000001 4666.289999999999 996.3100000000001 4666.499999999999C988.44 4667.979999999999 981.97 4671.839999999999 976.96 4678.079999999999C972.85 4683.199999999999 970.58 4689.089999999999 970.09 4695.639999999999C969.85 4698.799999999999 970.09 4701.98 970.7800000000001 4705.079999999999C971.3000000000001 4707.389999999999 972.08 4709.619999999999 973.1200000000001 4711.759999999999C973.2100000000002 4711.929999999999 973.3000000000001 4712.119999999999 973.3900000000001 4712.299999999999C975.1000000000001 4715.659999999999 977.3000000000001 4718.659999999999 980.0500000000001 4721.239999999999C981.5000000000001 4722.5999999999985 983.0500000000001 4723.829999999999 984.73 4724.899999999999C989.88 4728.159999999999 995.49 4729.859999999999 1001.59 4729.939999999999C1001.97 4729.939999999999 1002.07 4730.039999999999 1002.07 4730.419999999998C1002.0500000000001 4733.6799999999985 1002.0600000000001 4736.939999999999 1002.0600000000001 4740.199999999998C1002.0600000000001 4740.319999999998 1002.07 4740.449999999998 1002.07 4740.609999999998L1002.3100000000001 4740.5099999999975C1008.44 4737.629999999997 1014.07 4733.999999999997 1019.09 4729.439999999998C1020.09 4728.529999999998 1021.0500000000001 4727.589999999997 1021.97 4726.599999999998C1022.36 4726.169999999997 1022.75 4725.739999999998 1023.15 4725.319999999998C1023.75 4724.669999999998 1024.28 4723.949999999998 1024.85 4723.2599999999975C1025.51 4722.4699999999975 1026.11 4721.629999999997 1026.6999999999998 4720.789999999997C1027.9999999999998 4718.929999999998 1029.1499999999999 4716.959999999997 1030.1299999999999 4714.909999999997C1030.62 4713.879999999997 1031.09 4712.819999999997 1031.51 4711.749999999997C1031.52 4711.729999999997 1031.54 4711.7199999999975 1031.55 4711.689999999997C1032.6699999999998 4708.759999999997 1033.4199999999998 4705.709999999997 1033.8 4702.5899999999965C1033.93 4701.509999999997 1034.02 4700.409999999996 1034.07 4699.329999999996C1034.1899999999998 4696.979999999996 1034.04 4694.6299999999965 1033.61 4692.319999999996ZM990.66 4712.25C990.23 4712.31 989.9499999999999 4712.07 989.78 4711.68L989.79 4708.070000000001C989.81 4707.710000000001 989.66 4707.330000000001 989.9499999999999 4707.02C990.0799999999999 4706.860000000001 990.2599999999999 4706.75 990.4599999999999 4706.700000000001C991.0999999999999 4706.540000000001 991.7399999999999 4706.420000000001 992.31 4706.080000000001C993.3399999999999 4705.490000000001 994.06 4704.500000000001 994.3199999999999 4703.350000000001C994.3699999999999 4703.160000000002 994.41 4702.970000000001 994.4499999999999 4702.780000000002L986.8199999999999 4702.770000000001C986.5999999999999 4702.770000000001 986.39 4702.760000000001 986.17 4702.710000000001C985.52 4702.530000000001 985.03 4701.9400000000005 985.03 4701.270000000001C985.02 4697.430000000001 985.03 4693.590000000001 985.03 4689.760000000001C984.98 4689.140000000001 985.03 4688.5700000000015 985.55 4688.130000000001C985.81 4687.890000000001 986.15 4687.750000000001 986.51 4687.750000000001H997.73C998.72 4687.750000000001 999.54 4688.740000000001 999.22 4689.710000000001C999.3000000000001 4689.900000000001 999.2900000000001 4690.090000000001 999.2900000000001 4690.280000000001C999.2900000000001 4694.47 999.3100000000001 4698.650000000001 999.2800000000001 4702.830000000001C999.2600000000001 4705.610000000001 998.1800000000001 4707.9400000000005 996.1400000000001 4709.840000000001C996.0300000000001 4709.930000000001 995.9300000000001 4710.040000000001 995.8300000000002 4710.140000000001C994.7700000000002 4710.940000000001 993.6300000000001 4711.580000000001 992.3300000000002 4711.930000000001C991.7800000000002 4712.0700000000015 991.2200000000001 4712.180000000001 990.6600000000002 4712.250000000001ZM1013.02 4711.66L1012.88 4711.71L1012.8 4711.75C1012.0799999999999 4711.96 1011.3499999999999 4712.13 1010.5999999999999 4712.23C1010.0299999999999 4712.32 1009.5999999999999 4712 1009.5899999999999 4711.429999999999L1009.5799999999999 4710.219999999999L1009.5999999999999 4708.07C1009.5999999999999 4707.91 1009.5899999999999 4707.75 1009.5899999999999 4707.59C1009.5899999999999 4707.04 1009.81 4706.81 1010.4899999999999 4706.650000000001C1011.3599999999999 4706.460000000001 1012.18 4706.18 1012.8599999999999 4705.55C1013.6699999999998 4704.79 1014.0799999999999 4703.85 1014.2699999999999 4702.79L1007.2199999999999 4702.78C1006.9699999999999 4702.78 1006.7099999999999 4702.78 1006.4499999999999 4702.78C1005.4999999999999 4702.759999999999 1004.8399999999999 4702.099999999999 1004.8399999999999 4701.13C1004.8399999999999 4697.34 1004.8499999999999 4693.55 1004.8499999999999 4689.76L1004.8399999999999 4689.66C1004.7699999999999 4688.94 1004.9699999999999 4688.36 1005.6099999999999 4687.97C1005.8499999999999 4687.820000000001 1006.1199999999999 4687.75 1006.3999999999999 4687.75C1010.1199999999999 4687.75 1013.8299999999998 4687.75 1017.5499999999998 4687.75C1018.5399999999998 4687.75 1019.3499999999998 4688.74 1019.0399999999998 4689.72C1019.1099999999999 4689.91 1019.0999999999998 4690.1 1019.0999999999998 4690.29V4702.86C1019.0899999999998 4706.599999999999 1016.7399999999998 4710.11 1013.2799999999997 4711.54C1013.1899999999997 4711.58 1013.1099999999998 4711.63 1013.0199999999998 4711.68Z"
		fill="url(#gradient)"
		transform="matrix(1,0,0,1,-969,-4666)"/>
	<path
		d="M1012.96 4712.2C1012.24 4712.41 1011.51 4712.58 1010.76 4712.69C1010.1899999999999 4712.7699999999995 1009.76 4712.45 1009.75 4711.879999999999L1009.74 4710.679999999999L1009.76 4708.5199999999995C1009.97 4708.04 1010.42 4707.959999999999 1010.85 4707.86C1012.88 4707.4 1014.13 4706.08 1014.4200000000001 4704.03C1014.46 4703.7699999999995 1014.6100000000001 4703.5 1014.4300000000001 4703.24L1007.3800000000001 4703.23C1007.1300000000001 4703.23 1006.8700000000001 4703.23 1006.6100000000001 4703.23C1005.6600000000001 4703.209999999999 1005.0000000000001 4702.549999999999 1005.0000000000001 4701.589999999999C1005.0000000000001 4697.789999999999 1005.0100000000001 4693.999999999999 1005.0100000000001 4690.209999999999L1005.0000000000001 4690.099999999999C1005.1100000000001 4690.0599999999995 1005.1100000000001 4689.95 1005.1600000000001 4689.87C1005.4800000000001 4689.3099999999995 1005.95 4689 1006.6100000000001 4689H1017.6700000000001C1018.4200000000001 4689 1018.9900000000001 4689.44 1019.2 4690.17C1019.2800000000001 4690.35 1019.26 4690.55 1019.26 4690.74V4703.3099999999995C1019.26 4707.049999999999 1016.91 4710.549999999999 1013.4399999999999 4711.99C1013.3599999999999 4712.03 1013.27 4712.08 1013.1899999999999 4712.12L1013.04 4712.16L1012.9599999999999 4712.21"
		fill="#fffffe"
		transform="matrix(1,0,0,1,-969,-4666)"/>
	<path
		d="M995.8 4710.6C994.74 4711.400000000001 993.5999999999999 4712.04 992.3 4712.39C991.75 4712.530000000001 991.1999999999999 4712.63 990.63 4712.700000000001C990.2 4712.77 989.92 4712.530000000001 989.75 4712.130000000001L989.76 4708.530000000001C989.96 4708.06 990.38 4707.97 990.81 4707.870000000001C992.8699999999999 4707.390000000001 994.06 4706.170000000001 994.41 4704.1C994.4499999999999 4703.820000000001 994.61 4703.530000000001 994.43 4703.240000000001L986.8 4703.2300000000005C986.5799999999999 4703.240000000001 986.3599999999999 4703.21 986.15 4703.160000000001C985.5 4702.9800000000005 985 4702.39 985 4701.720000000001C985 4697.890000000001 985 4694.050000000001 985.01 4690.210000000001C985.28 4689.500000000001 985.75 4689.010000000001 986.5699999999999 4689.000000000001C990.28 4689.000000000001 993.9999999999999 4689.000000000001 997.7099999999999 4689.000000000001C998.43 4689.000000000001 998.9999999999999 4689.460000000001 999.1999999999999 4690.170000000001C999.27 4690.350000000001 999.2599999999999 4690.550000000001 999.2599999999999 4690.740000000001C999.2599999999999 4694.920000000001 999.2899999999998 4699.110000000001 999.2499999999999 4703.290000000001C999.2399999999999 4706.060000000001 998.1499999999999 4708.400000000001 996.1099999999999 4710.290000000001C995.9999999999999 4710.390000000001 995.8999999999999 4710.490000000001 995.8 4710.590000000001"
		fill="#fffffe"
		transform="matrix(1,0,0,1,-969,-4666)"/>
</svg>
