<svg
	version="1.1"
	xmlns="http://www.w3.org/2000/svg"
	xmlns:xlink="http://www.w3.org/1999/xlink"
	xmlns:svgjs="http://svgjs.com/svgjs"
	width="34"
	height="15"
	viewBox="0 0 34 15">
	<path
		d="M1058.4 3254.36C1060.5500000000002 3252.1400000000003 1060.51 3248.7200000000003 1058.3600000000001 3246.61C1057.2800000000002 3245.55 1055.8700000000001 3244.9700000000003 1054.3700000000001 3244.9700000000003C1052.8700000000001 3244.9700000000003 1051.47 3245.5400000000004 1050.4 3246.5800000000004C1050.4 3246.5900000000006 1050.39 3246.5900000000006 1050.38 3246.6000000000004C1050.3700000000001 3246.6100000000006 1050.3700000000001 3246.6100000000006 1050.3600000000001 3246.6200000000003L1046.42 3250.5000000000005L1050.3500000000001 3254.3700000000003C1050.3700000000001 3254.3900000000003 1050.4 3254.4100000000003 1050.42 3254.4400000000005C1051.48 3255.4600000000005 1052.88 3256.0300000000007 1054.3700000000001 3256.0300000000007C1055.8600000000001 3256.0300000000007 1057.2700000000002 3255.4600000000005 1058.3300000000002 3254.4300000000007C1058.3300000000002 3254.4200000000005 1058.3400000000001 3254.4100000000008 1058.3500000000001 3254.4000000000005C1058.3700000000001 3254.3900000000003 1058.38 3254.3700000000003 1058.4 3254.3600000000006ZM1043.58 3250.5L1039.6299999999999 3246.61C1038.55 3245.55 1037.1299999999999 3244.9700000000003 1035.6299999999999 3244.9700000000003C1034.1399999999999 3244.9700000000003 1032.7299999999998 3245.5400000000004 1031.6699999999998 3246.5800000000004C1031.6599999999999 3246.5900000000006 1031.6499999999999 3246.5900000000006 1031.6499999999999 3246.6000000000004C1031.6399999999999 3246.6100000000006 1031.6299999999999 3246.6100000000006 1031.6299999999999 3246.6200000000003C1029.4599999999998 3248.76 1029.4599999999998 3252.2400000000002 1031.6299999999999 3254.3800000000006C1031.6399999999999 3254.390000000001 1031.6599999999999 3254.4100000000008 1031.6799999999998 3254.4300000000007C1032.7399999999998 3255.460000000001 1034.1399999999999 3256.0300000000007 1035.6299999999999 3256.0300000000007C1037.1299999999999 3256.0300000000007 1038.53 3255.4600000000005 1039.59 3254.4300000000007C1039.61 3254.4100000000008 1039.6299999999999 3254.390000000001 1039.6499999999999 3254.370000000001ZM1059.76 3245.2C1062.74 3248.1299999999997 1062.74 3252.87 1059.78 3255.7799999999997C1059.77 3255.79 1059.77 3255.7999999999997 1059.76 3255.7999999999997C1058.32 3257.22 1056.41 3257.9999999999995 1054.37 3257.9999999999995C1052.33 3257.9999999999995 1050.4199999999998 3257.2199999999993 1048.9799999999998 3255.7999999999997H1048.9699999999998C1048.9699999999998 3255.7899999999995 1048.9699999999998 3255.7899999999995 1048.9599999999998 3255.7899999999995L1044.9999999999998 3251.8899999999994L1041.0399999999997 3255.7899999999995C1041.0299999999997 3255.7999999999997 1041.0199999999998 3255.8099999999995 1041.0099999999998 3255.8199999999997C1039.5699999999997 3257.22 1037.6599999999999 3257.9999999999995 1035.6299999999997 3257.9999999999995C1033.5999999999997 3257.9999999999995 1031.6799999999996 3257.2199999999993 1030.2399999999996 3255.7999999999997C1030.2399999999996 3255.7999999999997 1030.2399999999996 3255.7999999999997 1030.2299999999996 3255.7999999999997V3255.7899999999995C1027.2599999999995 3252.8699999999994 1027.2599999999995 3248.1299999999997 1030.2199999999996 3245.2199999999993C1030.2199999999996 3245.209999999999 1030.2299999999996 3245.209999999999 1030.2299999999996 3245.209999999999L1030.2399999999996 3245.199999999999C1031.6799999999996 3243.779999999999 1033.5999999999995 3242.999999999999 1035.6299999999997 3242.999999999999C1037.6699999999996 3242.999999999999 1039.5799999999997 3243.7799999999993 1041.0199999999998 3245.199999999999L1044.9999999999998 3249.1099999999988L1048.9599999999998 3245.219999999999L1048.9699999999998 3245.2099999999987C1048.9699999999998 3245.1999999999985 1048.9699999999998 3245.1999999999985 1048.9799999999998 3245.1999999999985C1050.4199999999998 3243.7799999999984 1052.3299999999997 3242.9999999999986 1054.37 3242.9999999999986C1056.4099999999999 3242.9999999999986 1058.32 3243.779999999999 1059.76 3245.1999999999985Z"
		transform="matrix(1,0,0,1,-1028,-3243)"/>
</svg>
