<svg
	version="1.1"
	xmlns="http://www.w3.org/2000/svg"
	xmlns:xlink="http://www.w3.org/1999/xlink"
	xmlns:svgjs="http://svgjs.com/svgjs"
	width="30"
	height="30"
	viewBox="0 0 30 30">
	<path
		d="M150 2461C150 2452.71573 156.71573 2446 165 2446V2446C173.28427 2446 180 2452.71573 180 2461V2461C180 2469.28427 173.28427 2476 165 2476V2476C156.71573 2476 150 2469.28427 150 2461Z"
		fill="#f4f4f4"
		transform="matrix(1,0,0,1,-150,-2446)"/>
	<path
		d="M167.63 2467.29C167.06 2467.52 166.60999999999999 2467.7 166.26999999999998 2467.82C165.92999999999998 2467.94 165.52999999999997 2468 165.08999999999997 2468C164.39999999999998 2468 163.85999999999999 2467.83 163.47999999999996 2467.48C163.09999999999997 2467.13 162.90999999999997 2466.69 162.90999999999997 2466.16C162.90999999999997 2465.95 162.91999999999996 2465.74 162.94999999999996 2465.52C162.97999999999996 2465.31 163.01999999999995 2465.06 163.08999999999995 2464.79L163.78999999999994 2462.2C163.85999999999993 2461.95 163.90999999999994 2461.71 163.94999999999993 2461.49C163.99999999999994 2461.27 164.01999999999992 2461.06 164.01999999999992 2460.8799999999997C164.01999999999992 2460.5499999999997 163.94999999999993 2460.3199999999997 163.81999999999994 2460.1899999999996C163.68999999999994 2460.0599999999995 163.42999999999995 2459.99 163.05999999999995 2459.99C162.87999999999994 2459.99 162.68999999999994 2460.02 162.49999999999994 2460.08C162.29999999999995 2460.14 162.13999999999993 2460.2 161.99999999999994 2460.25L162.18999999999994 2459.45C162.65999999999994 2459.25 163.09999999999994 2459.0899999999997 163.52999999999994 2458.95C163.94999999999993 2458.81 164.34999999999994 2458.74 164.72999999999993 2458.74C165.41999999999993 2458.74 165.93999999999994 2458.91 166.30999999999995 2459.25C166.68999999999994 2459.59 166.86999999999995 2460.03 166.86999999999995 2460.58C166.86999999999995 2460.69 166.85999999999996 2460.89 166.82999999999996 2461.17C166.80999999999995 2461.46 166.75999999999996 2461.7200000000003 166.68999999999997 2461.96L165.97999999999996 2464.54C165.92999999999995 2464.75 165.86999999999995 2464.99 165.82999999999996 2465.25C165.77999999999994 2465.52 165.75999999999996 2465.72 165.75999999999996 2465.86C165.75999999999996 2466.2000000000003 165.82999999999996 2466.44 165.97999999999996 2466.56C166.12999999999997 2466.68 166.38999999999996 2466.75 166.75999999999996 2466.75C166.92999999999995 2466.75 167.12999999999997 2466.72 167.33999999999997 2466.65C167.55999999999997 2466.59 167.71999999999997 2466.54 167.81999999999996 2466.4900000000002ZM168 2455.64C168 2455.19 167.83 2454.7999999999997 167.5 2454.48C167.17 2454.16 166.78 2454 166.31 2454C165.84 2454 165.45 2454.16 165.11 2454.48C164.78 2454.8 164.61 2455.19 164.61 2455.64C164.61 2456.0899999999997 164.78 2456.47 165.11 2456.79C165.45000000000002 2457.1 165.84 2457.2599999999998 166.31 2457.2599999999998C166.78 2457.2599999999998 167.17000000000002 2457.1 167.5 2456.79C167.83 2456.47 168 2456.09 168 2455.64Z"
		fill="#86939e"
		transform="matrix(1,0,0,1,-150,-2446)"/>
</svg>
