<svg
	version="1.1"
	xmlns="http://www.w3.org/2000/svg"
	xmlns:xlink="http://www.w3.org/1999/xlink"
	xmlns:svgjs="http://svgjs.com/svgjs"
	width="6"
	height="14"
	viewBox="0 0 6 14">
	<path
		d="M888.8 4940.31C888.2199999999999 4940.530000000001 887.75 4940.700000000001 887.4 4940.820000000001C887.05 4940.9400000000005 886.64 4941.000000000001 886.18 4941.000000000001C885.4699999999999 4941.000000000001 884.92 4940.830000000001 884.52 4940.490000000001C884.13 4940.160000000001 883.93 4939.7300000000005 883.93 4939.210000000001C883.93 4939.010000000001 883.9499999999999 4938.800000000001 883.9799999999999 4938.590000000001C884.0099999999999 4938.380000000001 884.05 4938.1500000000015 884.1199999999999 4937.880000000001L884.8499999999999 4935.360000000001C884.9099999999999 4935.120000000001 884.9699999999999 4934.89 885.0099999999999 4934.670000000001C885.0599999999998 4934.460000000001 885.0799999999999 4934.260000000001 885.0799999999999 4934.080000000001C885.0799999999999 4933.760000000001 885.0099999999999 4933.530000000001 884.8799999999999 4933.410000000001C884.7399999999999 4933.280000000001 884.4799999999999 4933.220000000001 884.0899999999999 4933.220000000001C883.8999999999999 4933.220000000001 883.7099999999999 4933.250000000001 883.5099999999999 4933.300000000001C883.3099999999998 4933.3600000000015 883.1399999999999 4933.420000000001 882.9999999999999 4933.470000000001L883.1999999999999 4932.690000000001C883.68 4932.500000000002 884.1299999999999 4932.340000000001 884.5699999999999 4932.200000000002C885.01 4932.0700000000015 885.43 4932.000000000002 885.8199999999999 4932.000000000002C886.52 4932.000000000002 887.0699999999999 4932.170000000002 887.4499999999999 4932.500000000002C887.8299999999999 4932.830000000002 888.02 4933.260000000002 888.02 4933.790000000002C888.02 4933.9000000000015 888.01 4934.090000000002 887.98 4934.370000000002C887.96 4934.640000000002 887.91 4934.9000000000015 887.84 4935.130000000002L887.11 4937.640000000002C887.0500000000001 4937.840000000002 886.99 4938.070000000002 886.95 4938.330000000002C886.9000000000001 4938.590000000002 886.88 4938.790000000002 886.88 4938.920000000002C886.88 4939.250000000002 886.95 4939.480000000002 887.11 4939.600000000002C887.26 4939.720000000002 887.53 4939.7800000000025 887.91 4939.7800000000025C888.0799999999999 4939.7800000000025 888.29 4939.750000000003 888.51 4939.690000000002C888.74 4939.630000000002 888.9 4939.580000000003 889 4939.5300000000025ZM889 4928.5C889 4928.09 888.85 4927.74 888.56 4927.44C888.27 4927.15 887.92 4927 887.5 4927C887.09 4927 886.74 4927.15 886.44 4927.44C886.1500000000001 4927.74 886 4928.089999999999 886 4928.5C886 4928.92 886.15 4929.27 886.44 4929.56C886.74 4929.85 887.09 4930 887.5 4930C887.92 4930 888.27 4929.85 888.56 4929.56C888.8499999999999 4929.27 889 4928.92 889 4928.5Z"
		transform="matrix(1,0,0,1,-883,-4927)"/>
</svg>
