<svg
	version="1.1"
	xmlns="http://www.w3.org/2000/svg"
	xmlns:xlink="http://www.w3.org/1999/xlink"
	xmlns:svgjs="http://svgjs.com/svgjs"
	width="17"
	height="17"
	viewBox="0 0 17 17">
	<path
		d="M1313.02 41C1311.9 41 1311 41.9 1311 43.02L1311 55.980000000000004C1311 57.1 1311.9 58.00000000000001 1313.02 58.00000000000001L1325.98 58.00000000000001C1327.1 58.00000000000001 1328 57.10000000000001 1328 55.980000000000004L1328 43.02C1328 41.900000000000006 1327.1 41 1325.98 41ZM1322.79 49.52C1322.79 51.32 1321.33 52.78 1319.52 52.78C1317.71 52.78 1316.25 51.32 1316.25 49.52C1316.25 47.720000000000006 1317.71 46.260000000000005 1319.52 46.260000000000005C1321.33 46.260000000000005 1322.79 47.720000000000006 1322.79 49.52ZM1323.75 43.13L1325.34 43.13C1325.6399999999999 43.13 1325.87 43.36 1325.87 43.660000000000004L1325.87 45.25000000000001C1325.87 45.540000000000006 1325.6399999999999 45.78000000000001 1325.34 45.78000000000001L1323.75 45.78000000000001C1323.46 45.78000000000001 1323.22 45.540000000000006 1323.22 45.25000000000001L1323.22 43.660000000000004C1323.22 43.36000000000001 1323.46 43.13 1323.75 43.13ZM1325.87 56.41L1313.1299999999999 56.41C1312.83 56.41 1312.59 56.169999999999995 1312.59 55.87L1312.59 47.91L1314.72 47.91C1314.44 48.3 1314.3500000000001 49.05 1314.3500000000001 49.519999999999996C1314.3500000000001 52.36 1316.67 54.67999999999999 1319.5200000000002 54.67999999999999C1322.3700000000001 54.67999999999999 1324.6900000000003 52.35999999999999 1324.6900000000003 49.519999999999996C1324.6900000000003 49.05 1324.6200000000003 48.31999999999999 1324.2800000000002 47.91L1326.4100000000003 47.91L1326.4100000000003 55.87C1326.4100000000003 56.169999999999995 1326.1700000000003 56.41 1325.8700000000003 56.41Z"
		transform="matrix(1,0,0,1,-1311,-41)"/>
</svg>
