<svg
	version="1.1"
	xmlns="http://www.w3.org/2000/svg"
	xmlns:xlink="http://www.w3.org/1999/xlink"
	xmlns:svgjs="http://svgjs.com/svgjs"
	width="18"
	height="12"
	viewBox="0 0 18 12">
	<path
		d="M520.97 3142.69C520.9200000000001 3142.64 520.9200000000001 3142.64 520.76 3142.48C520.52 3142.25 520.52 3142.25 520.1899999999999 3141.93C519.77 3141.5099999999998 519.18 3140.95 518.4899999999999 3140.27C518.4799999999999 3140.27 518.4799999999999 3140.27 518.4799999999999 3140.27C517.9399999999999 3139.74 517.55 3139.37 516.7699999999999 3138.61C516.1499999999999 3138.01 516.1499999999999 3138.01 515.9899999999999 3137.86C515.9999999999999 3137.8700000000003 515.9999999999999 3137.88 515.9899999999999 3137.8900000000003C515.9999999999999 3137.8900000000003 516.0099999999999 3137.8900000000003 516.0099999999999 3137.8900000000003L520.6299999999999 3142.38L520.9799999999999 3142.71L521.3299999999999 3142.38L530.9999999999999 3133H531.0099999999999C530.9999999999999 3132.99 530.9999999999999 3132.97 531.0099999999999 3132.96L520.9799999999999 3142.69ZM521.68 3143.4C521.29 3143.78 520.66 3143.78 520.2099999999999 3143.33C520.2499999999999 3143.38 520.2499999999999 3143.38 520.06 3143.19C519.8299999999999 3142.9700000000003 519.8299999999999 3142.9700000000003 519.5 3142.65C519.07 3142.23 518.49 3141.67 517.79 3140.9900000000002C517.24 3140.46 516.8499999999999 3140.0800000000004 516.0799999999999 3139.3300000000004C515.4499999999999 3138.7300000000005 515.4499999999999 3138.7300000000005 515.3 3138.5800000000004C514.9 3138.1900000000005 514.9 3137.5600000000004 515.3 3137.1700000000005C515.6899999999999 3136.7900000000004 516.31 3136.7900000000004 516.6999999999999 3137.1700000000005L520.9801399999999 3141.3207200000006L530.31 3132.2800000000007C530.6899999999999 3131.9100000000008 531.31 3131.9100000000008 531.6999999999999 3132.2800000000007C532.0999999999999 3132.6600000000008 532.0999999999999 3133.290000000001 531.6999999999999 3133.6800000000007L521.67 3143.4000000000005Z"
		transform="matrix(1,0,0,1,-515,-3132)"/>
</svg>
