<svg
	version="1.1"
	xmlns="http://www.w3.org/2000/svg"
	xmlns:xlink="http://www.w3.org/1999/xlink"
	xmlns:svgjs="http://svgjs.com/svgjs"
	width="75"
	height="67"
	viewBox="0 0 75 67">
	<path
		d="M862.88 1911.14C863.47 1911.14 863.95 1910.66 863.95 1910.0700000000002C863.95 1909.4800000000002 863.47 1909.0000000000002 862.88 1909.0000000000002H857.84C857.25 1909.0000000000002 856.77 1909.4800000000002 856.77 1910.0700000000002C856.77 1910.66 857.25 1911.14 857.84 1911.14ZM872.96 1911.14C873.5500000000001 1911.14 874.0300000000001 1910.66 874.0300000000001 1910.0700000000002C874.0300000000001 1909.4800000000002 873.5500000000001 1909.0000000000002 872.96 1909.0000000000002H867.9200000000001C867.33 1909.0000000000002 866.85 1909.4800000000002 866.85 1910.0700000000002C866.85 1910.66 867.33 1911.14 867.9200000000001 1911.14ZM883.04 1911.14C883.63 1911.14 884.11 1910.66 884.11 1910.0700000000002C884.11 1909.4800000000002 883.63 1909.0000000000002 883.04 1909.0000000000002H878C877.41 1909.0000000000002 876.93 1909.4800000000002 876.93 1910.0700000000002C876.93 1910.66 877.41 1911.14 878 1911.14ZM847.79 1911.34C847.9 1911.34 848.02 1911.33 848.13 1911.29C848.42 1911.19 848.73 1911.1399999999999 849.04 1911.1399999999999H852.81C853.4 1911.1399999999999 853.88 1910.6599999999999 853.88 1910.07C853.88 1909.48 853.4 1909 852.81 1909H849.04C848.5 1909 847.9599999999999 1909.08 847.4499999999999 1909.25C846.89 1909.44 846.5899999999999 1910.05 846.77 1910.61C846.92 1911.06 847.34 1911.34 847.79 1911.34ZM892.58 1912.79C892.8000000000001 1912.79 893.0200000000001 1912.72 893.21 1912.58C893.6800000000001 1912.23 893.7900000000001 1911.56 893.45 1911.08C892.5 1909.78 890.97 1909 889.36 1909H888.07C887.48 1909 887 1909.48 887 1910.07C887 1910.6599999999999 887.48 1911.1399999999999 888.07 1911.1399999999999H889.36C890.29 1911.1399999999999 891.17 1911.59 891.71 1912.34C891.9200000000001 1912.6299999999999 892.25 1912.79 892.58 1912.79ZM845.07 1920.23C845.6600000000001 1920.23 846.1400000000001 1919.75 846.1400000000001 1919.16V1914.1200000000001C846.1400000000001 1913.5300000000002 845.6600000000001 1913.0500000000002 845.07 1913.0500000000002C844.48 1913.0500000000002 844 1913.5300000000002 844 1914.1200000000001V1919.16C844 1919.75 844.48 1920.23 845.07 1920.23ZM893.33 1922.71C893.9300000000001 1922.71 894.4000000000001 1922.23 894.4000000000001 1921.64V1916.6000000000001C894.4000000000001 1916.0000000000002 893.9300000000001 1915.5300000000002 893.33 1915.5300000000002C892.74 1915.5300000000002 892.26 1916.0000000000002 892.26 1916.6000000000001V1921.64C892.26 1922.23 892.74 1922.71 893.33 1922.71ZM845.07 1930.32C845.6600000000001 1930.32 846.1400000000001 1929.84 846.1400000000001 1929.25V1924.21C846.1400000000001 1923.6100000000001 845.6600000000001 1923.13 845.07 1923.13C844.48 1923.13 844 1923.6100000000001 844 1924.21V1929.25C844 1929.84 844.48 1930.32 845.07 1930.32ZM893.33 1932.8C893.9300000000001 1932.8 894.4000000000001 1932.32 894.4000000000001 1931.73V1926.69C894.4000000000001 1926.0900000000001 893.9300000000001 1925.6200000000001 893.33 1925.6200000000001C892.74 1925.6200000000001 892.26 1926.0900000000001 892.26 1926.69V1931.73C892.26 1932.32 892.74 1932.8 893.33 1932.8ZM845.07 1940.41C845.6600000000001 1940.41 846.1400000000001 1939.93 846.1400000000001 1939.3400000000001V1934.2900000000002C846.1400000000001 1933.7000000000003 845.6600000000001 1933.2200000000003 845.07 1933.2200000000003C844.48 1933.2200000000003 844 1933.7000000000003 844 1934.2900000000002V1939.3400000000001C844 1939.93 844.48 1940.41 845.07 1940.41ZM893.33 1942.89C893.9300000000001 1942.89 894.4000000000001 1942.41 894.4000000000001 1941.8200000000002V1936.7800000000002C894.4000000000001 1936.1800000000003 893.9300000000001 1935.7000000000003 893.33 1935.7000000000003C892.74 1935.7000000000003 892.26 1936.1800000000003 892.26 1936.7800000000002V1941.8200000000002C892.26 1942.41 892.74 1942.89 893.33 1942.89ZM849.06 1948.21C849.65 1948.21 850.1199999999999 1947.73 850.1199999999999 1947.14C850.1199999999999 1946.5500000000002 849.6299999999999 1946.0700000000002 849.0399999999998 1946.0700000000002C847.7699999999999 1946.0700000000002 846.6599999999999 1945.2500000000002 846.2699999999999 1944.0400000000002C846.0999999999999 1943.4800000000002 845.4899999999999 1943.1700000000003 844.9299999999998 1943.3400000000001C844.3699999999999 1943.5200000000002 844.0599999999998 1944.1200000000001 844.2299999999998 1944.69C844.8999999999997 1946.8 846.8299999999998 1948.21 849.0399999999997 1948.21ZM859.13 1948.21C859.73 1948.21 860.21 1947.73 860.21 1947.14C860.21 1946.5500000000002 859.73 1946.0700000000002 859.13 1946.0700000000002H854.1C853.51 1946.0700000000002 853.03 1946.5500000000002 853.03 1947.14C853.03 1947.73 853.51 1948.21 854.1 1948.21ZM869.21 1948.21C869.8000000000001 1948.21 870.2800000000001 1947.73 870.2800000000001 1947.14C870.2800000000001 1946.5500000000002 869.8000000000001 1946.0700000000002 869.21 1946.0700000000002H864.1700000000001C863.58 1946.0700000000002 863.1 1946.5500000000002 863.1 1947.14C863.1 1947.73 863.58 1948.21 864.1700000000001 1948.21ZM879.29 1948.21C879.88 1948.21 880.36 1947.73 880.36 1947.14C880.36 1946.5500000000002 879.88 1946.0700000000002 879.29 1946.0700000000002H874.25C873.66 1946.0700000000002 873.18 1946.5500000000002 873.18 1947.14C873.18 1947.73 873.66 1948.21 874.25 1948.21ZM884.33 1948.21C883.73 1948.21 883.26 1947.73 883.26 1947.14C883.26 1946.5500000000002 883.73 1946.0700000000002 884.33 1946.0700000000002H889.36C889.99 1946.0700000000002 890.59 1945.8700000000001 891.09 1945.4900000000002C891.57 1945.1400000000003 892.24 1945.2400000000002 892.59 1945.7100000000003C892.95 1946.1900000000003 892.85 1946.8600000000004 892.37 1947.2100000000003C891.5 1947.8600000000004 890.46 1948.2100000000003 889.36 1948.2100000000003Z"
		fill="#86939e"
		transform="matrix(1,0,0,1,-833,-1893)"/>
	<path
		d="M881.07 1957.53C880.7900000000001 1957.53 880.5 1957.42 880.2900000000001 1957.2C879.8900000000001 1956.77 879.9000000000001 1956.0900000000001 880.33 1955.69L902.82 1934.29C903.25 1933.8899999999999 903.9200000000001 1933.8999999999999 904.33 1934.33C904.74 1934.76 904.72 1935.4399999999998 904.2900000000001 1935.85L881.8100000000001 1957.24C881.6 1957.44 881.33 1957.53 881.07 1957.53"
		fill="#86939e"
		transform="matrix(1,0,0,1,-833,-1893)"/>
	<path
		d="M894.87 1948.02C893.24 1949.57 890.67 1949.51 889.12 1947.8799999999999C887.57 1946.2499999999998 887.64 1943.6699999999998 889.27 1942.12C890.89 1940.57 893.47 1940.6399999999999 895.02 1942.27C896.56 1943.9 896.5 1946.47 894.87 1948.02"
		fill="#fefefe"
		transform="matrix(1,0,0,1,-833,-1893)"/>
	<path
		d="M890.07 1942.97C888.87 1944.1100000000001 888.82 1946.01 889.96 1947.21C891.0600000000001 1948.3700000000001 893.0400000000001 1948.42 894.2 1947.32C895.4000000000001 1946.1799999999998 895.44 1944.28 894.3100000000001 1943.08C893.74 1942.48 892.96 1942.1399999999999 892.1300000000001 1942.1399999999999C891.3600000000001 1942.1399999999999 890.6300000000001 1942.4399999999998 890.0700000000002 1942.9699999999998ZM888.41 1948.69C886.4599999999999 1946.63 886.54 1943.3700000000001 888.5899999999999 1941.42C889.55 1940.5 890.81 1940 892.1299999999999 1940C893.5599999999998 1940 894.8799999999999 1940.57 895.8599999999999 1941.6C896.8 1942.6 897.3 1943.8999999999999 897.2699999999999 1945.27C897.2399999999999 1946.65 896.6699999999998 1947.93 895.6699999999998 1948.87C894.7099999999998 1949.79 893.4599999999998 1950.29 892.1299999999999 1950.29C890.7099999999999 1950.29 889.3899999999999 1949.72 888.4099999999999 1948.69Z"
		fill="#43484d"
		transform="matrix(1,0,0,1,-833,-1893)"/>
	<path
		d="M905.21 1936.37C903.74 1936.6499999999999 902.32 1935.6799999999998 902.0500000000001 1934.2099999999998C901.7700000000001 1932.7399999999998 902.7400000000001 1931.3199999999997 904.21 1931.0499999999997C905.6800000000001 1930.7699999999998 907.09 1931.7399999999998 907.37 1933.2099999999998C907.64 1934.6799999999998 906.68 1936.1 905.21 1936.37"
		fill="#86939e"
		transform="matrix(1,0,0,1,-833,-1893)"/>
	<path
		d="M880.21 1959.37C878.74 1959.6499999999999 877.32 1958.6799999999998 877.0500000000001 1957.2099999999998C876.7700000000001 1955.7399999999998 877.7400000000001 1954.3199999999997 879.21 1954.0499999999997C880.6800000000001 1953.7699999999998 882.09 1954.7399999999998 882.37 1956.2099999999998C882.64 1957.6799999999998 881.68 1959.1 880.21 1959.37"
		fill="#86939e"
		transform="matrix(1,0,0,1,-833,-1893)"/>
	<path
		d="M880.99 1899.83H860.64C859.15 1899.83 857.83 1898.85 857.41 1897.4199999999998V1897.4199999999998C856.99 1895.9799999999998 855.68 1894.9999999999998 854.1899999999999 1894.9999999999998H845.7399999999999C844.2499999999999 1894.9999999999998 842.9399999999999 1895.9799999999998 842.5199999999999 1897.4199999999998V1897.4199999999998C842.0899999999999 1898.85 840.7799999999999 1899.83 839.2899999999998 1899.83H836.6999999999998C835.2099999999998 1899.83 833.9999999999998 1901.04 833.9999999999998 1902.53V1935.29C833.9999999999998 1936.78 835.2099999999998 1937.99 836.6999999999998 1937.99H880.9899999999998C882.4799999999998 1937.99 883.6899999999998 1936.78 883.6899999999998 1935.29V1902.53C883.6899999999998 1901.04 882.4799999999998 1899.83 880.9899999999998 1899.83"
		fill="#e0e7ed"
		transform="matrix(1,0,0,1,-833,-1893)"/>
	<path
		d="M856.54 1911.14C857.14 1911.14 857.62 1910.66 857.62 1910.0700000000002C857.62 1909.4800000000002 857.14 1909.0000000000002 856.54 1909.0000000000002H851.51C850.91 1909.0000000000002 850.4399999999999 1909.4800000000002 850.4399999999999 1910.0700000000002C850.4399999999999 1910.66 850.91 1911.14 851.51 1911.14ZM866.62 1911.14C867.21 1911.14 867.69 1910.66 867.69 1910.0700000000002C867.69 1909.4800000000002 867.21 1909.0000000000002 866.62 1909.0000000000002H861.58C860.99 1909.0000000000002 860.51 1909.4800000000002 860.51 1910.0700000000002C860.51 1910.66 860.99 1911.14 861.58 1911.14ZM876.7 1911.14C877.2900000000001 1911.14 877.7700000000001 1910.66 877.7700000000001 1910.0700000000002C877.7700000000001 1909.4800000000002 877.2900000000001 1909.0000000000002 876.7 1909.0000000000002H871.6600000000001C871.07 1909.0000000000002 870.59 1909.4800000000002 870.59 1910.0700000000002C870.59 1910.66 871.07 1911.14 871.6600000000001 1911.14ZM883.07 1911.14C883.6600000000001 1911.14 884.1400000000001 1910.66 884.1400000000001 1910.0700000000002C884.1400000000001 1909.4800000000002 883.6600000000001 1909.0000000000002 883.07 1909.0000000000002H881.74C881.14 1909.0000000000002 880.66 1909.4800000000002 880.66 1910.0700000000002C880.66 1910.66 881.14 1911.14 881.74 1911.14ZM845.07 1916.49C845.6600000000001 1916.49 846.1400000000001 1916.01 846.1400000000001 1915.42V1914.0500000000002C846.1400000000001 1913.13 846.5600000000001 1912.2800000000002 847.2900000000001 1911.7300000000002C847.7600000000001 1911.3700000000003 847.8600000000001 1910.7000000000003 847.5000000000001 1910.2300000000002C847.1400000000001 1909.7600000000002 846.4700000000001 1909.6600000000003 846.0000000000001 1910.0200000000002C844.7300000000001 1910.9800000000002 844.0000000000001 1912.4500000000003 844.0000000000001 1914.0500000000002V1915.42C844.0000000000001 1916.01 844.4800000000001 1916.49 845.0700000000002 1916.49ZM845.07 1926.58C845.6600000000001 1926.58 846.1400000000001 1926.1 846.1400000000001 1925.51V1920.46C846.1400000000001 1919.8700000000001 845.6600000000001 1919.39 845.07 1919.39C844.48 1919.39 844 1919.8700000000001 844 1920.46V1925.51C844 1926.1 844.48 1926.58 845.07 1926.58ZM844 1935.6V1930.55C844 1929.96 844.48 1929.48 845.07 1929.48C845.6600000000001 1929.48 846.1400000000001 1929.96 846.1400000000001 1930.55V1935.6C846.1400000000001 1936.1899999999998 845.6600000000001 1936.6699999999998 845.07 1936.6699999999998C844.48 1936.6699999999998 844 1936.1899999999998 844 1935.6Z"
		fill="#86939e"
		transform="matrix(1,0,0,1,-833,-1893)"/>
	<path
		d="M836.77 1899.97C835.87 1899.97 835.14 1900.7 835.14 1901.6000000000001V1934.3600000000001C835.14 1935.2600000000002 835.87 1935.9900000000002 836.77 1935.9900000000002H881.06C881.9599999999999 1935.9900000000002 882.6899999999999 1935.2600000000002 882.6899999999999 1934.3600000000001V1901.6000000000001C882.6899999999999 1900.7 881.9599999999999 1899.97 881.06 1899.97H860.7099999999999C858.7599999999999 1899.97 857.0099999999999 1898.67 856.4499999999999 1896.79C856.17 1895.82 855.2599999999999 1895.1399999999999 854.2499999999999 1895.1399999999999H845.8099999999998C844.7999999999998 1895.1399999999999 843.8999999999999 1895.82 843.6099999999998 1896.79C843.0599999999998 1898.6599999999999 841.3099999999998 1899.97 839.3599999999998 1899.97ZM836.77 1938.14C834.6899999999999 1938.14 833 1936.44 833 1934.3600000000001V1901.6000000000001C833 1899.5200000000002 834.69 1897.8300000000002 836.77 1897.8300000000002H839.36C840.37 1897.8300000000002 841.27 1897.15 841.5600000000001 1896.18C842.11 1894.3100000000002 843.86 1893 845.8100000000001 1893H854.2500000000001C856.2100000000002 1893 857.9600000000002 1894.31 858.5100000000001 1896.18C858.7900000000001 1897.15 859.7000000000002 1897.8300000000002 860.7100000000002 1897.8300000000002H881.0600000000002C883.1400000000002 1897.8300000000002 884.8300000000002 1899.5200000000002 884.8300000000002 1901.6000000000001V1934.3600000000001C884.8300000000002 1936.44 883.1400000000001 1938.14 881.0600000000002 1938.14Z"
		fill="#43484d"
		transform="matrix(1,0,0,1,-833,-1893)"/>
</svg>
