<svg
	version="1.1"
	xmlns="http://www.w3.org/2000/svg"
	xmlns:xlink="http://www.w3.org/1999/xlink"
	xmlns:svgjs="http://svgjs.com/svgjs"
	width="12"
	height="18"
	viewBox="0 0 12 18">
	<path
		d="M327.95 2316.02C327.69 2316 327.40999999999997 2315.99 327.14 2316.0099999999998C325.33 2316.12 323.7 2317.16 322.77 2318.79C321.81 2320.5 321.74 2322.56 322.59 2324.29L326.16999999999996 2332.21C326.40999999999997 2332.69 326.87999999999994 2333 327.40999999999997 2333C327.92999999999995 2333 328.40999999999997 2332.71 328.66999999999996 2332.21L332.35999999999996 2324.4C333.23999999999995 2322.6600000000003 333.21 2320.6 332.28 2318.88C331.38 2317.23 329.76 2316.1600000000003 327.95 2316.02ZM327.43 2330.3L324.32 2323.4300000000003C323.76 2322.28 323.8 2320.9100000000003 324.44 2319.78C325.05 2318.71 326.08 2318.05 327.26 2317.98C327.34999999999997 2317.97 327.44 2317.97 327.53 2317.97C327.61999999999995 2317.97 327.71999999999997 2317.98 327.80999999999995 2317.98C328.98999999999995 2318.08 329.99999999999994 2318.75 330.5899999999999 2319.84C331.2099999999999 2320.98 331.2299999999999 2322.34 330.63999999999993 2323.52ZM327.51 2320.5C328.17 2320.51 328.7 2321.07 328.7 2321.76C328.69 2322.4500000000003 328.15 2323.01 327.49 2323C326.83 2322.99 326.3 2322.43 326.3 2321.74C326.31 2321.0499999999997 326.85 2320.49 327.51 2320.5Z"
		transform="matrix(1,0,0,1,-321,-2315)"/>
</svg>
