<svg
	version="1.1"
	xmlns="http://www.w3.org/2000/svg"
	xmlns:xlink="http://www.w3.org/1999/xlink"
	xmlns:svgjs="http://svgjs.com/svgjs"
	width="121"
	height="22"
	viewBox="0 0 121 22">
	<path
		d="M72.75 58.55L72.75 49.919999999999995C72.75 47.779999999999994 74.08 46.28999999999999 76.06 46.28999999999999C78.19 46.28999999999999 79.08 47.71999999999999 79.08 49.559999999999995L79.08 58.55L81.86 58.55L81.86 49.89C81.86 47.84 83.19 46.29 85.14 46.29C87.24 46.29 88.15 47.69 88.15 49.56L88.15 58.550000000000004L90.9 58.550000000000004L90.9 49.27C90.9 45.510000000000005 88.48 43.82 85.99000000000001 43.82C84.19000000000001 43.82 82.36000000000001 44.47 81.23 46.53C80.47 44.68 78.75 43.82 76.98 43.82C75.32000000000001 43.82 73.55 44.56 72.66 46.14L72.66 44.230000000000004L70 44.230000000000004L70 58.550000000000004ZM124.48 56.62C124.48 57.48 124.57000000000001 58.23 124.63000000000001 58.55L127.32000000000001 58.55C127.29 58.32 127.17 57.269999999999996 127.17 55.9L127.17 37L124.42 37L124.42 46.26C123.95 45.1 122.59 43.849999999999994 120.08 43.849999999999994C116.06 43.849999999999994 113.34 47.3 113.34 51.349999999999994C113.34 55.60999999999999 115.91 58.94 120.08 58.94C122.3 58.94 123.8 57.75 124.48 56.379999999999995ZM95.29 51.38C95.29 55.760000000000005 98.31 59 102.56 59C106.82000000000001 59 109.84 55.76 109.84 51.38C109.84 47.03 106.82000000000001 43.790000000000006 102.56 43.790000000000006C98.31 43.790000000000006 95.29 47.03000000000001 95.29 51.38000000000001ZM169.4 53.64C168.87 55.25 167.71 56.53 165.41 56.53C163.01 56.53 161.18 54.74 161.12 52.18L171.82 52.18C171.85 52 171.88 51.65 171.88 51.29C171.88 46.82 169.43 43.79 165.04999999999998 43.79C161.48 43.79 158.24999999999997 46.85 158.24999999999997 51.35C158.24999999999997 56.2 161.59999999999997 59 165.40999999999997 59C168.71999999999997 59 170.99999999999997 57.01 171.78999999999996 54.47ZM142.38 58.55L145.04 58.55C144.98 58.05 144.9 57.04 144.9 55.9L144.9 44.23L142.12 44.23L142.12 52.87C142.12 55.04 140.99 56.53 138.75 56.53C136.41 56.53 135.52 54.800000000000004 135.52 52.84L135.52 44.230000000000004L132.74 44.230000000000004L132.74 53.25C132.74 56.5 134.75 59 138.07000000000002 59C139.72000000000003 59 141.50000000000003 58.32 142.26000000000002 56.83C142.26000000000002 57.42 142.32000000000002 58.23 142.38000000000002 58.55ZM98.13 51.38C98.13 48.07 100.19999999999999 46.290000000000006 102.56 46.290000000000006C104.93 46.290000000000006 107 48.07000000000001 107 51.38000000000001C107 54.71000000000001 104.93 56.50000000000001 102.56 56.50000000000001C100.2 56.50000000000001 98.13 54.71000000000001 98.13 51.38000000000001ZM120.37 46.32C122.92 46.32 124.45 48.34 124.45 51.29C124.45 54.24 122.89 56.47 120.34 56.47C117.68 56.47 116.18 54.3 116.18 51.35C116.18 48.4 117.83000000000001 46.32 120.37 46.32ZM153.54 58.55L153.54 37L150.76 37L150.76 58.55ZM186.84 40.12C186.83 39.98 186.81 39.839999999999996 186.81 39.72C186.81 38.91 187.25 38.269999999999996 188.17000000000002 38.269999999999996C189.05 38.269999999999996 189.49 38.849999999999994 189.49 39.489999999999995C189.49 40.059999999999995 189.19 40.529999999999994 188.49 40.959999999999994L187.19 41.769999999999996C185.82999999999998 42.62 185.35999999999999 43.669999999999995 185.32999999999998 45.01L190.99999999999997 45.01L190.99999999999997 43.73L187.11999999999998 43.73C187.23 43.339999999999996 187.53999999999996 43.07 187.92 42.839999999999996L189.44 41.88999999999999C190.38 41.309999999999995 190.95 40.48 190.95 39.459999999999994C190.95 38.11999999999999 189.92 36.99999999999999 188.2 36.99999999999999C186.42 36.99999999999999 185.41 38.21999999999999 185.41 39.56999999999999C185.41 39.72999999999999 185.43 39.91 185.44 40.019999999999996ZM161.21 49.92C161.33 48.07 162.75 46.260000000000005 165.08 46.260000000000005C167.60000000000002 46.260000000000005 168.93 47.870000000000005 168.99 49.92ZM179.44 41.1C179.44 42.09 179.62 42.85 179.99 43.33C180.26000000000002 43.68 180.63 43.91 181.20000000000002 43.91C181.77 43.91 182.13000000000002 43.68 182.41000000000003 43.33C182.78000000000003 42.85 182.95000000000002 42.089999999999996 182.95000000000002 41.1C182.95000000000002 40.11 182.78000000000003 39.34 182.41000000000003 38.86C182.13000000000002 38.51 181.77000000000004 38.28 181.20000000000002 38.28C180.63000000000002 38.28 180.26000000000002 38.51 179.99 38.86C179.61 39.339999999999996 179.44 40.11 179.44 41.1ZM178 41.1C178 40.06 178.17 39.08 178.7 38.28C179.20999999999998 37.52 180.03 37 181.2 37C182.36999999999998 37 183.17999999999998 37.52 183.69 38.28C184.22 39.08 184.39 40.06 184.39 41.1C184.39 42.13 184.22 43.11 183.69 43.910000000000004C183.18 44.67 182.37 45.190000000000005 181.2 45.190000000000005C180.03 45.190000000000005 179.20999999999998 44.67 178.7 43.910000000000004C178.17 43.11000000000001 178 42.13 178 41.1Z"
		transform="matrix(1,0,0,1,-70,-37)"/>
</svg>
