<svg
	version="1.1"
	xmlns="http://www.w3.org/2000/svg"
	xmlns:xlink="http://www.w3.org/1999/xlink"
	xmlns:svgjs="http://svgjs.com/svgjs"
	width="80"
	height="35"
	viewBox="0 0 80 35">
	<path
		d="M435.15 4597.61C432.19 4599.0199999999995 431.95 4600.719999999999 432.34999999999997 4601.67C432.68999999999994 4602.49 434.09 4602.89 435.66999999999996 4602.04C447.11999999999995 4595.86 470.21999999999997 4590.86 492.99999999999994 4592.26C494.10999999999996 4592.33 494.62999999999994 4590.35 493.03999999999996 4590.2300000000005C464.28 4587.9400000000005 440.55999999999995 4595.02 435.15 4597.610000000001ZM496.65 4583.45C496.06 4582.929999999999 496.66999999999996 4581.34 496.66999999999996 4581.34C499.48999999999995 4579.58 504.99999999999994 4574.82 504.99999999999994 4571.16C504.99999999999994 4567.78 502.09999999999997 4566.76 498.85999999999996 4569.849999999999C496.65 4571.959999999999 494.62999999999994 4575.849999999999 493.47999999999996 4579.7699999999995C491.83 4581.41 489.29999999999995 4583.49 486.96 4583.49C485.76 4583.49 485.4 4582.63 485.52 4581.49C487.53999999999996 4581.37 492.96 4579.82 492.96 4575.24C492.88 4573.23 491.33 4572.48 489.95 4572.48C487.5 4572.48 484.3 4575.049999999999 482.74 4578.65C482.34000000000003 4578.58 481.92 4578.44 481.53000000000003 4578.179999999999C482.03000000000003 4577.07 482.36 4576.089999999999 482.45000000000005 4575.419999999999C482.70000000000005 4573.579999999999 481.97 4572.3099999999995 480.47 4572.379999999999C479.5 4572.419999999999 478.32000000000005 4573.289999999999 478.03000000000003 4575.4C477.83000000000004 4576.839999999999 478.57000000000005 4578.349999999999 478.57000000000005 4578.349999999999C477.87000000000006 4580.53 475.19000000000005 4583.209999999999 474.24000000000007 4583.179999999999C473.37000000000006 4583.15 474.4200000000001 4579.2699999999995 475.33000000000004 4576.429999999999C475.89000000000004 4575.829999999999 476.37000000000006 4575.159999999999 476.52000000000004 4574.57C476.76000000000005 4573.62 476.40000000000003 4573.2 476.11 4572.99C475.42 4572.49 473.54 4572.65 472.49 4574.5199999999995C472.22 4574.999999999999 471.85 4575.759999999999 471.48 4576.7C470.70000000000005 4577.62 469.57 4578.889999999999 469.19 4578.67C468.62 4578.33 470.32 4575.99 470.14 4574.65C469.96999999999997 4573.429999999999 469.01 4572.8099999999995 467.96 4572.96C466.48999999999995 4573.16 464.5 4576.24 464.5 4576.24C464.5 4576.24 464.9 4575.32 464.87 4574.51C464.83 4573.39 462.66 4572.85 461.66 4574.95C461.3 4575.73 460.68 4578.38 460.12 4581.01C459.62 4581.93 458 4584.7 456.68 4584.84C455.59000000000003 4584.96 456.91 4579.92 457.07 4579.67C457.64 4578.74 458.44 4576.76 458.34 4575.86C458.21999999999997 4574.69 457.46 4574.429999999999 456.67999999999995 4574.57C455.59 4574.7699999999995 455.03 4575.91 455.03 4575.91C455.03 4575.91 454.34999999999997 4574.97 452.96999999999997 4575.12C448.42999999999995 4575.61 445.47999999999996 4583.54 445.84999999999997 4587.44C446.04999999999995 4589.46 447.09999999999997 4590.71 448.73999999999995 4590.5199999999995C450.78 4590.29 452.35999999999996 4587.28 452.35999999999996 4587.28C452.35999999999996 4587.28 452.83 4589.67 454.93999999999994 4589.34C456.38999999999993 4589.12 457.81999999999994 4587.89 459.00999999999993 4586.53C458.9599999999999 4586.79 458.92999999999995 4586.969999999999 458.91999999999996 4587.05C458.61999999999995 4589.01 461.90999999999997 4588.87 462.14 4587.24C463.18 4579.67 465.72999999999996 4576.48 466.46999999999997 4576.48C467.08 4576.48 464.82 4580.08 466.15 4581.54C467.21999999999997 4582.71 468.91999999999996 4581.73 470.31 4580.51C470.1 4581.5 469.96 4582.51 469.93 4583.5C469.88 4585.68 470.67 4587.4 472.76 4587.3C475.53999999999996 4587.17 478.43 4583.78 480.33 4580.52C480.76 4580.820000000001 481.3 4581.070000000001 481.96999999999997 4581.200000000001C481.83 4581.990000000001 481.77 4582.81 481.82 4583.64C481.96 4586.160000000001 483.7 4587.08 485.65999999999997 4587.030000000001C487.99999999999994 4586.9800000000005 490.67999999999995 4585.1900000000005 492.65 4583.550000000001C492.63 4583.6500000000015 492.62 4583.740000000001 492.60999999999996 4583.840000000001C492.46999999999997 4584.990000000001 492.63999999999993 4587.260000000001 494.34 4587.420000000001C496.35999999999996 4587.600000000001 499.77 4585.570000000001 501.46 4583.380000000001C502.71 4581.760000000001 501.22999999999996 4580.380000000001 500.22999999999996 4581.520000000001C498.96999999999997 4582.950000000002 497.23999999999995 4583.960000000001 496.65 4583.450000000002ZM502.3 4571.5C502.3 4573.66 496.98 4578.25 496.98 4578.25C496.98 4578.25 500.47 4571.08 502.02000000000004 4571.08C502.21000000000004 4571.08 502.3 4571.22 502.3 4571.5ZM450 4586.1C448.45 4586.14 450.77 4577.88 453.26 4577.93C453.69 4577.9400000000005 453.69 4578.320000000001 453.59999999999997 4579.01C453.42999999999995 4580.320000000001 451.21 4586.06 449.99999999999994 4586.1ZM433.31 4591.66C433.6 4595.05 437.36 4594.07 437.12 4592.12C436.72 4588.8099999999995 438.94 4578.44 441.19 4578.44C442.76 4578.44 439.44 4585.589999999999 440.09 4590.169999999999C440.52 4593.199999999999 444.45 4592.149999999999 444.06 4590.349999999999C442.73 4584.41 446.83 4578.69 446.37 4574.65C446.17 4572.87 445.1 4572.009999999999 444.03000000000003 4572C440.27000000000004 4571.97 437.38000000000005 4579.62 437.38000000000005 4579.62C437.38000000000005 4579.62 437.68000000000006 4575.2699999999995 434.76000000000005 4575.11C430.30000000000007 4574.87 425.88000000000005 4585.98 426.00000000000006 4595.9C426.0400000000001 4599.0599999999995 430.00000000000006 4598.53 429.80000000000007 4596C429.4100000000001 4591.31 432.0400000000001 4580.56 434.1700000000001 4580.58C435.6600000000001 4580.6 433.0300000000001 4588.3099999999995 433.31000000000006 4591.66Z"
		transform="matrix(1,0,0,1,-425,-4568)"/>
</svg>
