<svg id="SvgjsSvg1000" xmlns="http://www.w3.org/2000/svg" version="1.1" xmlns:xlink="http://www.w3.org/1999/xlink" xmlns:svgjs="http://svgjs.com/svgjs" width="85" height="19" viewBox="0 0 85 19"><title>module framework</title><desc>Created with Avocode.</desc><defs id="SvgjsDefs1001"></defs><path id="SvgjsPath1007" d="M613.41 66.27V58.949999999999996C613.41 57.13999999999999 614.5799999999999 55.87 616.3199999999999 55.87C618.1899999999999 55.87 618.9699999999999 57.089999999999996 618.9699999999999 58.65V66.27H621.41V58.92999999999999C621.41 57.18999999999999 622.5799999999999 55.86999999999999 624.29 55.86999999999999C626.13 55.86999999999999 626.9399999999999 57.05999999999999 626.9399999999999 58.64999999999999V66.27H629.3499999999999V58.4C629.3499999999999 55.22 627.2199999999999 53.78 625.04 53.78C623.4599999999999 53.78 621.8499999999999 54.33 620.86 56.08C620.19 54.51 618.6800000000001 53.78 617.13 53.78C615.67 53.78 614.11 54.410000000000004 613.34 55.75V54.13H611V66.27000000000001ZM634.7 60.19C634.7 57.39 636.51 55.87 638.59 55.87C640.6600000000001 55.87 642.48 57.39 642.48 60.19C642.48 63.019999999999996 640.66 64.53 638.59 64.53C636.51 64.53 634.7 63.02 634.7 60.19ZM632.2 60.19C632.2 63.9 634.85 66.64999999999999 638.59 66.64999999999999C642.33 66.64999999999999 644.97 63.89999999999999 644.97 60.18999999999999C644.97 56.50999999999999 642.33 53.74999999999999 638.59 53.74999999999999C634.85 53.74999999999999 632.2 56.50999999999999 632.2 60.18999999999999ZM653.23 55.9C655.46 55.9 656.8100000000001 57.62 656.8100000000001 60.11C656.8100000000001 62.61 655.4300000000001 64.51 653.2 64.51C650.86 64.51 649.5400000000001 62.660000000000004 649.5400000000001 60.17C649.5400000000001 57.67 650.9900000000001 55.900000000000006 653.2300000000001 55.900000000000006ZM656.96 66.27H659.33C659.3000000000001 66.07 659.2 65.19 659.2 64.03V48H656.7800000000001V55.85C656.3700000000001 54.86 655.1700000000001 53.800000000000004 652.9700000000001 53.800000000000004C649.4400000000002 53.800000000000004 647.0500000000002 56.730000000000004 647.0500000000002 60.17C647.0500000000002 63.77 649.3100000000002 66.6 652.9700000000001 66.6C654.9100000000002 66.6 656.2400000000001 65.58999999999999 656.8300000000002 64.42999999999999V64.63C656.8300000000002 65.36 656.9100000000002 66 656.9600000000002 66.27ZM671.58 64.81C671.58 65.31 671.63 66 671.6800000000001 66.27H674.0100000000001C673.9600000000002 65.83999999999999 673.8900000000001 64.99 673.8900000000001 64.03V54.13H671.45V61.45C671.45 63.290000000000006 670.46 64.56 668.49 64.56C666.44 64.56 665.66 63.09 665.66 61.43V54.13H663.2199999999999V61.78C663.2199999999999 64.53 664.9799999999999 66.65 667.8899999999999 66.65C669.3399999999999 66.65 670.8999999999999 66.07000000000001 671.5799999999999 64.81ZM680.48 66.27V48H678.04V66.27ZM686.21 58.95H693.0400000000001C692.9900000000001 57.21 691.82 55.85 689.6100000000001 55.85C687.5600000000002 55.85 686.3200000000002 57.39 686.2100000000002 58.95ZM693.4 62.11L695.5 62.82C694.8 64.96 692.81 66.65 689.9 66.65C686.55 66.65 683.62 64.28 683.62 60.17C683.62 56.35 686.45 53.75 689.59 53.75C693.4300000000001 53.75 695.58 56.33 695.58 60.11C695.58 60.42 695.5600000000001 60.72 695.5300000000001 60.87H686.1400000000001C686.19 63.04 687.8000000000001 64.56 689.9000000000001 64.56C691.9200000000001 64.56 692.9300000000001 63.47 693.4000000000001 62.11Z " fill-opacity="1" transform="matrix(1,0,0,1,-611,-48)"></path></svg>