<svg
	version="1.1"
	xmlns="http://www.w3.org/2000/svg"
	xmlns:xlink="http://www.w3.org/1999/xlink"
	xmlns:svgjs="http://svgjs.com/svgjs"
	width="156"
	height="30"
	viewBox="0 0 156 30">
	<path
		d="M745 4585.08C745 4593.29 751.71 4600 760.06 4600C768.25 4600 774.9599999999999 4593.2 774.9599999999999 4585.08C774.9599999999999 4576.72 768.2499999999999 4570 760.06 4570C751.7099999999999 4570 745 4576.72 745 4585.08ZM755.56 4573.26L760.06 4588.1900000000005L764.56 4573.26L770.3 4592.38H769.37C769.37 4592.38 769.07 4591.41 768.75 4590.52C767.48 4586.240000000001 765.82 4584.570000000001 763.32 4585.540000000001C762.72 4585.700000000001 761.83 4586.510000000001 761.3000000000001 4587.250000000001C760.9100000000001 4588.030000000001 760.2600000000001 4589.220000000001 760.0600000000001 4590.210000000001C759.84 4589.220000000001 759.19 4588.030000000001 758.82 4587.250000000001C758.2700000000001 4586.510000000001 757.3900000000001 4585.700000000001 756.8000000000001 4585.540000000001C754.3000000000001 4584.570000000001 752.61 4586.240000000001 751.36 4590.52C751.04 4591.410000000001 750.72 4592.38 750.74 4592.38C750.72 4592.38 749.8100000000001 4592.38 749.8100000000001 4592.38ZM811.44 4579.79C810.58 4579.81 809.75 4579.9 808.95 4580.1C806.5 4580.620000000001 803.6 4582.450000000001 803.0500000000001 4585.2300000000005C802.85 4586.77 803.6300000000001 4588.150000000001 804.9200000000001 4588.96C806.6600000000001 4589.99 808.7400000000001 4590.28 810.82 4590.21C812.3100000000001 4590.05 813.86 4589.66 815.1600000000001 4588.96C816.5000000000001 4588.21 817.59 4587.15 818.1100000000001 4585.54C818.5600000000002 4584.63 818.5200000000001 4583.29 817.9600000000002 4582.44C816.3100000000002 4580.4 813.8800000000001 4579.75 811.4400000000002 4579.79C811.4100000000002 4579.79 811.4100000000002 4579.79 811.4400000000002 4579.79ZM838.91 4579.79C838.05 4579.81 837.23 4579.9 836.43 4580.1C833.9699999999999 4580.620000000001 831.0799999999999 4582.450000000001 830.53 4585.2300000000005C830.3399999999999 4586.77 831.1 4588.150000000001 832.39 4588.96C834.13 4589.99 836.21 4590.28 838.29 4590.21C839.78 4590.05 841.3299999999999 4589.66 842.64 4588.96C843.97 4588.21 845.05 4587.15 845.59 4585.54C846.0500000000001 4584.63 845.99 4583.29 845.4300000000001 4582.44C843.8000000000001 4580.4 841.34 4579.75 838.9100000000001 4579.79C838.8800000000001 4579.79 838.8800000000001 4579.79 838.9100000000001 4579.79ZM868.72 4579.79C867.86 4579.81 867.02 4579.9 866.23 4580.1C863.77 4580.620000000001 860.87 4582.450000000001 860.33 4585.2300000000005C860.14 4586.77 860.9000000000001 4588.150000000001 862.2 4588.96C863.9300000000001 4589.99 865.99 4590.28 868.09 4590.21C869.6 4590.05 871.13 4589.66 872.44 4588.96C873.7700000000001 4588.21 874.86 4587.15 875.3900000000001 4585.54C875.8500000000001 4584.63 875.7900000000001 4583.29 875.2400000000001 4582.44C873.6000000000001 4580.4 871.1500000000001 4579.75 868.7200000000001 4579.79C868.6800000000002 4579.79 868.6800000000002 4579.79 868.7200000000001 4579.79ZM788 4579.95L785.2 4590.05H788.46C788.46 4590.05 789.9300000000001 4584.8 790.02 4584.77C790.00497 4584.684850000001 790.01504 4584.632310000001 790.0237999999999 4584.607370000001C790.09146 4584.561810000001 790.13073 4584.610000000001 790.17 4584.610000000001C790.13 4584.630000000001 791.41 4590.05 791.41 4590.05H793.5899999999999C793.5899999999999 4590.05 797.92 4584.74 797.93 4584.77C797.9499999999999 4584.740000000001 797.9899999999999 4584.72 797.93 4584.77C798 4584.75 796.54 4590.05 796.54 4590.05H800.5699999999999L803.3699999999999 4579.95H797.9299999999998L794.3599999999998 4584.3L793.2799999999997 4579.95ZM790.02553 4584.60272C790.03249 4584.585239999999 790.03737 4584.58617 790.02553 4584.60272ZM819.51 4579.95L818.58 4583.21C818.58 4583.21 822.6500000000001 4583.17 822.61 4583.21C822.76 4583.17 822.82 4583.26 822.77 4583.37C822.81 4583.349999999999 821.06 4590.05 821.06 4590.05H824.9399999999999L826.9599999999999 4583.21V4583.06H831.15L831.93 4579.950000000001ZM848.23 4579.95C847.39 4583.2699999999995 846.53 4586.69 845.74 4590.05H849.47L850.24 4587.1C850.24 4587.1 853.45 4587.05 853.5 4587.1C853.99 4587.070000000001 854.21 4587.4400000000005 854.28 4587.88C854.2099999999999 4587.84 854.0799999999999 4589.17 854.12 4589.12C854.07 4589.349999999999 854.1 4589.5199999999995 854.12 4589.59C854.25 4589.87 854.44 4590.01 854.59 4590.05C854.64 4590.05 859.13 4590.05 859.09 4590.05C858.87 4589.83 858.58 4589.51 858.63 4589.12C858.64 4588.4 858.92 4587.61 858.78 4586.79C858.62 4586.24 858.02 4585.89 857.54 4585.7C857.4499999999999 4585.62 857.54 4585.58 857.54 4585.54C858.61 4585.14 859.73 4584.39 860.18 4583.21C860.4799999999999 4582.5 860.38 4581.44 859.7099999999999 4580.88C859.2399999999999 4580.31 858.4399999999999 4579.95 857.6899999999999 4579.95C857.6199999999999 4579.95 853.04 4579.95 853.04 4579.95C853.04 4579.95 848.2099999999999 4579.95 848.23 4579.95ZM878.03 4579.95L875.6999999999999 4590.05H885.79L886.41 4587.1C886.41 4587.1 880.5699999999999 4587.14 880.51 4587.1C880.51 4587.14 880.46 4587.06 880.51 4586.9400000000005C880.4399999999999 4587.000000000001 882.0699999999999 4579.950000000001 882.0699999999999 4579.950000000001ZM893.09 4579.95L886.57 4590.05H889.98L891.07 4588.1900000000005C891.07 4588.1900000000005 895.82 4588.250000000001 895.88 4588.1900000000005C895.85 4588.250000000001 895.87 4588.280000000001 895.88 4588.34C895.89 4588.33 896.35 4590.05 896.35 4590.05H900.5400000000001L898.21 4579.95ZM811.44 4582.44C812.12 4582.44 812.83 4582.61 813.3000000000001 4582.9C813.6500000000001 4583.16 813.9000000000001 4583.469999999999 814.08 4583.83C814.24 4584.87 813.76 4585.88 812.83 4586.63C811.83 4587.47 810.23 4587.86 808.8000000000001 4587.25C808.34 4587.11 807.8000000000001 4586.62 807.71 4586.01C807.63 4584.76 808.3000000000001 4583.55 809.4200000000001 4582.900000000001C809.9900000000001 4582.59 810.71 4582.420000000001 811.44 4582.4400000000005C811.4100000000001 4582.4400000000005 811.4100000000001 4582.4400000000005 811.44 4582.4400000000005ZM839.07 4582.44C839.74 4582.44 840.46 4582.61 840.9300000000001 4582.9C841.2700000000001 4583.16 841.5300000000001 4583.469999999999 841.71 4583.83C841.87 4584.87 841.37 4585.88 840.46 4586.63C839.45 4587.47 837.86 4587.86 836.4300000000001 4587.25C835.96 4587.11 835.4300000000001 4586.62 835.34 4586.01C835.24 4584.76 835.9100000000001 4583.55 837.0500000000001 4582.900000000001C837.61 4582.59 838.33 4582.420000000001 839.07 4582.4400000000005C839.0400000000001 4582.4400000000005 839.0400000000001 4582.4400000000005 839.07 4582.4400000000005ZM868.72 4582.44C869.4 4582.44 870.11 4582.61 870.58 4582.9C870.94 4583.16 871.19 4583.469999999999 871.35 4583.83C871.53 4584.87 871.03 4585.88 870.11 4586.63C869.1 4587.47 867.52 4587.86 866.08 4587.25C865.62 4587.11 865.07 4586.62 864.99 4586.01C864.92 4584.76 865.59 4583.55 866.7 4582.900000000001C867.2800000000001 4582.59 868 4582.420000000001 868.72 4582.4400000000005C868.7 4582.4400000000005 868.7 4582.4400000000005 868.72 4582.4400000000005ZM853.19 4582.59C853.19 4582.59 855.58 4582.59 855.5200000000001 4582.59C855.7500000000001 4582.610000000001 856.0000000000001 4582.77 856.1400000000001 4583.06C856.2100000000002 4583.3 856.1100000000001 4583.63 855.8300000000002 4583.830000000001C855.5800000000002 4584.140000000001 855.3200000000002 4584.260000000001 854.9000000000002 4584.300000000001C854.9700000000003 4584.300000000001 851.0200000000002 4584.300000000001 851.0200000000002 4584.300000000001L851.4900000000002 4582.590000000001ZM894.48 4583.21C894.48 4583.21 894.51 4583.21 894.48 4583.21C894.51 4583.24 895.1 4585.7 895.1 4585.7H892.78L894.48 4583.21C894.48 4583.21 894.46 4583.21 894.48 4583.21Z"
		transform="matrix(1,0,0,1,-745,-4570)"/>
</svg>
