<svg
	version="1.1"
	xmlns="http://www.w3.org/2000/svg"
	xmlns:xlink="http://www.w3.org/1999/xlink"
	xmlns:svgjs="http://svgjs.com/svgjs"
	width="96"
	height="26"
	viewBox="0 0 96 26">
	<path
		d="M1032.85 4596.36C1034.1799999999998 4596.49 1035.53 4596.63 1036.86 4596.7699999999995L1039.8 4589.509999999999L1042.59 4597.429999999999C1044.02 4597.61 1045.4599999999998 4597.789999999999 1046.8799999999999 4597.999999999999L1041.9799999999998 4584.099999999999L1046.8799999999999 4571.999999999999H1042.7299999999998L1042.6899999999998 4572.0599999999995L1040.0399999999997 4578.599999999999L1037.7099999999998 4572.009999999999H1033.62L1037.84 4584.0199999999995ZM1029.75 4596.08V4572H1025.65V4595.73C1027.02 4595.839999999999 1028.39 4595.95 1029.75 4596.08M998.98 4594.72C1000.09 4594.72 1001.19 4594.7300000000005 1002.29 4594.7300000000005V4585.89H1007.2099999999999V4582.13H1002.29V4575.77H1007.9499999999999V4572H998.18V4594.72C998.4499999999999 4594.7300000000005 998.7099999999999 4594.72 998.9799999999999 4594.72M986.26 4594.95C987.63 4594.9 988.98 4594.86 990.36 4594.82V4575.7699999999995H994.1800000000001V4571.999999999999H982.4300000000001V4575.7699999999995H986.2600000000001V4594.95ZM954.93 4597.5V4583.15L959.78 4596.92C961.27 4596.75 962.77 4596.59 964.26 4596.4400000000005V4572.000000000001H960.33V4586.850000000001L955.1 4572.000000000001H954.9300000000001H951.0000000000001V4598.000000000001H951.0300000000001C952.32 4597.830000000001 953.6200000000001 4597.650000000001 954.9300000000001 4597.500000000001M978.47 4575.77V4572H968.69V4592.26V4596.04V4596.04C971.9300000000001 4595.75 975.19 4595.5199999999995 978.46 4595.33V4595.33V4594.24V4591.55C976.57 4591.66 974.69 4591.78 972.8000000000001 4591.93V4585.91H977.72V4582.13H972.8000000000001V4575.77H978.47ZM1016.08 4591.37V4572H1011.97V4591.19V4594.96V4594.96C1015.24 4595.08 1018.5 4595.25 1021.76 4595.47V4595.47V4594.25V4591.71C1019.86 4591.57 1017.97 4591.46 1016.08 4591.37"
		transform="matrix(1,0,0,1,-951,-4572)"/>
</svg>
