<svg
	version="1.1"
	xmlns="http://www.w3.org/2000/svg"
	xmlns:xlink="http://www.w3.org/1999/xlink"
	xmlns:svgjs="http://svgjs.com/svgjs"
	width="17"
	height="18"
	viewBox="0 0 17 18">
	<path
		d="M659.31 3426.76C659.5999999999999 3426.8700000000003 659.93 3426.84 660.1899999999999 3426.67L669.03 3421.04L661.74 3427.98C661.54 3428.17 661.4300000000001 3428.43 661.4300000000001 3428.7L661.4100000000001 3434.71C661.4000000000001 3435.25 662.1400000000001 3435.41 662.3600000000001 3434.91L664.3100000000002 3430.54C664.4300000000002 3430.27 664.7500000000002 3430.16 665.0100000000002 3430.3L670.1700000000002 3433.17C670.5000000000002 3433.35 670.9000000000002 3433.13 670.9200000000002 3432.76L671.5800000000002 3418.5200000000004C671.6000000000001 3418.1600000000003 671.2300000000001 3417.9000000000005 670.9000000000002 3418.0400000000004L655.3100000000002 3424.3600000000006C654.8900000000002 3424.5400000000004 654.9000000000002 3425.1300000000006 655.3300000000002 3425.2900000000004Z"
		transform="matrix(1,0,0,1,-655,-3418)"/>
</svg>
