<svg
	version="1.1"
	xmlns="http://www.w3.org/2000/svg"
	xmlns:xlink="http://www.w3.org/1999/xlink"
	xmlns:svgjs="http://svgjs.com/svgjs"
	width="52"
	height="48"
	viewBox="0 0 52 48">
	<path
		d="M703.16 2884.72C702.6999999999999 2884.72 702.3199999999999 2884.33 702.3199999999999 2883.8599999999997C702.3199999999999 2883.3799999999997 702.6999999999999 2882.9999999999995 703.16 2882.9999999999995H707.0699999999999C707.54 2882.9999999999995 707.91 2883.3799999999997 707.91 2883.8599999999997C707.91 2884.3299999999995 707.54 2884.72 707.0699999999999 2884.72ZM710.98 2884.72C710.51 2884.72 710.14 2884.33 710.14 2883.8599999999997C710.14 2883.3799999999997 710.51 2882.9999999999995 710.98 2882.9999999999995H714.89C715.35 2882.9999999999995 715.73 2883.3799999999997 715.73 2883.8599999999997C715.73 2884.3299999999995 715.35 2884.72 714.89 2884.72ZM718.79 2884.72C718.3299999999999 2884.72 717.9499999999999 2884.33 717.9499999999999 2883.8599999999997C717.9499999999999 2883.3799999999997 718.3299999999999 2882.9999999999995 718.79 2882.9999999999995H722.6999999999999C723.17 2882.9999999999995 723.54 2883.3799999999997 723.54 2883.8599999999997C723.54 2884.3299999999995 723.17 2884.72 722.6999999999999 2884.72ZM734.42 2884.72C733.9599999999999 2884.72 733.5799999999999 2884.33 733.5799999999999 2883.8599999999997C733.5799999999999 2883.3799999999997 733.9599999999999 2882.9999999999995 734.42 2882.9999999999995H738.3299999999999C738.8 2882.9999999999995 739.17 2883.3799999999997 739.17 2883.8599999999997C739.17 2884.3299999999995 738.8 2884.72 738.3299999999999 2884.72ZM695.31 2886.18C694.9499999999999 2885.8799999999997 694.9 2885.3399999999997 695.1899999999999 2884.98C696.1899999999999 2883.73 697.67 2883.01 699.2499999999999 2883C699.7399999999999 2883.01 700.0999999999999 2883.38 700.0999999999999 2883.85C700.0999999999999 2884.33 699.7299999999999 2884.71 699.2599999999999 2884.72C698.1899999999998 2884.72 697.1799999999998 2885.2099999999996 696.4999999999999 2886.06C696.3299999999999 2886.27 696.0899999999999 2886.38 695.8399999999999 2886.38C695.66 2886.38 695.4699999999999 2886.32 695.31 2886.1800000000003ZM744.1 2887.13C743.73 2886.1 742.94 2885.3 741.9300000000001 2884.9300000000003C741.49 2884.7700000000004 741.2600000000001 2884.28 741.4200000000001 2883.8300000000004C741.57 2883.3800000000006 742.0600000000001 2883.1500000000005 742.4900000000001 2883.3100000000004C743.9800000000001 2883.8500000000004 745.1400000000001 2885.03 745.6800000000002 2886.5400000000004C745.8400000000001 2886.9900000000002 745.6200000000002 2887.4800000000005 745.1800000000002 2887.6400000000003C745.0800000000002 2887.6800000000003 744.9900000000001 2887.6900000000005 744.8900000000002 2887.6900000000005C744.5500000000002 2887.6900000000005 744.2200000000003 2887.4800000000005 744.1000000000003 2887.1300000000006ZM694 2893.24V2889.2599999999998C694 2888.79 694.38 2888.3999999999996 694.84 2888.3999999999996C695.3100000000001 2888.3999999999996 695.69 2888.7899999999995 695.69 2889.2599999999998V2893.24C695.69 2893.72 695.3100000000001 2894.1 694.84 2894.1C694.38 2894.1 694 2893.72 694 2893.24ZM744.31 2894.77V2890.79C744.31 2890.31 744.6899999999999 2889.93 745.16 2889.93C745.62 2889.93 746 2890.31 746 2890.79V2894.77C746 2895.24 745.62 2895.63 745.16 2895.63C744.6899999999999 2895.63 744.31 2895.2400000000002 744.31 2894.77ZM694 2901.21V2897.23C694 2896.75 694.38 2896.37 694.84 2896.37C695.3100000000001 2896.37 695.69 2896.75 695.69 2897.23V2901.21C695.69 2901.68 695.3100000000001 2902.07 694.84 2902.07C694.38 2902.07 694 2901.6800000000003 694 2901.21ZM744.31 2902.73V2898.75C744.31 2898.27 744.6899999999999 2897.89 745.16 2897.89C745.62 2897.89 746 2898.27 746 2898.75V2902.73C746 2903.2 745.62 2903.59 745.16 2903.59C744.6899999999999 2903.59 744.31 2903.2000000000003 744.31 2902.73ZM694.31 2909.43C694.0999999999999 2908.85 694 2908.24 694 2907.62V2905.19C694 2904.71 694.38 2904.33 694.84 2904.33C695.3100000000001 2904.33 695.69 2904.71 695.69 2905.19V2907.62C695.69 2908.04 695.75 2908.46 695.8900000000001 2908.85C696.0500000000001 2909.2999999999997 695.82 2909.79 695.3800000000001 2909.95C695.2900000000001 2909.98 695.19 2910 695.1000000000001 2910C694.7500000000001 2910 694.4300000000002 2909.78 694.3100000000002 2909.43ZM743.64 2911.13C743.28 2910.83 743.22 2910.29 743.52 2909.92C744.04 2909.26 744.31 2908.4700000000003 744.31 2907.62V2906.71C744.31 2906.2400000000002 744.6899999999999 2905.85 745.16 2905.85C745.62 2905.85 746 2906.24 746 2906.71V2907.62C746 2908.85 745.58 2910.0499999999997 744.83 2911C744.6600000000001 2911.21 744.4200000000001 2911.32 744.1700000000001 2911.32C743.9900000000001 2911.32 743.8000000000001 2911.26 743.6400000000001 2911.13ZM699.28 2913C698.66 2913 698.05 2912.89 697.48 2912.68C697.04 2912.52 696.82 2912.02 696.97 2911.58C697.13 2911.13 697.62 2910.9 698.0500000000001 2911.06C698.45 2911.21 698.86 2911.2799999999997 699.2800000000001 2911.2799999999997H701.6400000000001C702.1100000000001 2911.2799999999997 702.4900000000001 2911.6699999999996 702.4900000000001 2912.14C702.4900000000001 2912.62 702.1100000000001 2913 701.6400000000001 2913ZM705.55 2913C705.0899999999999 2913 704.7099999999999 2912.62 704.7099999999999 2912.14C704.7099999999999 2911.67 705.0899999999999 2911.2799999999997 705.55 2911.2799999999997H709.4599999999999C709.92 2911.2799999999997 710.3 2911.6699999999996 710.3 2912.14C710.3 2912.62 709.92 2913 709.4599999999999 2913ZM713.37 2913C712.9 2913 712.52 2912.62 712.52 2912.14C712.52 2911.67 712.9 2911.2799999999997 713.37 2911.2799999999997H717.27C717.74 2911.2799999999997 718.12 2911.6699999999996 718.12 2912.14C718.12 2912.62 717.74 2913 717.27 2913ZM721.18 2913C720.7199999999999 2913 720.3399999999999 2912.62 720.3399999999999 2912.14C720.3399999999999 2911.67 720.7199999999999 2911.2799999999997 721.18 2911.2799999999997H725.0899999999999C725.55 2911.2799999999997 725.93 2911.6699999999996 725.93 2912.14C725.93 2912.62 725.55 2913 725.0899999999999 2913ZM740.74 2913L740.77 2912.14V2913C741.24 2913 741.59 2912.62 741.59 2912.14C741.59 2911.67 741.1800000000001 2911.2799999999997 740.72 2911.2799999999997H736.8100000000001C736.35 2911.2799999999997 735.97 2911.6699999999996 735.97 2912.14C735.97 2912.62 736.35 2913 736.8100000000001 2913Z"
		fill="#43474d"
		fill-opacity="0.3"
		transform="matrix(1,0,0,1,-694,-2870)"/>
	<path
		d="M716.75 2912.41H706V2884H716.75Z"
		fill="#e0e7ed"
		transform="matrix(1,0,0,1,-694,-2870)"/>
	<path
		d="M734.34 2914.11C734.34 2915.32 733.37 2916.31 732.1800000000001 2916.31H726.2700000000001C725.3800000000001 2916.31 724.6600000000001 2915.57 724.6600000000001 2914.67V2912.79H729.96C730.4200000000001 2912.79 730.7900000000001 2912.41 730.7900000000001 2911.95C730.7900000000001 2911.48 730.4200000000001 2911.1 729.96 2911.1H724.6600000000001V2905.83H727.0300000000001C727.4900000000001 2905.83 727.8600000000001 2905.45 727.8600000000001 2904.99C727.8600000000001 2904.52 727.4900000000001 2904.14 727.0300000000001 2904.14H724.6600000000001V2898.87H729.96C730.4200000000001 2898.87 730.7900000000001 2898.49 730.7900000000001 2898.02C730.7900000000001 2897.56 730.4200000000001 2897.18 729.96 2897.18H724.6600000000001V2891.91H727.0300000000001C727.4900000000001 2891.91 727.8600000000001 2891.5299999999997 727.8600000000001 2891.06C727.8600000000001 2890.6 727.4900000000001 2890.22 727.0300000000001 2890.22H724.6600000000001V2884.95H729.96C730.4200000000001 2884.95 730.7900000000001 2884.5699999999997 730.7900000000001 2884.1C730.7900000000001 2883.64 730.4200000000001 2883.2599999999998 729.96 2883.2599999999998H724.6600000000001V2877.99H727.0300000000001C727.4900000000001 2877.99 727.8600000000001 2877.6099999999997 727.8600000000001 2877.14C727.8600000000001 2876.68 727.4900000000001 2876.2999999999997 727.0300000000001 2876.2999999999997H724.6600000000001V2873.33C724.6600000000001 2872.43 725.3800000000001 2871.69 726.2700000000001 2871.69H732.7300000000001C733.6200000000001 2871.69 734.3400000000001 2872.43 734.3400000000001 2873.33ZM726.27 2870C724.47 2870 723 2871.49 723 2873.33V2914.67C723 2916.51 724.47 2918 726.27 2918H732.18C734.28 2918 736 2916.25 736 2914.11V2873.33C736 2871.49 734.53 2870 732.73 2870Z"
		fill="#43484d"
		transform="matrix(1,0,0,1,-694,-2870)"/>
	<path
		d="M709.32 2916.32C707.84 2916.32 706.6400000000001 2915.0800000000004 706.6400000000001 2913.56V2912.81H715.3600000000001V2913.56C715.3600000000001 2915.08 714.1600000000001 2916.32 712.6800000000002 2916.32ZM710.19 2878.67C710.37 2878.39 710.6700000000001 2878.23 711 2878.23C711.33 2878.23 711.63 2878.39 711.81 2878.67L714.64 2883H707.36ZM711.82 2884.68H715.34C715.35 2884.7799999999997 715.36 2884.87 715.36 2884.97V2911.1299999999997H711.82ZM706.64 2884.97C706.64 2884.87 706.65 2884.7799999999997 706.66 2884.68H710.18V2911.1299999999997H706.64ZM713.17 2877.73C712.8499999999999 2877.23 712.36 2876.88 711.8199999999999 2876.7V2874.8399999999997C711.8199999999999 2874.3799999999997 711.4499999999999 2873.9999999999995 710.9999999999999 2873.9999999999995C710.5499999999998 2873.9999999999995 710.1799999999998 2874.3799999999997 710.1799999999998 2874.8399999999997V2876.7C709.6399999999999 2876.8799999999997 709.1499999999999 2877.23 708.8199999999998 2877.73L705.7499999999998 2882.43C705.2599999999998 2883.19 704.9999999999998 2884.06 704.9999999999998 2884.97V2913.56C704.9999999999998 2916.0099999999998 706.9399999999998 2918 709.3199999999998 2918H712.6799999999998C715.0599999999998 2918 716.9999999999999 2916.01 716.9999999999999 2913.56V2884.97C716.9999999999999 2884.06 716.7399999999999 2883.1899999999996 716.2499999999999 2882.43Z"
		fill="#43484d"
		transform="matrix(1,0,0,1,-694,-2870)"/>
</svg>
