<svg
	version="1.1"
	xmlns="http://www.w3.org/2000/svg"
	xmlns:xlink="http://www.w3.org/1999/xlink"
	xmlns:svgjs="http://svgjs.com/svgjs"
	width="23"
	height="17"
	viewBox="0 0 23 17">
	<path
		d="M237.14 1684.87V1691.2199999999998H235V1674.9999999999998H241C242.77 1674.9999999999998 244.17 1675.4499999999998 245.18 1676.3599999999997C246.18 1677.2599999999998 246.69 1678.4599999999996 246.69 1679.9599999999996C246.69 1681.5299999999995 246.2 1682.7399999999996 245.21 1683.5899999999997C244.22 1684.4399999999996 242.81 1684.8699999999997 240.97 1684.8699999999997ZM237.14 1683.12H241C242.14 1683.12 243.02 1682.85 243.63 1682.31C244.24 1681.77 244.54999999999998 1681 244.54999999999998 1679.98C244.54999999999998 1679.01 244.23999999999998 1678.24 243.63 1677.66C243.01999999999998 1677.0800000000002 242.18 1676.78 241.12 1676.76H237.14000000000001ZM254.99 1688.02C254.99 1688.55 254.75 1688.97 254.28 1689.28C253.81 1689.6 253.18 1689.76 252.4 1689.76C251.55 1689.76 250.87 1689.56 250.35 1689.15C249.82999999999998 1688.75 249.56 1688.2 249.51999999999998 1687.51H247.45C247.45 1688.22 247.66 1688.8799999999999 248.08999999999997 1689.5C248.50999999999996 1690.11 249.08999999999997 1690.59 249.82999999999998 1690.93C250.57999999999998 1691.27 251.42999999999998 1691.44 252.39999999999998 1691.44C253.77999999999997 1691.44 254.89999999999998 1691.1100000000001 255.76 1690.46C256.62 1689.81 257.06 1688.95 257.06 1687.88C257.06 1687.23 256.9 1686.68 256.59 1686.23C256.28 1685.78 255.80999999999997 1685.4 255.17 1685.08C254.53 1684.76 253.69 1684.49 252.66 1684.26C251.63 1684.03 250.92 1683.78 250.52 1683.53C250.13000000000002 1683.28 249.93 1682.8999999999999 249.93 1682.41C249.93 1681.88 250.15 1681.45 250.57 1681.13C250.98999999999998 1680.8000000000002 251.57999999999998 1680.64 252.32999999999998 1680.64C253.05999999999997 1680.64 253.67 1680.8400000000001 254.14999999999998 1681.25C254.62999999999997 1681.66 254.86999999999998 1682.14 254.86999999999998 1682.71H256.94C256.94 1681.6100000000001 256.52 1680.71 255.67 1680C254.80999999999997 1679.3 253.7 1678.94 252.32999999999998 1678.94C251.02999999999997 1678.94 249.95999999999998 1679.28 249.11999999999998 1679.97C248.28999999999996 1680.65 247.86999999999998 1681.49 247.86999999999998 1682.47C247.86999999999998 1683.07 248.00999999999996 1683.58 248.30999999999997 1684.01C248.59999999999997 1684.44 249.05999999999997 1684.81 249.67 1685.12C250.28 1685.4399999999998 251.10999999999999 1685.6999999999998 252.16 1685.9299999999998C253.21 1686.1499999999999 253.94 1686.4099999999999 254.35999999999999 1686.7199999999998C254.77999999999997 1687.0299999999997 254.98999999999998 1687.4599999999998 254.98999999999998 1688.0199999999998Z"
		transform="matrix(1,0,0,1,-235,-1675)"/>
</svg>
