<svg
	version="1.1"
	xmlns="http://www.w3.org/2000/svg"
	xmlns:xlink="http://www.w3.org/1999/xlink"
	xmlns:svgjs="http://svgjs.com/svgjs"
	width="15"
	height="15"
	viewBox="0 0 15 15">
	<path
		d="M652.09 2531.29C651.9200000000001 2530.92 651.4 2530.9 651.22 2531.2599999999998L651.12 2531.4599999999996C651.01 2531.6799999999994 650.75 2531.7699999999995 650.52 2531.6799999999994C649.17 2531.1999999999994 647.73 2531.109999999999 646.24 2531.5199999999995C643.42 2532.2799999999997 641.32 2534.7399999999993 641.04 2537.6299999999997C640.92 2538.8199999999997 641.0899999999999 2539.9799999999996 641.55 2541.0599999999995C641.65 2541.3099999999995 641.9599999999999 2541.4099999999994 642.1999999999999 2541.2899999999995L643.06 2540.8599999999997C643.28 2540.7499999999995 643.39 2540.4999999999995 643.3 2540.2699999999995C642.9799999999999 2539.4999999999995 642.8599999999999 2538.6699999999996 642.9499999999999 2537.8199999999997C643.16 2535.7 644.7199999999999 2533.89 646.79 2533.35C647.77 2533.0899999999997 648.73 2533.12 649.63 2533.4C649.86 2533.4700000000003 650.05 2533.54 649.9399999999999 2533.76C649.8699999999999 2533.88 649.79 2534.0400000000004 649.7099999999999 2534.21C649.5199999999999 2534.57 649.8199999999999 2535.02 650.2099999999999 2534.94L652.8299999999999 2534.38C653.1199999999999 2534.31 653.29 2534 653.17 2533.7200000000003ZM644.91 2545.71C645.0799999999999 2546.08 645.6 2546.1 645.78 2545.7400000000002L645.88 2545.5400000000004C645.99 2545.3200000000006 646.25 2545.2300000000005 646.49 2545.3200000000006C647.83 2545.8000000000006 649.27 2545.890000000001 650.76 2545.4800000000005C653.58 2544.7200000000003 655.68 2542.2600000000007 655.96 2539.3700000000003C656.08 2538.1800000000003 655.9100000000001 2537.0200000000004 655.45 2535.9400000000005C655.35 2535.6900000000005 655.0400000000001 2535.5900000000006 654.8000000000001 2535.7100000000005L653.94 2536.1400000000003C653.72 2536.2500000000005 653.61 2536.5000000000005 653.7 2536.7300000000005C654.0200000000001 2537.5000000000005 654.1400000000001 2538.3300000000004 654.0500000000001 2539.1800000000003C653.84 2541.3 652.2800000000001 2543.11 650.21 2543.65C649.23 2543.9100000000003 648.27 2543.88 647.37 2543.6C647.14 2543.5299999999997 646.95 2543.46 647.0600000000001 2543.24C647.1300000000001 2543.12 647.21 2542.9599999999996 647.2900000000001 2542.79C647.4800000000001 2542.43 647.1800000000001 2541.98 646.7900000000001 2542.06L644.1700000000001 2542.62C643.8800000000001 2542.69 643.71 2543 643.83 2543.2799999999997Z"
		transform="matrix(1,0,0,1,-641,-2531)"/>
</svg>
