<svg
	version="1.1"
	xmlns="http://www.w3.org/2000/svg"
	xmlns:xlink="http://www.w3.org/1999/xlink"
	xmlns:svgjs="http://svgjs.com/svgjs"
	width="38"
	height="34"
	viewBox="0 0 38 34">
	<path
		d="M412 2858V2876H405.5V2858ZM412 2878C413.11 2878 414 2877.11 414 2876V2858C414 2856.9 413.11 2856 412 2856H405.5V2851C405.5 2849.9 404.61 2849 403.5 2849H385.5C384.4 2849 383.5 2849.9 383.5 2851V2856H378C376.9 2856 376 2856.9 376 2858V2869C376 2870.11 376.9 2871 378 2871H383.5V2881C383.5 2882.11 384.4 2883 385.5 2883H403.5C404.61 2883 405.5 2882.11 405.5 2881V2878ZM385.5 2851H403.5V2881H385.5V2871H389C390.11 2871 391 2870.11 391 2869V2858C391 2856.9 390.11 2856 389 2856H385.5ZM389 2869H378V2858H389Z"
		transform="matrix(1,0,0,1,-376,-2849)"/>
</svg>
