<svg
	version="1.1"
	xmlns="http://www.w3.org/2000/svg"
	xmlns:xlink="http://www.w3.org/1999/xlink"
	xmlns:svgjs="http://svgjs.com/svgjs"
	width="26"
	height="34"
	viewBox="0 0 26 34">
	<path
		d="M1114.69 2916.56C1114.23 2916.95 1113.91 2917.45 1113.71 2918H1108.29C1108.1 2917.45 1107.77 2916.95 1107.31 2916.56L1105.01 2914.65C1104.01 2913.82 1103.44 2912.62 1103.44 2911.35V2908H1118.56V2911.35C1118.56 2912.62 1117.99 2913.8199999999997 1116.99 2914.65ZM1117.15 2923.75C1118.0500000000002 2924.57 1118.5600000000002 2925.73 1118.5600000000002 2926.92V2930H1103.4400000000003V2926.92C1103.4400000000003 2925.73 1103.9500000000003 2924.57 1104.8600000000004 2923.75L1107.4200000000003 2921.42C1107.8500000000004 2921.03 1108.1400000000003 2920.53 1108.3100000000004 2920H1113.6900000000005C1113.8600000000006 2920.53 1114.1500000000005 2921.03 1114.5800000000006 2921.42ZM1121.15 2932C1121.6100000000001 2932 1121.98 2932.37 1121.98 2932.82V2934H1100.02V2932.82C1100.02 2932.3700000000003 1100.3899999999999 2932 1100.85 2932ZM1100.85 2906C1100.3899999999999 2906 1100.02 2905.63 1100.02 2905.18V2904H1121.98V2905.18C1121.98 2905.6299999999997 1121.6100000000001 2906 1121.15 2906ZM1118.29 2916.18C1119.74 2914.97 1120.58 2913.21 1120.58 2911.35V2908H1121.1599999999999C1122.7199999999998 2908 1123.9999999999998 2906.73 1123.9999999999998 2905.18V2902H1097.9999999999998V2905.18C1097.9999999999998 2906.73 1099.2799999999997 2908 1100.8499999999997 2908H1101.4199999999996V2911.35C1101.4199999999996 2913.21 1102.2599999999995 2914.97 1103.7099999999996 2916.18L1106.0099999999995 2918.0899999999997C1106.2899999999995 2918.3299999999995 1106.4499999999996 2918.6499999999996 1106.4599999999996 2919.0099999999998C1106.4699999999996 2919.37 1106.3299999999995 2919.7 1106.0599999999995 2919.9399999999996L1103.4899999999996 2922.2799999999997C1102.1799999999996 2923.4799999999996 1101.4199999999996 2925.1699999999996 1101.4199999999996 2926.9199999999996V2929.9999999999995H1100.8499999999997C1099.2799999999997 2929.9999999999995 1097.9999999999998 2931.2699999999995 1097.9999999999998 2932.8199999999997V2935.9999999999995H1123.9999999999998V2932.8199999999997C1123.9999999999998 2931.2699999999995 1122.7199999999998 2929.9999999999995 1121.1599999999999 2929.9999999999995H1120.58V2926.9199999999996C1120.58 2925.1699999999996 1119.83 2923.4799999999996 1118.51 2922.2799999999997L1115.94 2919.9399999999996C1115.67 2919.7 1115.53 2919.3699999999994 1115.54 2919.0099999999998C1115.55 2918.6499999999996 1115.71 2918.33 1115.99 2918.0899999999997Z"
		transform="matrix(1,0,0,1,-1098,-2902)"/>
</svg>
