<svg
	version="1.1"
	xmlns="http://www.w3.org/2000/svg"
	xmlns:xlink="http://www.w3.org/1999/xlink"
	xmlns:svgjs="http://svgjs.com/svgjs"
	width="19"
	height="18"
	viewBox="0 0 19 18">
	<path
		d="M1219.19 73.7C1219.02 73.53 1219 73.26 1219.14 73.05C1221.0500000000002 70.11999999999999 1220.6000000000001 66.09 1217.7800000000002 63.69C1215.0700000000002 61.37 1210.9500000000003 61.449999999999996 1208.3200000000002 63.86C1205.3000000000002 66.63 1205.2300000000002 71.34 1208.0900000000001 74.2C1210.5300000000002 76.65 1214.3100000000002 76.94 1217.0900000000001 75.11C1217.3000000000002 74.97 1217.5700000000002 74.99 1217.7500000000002 75.17L1222.3900000000003 79.85C1222.5900000000004 80.05 1222.9200000000003 80.05 1223.1200000000003 79.85L1223.8500000000004 79.11999999999999C1224.0500000000004 78.91999999999999 1224.0500000000004 78.6 1223.8500000000004 78.38999999999999ZM1209.55 65.54C1211.53 63.550000000000004 1214.77 63.550000000000004 1216.75 65.54C1218.74 67.52000000000001 1218.74 70.76 1216.75 72.75C1214.77 74.74 1211.53 74.74 1209.55 72.75C1207.56 70.76 1207.56 67.52 1209.55 65.54Z"
		transform="matrix(1,0,0,1,-1205,-62)"/>
</svg>
