<svg
	version="1.1"
	xmlns="http://www.w3.org/2000/svg"
	xmlns:xlink="http://www.w3.org/1999/xlink"
	xmlns:svgjs="http://svgjs.com/svgjs"
	width="19"
	height="14"
	viewBox="0 0 19 14">
	<path
		d="M471.85 1607.72L466.69 1602.18C466.35 1601.8100000000002 465.71 1602.05 465.71 1602.55V1604.5C465.71 1604.68 465.57 1604.83 465.38 1604.85C459.7 1605.4699999999998 454.84 1609.25 453.06 1614.62C452.71 1615.6699999999998 454.06 1616.4699999999998 454.86 1615.6799999999998L454.90000000000003 1615.6499999999999C457.65000000000003 1612.9399999999998 461.42 1611.4199999999998 465.34000000000003 1611.4199999999998C465.54 1611.4199999999998 465.71000000000004 1611.58 465.71000000000004 1611.7699999999998V1613.6199999999997C465.71000000000004 1614.1199999999997 466.35 1614.3599999999997 466.69000000000005 1613.9899999999996L471.8500000000001 1608.4499999999996C472.05000000000007 1608.2399999999996 472.05000000000007 1607.9299999999996 471.8500000000001 1607.7199999999996"
		transform="matrix(1,0,0,1,-453,-1602)"/>
</svg>
