<svg
	version="1.1"
	xmlns="http://www.w3.org/2000/svg"
	xmlns:xlink="http://www.w3.org/1999/xlink"
	xmlns:svgjs="http://svgjs.com/svgjs"
	width="25"
	height="25"
	viewBox="0 0 25 25">
	<path
		d="M161.5 1680.15L165.56 1673.64L165.96 1673H180.58L180.98000000000002 1673.64L185.04000000000002 1680.15L185.54000000000002 1680.95L184.97000000000003 1681.71L174.34000000000003 1695.67L173.27000000000004 1697.0800000000002L172.20000000000005 1695.67L161.57000000000005 1681.71L161.00000000000006 1680.95ZM162.64 1680.88L173.26999999999998 1694.8400000000001L183.89999999999998 1680.88L179.83999999999997 1674.3600000000001H166.7Z"
		transform="matrix(1,0,0,1,-161,-1673)"/>
	<path
		d="M172.57 1675.09L176.56 1680.76L176.95 1681.31L178.04999999999998 1680.52L177.66 1679.96L173.15 1673.56L172.76000000000002 1673L172.43 1673.23L172.3 1673.13L172.01000000000002 1673.5400000000002L171.66000000000003 1673.7900000000002L171.75000000000003 1673.9200000000003L167.39000000000001 1680.1000000000004L167.00000000000003 1680.6500000000003L168.10000000000002 1681.4400000000003L168.49 1680.8900000000003Z"
		transform="matrix(1,0,0,1,-161,-1673)"/>
	<path
		d="M171.87 1695.71L165 1675.08L166.28 1674.6499999999999L166.06 1673.9999999999998L166.28 1674.6499999999999L172.62 1693.6699999999998L178.96 1674.6499999999999L179.17000000000002 1673.9999999999998L179.56 1674.6499999999999L180.24 1675.08L173.36 1695.71L173.33 1695.81L173.37 1695.9199999999998L173.28 1695.9499999999998L173.15 1696.36L172.62 1696.1799999999998L172.09 1696.36L171.95000000000002 1695.9499999999998L171.87 1695.9199999999998L171.91 1695.81Z"
		transform="matrix(1,0,0,1,-161,-1673)"/>
	<path
		d="M161.67 1681.36H182.92999999999998H183.60999999999999V1680H182.92999999999998H161.67H161V1681.36Z"
		transform="matrix(1,0,0,1,-161,-1673)"/>
</svg>
