<svg
	version="1.1"
	xmlns="http://www.w3.org/2000/svg"
	xmlns:xlink="http://www.w3.org/1999/xlink"
	xmlns:svgjs="http://svgjs.com/svgjs"
	width="68"
	height="69"
	viewBox="0 0 68 69">
	<path
		d="M691.76 2173.75C689.23 2173.77 687.1 2172.25 686.31 2169.89C686.28 2169.7999999999997 686.25 2169.71 686.2299999999999 2169.62C685.3699999999999 2166.5899999999997 687.0299999999999 2163.43 690.0199999999999 2162.41L737.9099999999999 2146.2599999999998C738.4899999999999 2146.0899999999997 739.0799999999998 2145.9999999999995 739.6599999999999 2145.9999999999995C742.2499999999999 2145.9799999999996 744.4499999999998 2147.5299999999997 745.2599999999999 2149.9399999999996L745.3299999999999 2150.1699999999996C746.2299999999999 2153.3299999999995 743.9999999999999 2156.1399999999994 741.3299999999999 2157.0399999999995C741.3299999999999 2157.0499999999997 740.8499999999999 2157.2099999999996 693.6999999999999 2173.4199999999996C693.0699999999999 2173.6299999999997 692.41 2173.74 691.7599999999999 2173.7499999999995Z"
		fill="#70cadb"
		transform="matrix(1,0,0,1,-686,-2137)"/>
	<path
		d="M699.78 2197.98C697.24 2197.9900000000002 695.0899999999999 2196.5 694.31 2194.17C694.28 2194.08 694.26 2193.9900000000002 694.2299999999999 2193.9C693.3599999999999 2190.84 695.0199999999999 2187.64 698.0199999999999 2186.62L745.9199999999998 2170.3199999999997C746.5299999999999 2170.1099999999997 747.1699999999998 2170.0099999999998 747.8199999999998 2169.9999999999995C750.3699999999998 2169.9799999999996 752.6099999999998 2171.5499999999997 753.3999999999999 2173.9099999999994L753.4699999999999 2174.149999999999C753.9399999999999 2175.7799999999993 753.66 2177.609999999999 752.7399999999999 2179.059999999999C752.06 2180.129999999999 749.8899999999999 2181.0699999999993 749.8899999999999 2181.0699999999993L701.8199999999998 2197.629999999999C701.1499999999999 2197.849999999999 700.4599999999998 2197.9699999999993 699.7799999999999 2197.979999999999Z"
		fill="#e01765"
		transform="matrix(1,0,0,1,-686,-2137)"/>
	<path
		d="M739.92 2197.66C737.37 2197.68 735.11 2196.06 734.29 2193.6299999999997L718.31 2145.8199999999997L718.2299999999999 2145.5499999999997C717.3599999999999 2142.5099999999998 719.0299999999999 2139.33 722.0099999999999 2138.31C722.6099999999999 2138.11 723.2299999999999 2138.0099999999998 723.8499999999999 2138C724.7699999999999 2137.99 725.67 2138.2 726.5099999999999 2138.62C727.9199999999998 2139.33 728.9699999999999 2140.54 729.4699999999999 2142.04L745.4499999999999 2189.84L745.4999999999999 2189.9900000000002C746.3999999999999 2193.1600000000003 744.7399999999999 2196.34 741.7499999999999 2197.3500000000004C741.1599999999999 2197.55 740.5499999999998 2197.6600000000003 739.9199999999998 2197.6600000000003Z"
		fill="#e8a723"
		transform="matrix(1,0,0,1,-686,-2137)"/>
	<path
		d="M715.92 2205.66C713.37 2205.68 711.0999999999999 2204.0499999999997 710.29 2201.62L694.31 2153.8199999999997C694.28 2153.7299999999996 694.25 2153.64 694.2299999999999 2153.5499999999997C693.3599999999999 2150.4999999999995 695.0199999999999 2147.3199999999997 698.0099999999999 2146.31C698.5999999999999 2146.11 699.2199999999999 2146.0099999999998 699.8399999999999 2146C702.3899999999999 2145.98 704.66 2147.6 705.4699999999999 2150.04L721.4499999999999 2197.84C721.4799999999999 2197.92 721.5099999999999 2198.01 721.53 2198.1000000000004C722.4 2201.1500000000005 720.74 2204.3300000000004 717.75 2205.3500000000004C717.16 2205.55 716.54 2205.6500000000005 715.92 2205.6600000000003Z"
		fill="#3eb890"
		transform="matrix(1,0,0,1,-686,-2137)"/>
	<path
		d="M731.66 2186.73L742.8 2182.89L739.16 2172L728 2175.8Z"
		fill="#cc2027"
		transform="matrix(1,0,0,1,-686,-2137)"/>
	<path
		d="M708.68 2194.81L719.8299999999999 2190.98L716.16 2180L705 2183.8Z"
		fill="#361238"
		transform="matrix(1,0,0,1,-686,-2137)"/>
	<path
		d="M723.62 2163.6L734.77 2159.77L731.17 2149L720 2152.77Z"
		fill="#65863a"
		transform="matrix(1,0,0,1,-686,-2137)"/>
	<path
		d="M700.67 2171.74L711.81 2167.8999999999996L708.17 2156.9999999999995L697 2160.7699999999995L700.67 2171.7399999999993Z"
		fill="#1a937d"
		transform="matrix(1,0,0,1,-686,-2137)"/>
</svg>
