<svg
	version="1.1"
	xmlns="http://www.w3.org/2000/svg"
	xmlns:xlink="http://www.w3.org/1999/xlink"
	xmlns:svgjs="http://svgjs.com/svgjs"
	width="46"
	height="22"
	viewBox="0 0 46 22">
	<path
		d="M110.84 4964.81C110.83 4964.700000000001 110.8 4964.54 110.8 4964.39C110.8 4963.13 111.75 4962 113.39999999999999 4962C114.99999999999999 4962 115.96 4963.04 115.96 4964.29C115.96 4965.23 115.42999999999999 4966.01 114.55 4966.55L113.14 4967.42C112.79 4967.63 112.5 4967.89 112.4 4968.25H116V4969.44H110.74C110.75999999999999 4968.2 111.19999999999999 4967.219999999999 112.46 4966.429999999999L113.66999999999999 4965.679999999999C114.32 4965.28 114.6 4964.839999999999 114.6 4964.3099999999995C114.6 4963.719999999999 114.19 4963.179999999999 113.36999999999999 4963.179999999999C112.52 4963.179999999999 112.10999999999999 4963.7699999999995 112.10999999999999 4964.53C112.10999999999999 4964.639999999999 112.12999999999998 4964.7699999999995 112.13999999999999 4964.9ZM105.26 4965.8C105.26 4966.7300000000005 105.43 4967.43 105.78 4967.88C106.02 4968.21 106.37 4968.42 106.9 4968.42C107.43 4968.42 107.76 4968.21 108.02000000000001 4967.88C108.37 4967.43 108.53000000000002 4966.7300000000005 108.53000000000002 4965.8C108.53000000000002 4964.88 108.37000000000002 4964.18 108.02000000000001 4963.7300000000005C107.76 4963.400000000001 107.43 4963.1900000000005 106.9 4963.1900000000005C106.37 4963.1900000000005 106.02000000000001 4963.400000000001 105.78 4963.7300000000005C105.42 4964.18 105.26 4964.88 105.26 4965.8ZM103.92 4965.8C103.92 4964.84 104.08 4963.93 104.57000000000001 4963.1900000000005C105.05000000000001 4962.4800000000005 105.81 4962.000000000001 106.9 4962.000000000001C107.99000000000001 4962.000000000001 108.74000000000001 4962.4800000000005 109.21000000000001 4963.1900000000005C109.7 4963.93 109.86000000000001 4964.84 109.86000000000001 4965.8C109.86000000000001 4966.77 109.70000000000002 4967.68 109.21000000000001 4968.42C108.74000000000001 4969.13 107.99000000000001 4969.61 106.9 4969.61C105.81 4969.61 105.05000000000001 4969.13 104.57000000000001 4968.42C104.08000000000001 4967.68 103.92 4966.77 103.92 4965.8ZM70 4983.71V4962.61H73.91V4965.42C75.21 4963.1 77.82 4962 80.25 4962C82.86 4962 85.38 4963.27 86.51 4965.99C88.16000000000001 4962.96 90.85000000000001 4962 93.5 4962C97.15 4962 100.71 4964.5 100.71 4970.02V4983.71H96.66999999999999V4970.46C96.66999999999999 4967.7 95.32 4965.64 92.23999999999998 4965.64C89.36999999999998 4965.64 87.41999999999999 4967.92 87.41999999999999 4970.950000000001V4983.710000000001H83.32999999999998V4970.460000000001C83.32999999999998 4967.740000000001 82.02999999999999 4965.640000000001 78.89999999999998 4965.640000000001C75.98999999999998 4965.640000000001 74.03999999999998 4967.830000000001 74.03999999999998 4970.990000000002V4983.710000000002Z"
		transform="matrix(1,0,0,1,-70,-4962)"/>
</svg>
