<svg
	version="1.1"
	xmlns="http://www.w3.org/2000/svg"
	xmlns:xlink="http://www.w3.org/1999/xlink"
	xmlns:svgjs="http://svgjs.com/svgjs"
	width="18"
	height="17"
	viewBox="0 0 18 17">
	<path
		d="M638.03 1701.32C638.1 1701.56 638.31 1701.74 638.54 1701.74H643.4699999999999C643.9799999999999 1701.74 644.1999999999999 1702.41 643.7799999999999 1702.72L639.7999999999998 1705.74C639.6099999999998 1705.88 639.5299999999999 1706.13 639.5999999999998 1706.36L641.1199999999998 1711.27C641.2799999999997 1711.78 640.7199999999998 1712.21 640.2999999999997 1711.8899999999999L636.3099999999997 1708.85C636.1299999999998 1708.6999999999998 635.8699999999997 1708.6999999999998 635.6899999999997 1708.85L631.6999999999997 1711.8899999999999C631.2799999999997 1712.1999999999998 630.7199999999997 1711.77 630.8799999999997 1711.2599999999998L632.3999999999996 1706.3499999999997C632.4699999999997 1706.1199999999997 632.3899999999996 1705.8699999999997 632.2099999999996 1705.7299999999998L628.2199999999996 1702.7199999999998C627.7999999999996 1702.4099999999999 628.0199999999995 1701.7399999999998 628.5299999999995 1701.7399999999998H633.4599999999995C633.6899999999995 1701.7399999999998 633.8999999999995 1701.5599999999997 633.9699999999995 1701.3199999999997L635.4899999999994 1696.3899999999996C635.6499999999994 1695.8799999999997 636.3499999999995 1695.8699999999997 636.5099999999994 1696.3799999999997Z"
		transform="matrix(1,0,0,1,-627,-1696)"/>
</svg>
