<svg
	version="1.1"
	xmlns="http://www.w3.org/2000/svg"
	xmlns:xlink="http://www.w3.org/1999/xlink"
	xmlns:svgjs="http://svgjs.com/svgjs"
	width="18"
	height="15"
	viewBox="0 0 18 15">
	<path
		d="M934.66 44.26C934.1999999999999 44.489999999999995 934.18 45.19 934.61 45.53L935.97 46.56L933.61 50.49L930.26 47.21C930.06 47.03 929.8 46.96 929.55 47C929.3 47.04 929.0699999999999 47.2 928.93 47.44L924.16 54.39C923.87 54.87 923.98 55.51 924.41 55.82C924.56 55.94 924.74 56 924.92 56C925.2099999999999 56 925.5 55.84 925.68 55.55L929.9 49.51L933.27 52.809999999999995C933.47 52.989999999999995 933.73 53.06999999999999 933.99 53.019999999999996C934.24 52.97 934.47 52.809999999999995 934.61 52.559999999999995L937.49 47.73L938.78 48.72C939.2099999999999 49.05 939.78 48.76 939.8 48.199999999999996L940 42.809999999999995C940.02 42.24999999999999 939.48 41.839999999999996 939.02 42.059999999999995Z"
		transform="matrix(1,0,0,1,-923,-41)"/>
</svg>
