<svg
	version="1.1"
	xmlns="http://www.w3.org/2000/svg"
	xmlns:xlink="http://www.w3.org/1999/xlink"
	xmlns:svgjs="http://svgjs.com/svgjs"
	width="60"
	height="45"
	viewBox="0 0 60 45">
	<path
		d="M516.85 3055.7C517.32 3055.7 517.7 3055.3199999999997 517.7 3054.85C517.7 3054.38 517.32 3054 516.85 3054H512.85C512.38 3054 512 3054.38 512 3054.85C512 3055.3199999999997 512.38 3055.7 512.85 3055.7ZM504.85 3056.13C504.97 3056.13 505.09000000000003 3056.11 505.20000000000005 3056.05C505.72 3055.82 506.26000000000005 3055.7000000000003 506.83000000000004 3055.7000000000003H508.79C509.26000000000005 3055.7000000000003 509.64000000000004 3055.32 509.64000000000004 3054.8500000000004C509.64000000000004 3054.3800000000006 509.26000000000005 3054.0000000000005 508.79 3054.0000000000005H506.83000000000004C506.02000000000004 3054.0000000000005 505.23 3054.1700000000005 504.50000000000006 3054.5100000000007C504.07000000000005 3054.7000000000007 503.88000000000005 3055.2100000000005 504.08000000000004 3055.640000000001C504.22 3055.9500000000007 504.53000000000003 3056.1300000000006 504.85 3056.1300000000006ZM501.85 3062.67C502.32000000000005 3062.67 502.70000000000005 3062.29 502.70000000000005 3061.82V3059.44C502.70000000000005 3058.9900000000002 502.77000000000004 3058.54 502.91 3058.12C503.06 3057.68 502.82000000000005 3057.19 502.38000000000005 3057.0499999999997C501.93000000000006 3056.89 501.45000000000005 3057.14 501.30000000000007 3057.58C501.1000000000001 3058.18 501.00000000000006 3058.7999999999997 501.00000000000006 3059.44V3061.82C501.00000000000006 3062.29 501.38000000000005 3062.67 501.8500000000001 3062.67ZM535.39 3055.7C535.86 3055.7 536.24 3055.3199999999997 536.24 3054.85C536.24 3054.38 535.86 3054 535.39 3054H531.39C530.92 3054 530.54 3054.38 530.54 3054.85C530.54 3055.3199999999997 530.92 3055.7 531.39 3055.7ZM527.39 3055.7C527.86 3055.7 528.24 3055.3199999999997 528.24 3054.85C528.24 3054.38 527.86 3054 527.39 3054H520.39C519.92 3054 519.54 3054.38 519.54 3054.85C519.54 3055.3199999999997 519.92 3055.7 520.39 3055.7ZM544.10034 3055.64C544.30034 3055.21 544.11034 3054.7 543.68034 3054.5099999999998C542.95034 3054.1699999999996 542.16034 3053.9999999999995 541.35034 3053.9999999999995H539.3903399999999C538.9203399999999 3053.9999999999995 538.5403399999999 3054.3799999999997 538.5403399999999 3054.8499999999995C538.5403399999999 3055.3199999999993 538.9203399999999 3055.6999999999994 539.3903399999999 3055.6999999999994H541.35034C541.9103399999999 3055.6999999999994 542.46034 3055.8199999999993 542.97034 3056.0499999999993C543.09034 3056.109999999999 543.21034 3056.129999999999 543.33034 3056.129999999999C543.65034 3056.129999999999 543.96034 3055.9499999999994 544.10034 3055.6399999999994ZM547.03464 3062.15V3059.77C547.03464 3059.13 546.93464 3058.5099999999998 546.73464 3057.91C546.58464 3057.46 546.10464 3057.22 545.65464 3057.37C545.2046399999999 3057.52 544.9646399999999 3058 545.11464 3058.45C545.26464 3058.87 545.33464 3059.31 545.33464 3059.77V3062.15C545.33464 3062.62 545.71464 3063 546.1846400000001 3063C546.6546400000001 3063 547.0346400000001 3062.62 547.0346400000001 3062.15Z"
		fill="#43484d"
		transform="matrix(1,0,0,1,-495,-3034)"/>
	<path
		d="M526.82 3070.7H522.85C522.38 3070.7 522 3070.3199999999997 522 3069.85C522 3069.38 522.38 3069 522.85 3069H526.82C527.2900000000001 3069 527.6700000000001 3069.38 527.6700000000001 3069.85C527.6700000000001 3070.3199999999997 527.2900000000001 3070.7 526.82 3070.7"
		fill="#43484d"
		transform="matrix(1,0,0,1,-495,-3034)"/>
	<path
		d="M536.09 3048.32H512C510.9 3048.32 510 3047.42 510 3046.32V3037C510 3035.9 510.9 3035 512 3035H536.09C537.19 3035 538.09 3035.9 538.09 3037V3046.32C538.09 3047.42 537.19 3048.32 536.09 3048.32"
		fill="#e0e7ed"
		transform="matrix(1,0,0,1,-495,-3034)"/>
	<path
		d="M508.32 3070.74C508.32 3073.9399999999996 505.71 3076.5499999999997 502.51 3076.5499999999997C499.31 3076.5499999999997 496.7 3073.9399999999996 496.7 3070.74V3070.5099999999998C496.7 3067.31 499.31 3064.7 502.51 3064.7C505.71 3064.7 508.32 3067.31 508.32 3070.5099999999998ZM495 3070.51V3070.7400000000002C495 3074.88 498.37 3078.2500000000005 502.51 3078.2500000000005C506.65 3078.2500000000005 510.02 3074.8800000000006 510.02 3070.7400000000002V3070.51C510.02 3066.3700000000003 506.65 3063 502.51 3063C498.37 3063 495 3066.37 495 3070.51Z"
		fill="#43484d"
		transform="matrix(1,0,0,1,-495,-3034)"/>
	<path
		d="M502.85 3067C502.38 3067 502 3067.38 502 3067.85V3071.8199999999997C502 3072.2899999999995 502.38 3072.6699999999996 502.85 3072.6699999999996C503.32000000000005 3072.6699999999996 503.70000000000005 3072.2899999999995 503.70000000000005 3071.8199999999997V3067.85C503.70000000000005 3067.38 503.32000000000005 3067 502.85 3067"
		fill="#43484d"
		transform="matrix(1,0,0,1,-495,-3034)"/>
	<path
		d="M552.32 3070.74C552.32 3073.9399999999996 549.71 3076.5499999999997 546.5100000000001 3076.5499999999997C543.3100000000001 3076.5499999999997 540.7000000000002 3073.9399999999996 540.7000000000002 3070.74V3070.5099999999998C540.7000000000002 3067.31 543.3100000000002 3064.7 546.5100000000001 3064.7C549.7100000000002 3064.7 552.32 3067.31 552.32 3070.5099999999998ZM539 3070.51V3070.7400000000002C539 3074.88 542.37 3078.2500000000005 546.51 3078.2500000000005C550.65 3078.2500000000005 554.02 3074.8800000000006 554.02 3070.7400000000002V3070.51C554.02 3066.3700000000003 550.65 3063 546.51 3063C542.37 3063 539 3066.37 539 3070.51Z"
		fill="#43484d"
		transform="matrix(1,0,0,1,-495,-3034)"/>
	<path
		d="M546.85 3067C546.38 3067 546 3067.38 546 3067.85V3071.8199999999997C546 3072.2899999999995 546.38 3072.6699999999996 546.85 3072.6699999999996C547.32 3072.6699999999996 547.7 3072.2899999999995 547.7 3071.8199999999997V3067.85C547.7 3067.38 547.32 3067 546.85 3067"
		fill="#43484d"
		transform="matrix(1,0,0,1,-495,-3034)"/>
	<path
		d="M538.09 3046.17C538.09 3046.8 537.57 3047.32 536.94 3047.32H512.85C512.22 3047.32 511.70000000000005 3046.8 511.70000000000005 3046.17V3036.85C511.70000000000005 3036.21 512.22 3035.7 512.85 3035.7H536.94C537.57 3035.7 538.09 3036.21 538.09 3036.85ZM528.58 3064.66C529.7700000000001 3064.66 530.73 3065.6299999999997 530.73 3066.81V3074.36C530.73 3075.55 529.77 3076.51 528.58 3076.51H521.26C520.08 3076.51 519.11 3075.55 519.11 3074.36V3066.81C519.11 3065.63 520.08 3064.66 521.26 3064.66ZM539.79 3036.85C539.79 3035.2799999999997 538.51 3034 536.9399999999999 3034H512.8499999999999C511.2799999999999 3034 509.9999999999999 3035.28 509.9999999999999 3036.85V3046.17C509.9999999999999 3047.7400000000002 511.27999999999986 3049.02 512.8499999999999 3049.02H524.0699999999999V3062.96H521.26C519.14 3062.96 517.41 3064.69 517.41 3066.81V3074.36C517.41 3076.48 519.14 3078.21 521.26 3078.21H528.58C530.71 3078.21 532.4300000000001 3076.48 532.4300000000001 3074.36V3066.81C532.4300000000001 3064.69 530.71 3062.96 528.58 3062.96H525.7700000000001V3049.02H536.94C538.5100000000001 3049.02 539.7900000000001 3047.74 539.7900000000001 3046.17Z"
		fill="#43484d"
		transform="matrix(1,0,0,1,-495,-3034)"/>
	<path
		d="M528.35 3040H520.85C520.38 3040 520 3040.38 520 3040.85C520 3041.3199999999997 520.38 3041.7 520.85 3041.7H528.35C528.82 3041.7 529.2 3041.3199999999997 529.2 3040.85C529.2 3040.38 528.82 3040 528.35 3040"
		fill="#43484d"
		transform="matrix(1,0,0,1,-495,-3034)"/>
</svg>
