<svg
	version="1.1"
	xmlns="http://www.w3.org/2000/svg"
	xmlns:xlink="http://www.w3.org/1999/xlink"
	xmlns:svgjs="http://svgjs.com/svgjs"
	width="60"
	height="60"
	viewBox="0 0 60 60">
	<path
		d="M261.79 1903.14C261.19 1903.14 260.72 1902.66 260.72 1902.0700000000002C260.72 1901.4800000000002 261.19000000000005 1901.0000000000002 261.79 1901.0000000000002H266.82C267.42 1901.0000000000002 267.9 1901.4800000000002 267.9 1902.0700000000002C267.9 1902.66 267.41999999999996 1903.14 266.82 1903.14ZM271.86 1903.14C271.27000000000004 1903.14 270.79 1902.66 270.79 1902.0700000000002C270.79 1901.4800000000002 271.27000000000004 1901.0000000000002 271.86 1901.0000000000002H276.90000000000003C277.49 1901.0000000000002 277.97 1901.4800000000002 277.97 1902.0700000000002C277.97 1902.66 277.49 1903.14 276.90000000000003 1903.14ZM281.94 1903.14C281.35 1903.14 280.87 1902.66 280.87 1902.0700000000002C280.87 1901.4800000000002 281.35 1901.0000000000002 281.94 1901.0000000000002H286.98C287.57 1901.0000000000002 288.05 1901.4800000000002 288.05 1902.0700000000002C288.05 1902.66 287.57 1903.14 286.98 1903.14ZM292.02 1903.14C291.41999999999996 1903.14 290.94 1902.66 290.94 1902.0700000000002C290.94 1901.4800000000002 291.42 1901.0000000000002 292.02 1901.0000000000002H297.04999999999995C297.65 1901.0000000000002 298.11999999999995 1901.4800000000002 298.11999999999995 1902.0700000000002C298.11999999999995 1902.66 297.6499999999999 1903.14 297.04999999999995 1903.14ZM302.09 1903.14C301.5 1903.14 301.02 1902.66 301.02 1902.0700000000002C301.02 1901.4800000000002 301.5 1901.0000000000002 302.09 1901.0000000000002H307.13C307.71999999999997 1901.0000000000002 308.2 1901.4800000000002 308.2 1902.0700000000002C308.2 1902.66 307.71999999999997 1903.14 307.13 1903.14ZM254 1905.44V1902.0700000000002C254 1901.4800000000002 254.48 1901.0000000000002 255.07 1901.0000000000002H256.75C257.34 1901.0000000000002 257.82 1901.4800000000002 257.82 1902.0700000000002C257.82 1902.66 257.34 1903.14 256.75 1903.14H256.14V1905.44C256.14 1906.03 255.66 1906.51 255.07 1906.51C254.48 1906.51 254 1906.03 254 1905.44ZM306.06 1912.16V1907.1100000000001C306.06 1906.5200000000002 306.54 1906.0400000000002 307.13 1906.0400000000002C307.71999999999997 1906.0400000000002 308.2 1906.5200000000002 308.2 1907.1100000000001V1912.16C308.2 1912.75 307.71999999999997 1913.23 307.13 1913.23C306.54 1913.23 306.06 1912.75 306.06 1912.16ZM254 1915.52V1910.48C254 1909.89 254.48 1909.41 255.07 1909.41C255.66 1909.41 256.14 1909.89 256.14 1910.48V1915.52C256.14 1916.12 255.66 1916.6 255.07 1916.6C254.48 1916.6 254 1916.12 254 1915.52ZM306.06 1922.25V1917.2C306.06 1916.6100000000001 306.54 1916.13 307.13 1916.13C307.71999999999997 1916.13 308.2 1916.6100000000001 308.2 1917.2V1922.25C308.2 1922.84 307.71999999999997 1923.32 307.13 1923.32C306.54 1923.32 306.06 1922.84 306.06 1922.25ZM254 1925.61V1920.57C254 1919.98 254.48 1919.5 255.07 1919.5C255.66 1919.5 256.14 1919.98 256.14 1920.57V1925.61C256.14 1926.2099999999998 255.66 1926.6899999999998 255.07 1926.6899999999998C254.48 1926.6899999999998 254 1926.2099999999998 254 1925.61ZM306.06 1932.34V1927.29C306.06 1926.7 306.54 1926.22 307.13 1926.22C307.71999999999997 1926.22 308.2 1926.7 308.2 1927.29V1932.34C308.2 1932.9299999999998 307.71999999999997 1933.4099999999999 307.13 1933.4099999999999C306.54 1933.4099999999999 306.06 1932.9299999999998 306.06 1932.34ZM254 1935.7V1930.66C254 1930.0700000000002 254.48 1929.5900000000001 255.07 1929.5900000000001C255.66 1929.5900000000001 256.14 1930.0700000000002 256.14 1930.66V1935.7C256.14 1936.3 255.66 1936.78 255.07 1936.78C254.48 1936.78 254 1936.3 254 1935.7ZM306.06 1942.42V1937.38C306.06 1936.7900000000002 306.54 1936.3100000000002 307.13 1936.3100000000002C307.71999999999997 1936.3100000000002 308.2 1936.7900000000002 308.2 1937.38V1942.42C308.2 1943.02 307.71999999999997 1943.5 307.13 1943.5C306.54 1943.5 306.06 1943.02 306.06 1942.42ZM254 1945.79V1940.75C254 1940.16 254.48 1939.68 255.07 1939.68C255.66 1939.68 256.14 1940.16 256.14 1940.75V1945.79C256.14 1946.3899999999999 255.66 1946.86 255.07 1946.86C254.48 1946.86 254 1946.3899999999999 254 1945.79ZM255.07 1955.27C254.48 1955.27 254 1954.79 254 1954.2V1950.8400000000001C254 1950.2500000000002 254.48 1949.7700000000002 255.07 1949.7700000000002C255.66 1949.7700000000002 256.14 1950.2500000000002 256.14 1950.8400000000001V1953.13H256.75C257.34 1953.13 257.82 1953.6100000000001 257.82 1954.2C257.82 1954.79 257.34 1955.27 256.75 1955.27ZM261.79 1955.27C261.20000000000005 1955.27 260.72 1954.79 260.72 1954.2C260.72 1953.6100000000001 261.20000000000005 1953.13 261.79 1953.13H266.83000000000004C267.42 1953.13 267.90000000000003 1953.6100000000001 267.90000000000003 1954.2C267.90000000000003 1954.79 267.42 1955.27 266.83000000000004 1955.27ZM271.87 1955.27C271.27 1955.27 270.79 1954.79 270.79 1954.2C270.79 1953.6100000000001 271.27000000000004 1953.13 271.87 1953.13H276.9C277.5 1953.13 277.96999999999997 1953.6100000000001 277.96999999999997 1954.2C277.96999999999997 1954.79 277.49999999999994 1955.27 276.9 1955.27ZM281.94 1955.27C281.35 1955.27 280.87 1954.79 280.87 1954.2C280.87 1953.6100000000001 281.35 1953.13 281.94 1953.13H286.98C287.57 1953.13 288.05 1953.6100000000001 288.05 1954.2C288.05 1954.79 287.57 1955.27 286.98 1955.27ZM292.02 1955.27C291.43 1955.27 290.95 1954.79 290.95 1954.2C290.95 1953.6100000000001 291.43 1953.13 292.02 1953.13H297.06C297.65 1953.13 298.13 1953.6100000000001 298.13 1954.2C298.13 1954.79 297.65 1955.27 297.06 1955.27ZM307.13 1955.27C307.71999999999997 1955.27 308.2 1954.79 308.2 1954.2C308.2 1953.8600000000001 308.03999999999996 1953.55 307.78999999999996 1953.3600000000001C308.03999999999996 1953.16 308.2 1952.8600000000001 308.2 1952.5100000000002V1947.4700000000003C308.2 1946.8800000000003 307.71999999999997 1946.4000000000003 307.13 1946.4000000000003C306.54 1946.4000000000003 306.06 1946.8800000000003 306.06 1947.4700000000003V1952.5100000000002C306.06 1952.7400000000002 306.13 1952.9500000000003 306.25 1953.13H302.09C301.5 1953.13 301.02 1953.6100000000001 301.02 1954.2C301.02 1954.79 301.5 1955.27 302.09 1955.27Z"
		fill="#86939e"
		transform="matrix(1,0,0,1,-254,-1896)"/>
	<path
		d="M281.03 1928.06H254.99999999999997V1902H281.03Z"
		fill="#e0e7ed"
		transform="matrix(1,0,0,1,-254,-1896)"/>
	<path
		d="M256.14 1927.06H280.03V1903.1399999999999H256.14ZM255.07 1929.21C254.48 1929.21 254 1928.73 254 1928.14V1902.0700000000002C254 1901.4800000000002 254.48 1901.0000000000002 255.07 1901.0000000000002H281.1C281.69 1901.0000000000002 282.17 1901.4800000000002 282.17 1902.0700000000002V1928.14C282.17 1928.73 281.69 1929.21 281.1 1929.21Z"
		fill="#43484d"
		transform="matrix(1,0,0,1,-254,-1896)"/>
	<path
		d="M282.14 1953.06H306.03V1929.1399999999999H282.14ZM281.07 1955.21C280.48 1955.21 280 1954.73 280 1954.13V1928.0700000000002C280 1927.4800000000002 280.48 1927.0000000000002 281.07 1927.0000000000002H307.1C307.69 1927.0000000000002 308.17 1927.4800000000002 308.17 1928.0700000000002V1954.13C308.17 1954.73 307.69 1955.21 307.1 1955.21Z"
		fill="#43484d"
		transform="matrix(1,0,0,1,-254,-1896)"/>
	<path
		d="M273.95 1917.14C274.53999999999996 1917.14 275.02 1916.66 275.02 1916.0700000000002C275.02 1915.4800000000002 274.53999999999996 1915.0000000000002 273.95 1915.0000000000002H268.90999999999997C268.30999999999995 1915.0000000000002 267.84 1915.4800000000002 267.84 1916.0700000000002C267.84 1916.66 268.31 1917.14 268.90999999999997 1917.14ZM284.02 1917.14C284.60999999999996 1917.14 285.09 1916.66 285.09 1916.0700000000002C285.09 1915.4800000000002 284.60999999999996 1915.0000000000002 284.02 1915.0000000000002H278.97999999999996C278.39 1915.0000000000002 277.90999999999997 1915.4800000000002 277.90999999999997 1916.0700000000002C277.90999999999997 1916.66 278.39 1917.14 278.97999999999996 1917.14ZM292.84 1918.4C293.44 1918.4 293.90999999999997 1917.92 293.90999999999997 1917.3300000000002V1916.0700000000002C293.90999999999997 1915.4800000000002 293.43999999999994 1915.0000000000002 292.84 1915.0000000000002H289.06C288.47 1915.0000000000002 287.99 1915.4800000000002 287.99 1916.0700000000002C287.99 1916.66 288.47 1917.14 289.06 1917.14H291.77V1917.3300000000002C291.77 1917.92 292.25 1918.4 292.84 1918.4ZM268.07 1926.39C268.65999999999997 1926.39 269.14 1925.92 269.14 1925.3200000000002V1920.2800000000002C269.14 1919.6900000000003 268.65999999999997 1919.2100000000003 268.07 1919.2100000000003C267.48 1919.2100000000003 267 1919.6900000000003 267 1920.2800000000002V1925.3200000000002C267 1925.92 267.48 1926.39 268.07 1926.39ZM292.84 1928.49C293.44 1928.49 293.90999999999997 1928.01 293.90999999999997 1927.42V1922.3700000000001C293.90999999999997 1921.7800000000002 293.43999999999994 1921.3000000000002 292.84 1921.3000000000002C292.25 1921.3000000000002 291.77 1921.7800000000002 291.77 1922.3700000000001V1927.42C291.77 1928.01 292.25 1928.49 292.84 1928.49ZM268.07 1936.48C268.65999999999997 1936.48 269.14 1936 269.14 1935.41V1930.3700000000001C269.14 1929.7800000000002 268.65999999999997 1929.3000000000002 268.07 1929.3000000000002C267.48 1929.3000000000002 267 1929.7800000000002 267 1930.3700000000001V1935.41C267 1936 267.48 1936.48 268.07 1936.48ZM292.84 1938.58C293.44 1938.58 293.90999999999997 1938.1 293.90999999999997 1937.51V1932.46C293.90999999999997 1931.8700000000001 293.43999999999994 1931.39 292.84 1931.39C292.25 1931.39 291.77 1931.8700000000001 291.77 1932.46V1937.51C291.77 1938.1 292.25 1938.58 292.84 1938.58ZM272.69 1941.95C273.28 1941.95 273.76 1941.47 273.76 1940.88C273.76 1940.2800000000002 273.28 1939.8000000000002 272.69 1939.8000000000002H268.92C268.72 1939.5500000000002 268.42 1939.39 268.07 1939.39C267.48 1939.39 267 1939.8600000000001 267 1940.46V1940.88C267 1941.47 267.48 1941.95 268.07 1941.95ZM282.77 1941.95C283.35999999999996 1941.95 283.84 1941.47 283.84 1940.88C283.84 1940.2800000000002 283.35999999999996 1939.8000000000002 282.77 1939.8000000000002H277.72999999999996C277.14 1939.8000000000002 276.65999999999997 1940.2800000000002 276.65999999999997 1940.88C276.65999999999997 1941.47 277.14 1941.95 277.72999999999996 1941.95ZM287.8 1941.95C287.21000000000004 1941.95 286.73 1941.47 286.73 1940.88C286.73 1940.2800000000002 287.21000000000004 1939.8000000000002 287.8 1939.8000000000002H292.84000000000003C293.44000000000005 1939.8000000000002 293.91 1940.2800000000002 293.91 1940.88C293.91 1941.47 293.44 1941.95 292.84000000000003 1941.95Z"
		fill="#86939e"
		transform="matrix(1,0,0,1,-254,-1896)"/>
	<path
		d="M303.6 1898.59L305.78000000000003 1898.99C306.17 1899.06 306.57000000000005 1898.96 306.87 1898.71L308.59000000000003 1897.31C309.57000000000005 1896.52 311.00000000000006 1897.36 310.78000000000003 1898.6L310.38000000000005 1900.78C310.31000000000006 1901.17 310.41 1901.57 310.66 1901.8799999999999L312.06 1903.6C312.85 1904.58 312 1906.01 310.77 1905.79L308.59 1905.3899999999999C308.2 1905.32 307.79999999999995 1905.4199999999998 307.48999999999995 1905.6699999999998L305.7699999999999 1907.07C304.7999999999999 1907.86 303.3599999999999 1907.01 303.5899999999999 1905.78L303.9799999999999 1903.59C304.0599999999999 1903.1999999999998 303.94999999999993 1902.8 303.7099999999999 1902.5L302.30999999999995 1900.77C301.5199999999999 1899.8 302.35999999999996 1898.37 303.59999999999997 1898.59"
		fill="#fefefe"
		transform="matrix(1,0,0,1,-254,-1896)"/>
	<path
		d="M303.46 1899.69C303.26 1899.69 303.19 1899.81 303.16999999999996 1899.8500000000001C303.09999999999997 1900.0100000000002 303.17999999999995 1900.1100000000001 303.21 1900.14L304.60999999999996 1901.8700000000001C305.04999999999995 1902.42 305.23999999999995 1903.14 305.10999999999996 1903.8300000000002L304.71 1906.0200000000002C304.7 1906.1100000000001 304.71 1906.1800000000003 304.76 1906.2400000000002C304.86 1906.3600000000001 305.03 1906.4000000000003 305.15999999999997 1906.2800000000002L306.89 1904.88C307.43 1904.44 308.15 1904.25 308.84999999999997 1904.38L311.03 1904.7800000000002C311.27 1904.7900000000002 311.32 1904.6600000000003 311.34 1904.6200000000001C311.40999999999997 1904.46 311.33 1904.3600000000001 311.29999999999995 1904.3300000000002L309.9 1902.6000000000001C309.45 1902.0500000000002 309.27 1901.3400000000001 309.4 1900.64L309.78999999999996 1898.45C309.80999999999995 1898.3600000000001 309.78999999999996 1898.29 309.73999999999995 1898.23C309.65 1898.1100000000001 309.47999999999996 1898.07 309.34 1898.19L307.61999999999995 1899.5900000000001C307.0799999999999 1900.0300000000002 306.36999999999995 1900.2200000000003 305.65999999999997 1900.0900000000001L303.47999999999996 1899.69ZM303.12 1907.61C302.66 1907.07 302.48 1906.34 302.61 1905.6299999999999L303 1903.4499999999998C303.02 1903.37 302.99 1903.2799999999997 302.94 1903.2199999999998L301.54 1901.4999999999998C300.95000000000005 1900.7599999999998 300.83000000000004 1899.7799999999997 301.24 1898.9299999999998C301.71000000000004 1897.9399999999998 302.72 1897.37 303.86 1897.58L306.04 1897.98C306.16 1897.98 306.22 1897.96 306.27000000000004 1897.92L307.99000000000007 1896.52C309.00000000000006 1895.7 310.57000000000005 1895.8799999999999 311.39000000000004 1896.86C311.84000000000003 1897.3999999999999 312.03000000000003 1898.1299999999999 311.90000000000003 1898.84L311.50000000000006 1901.02C311.49000000000007 1901.1 311.51000000000005 1901.19 311.56000000000006 1901.25L312.96000000000004 1902.97C313.55 1903.71 313.67 1904.69 313.27000000000004 1905.54C312.8 1906.53 311.79 1907.1 310.65000000000003 1906.8899999999999L308.46000000000004 1906.4899999999998C308.34000000000003 1906.4899999999998 308.29 1906.5099999999998 308.24 1906.5499999999997L306.51 1907.9499999999998C306.07 1908.3099999999997 305.55 1908.4999999999998 305 1908.4999999999998C304.28 1908.4999999999998 303.58 1908.1699999999998 303.12 1907.6099999999997Z"
		fill="#43484d"
		transform="matrix(1,0,0,1,-254,-1896)"/>
</svg>
