<svg
	version="1.1"
	xmlns="http://www.w3.org/2000/svg"
	xmlns:xlink="http://www.w3.org/1999/xlink"
	xmlns:svgjs="http://svgjs.com/svgjs"
	width="36"
	height="47"
	viewBox="0 0 36 47">
	<path
		d="M910.77 3070.33H906.39H902V3036.5C902 3035.12 903.12 3034 904.5 3034H908.27C909.65 3034 910.77 3035.12 910.77 3036.5Z"
		fill="#e0e7ed"
		transform="matrix(1,0,0,1,-897,-3033)"/>
	<path
		d="M909.78 3071.15H902.7099999999999V3072.39C902.7099999999999 3072.8199999999997 902.8199999999999 3073.24 903.0199999999999 3073.6099999999997L906.2399999999999 3077.5599999999995L909.4599999999999 3073.6099999999997C909.67 3073.24 909.78 3072.8199999999997 909.78 3072.39ZM909.78 3041.22C907.5899999999999 3041.2 904.9499999999999 3041.1699999999996 902.7099999999999 3041.1699999999996V3069.3299999999995H909.78ZM904.36 3034.7C903.45 3034.7 902.71 3035.4399999999996 902.71 3036.35V3039.46C904.4300000000001 3039.46 906.72 3039.48 909.7800000000001 3039.52V3036.35C909.7800000000001 3035.44 909.0400000000001 3034.7 908.1300000000001 3034.7ZM908.13 3033C909.98 3033 911.48 3034.5 911.48 3036.35V3070.18C911.48 3070.2 911.47 3070.22 911.47 3070.24C911.47 3070.2599999999998 911.48 3070.2799999999997 911.48 3070.2999999999997V3072.39C911.48 3073.14 911.28 3073.8799999999997 910.89 3074.5299999999997C910.87 3074.5699999999997 910.85 3074.6 910.8199999999999 3074.6299999999997L906.9 3079.4399999999996C906.74 3079.6399999999994 906.5 3079.7499999999995 906.24 3079.7499999999995C905.99 3079.7499999999995 905.74 3079.6399999999994 905.58 3079.4399999999996L901.6600000000001 3074.6299999999997C901.6400000000001 3074.5999999999995 901.6100000000001 3074.5699999999997 901.59 3074.5299999999997C901.21 3073.8799999999997 901.01 3073.14 901.01 3072.39V3070.2999999999997C901.01 3070.2799999999997 901.02 3070.2599999999998 901.02 3070.24C901.02 3070.22 901.01 3070.2 901.01 3070.18V3041.16C900.04 3041.16 899.24 3041.17 898.7 3041.18V3057.41C898.7 3057.8799999999997 898.32 3058.2599999999998 897.85 3058.2599999999998C897.38 3058.2599999999998 897 3057.8799999999997 897 3057.41V3040.3799999999997C897 3040.1499999999996 897.09 3039.93 897.25 3039.7699999999995C897.47 3039.5599999999995 897.57 3039.4599999999996 901.01 3039.4499999999994V3036.3499999999995C901.01 3034.4999999999995 902.51 3032.9999999999995 904.36 3032.9999999999995Z"
		fill="#43484d"
		transform="matrix(1,0,0,1,-897,-3033)"/>
	<path
		d="M911.85 3041.7C911.38 3041.7 911 3041.3199999999997 911 3040.85C911 3040.38 911.38 3040 911.85 3040H914.53C915 3040 915.38 3040.38 915.38 3040.85C915.38 3041.3199999999997 915 3041.7 914.53 3041.7ZM918.53 3041.7C918.06 3041.7 917.68 3041.3199999999997 917.68 3040.85C917.68 3040.38 918.06 3040 918.53 3040H922.53C923 3040 923.38 3040.38 923.38 3040.85C923.38 3041.3199999999997 923 3041.7 922.53 3041.7ZM930.03 3042.02C929.67 3041.81 929.25 3041.7 928.8199999999999 3041.7H926.53C926.06 3041.7 925.68 3041.3199999999997 925.68 3040.85C925.68 3040.38 926.06 3040 926.53 3040H928.8199999999999C929.55 3040 930.26 3040.19 930.8799999999999 3040.55C931.2899999999998 3040.78 931.4299999999998 3041.3 931.1899999999998 3041.71C931.0299999999999 3041.98 930.7499999999998 3042.14 930.4499999999998 3042.14C930.3099999999998 3042.14 930.1699999999998 3042.1 930.0299999999999 3042.02ZM931.25 3048.69V3044.69C931.25 3044.2200000000003 931.63 3043.84 932.1 3043.84C932.57 3043.84 932.95 3044.2200000000003 932.95 3044.69V3048.69C932.95 3049.16 932.57 3049.54 932.1 3049.54C931.63 3049.54 931.25 3049.16 931.25 3048.69ZM931.25 3056.69V3052.69C931.25 3052.2200000000003 931.63 3051.84 932.1 3051.84C932.57 3051.84 932.95 3052.2200000000003 932.95 3052.69V3056.69C932.95 3057.16 932.57 3057.54 932.1 3057.54C931.63 3057.54 931.25 3057.16 931.25 3056.69ZM931.25 3064.69V3060.69C931.25 3060.2200000000003 931.63 3059.84 932.1 3059.84C932.57 3059.84 932.95 3060.2200000000003 932.95 3060.69V3064.69C932.95 3065.16 932.57 3065.54 932.1 3065.54C931.63 3065.54 931.25 3065.16 931.25 3064.69ZM911.85 3070.69C911.38 3070.69 911 3070.31 911 3069.84C911 3069.3700000000003 911.38 3068.9900000000002 911.85 3068.9900000000002H915.85C916.32 3068.9900000000002 916.7 3069.3700000000003 916.7 3069.84C916.7 3070.31 916.32 3070.69 915.85 3070.69ZM919.85 3070.69C919.38 3070.69 919 3070.31 919 3069.84C919 3069.3700000000003 919.38 3068.9900000000002 919.85 3068.9900000000002H923.85C924.32 3068.9900000000002 924.7 3069.3700000000003 924.7 3069.84C924.7 3070.31 924.32 3070.69 923.85 3070.69ZM928.83 3070.69C930.13 3070.69 931.33 3070.09 932.12 3069.05C932.4 3068.6800000000003 932.33 3068.15 931.95 3067.86C931.58 3067.58 931.0400000000001 3067.65 930.76 3068.03C930.3 3068.6400000000003 929.59 3068.9900000000002 928.83 3068.9900000000002H927.85C927.38 3068.9900000000002 927 3069.3700000000003 927 3069.84C927 3070.31 927.38 3070.69 927.85 3070.69Z"
		fill="#43484d"
		transform="matrix(1,0,0,1,-897,-3033)"/>
	<path
		d="M914.85 3048.7H925.85C926.32 3048.7 926.7 3048.3199999999997 926.7 3047.85C926.7 3047.38 926.32 3047 925.85 3047H914.85C914.38 3047 914 3047.38 914 3047.85C914 3048.3199999999997 914.38 3048.7 914.85 3048.7"
		fill="#43484d"
		transform="matrix(1,0,0,1,-897,-3033)"/>
	<path
		d="M925.85 3054H914.85C914.38 3054 914 3054.38 914 3054.85C914 3055.3199999999997 914.38 3055.7 914.85 3055.7H925.85C926.32 3055.7 926.7 3055.3199999999997 926.7 3054.85C926.7 3054.38 926.32 3054 925.85 3054"
		fill="#43484d"
		transform="matrix(1,0,0,1,-897,-3033)"/>
	<path
		d="M925.85 3061H914.85C914.38 3061 914 3061.38 914 3061.85C914 3062.3199999999997 914.38 3062.7 914.85 3062.7H925.85C926.32 3062.7 926.7 3062.3199999999997 926.7 3061.85C926.7 3061.38 926.32 3061 925.85 3061"
		fill="#43484d"
		transform="matrix(1,0,0,1,-897,-3033)"/>
</svg>
