<svg
	version="1.1"
	xmlns="http://www.w3.org/2000/svg"
	xmlns:xlink="http://www.w3.org/1999/xlink"
	xmlns:svgjs="http://svgjs.com/svgjs"
	width="23"
	height="34"
	viewBox="0 0 23 34">
	<path
		d="M715 2905.03C715 2904.46 714.51 2904 713.9 2904H711.1C710.49 2904 710 2904.46 710 2905.03V2906H715ZM715 2908H710V2930H715ZM714.41 2932H710.5899999999999L712.4999999999999 2934C712.5099999999999 2934 712.5399999999998 2934 712.5499999999998 2933.98ZM713.9 2902C715.61 2902 717 2903.36 717 2905.03V2931.38C717 2931.8900000000003 716.81 2932.37 716.46 2932.75L714.01 2935.35C713.62 2935.77 713.0699999999999 2936 712.5 2936C711.93 2936 711.38 2935.77 711 2935.35L708.55 2932.75C708.1899999999999 2932.37 708 2931.89 708 2931.38V2905.03C708 2903.36 709.39 2902 711.1 2902ZM722 2902H731V2936H722ZM729 2904H724V2934H729V2930H725.58V2928H729V2923H726.58V2921H729V2916H725.58V2914H729V2909H726.58V2907H729Z"
		transform="matrix(1,0,0,1,-708,-2902)"/>
</svg>
