<svg
	version="1.1"
	xmlns="http://www.w3.org/2000/svg"
	xmlns:xlink="http://www.w3.org/1999/xlink"
	xmlns:svgjs="http://svgjs.com/svgjs"
	width="17"
	height="14"
	viewBox="0 0 17 14">
	<path
		d="M1285.53 42.26C1284.86 42.66 1284.11 42.96 1283.31 43.12C1282.6799999999998 42.43 1281.77 42 1280.77 42C1278.84 42 1277.28 43.58 1277.28 45.53C1277.28 45.81 1277.31 46.08 1277.37 46.34C1274.4699999999998 46.190000000000005 1271.8999999999999 44.790000000000006 1270.1799999999998 42.650000000000006C1269.8799999999999 43.17000000000001 1269.7099999999998 43.78000000000001 1269.7099999999998 44.42000000000001C1269.7099999999998 45.650000000000006 1270.3299999999997 46.73000000000001 1271.2599999999998 47.37000000000001C1270.6899999999998 47.35000000000001 1270.1499999999999 47.19000000000001 1269.6799999999998 46.92000000000001L1269.6799999999998 46.970000000000006C1269.6799999999998 48.68000000000001 1270.8799999999999 50.11000000000001 1272.4799999999998 50.43000000000001C1272.1899999999998 50.52000000000001 1271.8799999999999 50.56000000000001 1271.5599999999997 50.56000000000001C1271.3399999999997 50.56000000000001 1271.1199999999997 50.540000000000006 1270.9099999999996 50.50000000000001C1271.3499999999997 51.900000000000006 1272.6399999999996 52.92000000000001 1274.1599999999996 52.95000000000001C1272.9699999999996 53.90000000000001 1271.4699999999996 54.46000000000001 1269.8299999999997 54.46000000000001C1269.5499999999997 54.46000000000001 1269.2699999999998 54.45000000000001 1268.9999999999998 54.41000000000001C1270.5399999999997 55.41000000000001 1272.3799999999999 56.000000000000014 1274.3499999999997 56.000000000000014C1280.7599999999998 56.000000000000014 1284.2699999999998 50.62000000000001 1284.2699999999998 45.94000000000001C1284.2699999999998 45.79000000000001 1284.2699999999998 45.640000000000015 1284.2599999999998 45.49000000000001C1284.9399999999998 44.99000000000001 1285.5299999999997 44.37000000000001 1285.9999999999998 43.66000000000001C1285.3799999999999 43.94000000000001 1284.6999999999998 44.13000000000001 1283.9999999999998 44.21000000000001C1284.7199999999998 43.78000000000001 1285.2699999999998 43.080000000000005 1285.5299999999997 42.260000000000005"
		transform="matrix(1,0,0,1,-1269,-42)"/>
</svg>
