<svg
	version="1.1"
	xmlns="http://www.w3.org/2000/svg"
	xmlns:xlink="http://www.w3.org/1999/xlink"
	xmlns:svgjs="http://svgjs.com/svgjs"
	width="89"
	height="36"
	viewBox="0 0 89 36">
	<path
		d="M1140.32 3764.47C1142.3 3764.43 1144.4399999999998 3764.24 1146.09 3763.0499999999997C1147.03 3762.3799999999997 1147.6899999999998 3760.9799999999996 1146.98 3759.9199999999996C1146.2 3758.93 1144.7 3759.0099999999998 1143.6200000000001 3759.4099999999994C1141.5900000000001 3760.1999999999994 1140.47 3762.3899999999994 1140.3200000000002 3764.4699999999993ZM1089.56 3741.6C1091.51 3742.35 1092.8999999999999 3744.16 1093.3799999999999 3746.16C1094.11 3749.1099999999997 1093.7399999999998 3752.2799999999997 1092.59 3755.0699999999997C1090.86 3755.4599999999996 1088.58 3755.1 1087.6599999999999 3753.43C1088.1599999999999 3751.43 1088.6699999999998 3749.22 1087.8 3747.25C1087.3999999999999 3746.33 1086.25 3745.84 1085.32 3746.27C1084.31 3746.7 1083.9199999999998 3747.85 1083.78 3748.86C1083.49 3751.34 1084.05 3754.05 1085.8 3755.92C1087.25 3757.5 1089.46 3758.25 1091.59 3758.15C1094.47 3758.08 1097.29 3756.81 1099.22 3754.67C1100.72 3754.66 1102.21 3754.66 1103.71 3754.67C1103.71 3758.4 1103.7 3762.14 1103.71 3765.87C1103.75 3767.13 1103.8 3768.52 1104.6100000000001 3769.5499999999997C1105.3200000000002 3770.47 1106.73 3770.37 1107.5700000000002 3769.6899999999996C1108.7600000000002 3768.7799999999997 1109.3600000000001 3767.3399999999997 1109.8600000000001 3765.97C1111.0600000000002 3762.33 1111.46 3758.48 1111.68 3754.6699999999996C1113.22 3754.6599999999994 1114.75 3754.6599999999994 1116.28 3754.6699999999996C1116.33 3755.9399999999996 1116.37 3757.22 1116.42 3758.4999999999995C1117.53 3756.7899999999995 1119.1200000000001 3755.3299999999995 1121.0900000000001 3754.7199999999993C1123.0700000000002 3754.0899999999992 1125.45 3754.209999999999 1127.0900000000001 3755.5999999999995C1128.5700000000002 3756.8599999999997 1129.14 3758.8499999999995 1129.2400000000002 3760.7299999999996C1129.3300000000002 3763.1599999999994 1129.2000000000003 3765.5899999999997 1129.3000000000002 3768.0099999999998C1129.38 3768.8199999999997 1129.6100000000001 3769.8399999999997 1130.4700000000003 3770.1499999999996C1131.5500000000002 3770.49 1132.5500000000002 3769.66 1133.0700000000002 3768.7999999999997C1134.68 3766.22 1134.7800000000002 3763.06 1136.15 3760.3799999999997C1137.3000000000002 3757.9399999999996 1139.27 3755.7599999999998 1141.88 3754.89C1144.25 3754.1099999999997 1146.98 3754.1299999999997 1149.21 3755.3199999999997C1151.07 3756.2999999999997 1152.3 3758.33 1152.28 3760.43C1152.41 3762.49 1151.36 3764.54 1149.66 3765.69C1147.1100000000001 3767.4900000000002 1143.88 3767.83 1140.8400000000001 3767.83C1141.4 3768.81 1142.3000000000002 3769.6 1143.39 3769.92C1146.13 3770.76 1149.2 3770.15 1151.5500000000002 3768.54C1151.5400000000002 3770.16 1151.5600000000002 3771.7799999999997 1151.5400000000002 3773.4C1149.5700000000002 3774.76 1147.0300000000002 3775.02 1144.6900000000003 3774.98C1141.2400000000002 3774.9 1137.6400000000003 3773.2 1136.0400000000002 3770.03C1135.0400000000002 3772.7000000000003 1132.5200000000002 3775.05 1129.5400000000002 3774.9900000000002C1127.5800000000002 3775.0400000000004 1125.64 3773.94 1124.7600000000002 3772.1800000000003C1123.5000000000002 3769.88 1123.9100000000003 3767.1900000000005 1123.8400000000001 3764.6900000000005C1123.8000000000002 3763.2000000000007 1124.0200000000002 3761.6200000000003 1123.38 3760.2300000000005C1122.8100000000002 3759.0900000000006 1121.2600000000002 3759.1400000000003 1120.25 3759.6300000000006C1118.57 3760.4600000000005 1117.77 3762.3400000000006 1117.33 3764.0700000000006C1116.49 3767.5200000000004 1116.8899999999999 3771.1100000000006 1116.78 3774.6300000000006C1114.98 3774.6300000000006 1113.17 3774.6300000000006 1111.37 3774.6300000000006C1111.36 3773.0800000000004 1111.3799999999999 3771.5200000000004 1111.36 3769.9700000000007C1110.59 3771.500000000001 1109.57 3772.9500000000007 1108.1299999999999 3773.9100000000008C1106.2099999999998 3775.2400000000007 1103.55 3775.3600000000006 1101.51 3774.250000000001C1099.81 3773.300000000001 1098.94 3771.400000000001 1098.57 3769.570000000001C1097.97 3766.440000000001 1098.32 3763.230000000001 1098.23 3760.060000000001C1095.74 3761.7600000000007 1092.67 3762.320000000001 1089.71 3762.400000000001C1087.78 3766.340000000001 1085.1200000000001 3769.900000000001 1081.97 3772.930000000001C1080.98 3773.820000000001 1079.94 3774.8700000000013 1078.54 3774.950000000001C1077.28 3774.990000000001 1076.24 3774.150000000001 1075.32 3773.3900000000012C1072.4399999999998 3770.8700000000013 1070.3999999999999 3767.550000000001 1068.8 3764.110000000001C1066.21 3758.500000000001 1064.86 3752.410000000001 1064 3746.320000000001V3746.090000000001C1065.93 3746.1000000000013 1067.85 3746.080000000001 1069.78 3746.1000000000013C1070.32 3750.3900000000012 1071.12 3754.680000000001 1072.59 3758.760000000001C1073.97 3762.6400000000012 1076.03 3766.280000000001 1078.6799999999998 3769.450000000001C1081.06 3767.050000000001 1082.9799999999998 3764.2300000000014 1084.5099999999998 3761.220000000001C1080.7599999999998 3759.280000000001 1078.5799999999997 3755.1400000000012 1078.3499999999997 3751.0200000000013C1078.1299999999997 3748.180000000001 1078.7799999999997 3745.0700000000015 1080.8899999999996 3743.0300000000016C1083.1399999999996 3740.8400000000015 1086.7099999999996 3740.5200000000013 1089.5599999999997 3741.6000000000017ZM1103.68 3745.63C1105.17 3746.98 1105.15 3749.6 1103.68 3750.96C1102.19 3752.35 1099.41 3752.13 1098.3400000000001 3750.33C1097.1000000000001 3748.36 1098.0200000000002 3745.13 1100.5300000000002 3744.7999999999997C1101.63 3744.6099999999997 1102.8500000000001 3744.85 1103.6800000000003 3745.6299999999997Z"
		transform="matrix(1,0,0,1,-1064,-3740)"/>
</svg>
