<svg id="SvgjsSvg1000" xmlns="http://www.w3.org/2000/svg" version="1.1" xmlns:xlink="http://www.w3.org/1999/xlink" xmlns:svgjs="http://svgjs.com/svgjs" width="17" height="17" viewBox="0 0 17 17"><title>Shape</title><desc>Created with Avocode.</desc><defs id="SvgjsDefs1001"></defs><path id="SvgjsPath1007" d="M805.5 578.5H807.17V576.83H805.5ZM805.5 575.17H807.17V570.17H805.5ZM814.67 574.33C814.67 578.9300000000001 810.93 582.6700000000001 806.3299999999999 582.6700000000001C801.7299999999999 582.6700000000001 797.9999999999999 578.9300000000001 797.9999999999999 574.33C797.9999999999999 569.73 801.7299999999999 566 806.3299999999999 566C810.93 566 814.67 569.73 814.67 574.33ZM813 574.33C813 570.6500000000001 810.02 567.6700000000001 806.33 567.6700000000001C802.6500000000001 567.6700000000001 799.6700000000001 570.6500000000001 799.6700000000001 574.33C799.6700000000001 578.0200000000001 802.6500000000001 581 806.33 581C810.0200000000001 581 813 578.02 813 574.33Z " fill-opacity="1" transform="matrix(1,0,0,1,-798,-566)"></path></svg>