<svg id="SvgjsSvg1026" xmlns="http://www.w3.org/2000/svg" version="1.1" xmlns:xlink="http://www.w3.org/1999/xlink" xmlns:svgjs="http://svgjs.com/svgjs" width="18" height="18" viewBox="0 0 18 18"><title>Shape</title><desc>Created with Avocode.</desc><defs id="SvgjsDefs1027"></defs><path id="SvgjsPath1028" d="M373.71 166L373.43 165.73C374.41 164.59 375 163.10999999999999 375 161.5C375 157.91 372.09 155 368.5 155C364.91 155 362 157.91 362 161.5C362 165.09 364.91 168 368.5 168C370.11 168 371.59 167.41 372.73 166.43L373 166.71V167.5L378 172.49L379.49 171L374.5 166ZM368.5 166C366.01 166 364 163.99 364 161.5C364 159.01 366.01 157 368.5 157C370.99 157 373 159.01 373 161.5C373 163.99 370.99 166 368.5 166ZM366 161H371V162H366Z " fill-opacity="1" transform="matrix(1,0,0,1,-362,-155)"></path></svg>