<svg id="SvgjsSvg1023" xmlns="http://www.w3.org/2000/svg" version="1.1" xmlns:xlink="http://www.w3.org/1999/xlink" xmlns:svgjs="http://svgjs.com/svgjs" width="18" height="18" viewBox="0 0 18 18"><title>Combined Shape</title><desc>Created with Avocode.</desc><defs id="SvgjsDefs1024"></defs><path id="SvgjsPath1025" d="M469.71 166L469.43 165.73C470.41 164.59 471 163.10999999999999 471 161.5C471 157.91 468.09 155 464.5 155C460.91 155 458 157.91 458 161.5C458 165.09 460.91 168 464.5 168C466.11 168 467.59 167.41 468.73 166.43L469 166.71V167.5L474 172.49L475.49 171L470.5 166ZM464.5 166C462.01 166 460 163.99 460 161.5C460 159.01 462.01 157 464.5 157C466.99 157 469 159.01 469 161.5C469 163.99 466.99 166 464.5 166ZM467 162H465V164H464V162H462V161H464V159H465V161H467Z " fill-opacity="1" transform="matrix(1,0,0,1,-458,-155)"></path></svg>